
<svg version="1.1" id="Layer_1" xmlns="http://www.w3.org/2000/svg" xmlns:xlink="http://www.w3.org/1999/xlink" x="0px" y="0px"
	 viewBox="0 0 179 104" style="enable-background:new 0 0 179 104;" xml:space="preserve">
<style type="text/css">
	.st0{enable-background:new    ;}
	.st1{fill:#95272B;}
</style>
<title>Asset 17</title>
<g id="Layer_2_1_">
	<g id="Layer_1-2">
		<g class="st0">
			<path class="st1" d="M51.5,51.2c-2.9,0.5-5.3,0.8-7,1c-1.7,0.2-3,0.3-4,0.2c-1-0.1-1.7-0.3-2.2-0.7c-0.5-0.4-1-1-1.6-1.7
				c-0.4-0.6-1-1.4-1.6-2.4c-0.7-1-1.4-2-2.2-3.2c-0.8-1.2-1.6-2.5-2.5-3.8c-0.9-1.3-1.8-2.7-2.7-4.1c-1.2,4.2-3.3,7.6-6.2,10
				c-3,2.4-6.8,4.1-11.6,5.1C8,51.9,6.8,52,6,52s-1.2-0.1-1.2-0.4c0-0.3,0.3-0.6,1.1-1.1c0.7-0.5,1.8-1,3.2-1.6
				c3.6-1.5,6.6-3.6,8.9-6.2s4-5.8,4.9-9.8c-1.4,0.2-2.8,0.4-4.2,0.7c-1.4,0.2-2.8,0.5-4.1,0.8c-1,0.2-1.9,0.4-2.6,0.5
				c-0.7,0.1-1.3,0.1-1.8,0.1c-0.5-0.1-1-0.2-1.4-0.5c-0.4-0.2-0.9-0.6-1.4-1.1c-1.3-1.1-1.8-1.8-1.7-2c0.2-0.2,1.1-0.3,2.8-0.3
				c0.6,0,1.4,0,2.4,0c1-0.1,1.9-0.1,2.8-0.2c1.5-0.2,3.1-0.3,4.7-0.5c1.7-0.2,3.3-0.4,5-0.6c0.2-1.1,0.2-2.2,0.2-3.4
				c0-1.2-0.2-2.2-0.5-3.2c-1.2,0.2-2.2,0.3-3,0.3c-0.8,0.1-1.4,0.1-2,0.1c-0.5,0-1-0.1-1.3-0.2c-0.4-0.1-0.7-0.3-1.1-0.5
				c-1.2-0.7-1.8-1.2-1.8-1.4c0.1-0.2,0.8-0.5,2.3-0.6c1.6-0.2,3.4-0.4,5.4-0.7c2-0.3,3.9-0.7,5.7-1.1c1.2-2,2.2-3.7,2.9-5.2
				c0.7-1.5,1.3-2.8,1.7-3.9c0.4-1.1,0.7-2,0.8-2.7C33,6.5,33,6,32.9,5.5c-0.5-2-0.4-3.2,0.4-3.6C34,1.6,35.7,2.3,38.4,4
				c1.1,0.7,1.9,1.3,2.4,1.8c0.5,0.5,0.9,1,1,1.4c0.1,0.4,0,0.8-0.2,1.1c-0.3,0.3-0.7,0.6-1.2,0.9c-0.3,0.2-0.7,0.4-1,0.7
				c-0.4,0.3-0.9,0.8-1.5,1.4c-0.6,0.6-1.4,1.4-2.3,2.5s-2.1,2.3-3.4,3.9c0.9-0.3,1.7-0.5,2.4-0.7c0.7-0.2,1.3-0.3,1.8-0.4
				c0.5-0.1,1-0.1,1.3,0c0.4,0,0.8,0.1,1.1,0.2c1.8,0.6,2.7,1.3,2.7,2c0,0.7-1,1.3-2.9,1.8c-1.8,0.4-3.4,0.7-5,1
				c-1.6,0.3-3.2,0.5-4.9,0.8c1.1,0.5,1.7,1,1.9,1.4c0.2,0.4,0,1.1-0.5,1.9c-0.2,0.3-0.4,0.7-0.5,1.2c-0.2,0.5-0.4,1.2-0.5,2.1
				c1.9-0.3,3.5-0.6,5-0.9c1.4-0.3,2.6-0.5,3.5-0.7c1.5-0.4,2.7-0.7,3.8-0.8c1.1-0.2,2-0.2,2.8-0.2c0.8,0.1,1.5,0.2,2.1,0.5
				c0.6,0.3,1.2,0.7,1.7,1.1c1.7,1.6,2.3,2.7,1.8,3.3c-0.6,0.6-2.3,0.8-5.3,0.5c-0.7,0-1.5-0.1-2.6-0.1c-1.1,0-2.3,0-3.6,0
				s-2.9,0.1-4.5,0.2c-1.6,0.1-3.4,0.2-5.1,0.4c1,1.1,1.9,2.2,2.9,3.2c1,1,1.9,2,2.9,2.8c0.9,0.9,1.8,1.7,2.6,2.4
				c0.8,0.7,1.5,1.3,2.2,1.7c0.9,0.7,1.7,1.2,2.5,1.8s1.7,1,2.6,1.5c0.9,0.5,1.9,0.9,3.1,1.4c1.1,0.5,2.5,1,4,1.5
				c1.7,0.6,2.5,1.1,2.6,1.6C54,50.5,53.1,50.9,51.5,51.2z M25,14.9c-0.2,0.8-0.4,1.4-0.7,1.9c-0.3,0.5-0.6,0.8-1,0.9
				C23,18,22.6,18,22.2,17.9c-0.4-0.1-0.7-0.3-1-0.5c-0.7-0.6-1.3-1.4-2.1-2.5c-0.7-1.1-1.5-2.5-2.3-4.2c-0.7-1.3-0.8-2.1-0.5-2.4
				C16.7,8,17.6,8,18.9,8.3c1.5,0.3,2.7,0.8,3.5,1.2c0.9,0.5,1.5,1,2,1.6c0.4,0.6,0.7,1.2,0.7,1.8C25.2,13.6,25.2,14.3,25,14.9z"/>
			<path class="st1" d="M111.5,21.2c1.8,2,2.6,3.3,2.3,4c-0.3,0.7-1.9,0.9-4.8,0.5c-2.1-0.3-4.4-0.5-7-0.5s-5.6,0-8.8,0.3
				c0.1,4.5,0.2,8.2,0.3,11.2c0.1,2.9,0.2,5.3,0.4,7.2c0.1,1,0.1,1.9,0.1,2.8c-0.1,0.9-0.3,1.7-0.6,2.4c-0.3,0.8-0.8,1.5-1.4,2.3
				c-0.6,0.7-1.4,1.5-2.4,2.3c-1.1,0.9-2,1.3-2.8,1.1C86,54.6,85.4,54,85,52.9c-0.6-1.6-2.4-3.8-5.4-6.5c-1.3-1.1-1.8-1.9-1.5-2.2
				c0.3-0.3,1.3-0.3,3.2,0.1c1.3,0.3,2.4,0.5,3.2,0.5c0.8,0.1,1.4,0.1,1.8-0.1c0.4-0.1,0.7-0.4,0.8-0.8c0.1-0.4,0.2-1,0.3-1.8
				c0.1-1.2,0.1-2.2,0.2-3.2c0-0.9,0.1-2,0.1-3.1s0-2.5,0-4s0-3.6-0.1-6c-2.6,0.3-5.1,0.6-7.3,0.9c-2.2,0.3-4.2,0.8-5.9,1.3
				c-0.9,0.2-1.6,0.4-2.2,0.5c-0.6,0.1-1.2,0.2-1.7,0.1c-0.5,0-0.9-0.1-1.3-0.3c-0.4-0.2-0.8-0.4-1.2-0.8c-0.9-0.7-1.5-1.2-2-1.6
				c-0.4-0.4-0.7-0.7-0.6-0.9c0-0.2,0.3-0.4,0.8-0.4c0.5-0.1,1.4-0.1,2.5-0.2c1.6-0.1,4-0.3,7.2-0.6c3.2-0.3,7.1-0.8,11.7-1.5
				c0-1.3-0.1-2.3-0.1-3.2c0-0.9-0.1-1.7-0.2-2.4c-0.1-0.7-0.2-1.3-0.4-1.8c-0.2-0.5-0.3-1.1-0.6-1.6c-1.2,0.2-2.2,0.2-3,0.3
				c-0.8,0-1.5,0-2.1,0c-0.6-0.1-1.1-0.2-1.5-0.3c-0.4-0.2-0.8-0.3-1.2-0.6c-1.3-0.7-1.9-1.2-1.8-1.4s0.8-0.4,2.1-0.5
				c1.8-0.1,4-0.4,6.5-0.9c2.5-0.5,5-1.2,7.5-2c1.1-0.3,2-0.6,2.7-0.8c0.7-0.2,1.3-0.3,1.8-0.3c0.5,0,1,0.1,1.4,0.2
				c0.4,0.2,1,0.4,1.6,0.7c1.2,0.6,1.8,1.2,1.8,1.8c-0.1,0.6-0.7,1.1-1.8,1.4c-0.3,0.1-0.7,0.2-1.1,0.3c-0.4,0.1-0.9,0.2-1.6,0.3
				c-0.6,0.1-1.4,0.2-2.3,0.4c-0.9,0.2-2.1,0.3-3.4,0.5c1.4,0.8,2.2,1.5,2.3,2.1c0.1,0.6,0,1.3-0.4,2c-0.3,0.6-0.5,1.2-0.6,1.8
				s-0.1,1.6-0.1,3c2-0.3,3.8-0.6,5.4-0.9c1.6-0.3,3-0.6,4.2-0.8c1.3-0.3,2.4-0.5,3.3-0.6c0.9-0.1,1.7-0.1,2.4,0
				c0.7,0.1,1.2,0.3,1.7,0.6S111,20.7,111.5,21.2z"/>
			<path class="st1" d="M174.3,48.5c0.6,1.5,0.6,2.5,0,3.1c-0.6,0.6-1.8,0.7-3.7,0.1c-1.1-0.3-2.3-0.8-3.5-1.5
				c-1.2-0.7-2.3-1.5-3.5-2.6c-1.1-1.1-2.3-2.4-3.4-3.9s-2.3-3.3-3.3-5.3c-1.2,0.9-2.5,1.6-3.9,2.3s-2.9,1.1-4.7,1.5
				c-2.3,0.5-3.6,0.5-3.6,0.2c-0.1-0.3,1-1.1,3.2-2.5c1.5-0.9,2.7-1.7,3.9-2.6c1.1-0.8,2.2-1.8,3.2-2.9c-0.6-1.4-1.1-3.1-1.7-5.1
				c-0.6-2-1.1-4.2-1.6-6.6c-1.2,0.2-2.3,0.5-3.4,0.7c-1.1,0.2-2.3,0.5-3.6,0.8c0,0.7-0.1,1.3-0.1,2c0,0.7,0,1.4-0.1,2.2
				c4-1.3,6.2-1.7,6.6-1.3c0.4,0.4-0.9,1.3-3.8,2.8c-0.5,0.3-1,0.5-1.5,0.7c-0.5,0.2-0.9,0.5-1.4,0.7c-0.1,1.6-0.1,3-0.1,4.4
				c0,1.4,0,2.5,0.1,3.4c0.2,1.8,0.1,3.3-0.3,4.6c-0.3,1.2-1.1,2.5-2.4,3.8c-1.2,1.3-2.1,1.9-2.8,1.8c-0.6-0.1-1.1-0.7-1.5-2
				c-0.3-0.9-0.7-1.7-1.2-2.5c-0.5-0.8-1.2-1.6-2-2.5c-1.1-1.1-1.7-1.8-1.5-2s1-0.2,2.6,0.2c1.5,0.3,2.5,0.4,3,0.3
				c0.5-0.2,0.8-0.5,0.9-1.1c0.2-0.8,0.3-1.6,0.4-2.6c0.1-1,0.2-2.1,0.3-3.5c-2,1-3.7,1.9-5.1,2.6c-1.4,0.7-2.4,1.3-2.9,1.8
				c-0.7,0.5-1.2,0.9-1.6,1.2c-0.4,0.2-0.9,0.4-1.3,0.3c-0.4,0-0.9-0.2-1.3-0.5c-0.5-0.3-1.1-0.8-1.8-1.4c-0.9-0.8-1.6-1.4-2-1.8
				c-0.4-0.5-0.6-0.8-0.5-1.1c0.1-0.3,0.4-0.5,0.9-0.6c0.6-0.2,1.4-0.3,2.4-0.5c0.8-0.1,1.5-0.2,2.2-0.4c0.7-0.1,1.5-0.3,2.4-0.6
				c0.9-0.3,2.1-0.6,3.5-1.1c1.4-0.4,3.2-1,5.4-1.8c0-0.7,0.1-1.4,0.1-2.2c0-0.7,0-1.5,0.1-2.4c-0.7,0.2-1.3,0.4-2,0.6
				c-0.7,0.2-1.2,0.4-1.8,0.7c-0.7,0.3-1.3,0.6-1.8,0.7s-0.9,0.2-1.4,0.1c-0.4-0.1-0.9-0.2-1.3-0.5c-0.5-0.2-1-0.6-1.7-1.1
				c-0.9-0.7-1.3-1.1-1.2-1.4s0.9-0.5,2.4-0.7c1.2-0.2,2.6-0.4,4.1-0.7c1.5-0.3,3.1-0.6,4.7-0.9c0-1-0.1-1.9-0.3-2.7
				c-0.1-0.7-0.4-1.5-0.7-2.2c-0.9,0.2-1.7,0.4-2.5,0.5c-0.8,0.1-1.6,0.2-2.4,0.3c-2.4,0.3-3.6,0.2-3.6-0.2c-0.1-0.4,1.3-1.2,4-2.4
				c2.4-1.1,4.3-2.2,5.5-3.2c1.2-1,1.9-1.7,2-2c0.2-1,0.5-1.5,0.9-1.6s1.4,0.3,2.8,1.1c2.3,1.3,3.4,2.3,3.6,2.9
				c0.1,0.6-0.7,1.1-2.3,1.6c-0.2,0.1-0.6,0.2-1.2,0.5s-1.5,0.6-2.6,1.1c0.6,0.3,1.1,0.5,1.4,0.7c0.3,0.2,0.6,0.4,0.7,0.6
				c0.1,0.2,0.1,0.5,0.1,0.7c-0.1,0.3-0.2,0.6-0.4,1c-0.1,0.2-0.1,0.5-0.2,0.8c-0.1,0.4-0.1,0.8-0.2,1.2c1.5-0.3,2.7-0.6,3.7-0.9
				c1-0.2,1.8-0.5,2.6-0.7c-0.3-1.4-0.5-2.8-0.7-4.2c-0.2-1.4-0.4-2.9-0.5-4.6c-0.4-3.9-1.1-6.4-2.2-7.6c-0.4-0.4-0.6-0.8-0.7-1.1
				c-0.1-0.3,0-0.5,0.3-0.6c0.3-0.1,0.7-0.1,1.4,0s1.6,0.3,2.7,0.7c1,0.3,1.8,0.6,2.4,0.8s1,0.5,1.2,0.7s0.3,0.6,0.3,0.9
				s-0.2,0.8-0.3,1.4c-0.3,0.8-0.5,1.9-0.5,3.4c-0.1,1.5,0,3.1,0.2,4.8c0.2,1.6,0.3,2.9,0.5,4.1c1.3-0.4,2.4-0.7,3.3-0.9
				s1.6-0.3,2.2-0.4c0.6-0.1,1.1,0,1.6,0.1s0.9,0.3,1.4,0.5c1,0.5,1.7,0.9,2.1,1.3c0.4,0.4,0.6,0.8,0.5,1.2c-0.1,0.3-0.4,0.6-1,0.8
				c-0.6,0.2-1.4,0.3-2.4,0.3c-1,0-2,0-3.2,0.1c-1.2,0.1-2.5,0.3-4,0.6c0.3,1.5,0.7,2.9,1.1,4.1c0.4,1.2,0.9,2.6,1.5,4
				c0.7-1,1.2-2,1.5-2.9c0.4-0.9,0.5-1.7,0.4-2.2c-0.1-0.6-0.1-1-0.1-1.4c0-0.3,0.2-0.6,0.5-0.7c0.3-0.1,0.8,0,1.4,0.1
				c0.6,0.2,1.5,0.5,2.5,1c0.9,0.4,1.6,0.8,2,1.1c0.5,0.3,0.8,0.6,0.9,0.9c0.1,0.3,0.1,0.5-0.1,0.8c-0.2,0.3-0.5,0.6-0.9,0.9
				c-0.2,0.2-0.5,0.3-0.7,0.5c-0.2,0.2-0.5,0.5-0.7,0.8c-0.3,0.3-0.6,0.8-1,1.3c-0.4,0.5-0.9,1.1-1.4,1.9c-0.3,0.5-0.7,0.9-1.1,1.3
				c-0.4,0.4-0.7,0.9-1.1,1.3c0.8,1.6,1.7,3,2.6,4.1c0.9,1.1,2,2.2,3.2,3.3c0.5,0.4,0.9,0.7,1.3,0.9c0.4,0.2,0.7,0.2,1,0.1
				c0.3-0.2,0.6-0.5,0.8-1.1c0.2-0.6,0.5-1.3,0.8-2.4c1-3.2,1.7-4.8,2.1-4.8c0.4,0,0.6,1.7,0.6,4.9c0,1.9,0.1,3.5,0.3,4.8
				S173.9,47.4,174.3,48.5z M166.4,10.2c0.4,0.8,0.6,1.5,0.5,2.2s-0.2,1.1-0.6,1.5c-0.3,0.3-0.8,0.5-1.4,0.5c-0.6,0-1.3-0.2-2-0.5
				c-1-0.5-1.9-1.1-2.7-1.8c-0.8-0.7-1.5-1.3-2-2.1c-1.1-1.4-1.6-2.3-1.4-2.6c0.2-0.3,1.1-0.5,2.8-0.4c1.1,0.1,2,0.2,2.7,0.3
				c0.7,0.1,1.4,0.3,1.9,0.5c0.5,0.2,0.9,0.5,1.2,0.9C165.8,9.1,166.1,9.6,166.4,10.2z"/>
		</g>
	</g>
</g>
<g class="st0">
	<path class="st1" d="M5.6,69.5c0-1.9,1.7-3,2-3.2c0.2-0.1,0.4-0.2,0.5-0.2c0.1,0,0.2,0.1,0.2,0.1s-0.1,0.2-0.2,0.3
		c-0.3,0.2-1,1.1-1,2c0,0.2,0.1,0.5,0.3,0.5c0.2,0.1,0.9,0.3,0.9,1.2c0,0.6-0.5,1-1.1,1C6.4,71.4,5.6,70.7,5.6,69.5z M9,69.5
		c0-1.9,1.7-3,2-3.2c0.2-0.1,0.4-0.2,0.5-0.2c0.1,0,0.2,0.1,0.2,0.1s-0.1,0.2-0.2,0.3c-0.3,0.2-1,1.1-1,2c0,0.2,0.1,0.5,0.3,0.5
		c0.2,0.1,0.9,0.3,0.9,1.2c0,0.6-0.5,1-1.1,1C9.8,71.4,9,70.7,9,69.5z"/>
	<path class="st1" d="M14.2,74.3c-0.1,0.4-1,2.8-1,3.4c0,0.4,0.2,0.8,0.7,0.8h0.6c0.2,0,0.2,0.1,0.2,0.1v0.4c0,0.1,0,0.2-0.2,0.2
		c-0.2,0-1-0.1-2.4-0.1c-1.3,0-1.7,0.1-2,0.1C10,79.2,10,79.1,10,79v-0.3c0-0.1,0-0.2,0.1-0.2h0.5c0.4,0,0.9-0.3,1.2-0.8
		c0.3-0.4,1.5-3.5,2.1-5.1c0.1-0.4,1.6-4.2,1.8-4.7c0.1-0.2,0.1-0.4,0-0.6c-0.1-0.1-0.1-0.2-0.1-0.2c0-0.1,0-0.1,0.2-0.2
		c0.6-0.1,1.7-0.6,2-0.9c0.1-0.1,0.1-0.2,0.2-0.2c0.1,0,0.1,0.1,0.2,0.3c0.3,1.1,1.7,5.2,2.1,6.3c0.4,1.4,1.6,4.8,1.8,5.2
		c0.3,0.6,0.8,0.8,1,0.8h0.6c0.1,0,0.1,0.1,0.1,0.2V79c0,0.1,0,0.2-0.2,0.2c-0.3,0-0.7-0.1-3-0.1c-1.5,0-2.1,0.1-2.5,0.1
		c-0.2,0-0.2-0.1-0.2-0.2v-0.3c0-0.1,0-0.2,0.1-0.2h0.5c0.5,0,0.6-0.2,0.5-0.6c-0.2-0.6-0.9-3-1.1-3.6H14.2z M18,73.5l-1.4-4.8
		c-0.1-0.3-0.1-0.4-0.2-0.4c-0.1,0-0.2,0.1-0.2,0.2c-0.1,0.2-1.6,4.5-1.8,4.9H18z"/>
	<path class="st1" d="M26,71.4c0-0.7,0-2.9-0.1-3.2c-0.1-1-0.3-1.1-0.9-1.1h-0.6c-0.1,0-0.1,0-0.1-0.2v-0.4c0-0.1,0-0.2,0.1-0.2
		c0.2,0,1.1,0.1,2.8,0.1c0.6,0,1.7-0.1,2.9-0.1c1.3,0,2.4,0.1,3.1,0.5c1,0.6,1.4,1.4,1.4,2.4c0,1.2-0.7,2.3-2.6,3v0
		c2.2,0.6,3.4,1.7,3.4,3.6c0,1-0.5,2.3-1.4,2.7c-0.7,0.4-2,0.7-4.2,0.7c-0.2,0-0.6,0-1.1-0.1c-0.5,0-1.1-0.1-1.4-0.1
		c-0.9,0-1.5,0-1.9,0c-0.4,0-0.6,0-0.7,0c-0.2,0-0.2-0.1-0.2-0.2v-0.4c0-0.1,0-0.1,0.2-0.1h0.6c0.5,0,0.6-0.2,0.7-0.8
		C26,77.3,26,75,26,73.5V71.4z M28.6,72.1c0.7,0.1,1.9,0,2.4-0.5c0.6-0.5,0.9-1.3,0.9-2.1c0-0.7-0.2-1.4-0.7-1.8
		c-0.6-0.5-1.5-0.6-1.7-0.6c-0.4,0-0.8,0-0.8,0.3c0,0.4-0.1,1.9-0.1,3.4V72.1z M28.6,76.3c0,1.7,0.4,2.4,1.4,2.4
		c1.3,0,2.5-0.6,2.5-2.9c0-1.5-0.6-2.4-1.6-2.8c-0.9-0.3-1.8-0.3-2.2-0.3V76.3z"/>
	<path class="st1" d="M39.7,78.3c-1.3-0.8-2.6-2.7-2.6-5.3c0-1.1,0.3-2.8,1.7-4.5c1.6-1.9,3.6-2.3,5.2-2.3c1.5,0,2.9,0.2,4.4,1.4
		c1.4,1.1,2.5,2.9,2.5,5.4c0,1.3-0.4,2.7-1.4,3.9c-1.2,1.5-2.7,2.5-5.5,2.5C42.7,79.5,41.2,79.2,39.7,78.3z M48,73.1
		c0-3.9-2.6-6.1-4.1-6.1c-0.4,0-1.3-0.1-2.4,1c-1.1,1-1.6,2.9-1.6,4.4c0,4.6,2.6,6.2,4.1,6.2C47.4,78.6,48,74.6,48,73.1z"/>
	<path class="st1" d="M53.5,68.1c0-0.6-0.1-0.9-0.5-0.9h-0.8c-0.1,0-0.1,0-0.1-0.2v-0.4c0-0.1,0-0.1,0.2-0.1c0.2,0,1.1,0.1,3,0.1
		c1.6,0,2.4-0.1,2.6-0.1c0.1,0,0.2,0,0.2,0.1V67c0,0.1,0,0.1-0.1,0.1h-0.6c-0.6,0-0.9,0.3-1,0.7c0,0.2,0,1.4,0,2.3v1.2
		c0,1,0.1,3.2,0.1,3.8c0,0.8,0.2,1.6,0.6,2.1c0.6,0.7,1.4,1,2.3,1c0.7,0,1.6-0.3,2.1-0.8c0.7-0.6,1.1-1.6,1.1-2.9v-2.8
		c0-1.5-0.2-3.5-0.3-3.9c-0.1-0.5-0.4-0.8-0.7-0.8h-0.6c-0.1,0-0.1-0.1-0.1-0.1v-0.5c0-0.1,0-0.1,0.1-0.1c0.2,0,1,0.1,2.2,0.1
		c1,0,1.5-0.1,1.7-0.1c0.2,0,0.2,0.1,0.2,0.2V67c0,0.1,0,0.2-0.1,0.2h-0.6c-0.7,0-0.7,0.5-0.8,0.7c0,0.3,0,2.7,0,3s0,3.4-0.1,4.1
		c-0.1,1.5-0.6,2.6-1.5,3.4c-0.8,0.7-2,1.1-3.2,1.1c-0.8,0-2-0.1-2.8-0.5c-0.9-0.4-1.7-1.2-2.1-2.4c-0.3-0.8-0.4-2-0.4-4.3V68.1z"/>
	<path class="st1" d="M71,67.3h-0.6c-0.6,0-1.7,0-2.4,0.3c-0.4,0.3-1.2,1.4-1.6,2c-0.1,0.1-0.1,0.1-0.2,0.1l-0.4-0.1
		c-0.1,0-0.1-0.1-0.1-0.2c0.2-0.8,0.8-3.1,0.9-3.5c0.1-0.2,0.1-0.3,0.3-0.3s0.2,0.1,0.3,0.3c0.2,0.3,0.5,0.4,1.2,0.5
		c1,0.1,1.7,0.1,3.6,0.1h1c2,0,2.7-0.1,3.5-0.1c0.4,0,1.1-0.2,1.3-0.5c0.2-0.2,0.3-0.3,0.4-0.3s0.2,0.1,0.2,0.3l0.5,3.6
		c0,0.1,0,0.1-0.1,0.2l-0.4,0.1c-0.1,0-0.1,0-0.2-0.2c-0.4-0.6-1.1-1.6-1.5-2c-0.5-0.3-2.1-0.3-2.5-0.3h-0.6v5c0,0.3,0,5.3,0,5.6
		c0,0.5,0.2,0.7,0.6,0.7h0.8c0.2,0,0.2,0.1,0.2,0.2v0.4c0,0.1,0,0.1-0.2,0.1c-0.2,0-0.8-0.1-2.8-0.1c-1.9,0-2.7,0.1-2.9,0.1
		c-0.1,0-0.2-0.1-0.2-0.2v-0.3c0-0.1,0-0.2,0.1-0.2h0.9c0.4,0,0.6-0.2,0.6-0.5c0-0.4,0-5.9,0-6.2V67.3z"/>
	<path class="st1" d="M85.8,76.8c0.1,0.7,0.3,1.7,0.9,1.7h0.7c0.1,0,0.1,0.1,0.1,0.1v0.5c0,0.1,0,0.1-0.2,0.1c-0.2,0-0.7-0.1-2-0.1
		c-1.5,0-2.2,0.1-2.3,0.1c-0.1,0-0.2,0-0.2-0.2v-0.5c0-0.1,0-0.1,0.1-0.1h0.7c0.6,0,0.8-0.8,0.9-1.4c0.2-1.3,0.3-5.5,0.3-5.9l0-2.8
		c0-0.8-0.2-1.4-1-1.4h-0.6c-0.1,0-0.1-0.1-0.1-0.1v-0.5c0-0.1,0-0.1,0.1-0.1c0.2,0,0.7,0.1,2.8,0.1c0.8,0,1.4-0.1,1.6-0.1
		c0.2,0,0.3,0,0.4,0.3c1.2,3.1,2.4,6,3.5,8.8c0.2-0.3,1.6-3.7,1.7-3.9c0.1-0.2,1.9-4.5,2-4.8c0.1-0.2,0.3-0.2,0.8-0.2
		c2.8,0,3.4-0.1,3.6-0.1c0.1,0,0.1,0.1,0.1,0.2V67c0,0.1,0,0.2-0.1,0.2h-0.8c-0.4,0-0.5,0.3-0.5,0.7c0,0.3,0,4.7,0,5.1
		c0,0.4,0.1,4.3,0.1,4.6c0,0.7,0.2,1,0.4,1h0.9c0.1,0,0.1,0.1,0.1,0.1v0.5c0,0.1,0,0.2-0.2,0.2c-0.2,0-0.5-0.1-2.7-0.1
		c-1.8,0-2.5,0.1-2.8,0.1c-0.1,0-0.1-0.1-0.1-0.2v-0.5c0-0.1,0-0.1,0.1-0.1h1c0.3,0,0.5-0.1,0.5-0.6c0-0.2,0.1-3.5,0.1-4.8v-5.5
		h-0.1c-0.2,0.3-2.2,5.2-2.5,5.9c-0.4,0.8-2,4.8-2.1,5C91.1,78.7,91,79,90.7,79c-0.1,0-0.2-0.1-0.3-0.3c-0.1-0.1-2.4-5.7-2.6-6
		c-0.3-0.8-2-4.9-2.1-5.1c-0.1,0.3-0.1,4.8-0.1,5C85.6,72.8,85.6,75.3,85.8,76.8z"/>
	<path class="st1" d="M105.4,72.3c0.8,0,1.6-0.1,1.8-0.1c0.3-0.1,0.6-0.2,0.8-0.6c0.2-0.3,0.4-0.8,0.4-1.1c0-0.1,0.1-0.2,0.1-0.2
		l0.5,0.1c0.1,0,0.2,0,0.1,0.1c-0.1,0.3-0.1,1.2-0.1,1.9c0,0.8,0.1,1.7,0.1,2.1c0,0.1-0.1,0.1-0.1,0.1l-0.4,0.1
		c-0.1,0-0.1,0-0.1-0.1c-0.1-0.3-0.3-0.7-0.4-0.9c-0.2-0.3-0.6-0.6-1-0.6c-0.5-0.1-1-0.1-1.8-0.1V74c0,1,0.1,2.7,0.1,3
		c0,0.9,0.2,1.3,0.4,1.4c0.3,0.1,0.6,0.2,1.5,0.2c0.3,0,1.1,0,1.4-0.1c0.4,0,0.9-0.2,1.4-0.6c0.5-0.4,1.5-1.5,1.8-1.9
		c0.1-0.1,0.1-0.1,0.2-0.1l0.3,0.2c0.1,0,0.1,0.1,0.1,0.1l-0.8,2.7c-0.1,0.2-0.2,0.3-0.4,0.3c-0.1,0-0.5,0-1.6,0c-1.2,0-3.1,0-6.2,0
		c-0.7,0-1.2,0-1.5,0c-0.4,0-0.6,0-0.8,0c-0.1,0-0.2-0.1-0.2-0.2v-0.4c0-0.1,0.1-0.2,0.2-0.2h0.5c0.8,0,0.9-0.1,0.9-0.8v-6
		c0-1.5,0-3.7-0.1-3.9c-0.1-0.6-0.3-0.7-0.7-0.7h-0.7c-0.1,0-0.1-0.1-0.1-0.2v-0.4c0-0.1,0-0.1,0.1-0.1c0.4,0,1,0.1,2.7,0.1l6.3,0
		c0.3,0,0.6,0,0.7,0s0.1,0,0.1,0.1c0.1,0.3,0.7,2.7,0.7,2.9c0,0.1,0,0.1-0.1,0.2l-0.3,0.1c-0.1,0-0.2,0-0.2-0.1
		c-0.1-0.1-1.7-1.8-2.1-2c-0.4-0.2-0.9-0.5-1.4-0.5l-2.4-0.1L105.4,72.3z"/>
	<path class="st1" d="M116.4,68c0,1.9-1.7,3-2,3.2c-0.2,0.1-0.4,0.2-0.5,0.2c-0.1,0-0.2-0.1-0.2-0.1s0.1-0.2,0.2-0.3
		c0.3-0.2,1-1.1,1-2c0-0.2-0.1-0.5-0.3-0.5c-0.2-0.1-0.9-0.3-0.9-1.2c0-0.6,0.5-1,1.1-1C115.5,66.2,116.4,66.8,116.4,68z M119.8,68
		c0,1.9-1.7,3-2,3.2c-0.2,0.1-0.4,0.2-0.5,0.2c-0.1,0-0.2-0.1-0.2-0.1s0.1-0.2,0.2-0.3c0.3-0.2,1-1.1,1-2c0-0.2-0.1-0.5-0.3-0.5
		c-0.2-0.1-0.9-0.3-0.9-1.2c0-0.6,0.5-1,1.1-1C118.9,66.2,119.8,66.8,119.8,68z"/>
</g>
</svg>
