<?xml version="1.0" encoding="utf-8"?>
<!-- Generator: Adobe Illustrator 22.1.0, SVG Export Plug-In . SVG Version: 6.00 Build 0)  -->
<svg version="1.1" id="Layer_1" xmlns="http://www.w3.org/2000/svg" xmlns:xlink="http://www.w3.org/1999/xlink" x="0px" y="0px"
	 viewBox="0 0 178 104" style="enable-background:new 0 0 178 104;" xml:space="preserve">
<style type="text/css">
	.st0{enable-background:new    ;}
	.st1{fill:#95272B;}
</style>
<title>Asset 5</title>
<g id="Layer_2_1_">
	<g id="Layer_1-2">
		<g class="st0">
			<path class="st1" d="M23.1,35.9c-1.3,0.7-2.5,1.3-3.7,1.9c-1.2,0.6-2.2,1.2-3.2,1.8c-0.9,0.6-1.7,1.1-2.4,1.6
				c-0.7,0.5-1.1,0.8-1.4,1.1c-0.7,0.7-1.2,1.1-1.6,1.4c-0.4,0.3-0.8,0.4-1.1,0.3s-0.7-0.4-1-0.9c-0.3-0.5-0.7-1.3-1.1-2.3
				c-0.3-0.8-0.6-1.4-0.7-1.9c-0.1-0.5-0.1-0.8-0.1-1.1c0.1-0.3,0.3-0.5,0.6-0.7c0.3-0.2,0.8-0.3,1.3-0.5c0.8-0.3,1.5-0.7,2-1.2
				c0.5-0.5,1.1-1.3,1.6-2.2c0.5-0.9,1-1.8,1.3-2.8c0.4-1,0.6-2,0.7-3c-0.8,0.2-1.6,0.4-2.5,0.7c-0.8,0.2-1.5,0.5-2.1,0.8
				c-0.7,0.4-1.3,0.7-1.8,0.9C7.8,29.9,7.4,30,7,29.9c-0.4,0-0.8-0.2-1.2-0.4c-0.4-0.2-1-0.6-1.6-1.2c-1.5-1.2-2.1-2-2-2.5
				c0.1-0.4,1-0.6,2.6-0.5c0.6,0,1.5,0,2.6-0.1c1.1-0.1,2.3-0.3,3.6-0.5c1.3-0.2,2.7-0.5,4.1-0.8c1.4-0.3,2.8-0.7,4.1-1
				c1.3-0.3,2.4-0.6,3.2-0.8c0.8-0.2,1.5-0.3,2.1-0.3c0.6,0,1.1,0,1.6,0.1s1,0.3,1.5,0.5c1.6,0.6,2.3,1.3,2.1,2
				c-0.2,0.7-1.3,1.1-3.1,1.1c-0.7,0-1.7,0.1-3.2,0.3c-1.5,0.2-3,0.5-4.7,0.8c0.6,0.6,1.1,1,1.3,1.4c0.3,0.4,0.4,0.7,0.4,0.9
				c0,0.3-0.1,0.5-0.2,0.7c-0.2,0.2-0.4,0.4-0.7,0.5c-0.3,0.2-0.6,0.4-0.9,0.6c-0.3,0.2-0.6,0.6-0.9,1c-0.4,0.5-0.8,1.1-1.3,1.8
				c-0.5,0.7-1.2,1.7-2,2.9c0.8-0.2,1.6-0.5,2.3-0.7c0.7-0.2,1.4-0.4,2-0.7c0.6-0.2,1.3-0.5,1.9-0.7c0.6-0.2,1.2-0.5,1.9-0.8
				c-0.5-1.4-0.8-2.5-0.9-3.3s-0.2-1.3-0.1-1.6c0.1-0.3,0.4-0.3,0.8-0.1c0.4,0.2,1,0.6,1.8,1.1c1.2,0.8,2.1,1.6,2.8,2.4
				c0.7,0.8,1.2,1.5,1.5,2.2c0.3,0.7,0.5,1.4,0.5,2c0,0.6-0.1,1.1-0.3,1.6c-0.4,1-0.8,1.7-1.3,2.2c-0.4,0.5-0.9,0.7-1.3,0.5
				c-0.4-0.1-0.9-0.5-1.3-1.3C24.1,38.5,23.6,37.4,23.1,35.9z M19.2,17.9c-1,0.2-1.9,0.3-2.6,0.4c-0.7,0.1-1.3,0.1-1.8,0.1
				c-0.5,0-1,0-1.4-0.1c-0.4-0.1-0.9-0.2-1.4-0.4c-1.2-0.5-1.7-1-1.6-1.4c0.2-0.4,0.8-0.8,2.1-1c1.8-0.3,3.2-0.6,4.3-1
				c1.1-0.4,2.2-0.8,3.2-1.2c1.3-0.6,2.4-0.9,3.2-0.9c0.8,0,1.7,0.2,2.5,0.7c1,0.6,1.5,1.2,1.5,1.8s-0.3,1-1,1.2
				c-1,0.3-2.1,0.7-3.4,1C21.5,17.5,20.3,17.7,19.2,17.9z M49.4,32.7c-0.2,2.3-0.5,4.3-0.8,6.1c-0.3,1.8-0.8,3.4-1.3,4.7
				c-0.6,1.4-1.2,2.6-2.1,3.6c-0.8,1-1.8,1.9-3,2.7c-1.1,0.8-2,1.1-2.8,0.9c-0.7-0.2-1.1-0.7-1.3-1.6c-0.1-0.8-0.3-1.7-0.7-2.8
				c-0.4-1.1-1.1-2.5-2.1-4.1c-0.7-1-0.8-1.7-0.5-2c0.3-0.3,1.1-0.1,2.4,0.6c0.8,0.4,1.4,0.7,1.9,0.8c0.5,0.2,0.9,0.2,1.2,0.2
				c0.3-0.1,0.6-0.2,0.8-0.6c0.2-0.3,0.4-0.8,0.7-1.3c0.3-0.7,0.7-1.6,0.9-2.8c0.3-1.2,0.6-2.4,0.8-3.8c0.2-1.4,0.5-2.8,0.6-4.2
				s0.3-2.8,0.4-4c0.1-1,0.1-1.7,0.1-2.3c0-0.6,0-1-0.1-1.3c-0.1-0.3-0.2-0.5-0.4-0.5c-0.2-0.1-0.4-0.1-0.7-0.1
				c-0.5,0-1.1,0.1-1.8,0.1c-0.7,0.1-1.4,0.2-2.1,0.4c-0.8,4.4-1.8,8.2-2.8,11.3c-1,3.2-2.3,5.9-3.8,8.2c-1.5,2.3-3.2,4.3-5.3,6.1
				c-2,1.7-4.4,3.4-7.2,4.9c-2.4,1.3-3.7,1.8-4,1.4c-0.3-0.4,0.6-1.4,2.7-3.1c2.2-1.8,4.1-3.7,5.7-5.6c1.6-1.9,3-4,4.1-6.2
				c1.2-2.2,2.1-4.6,2.9-7.1c0.8-2.5,1.4-5.2,2-8.1c-0.9,0.3-1.6,0.4-2.2,0.3c-0.5,0-1.2-0.2-2-0.6c-1.7-1-2.5-1.6-2.3-2
				c0.2-0.4,1-0.6,2.5-0.7c0.6,0,1.3-0.1,2.1-0.3c0.8-0.2,1.7-0.4,2.6-0.6c0.3-1.9,0.5-3.6,0.7-5c0.2-1.4,0.3-2.6,0.3-3.6
				c0-1,0-1.8-0.1-2.5c-0.1-0.7-0.3-1.2-0.6-1.6c-1.2-1.8-1.4-2.9-0.6-3.4c0.8-0.4,2.4,0,4.9,1.2c1.1,0.6,1.9,1.1,2.5,1.5
				c0.6,0.4,1,0.8,1.2,1.2c0.2,0.4,0.2,0.7,0.1,1.1c-0.1,0.4-0.3,0.8-0.6,1.3c-0.2,0.2-0.3,0.5-0.4,0.8c-0.1,0.3-0.2,0.8-0.4,1.3
				c-0.2,0.6-0.3,1.4-0.5,2.4s-0.4,2.2-0.7,3.8c0.7-0.2,1.3-0.5,2-0.7c0.6-0.2,1.1-0.5,1.6-0.8c0.4-0.2,0.7-0.4,1-0.5
				c0.3-0.1,0.7-0.1,1-0.1c0.4,0.1,0.8,0.2,1.4,0.4c0.5,0.2,1.2,0.6,2,1c1,0.6,1.8,1.1,2.4,1.5c0.5,0.4,0.9,0.8,1,1.1
				c0.2,0.3,0.1,0.7-0.1,1.1c-0.2,0.4-0.6,0.8-1.1,1.3c-0.3,0.3-0.6,0.8-0.8,1.3c-0.2,0.5-0.4,1.2-0.6,2c-0.2,0.8-0.4,1.9-0.5,3
				C49.7,29.6,49.5,31,49.4,32.7z"/>
			<path class="st1" d="M82.5,21.3c-0.8,0.3-1.6,0.7-2.3,0.9c-0.7,0.3-1.4,0.5-2.2,0.7c-0.1,0.9-0.1,1.8-0.1,2.7
				c0,0.9,0,1.8-0.1,2.8c1-0.6,1.8-1,2.6-1.3c0.7-0.3,1.2-0.3,1.3-0.1c0.2,0.2,0,0.7-0.8,1.6c-0.8,0.9-1.8,1.8-3.2,2.8
				c0,1.3,0,2.7,0,4.2s0,3,0.1,4.7c0,1.1,0.1,2.1,0.1,2.8c0,0.7,0,1.3,0,1.9c0,0.5-0.1,1-0.1,1.5c-0.1,0.5-0.1,1-0.3,1.6
				c-0.2,1.1-0.5,2-0.9,2.7c-0.4,0.7-0.9,1-1.5,1c-0.5,0-1.1-0.3-1.7-0.9c-0.6-0.6-1.1-1.7-1.6-3.1c-0.3-0.8-0.4-1.6-0.3-2.4
				c0.1-0.8,0.4-1.9,0.9-3.2c0.1-0.3,0.2-0.6,0.3-0.9c0.1-0.3,0.2-0.8,0.2-1.3c0.1-0.5,0.1-1.2,0.2-2.1c0.1-0.8,0.1-1.9,0.2-3.2
				c-1.3,1-2.6,2.1-3.8,3.1c-1.2,1-2,1.9-2.5,2.7c-0.3,0.5-0.6,0.8-0.8,1.1c-0.2,0.2-0.5,0.4-0.9,0.3c-0.3,0-0.7-0.2-1.2-0.5
				c-0.5-0.3-1.1-0.7-1.9-1.3c-1-0.8-1.7-1.4-2.2-1.9c-0.4-0.5-0.6-0.9-0.5-1.3c0.1-0.3,0.4-0.6,1-0.8c0.6-0.2,1.4-0.4,2.5-0.5
				c0.9-0.1,2.2-0.6,4-1.3c1.8-0.8,4-1.9,6.6-3.3c0.1-1,0.1-2.1,0.2-3.2c0-1.1,0.1-2.4,0.2-3.8c-1,0.2-2,0.3-2.9,0.3
				c-0.9,0-1.7-0.1-2.5-0.3c-0.7,1.1-1.4,2.1-2.1,2.8c-0.7,0.7-1.7,1.5-2.9,2.2c-1.1,0.7-1.8,0.9-2,0.7c-0.2-0.2,0.1-0.8,0.7-1.7
				c0.7-1,1.4-2.1,2.1-3.5c0.7-1.4,1.3-2.7,1.7-4.1c0.6-1.8,0.7-3.3,0.3-4.3c-0.4-1.3-0.4-2.2,0-2.6c0.4-0.4,1.6-0.1,3.5,0.8
				c1,0.5,1.7,0.9,2.2,1.2c0.5,0.4,0.8,0.7,0.9,1.1c0.1,0.3,0.1,0.7-0.1,1c-0.2,0.3-0.5,0.7-0.9,1.1c-0.4,0.5-0.8,0.9-1.1,1.3
				c-0.3,0.4-0.7,0.9-1.1,1.6c1.1-0.2,2.5-0.6,4.2-1.3c0.2-4.5,0.2-8.1-0.1-10.7c-0.2-2.6-0.7-4.2-1.3-4.9c-1.6-1.6-2.1-2.7-1.5-3.2
				c0.6-0.6,2.4-0.4,5.5,0.5c1.1,0.3,1.9,0.7,2.5,1c0.6,0.3,1,0.6,1.2,0.9c0.2,0.3,0.3,0.7,0.1,1.1S80,6,79.7,6.6
				c-0.2,0.3-0.4,0.7-0.5,1.2c-0.1,0.4-0.2,1.1-0.3,2c-0.1,0.9-0.2,2-0.3,3.4c-0.1,1.4-0.2,3.2-0.3,5.5c0.9-0.3,1.6-0.5,2.3-0.6
				c0.6-0.1,1.3,0,2,0.1c1.3,0.3,1.9,0.8,2,1.4C84.5,20.2,83.9,20.7,82.5,21.3z M109.8,22.8c-0.3,0.3-0.5,0.7-0.7,1.1
				c-0.2,0.4-0.4,0.9-0.6,1.7c-0.2,0.7-0.4,1.8-0.7,3s-0.5,3-0.9,5.1c-0.4,2.5-0.9,4.7-1.3,6.5c-0.5,1.8-1,3.3-1.6,4.6
				s-1.2,2.3-2,3.2c-0.7,0.8-1.5,1.6-2.3,2.1c-1.2,0.8-2.2,1.1-2.9,0.9s-1.1-0.8-1.3-1.7c-0.2-1.2-0.5-2.2-0.8-3
				c-0.3-0.8-0.8-1.8-1.5-2.8c-1-1.5-1.3-2.3-1.1-2.5c0.2-0.2,1,0.1,2.5,0.7c0.7,0.3,1.2,0.5,1.6,0.7c0.4,0.2,0.8,0.2,1.1,0.2
				c0.3,0,0.6-0.1,0.8-0.3c0.2-0.2,0.4-0.4,0.6-0.7c0.5-0.9,1.1-2.1,1.6-3.8c0.5-1.6,1-3.4,1.3-5.2c0.4-1.9,0.7-3.7,0.9-5.6
				c0.2-1.9,0.3-3.5,0.2-4.9c0-0.7-0.2-1.1-0.4-1.3c-0.2-0.2-0.5-0.2-1-0.2c-0.5,0.1-0.9,0.2-1.3,0.2c-0.4,0.1-0.9,0.2-1.4,0.2
				c1,0.7,1.7,1.3,2.2,1.8c0.5,0.5,0.8,0.9,0.9,1.3c0.1,0.4,0.1,0.7,0,0.9c-0.1,0.2-0.4,0.5-0.7,0.7c-0.4,0.2-0.8,0.5-1,0.9
				c-0.3,0.4-0.6,1-1,1.8c-1.5,2.9-2.8,5.3-4,7.1c-1.2,1.9-2.4,3.5-3.6,4.7s-2.6,2.3-4,3.2c-1.4,0.8-3.1,1.7-5.1,2.5
				c-1.8,0.8-2.8,1.1-2.8,0.9c-0.1-0.2,0.7-1,2.3-2.4c2-1.6,3.8-3.4,5.4-5.3c1.7-1.9,3.1-3.9,4.3-5.8c1.2-2,2.2-4,2.9-5.9
				c0.7-2,1-3.9,1-5.7c-0.6,0.1-1.1,0.2-1.6,0.3c-0.5,0.1-1,0.2-1.6,0.3c1.2,0.9,1.8,1.6,1.9,2.2c0.1,0.5-0.2,1.1-0.8,1.6
				c-0.5,0.4-0.9,0.7-1.1,1c-0.2,0.2-0.5,0.5-0.7,0.9c-0.7,1-1.3,2-2,2.8s-1.3,1.5-2.1,2.2s-1.6,1.3-2.5,1.8
				c-0.9,0.6-1.9,1.1-3.1,1.6c-1.3,0.7-2.1,0.9-2.2,0.7s0.3-0.7,1.4-1.7c0.9-0.9,1.8-1.9,2.7-2.9c0.9-1.1,1.6-2.2,2.4-3.3
				c0.7-1.1,1.3-2.2,1.8-3.2c0.5-1.1,0.8-2,0.9-2.9H88c-0.5,0.6-1.1,1.1-1.7,1.6c-0.6,0.5-1.2,1-2,1.6c-1.2,0.9-1.9,1.2-2.2,1
				c-0.2-0.2,0.1-1,1.1-2.4c1.1-1.6,2.2-3.4,3.1-5.3c0.9-1.9,1.6-3.7,2.2-5.4s1-3.3,1.1-4.7c0.2-1.4,0.2-2.5-0.1-3.2
				c-0.9-2.1-0.9-3.3-0.2-3.7c0.7-0.4,2.3,0,4.8,1.4c1.2,0.7,2.1,1.2,2.7,1.7c0.6,0.5,1,0.9,1.2,1.3c0.2,0.4,0.1,0.7-0.1,1.1
				S97.4,8.6,96.9,9c-0.5,0.4-0.9,0.9-1.2,1.3c-0.3,0.4-0.7,1.1-1.1,2c-0.9,1.7-1.7,3.2-2.3,4.4c-0.7,1.2-1.3,2.3-1.9,3.2
				c1-0.1,2-0.3,3.1-0.5c1.1-0.2,2.2-0.5,3.2-0.8c1-0.3,2-0.6,2.8-1c0.8-0.4,1.5-0.7,1.9-1.1c0.4-0.3,0.8-0.5,1.1-0.7
				c0.3-0.2,0.7-0.2,1.1-0.2s0.9,0.2,1.4,0.5c0.6,0.3,1.3,0.7,2.2,1.3c1,0.7,1.8,1.2,2.3,1.6c0.6,0.4,0.9,0.9,1.1,1.3
				c0.2,0.4,0.2,0.8,0,1.2C110.5,21.8,110.2,22.2,109.8,22.8z"/>
			<path class="st1" d="M163,23.2c0,1.3,0,2.4,0.1,3.4c0,1,0.1,2.1,0.1,3.2c0.1,1.1,0.1,2.5,0.2,4c0.1,1.5,0.2,3.4,0.4,5.7
				c0.1,1.6,0.2,3,0.2,4.1c0,1.1-0.1,2.1-0.2,3c-0.1,0.9-0.4,1.7-0.7,2.5c-0.3,0.8-0.8,1.7-1.4,2.6c-0.5,0.9-1.2,1.3-1.9,1.3
				c-0.7,0-1.2-0.4-1.5-1.2c-0.2-0.8-0.5-1.5-0.7-2.1c-0.2-0.7-0.6-1.5-1-2.5c-0.1-0.2-0.2-0.3-0.3-0.5c-0.2-0.1-0.4-0.2-0.8-0.3
				c-0.4-0.1-0.9-0.1-1.5-0.1c-0.7,0-1.5,0-2.6,0.1c-2.8,0.1-5,0.2-6.7,0.3c-1.7,0.1-3.1,0.2-4.1,0.3c-1.1,0.1-1.9,0.2-2.7,0.3
				s-1.5,0.2-2.4,0.3c-1.6,0.2-2.9,0.3-3.8,0.3c-1,0-1.9-0.1-2.9-0.4c-0.6,1.5-1.2,2.3-1.9,2.5c-0.7,0.2-1.3-0.3-2-1.3
				c-0.5-0.7-0.8-1.3-1.1-1.7c-0.2-0.5-0.4-0.9-0.5-1.4c-0.1-0.5-0.1-1,0-1.5c0.1-0.5,0.3-1.2,0.5-2c0.3-0.8,0.5-1.7,0.7-2.4
				s0.3-1.8,0.5-3.2c0.1-1.3,0.3-3.1,0.4-5.2c0.1-2.1,0.2-5,0.3-8.6c0-1.6,0.1-3.1,0.1-4.3c0-1.2,0-2.3-0.1-3.2s-0.2-1.7-0.4-2.4
				c-0.2-0.7-0.4-1.2-0.7-1.6c-0.4-0.6-0.6-1.1-0.7-1.5c-0.1-0.4,0.1-0.7,0.5-0.8c0.4-0.2,1-0.2,1.9,0c0.9,0.1,2,0.4,3.5,0.9
				c0.7,0,1.5-0.1,2.4-0.2c0.9-0.1,2.1-0.2,3.5-0.4c1.4-0.2,3.1-0.4,5.1-0.7c2-0.3,4.4-0.6,7.2-1c1.5-0.2,2.6-0.4,3.6-0.7
				s1.7-0.6,2.3-0.9c0.8-0.4,1.6-0.6,2.4-0.7c0.7,0,1.6,0.2,2.6,0.8c0.8,0.4,1.5,0.8,2.2,1.2c0.7,0.4,1.5,0.9,2.4,1.6
				c0.8,0.6,1.3,1.1,1.3,1.7c0.1,0.5-0.2,1.2-0.9,2.1c-0.2,0.3-0.4,0.6-0.5,1c-0.1,0.4-0.2,0.9-0.3,1.6c-0.1,0.7-0.1,1.7-0.1,2.9
				S163,21.2,163,23.2z M157.8,42.6c0.1-1,0.2-2.1,0.3-3.1c0.1-1,0.1-2.2,0.1-3.6c0-1.4-0.1-3.1-0.1-5.2c-0.1-2-0.1-4.6-0.3-7.6
				c-0.1-2.5-0.2-4.5-0.3-6c-0.1-1.5-0.2-2.6-0.3-3.4c-0.1-0.7-0.2-1.2-0.3-1.7c-0.1-0.4-0.3-0.7-0.5-0.9c-0.2-0.2-0.6-0.3-1-0.4
				c-0.4-0.1-1-0.1-1.7-0.1c-0.9,0-1.9,0-2.8,0.1s-2.1,0.1-3.4,0.2c-1.3,0.1-2.8,0.3-4.6,0.5s-3.8,0.4-6.2,0.7
				c-1.5,0.2-2.6,0.3-3.5,0.4c-0.9,0.1-1.7,0.1-2.3,0.2c0,1.8,0,4-0.1,6.7c-0.1,2.7-0.2,5.5-0.3,8.5c-0.1,3-0.2,5.9-0.4,8.8
				c-0.1,2.9-0.3,5.5-0.4,7.8c1.3,0,2.5,0,3.7-0.1c1.2-0.1,2.3-0.2,3.5-0.3c3.8-0.5,6.8-0.8,9.1-1c2.3-0.2,4.2-0.3,5.6-0.4
				s2.5,0,3.2,0.1c0.7,0.1,1.4,0.3,2,0.5C157.3,43.5,157.8,43.3,157.8,42.6z M157.2,36.2c0.3,0.3,0.3,0.8,0.1,1.3
				c-0.2,0.6-0.8,1.1-1.8,1.6c-0.8,0.4-1.8,0.6-3.1,0.7c-1.3,0.1-2.8,0.1-4.6-0.1c-1.5-0.2-2.5-0.6-3.1-1.3
				c-0.6-0.7-0.9-1.8-0.9-3.2c0-0.7,0-1.5,0-2.4c0-1,0.1-2,0.1-3c0.1-0.8,0.1-1.4,0-1.9c-0.1-0.5-0.3-1.1-0.6-1.9
				c-0.3,0.1-0.7,0.1-1,0.2c-0.3,0-0.6,0.1-0.9,0.1c1,0.7,1.6,1.3,1.6,1.8c0.1,0.5-0.1,0.8-0.4,1.1c-0.3,0.3-0.6,0.7-0.9,1.2
				c-0.3,0.5-0.5,1.1-0.8,1.6c-0.3,0.8-0.7,1.6-1.1,2.3c-0.4,0.7-0.9,1.4-1.6,2.1c-0.6,0.7-1.4,1.3-2.3,1.9
				c-0.9,0.6-1.9,1.2-3.1,1.7c-1.8,0.8-2.8,0.9-3,0.5c-0.2-0.4,0.4-1.2,1.8-2.3c1.3-1,2.3-2.2,3.1-3.4c0.8-1.2,1.6-2.8,2.3-4.7
				c0.2-0.7,0.4-1.3,0.5-1.8c0.1-0.6,0.1-1,0-1.3c-0.5,0.1-1.1,0.1-1.8,0c-0.7-0.1-1.4-0.2-2.1-0.5c-1.3-0.4-1.9-0.8-1.8-1.1
				s1.1-0.6,2.9-0.7c0.8-0.1,1.8-0.3,2.8-0.4s2-0.4,3.1-0.6c1.1-0.2,2.1-0.5,3.1-0.8s2-0.6,2.9-0.9c1-0.3,1.8-0.5,2.5-0.7
				c0.7-0.2,1.3-0.3,1.9-0.3s1,0,1.5,0.1c0.4,0.1,0.9,0.3,1.3,0.6c1.1,0.7,1.5,1.3,1.3,1.9s-1.1,0.9-2.8,1.2
				c-0.8,0.1-1.7,0.2-2.6,0.3c-0.9,0.1-1.9,0.2-2.9,0.4c0.5,0.4,1,0.8,1.3,1.1s0.5,0.6,0.6,0.8s0.1,0.5,0,0.7s-0.2,0.5-0.5,0.8
				c-0.2,0.2-0.3,0.6-0.4,1c-0.1,0.4-0.2,0.9-0.3,1.5c-0.1,0.6-0.1,1.1-0.1,1.7c0,0.6,0,1.1,0.1,1.6c0.1,0.5,0.3,1,0.8,1.3
				c0.5,0.3,1.3,0.3,2.4,0.1c0.6-0.1,1-0.2,1.4-0.4s0.7-0.3,0.9-0.5c0.2-0.2,0.4-0.5,0.5-0.8c0.1-0.3,0.2-0.7,0.3-1.1
				c0.4-2,0.8-2.9,1.2-3c0.4,0,0.7,0.8,0.9,2.5c0.1,1,0.3,1.7,0.4,2.2C156.6,35.4,156.9,35.8,157.2,36.2z M149.2,14.9
				c1.3,0.4,2,1,2,1.6c0,0.7-0.7,1.3-2.2,1.8c-0.6,0.2-1.2,0.4-2,0.6c-0.8,0.2-1.5,0.4-2.2,0.5c-1.7,0.3-3.2,0.5-4.5,0.5
				c-1.3,0-2.4-0.1-3.4-0.5c-1.3-0.4-1.9-0.8-1.9-1.2c0.1-0.4,0.8-0.6,2.2-0.8c1.1-0.2,2.2-0.3,3.2-0.5c1-0.2,1.8-0.4,2.5-0.7
				c1.8-0.7,3.1-1.1,4-1.3C147.9,14.7,148.7,14.7,149.2,14.9z"/>
		</g>
	</g>
</g>
<g class="st0">
	<path class="st1" d="M4.9,69.3c0-1.9,1.7-3,2-3.2c0.2-0.1,0.4-0.2,0.5-0.2c0.1,0,0.2,0.1,0.2,0.1s-0.1,0.2-0.2,0.3
		c-0.3,0.2-1,1.1-1,2c0,0.2,0.1,0.5,0.3,0.5c0.2,0.1,0.9,0.3,0.9,1.2c0,0.6-0.5,1-1.1,1C5.7,71.1,4.9,70.5,4.9,69.3z M8.3,69.3
		c0-1.9,1.7-3,2-3.2c0.2-0.1,0.4-0.2,0.5-0.2c0.1,0,0.2,0.1,0.2,0.1s-0.1,0.2-0.2,0.3c-0.3,0.2-1,1.1-1,2c0,0.2,0.1,0.5,0.3,0.5
		c0.2,0.1,0.9,0.3,0.9,1.2c0,0.6-0.5,1-1.1,1C9.1,71.1,8.3,70.5,8.3,69.3z"/>
	<path class="st1" d="M15.2,78c-1.3-0.8-2.6-2.7-2.6-5.3c0-1.1,0.3-2.8,1.7-4.5c1.6-1.9,3.6-2.3,5.2-2.3c1.5,0,2.9,0.2,4.4,1.4
		c1.4,1.1,2.5,2.9,2.5,5.4c0,1.3-0.4,2.7-1.4,3.9c-1.2,1.5-2.7,2.5-5.5,2.5C18.2,79.2,16.7,78.9,15.2,78z M23.5,72.9
		c0-3.9-2.6-6.1-4.1-6.1c-0.4,0-1.3-0.1-2.4,1c-1.1,1-1.6,2.9-1.6,4.4c0,4.6,2.6,6.2,4.1,6.2C22.9,78.4,23.5,74.4,23.5,72.9z"/>
	<path class="st1" d="M30.2,74c-0.1,0.4-1,2.8-1,3.4c0,0.4,0.2,0.8,0.7,0.8h0.6c0.2,0,0.2,0.1,0.2,0.1v0.4c0,0.1,0,0.2-0.2,0.2
		c-0.2,0-1-0.1-2.4-0.1c-1.3,0-1.7,0.1-2,0.1c-0.1,0-0.1-0.1-0.1-0.2v-0.3c0-0.1,0-0.2,0.1-0.2h0.5c0.4,0,0.9-0.3,1.2-0.8
		c0.3-0.4,1.5-3.5,2.1-5.1c0.1-0.4,1.6-4.2,1.8-4.7c0.1-0.2,0.1-0.4,0-0.6c-0.1-0.1-0.1-0.2-0.1-0.2c0-0.1,0-0.1,0.2-0.2
		c0.6-0.1,1.7-0.6,2-0.9c0.1-0.1,0.1-0.2,0.2-0.2c0.1,0,0.1,0.1,0.2,0.3c0.3,1.1,1.7,5.2,2.1,6.3c0.4,1.4,1.6,4.8,1.8,5.2
		c0.3,0.6,0.8,0.8,1,0.8h0.6c0.1,0,0.1,0.1,0.1,0.2v0.3c0,0.1,0,0.2-0.2,0.2c-0.3,0-0.7-0.1-3-0.1c-1.5,0-2.1,0.1-2.5,0.1
		c-0.2,0-0.2-0.1-0.2-0.2v-0.3c0-0.1,0-0.2,0.1-0.2h0.5c0.5,0,0.6-0.2,0.5-0.6c-0.2-0.6-0.9-3-1.1-3.6H30.2z M34,73.3l-1.4-4.8
		c-0.1-0.3-0.1-0.4-0.2-0.4c-0.1,0-0.2,0.1-0.2,0.2c-0.1,0.2-1.6,4.5-1.8,4.9H34z"/>
	<path class="st1" d="M44.6,72h0.3c0.1,0,0.3-0.1,0.5-0.2c0.3-0.3,3.2-3.9,3.5-4.2c0.3-0.4,0-0.7-0.4-0.7h-0.3c-0.1,0-0.1,0-0.1-0.1
		v-0.5c0-0.1,0-0.1,0.1-0.1c0.2,0,1,0.1,2.4,0.1c0.9,0,1.5-0.1,1.7-0.1c0.1,0,0.1,0,0.1,0.1v0.5c0,0.1-0.1,0.1-0.1,0.1H52
		c-0.3,0-0.7,0.1-1,0.3c-1,0.6-3.3,3.3-3.9,4.1c1.2,1.5,4.1,5.6,4.9,6.5c0.3,0.4,0.8,0.5,1,0.5h0.2c0.1,0,0.1,0.1,0.1,0.1v0.5
		c0,0.1,0,0.1-0.1,0.1c-0.2,0-0.8-0.1-2.6-0.1c-1.5,0-2.2,0.1-2.4,0.1C48,79,48,79,48,78.9v-0.5c0-0.1,0-0.1,0.1-0.1h0.3
		c0.3,0,0.3-0.3,0.3-0.5c-0.2-0.4-3-4.5-3.3-4.8c-0.1-0.1-0.3-0.3-0.5-0.3h-0.3v1.3c0,0.9,0,3.5,0.1,3.8c0,0.2,0.2,0.4,0.4,0.4h0.6
		c0.1,0,0.1,0,0.1,0.1v0.5c0,0.1,0,0.1-0.1,0.1c-0.2,0-0.8-0.1-2.4-0.1c-1.7,0-2.2,0.1-2.4,0.1c-0.1,0-0.1,0-0.1-0.1v-0.5
		c0-0.1,0.1-0.1,0.1-0.1h0.6c0.3,0,0.5-0.1,0.5-0.3c0-0.2,0.1-3.4,0.1-5.6v-1c0-0.3-0.1-3.7-0.1-3.9c0-0.2-0.1-0.4-0.5-0.4h-0.5
		c-0.1,0-0.1,0-0.1-0.1v-0.5c0-0.1,0-0.1,0.1-0.1c0.2,0,0.8,0.1,2.4,0.1c1.6,0,2.2-0.1,2.4-0.1c0.1,0,0.1,0,0.1,0.1v0.5
		c0,0.1,0,0.1-0.1,0.1h-0.4c-0.4,0-0.6,0.1-0.6,0.5c0,0.3-0.1,3.1-0.1,4V72z"/>
	<path class="st1" d="M57.8,73.3c0,0.3,0,4.2,0.1,4.9h1c0.8,0,1.7,0,2.6-0.1c1-0.1,2.2-2.2,2.5-2.9c0.1-0.1,0.1-0.2,0.2-0.1l0.4,0.1
		c0.1,0,0.1,0.1,0,0.2c-0.1,0.1-0.8,3.1-0.9,3.6c-0.5,0-5.7-0.1-7.3-0.1c-1.8,0-2.4,0.1-2.7,0.1c-0.1,0-0.1,0-0.1-0.2v-0.5
		c0-0.1,0-0.1,0.1-0.1h0.6c0.7,0,0.8-0.3,0.8-0.5c0-0.3,0.1-4.8,0.1-5.9v-1c0-1.2,0-3.1-0.1-3.3c0-0.5-0.1-0.6-0.5-0.6h-0.7
		c-0.1,0-0.1-0.1-0.1-0.2v-0.4c0-0.1,0-0.1,0.1-0.1c0.2,0,0.8,0.1,2.5,0.1c2.1,0,2.9-0.1,3-0.1c0.1,0,0.2,0.1,0.2,0.2v0.4
		c0,0.1,0,0.1-0.2,0.1h-0.8c-0.6,0-0.6,0.2-0.6,0.7c0,0.2-0.1,3-0.1,4.2V73.3z"/>
	<path class="st1" d="M68.2,74c-0.1,0.4-1,2.8-1,3.4c0,0.4,0.2,0.8,0.7,0.8h0.6c0.2,0,0.2,0.1,0.2,0.1v0.4c0,0.1,0,0.2-0.2,0.2
		c-0.2,0-1-0.1-2.4-0.1c-1.3,0-1.7,0.1-2,0.1C64,79,64,78.9,64,78.8v-0.3c0-0.1,0-0.2,0.1-0.2h0.5c0.4,0,0.9-0.3,1.2-0.8
		c0.3-0.4,1.5-3.5,2.1-5.1c0.1-0.4,1.6-4.2,1.8-4.7c0.1-0.2,0.1-0.4,0-0.6c-0.1-0.1-0.1-0.2-0.1-0.2c0-0.1,0-0.1,0.2-0.2
		c0.6-0.1,1.7-0.6,2-0.9c0.1-0.1,0.1-0.2,0.2-0.2c0.1,0,0.1,0.1,0.2,0.3c0.3,1.1,1.7,5.2,2.1,6.3c0.4,1.4,1.6,4.8,1.8,5.2
		c0.3,0.6,0.8,0.8,1,0.8h0.6c0.1,0,0.1,0.1,0.1,0.2v0.3c0,0.1,0,0.2-0.2,0.2c-0.3,0-0.7-0.1-3-0.1c-1.5,0-2.1,0.1-2.5,0.1
		c-0.2,0-0.2-0.1-0.2-0.2v-0.3c0-0.1,0-0.2,0.1-0.2h0.5c0.5,0,0.6-0.2,0.5-0.6c-0.2-0.6-0.9-3-1.1-3.6H68.2z M72,73.3l-1.4-4.8
		c-0.1-0.3-0.1-0.4-0.2-0.4c-0.1,0-0.2,0.1-0.2,0.2c-0.1,0.2-1.6,4.5-1.8,4.9H72z"/>
	<path class="st1" d="M89.6,73.7c0-1.6,0-2.5-0.1-3.4c0-0.7-0.1-2.5-0.2-2.7c-0.1-0.5-0.5-0.7-1-0.7h-0.6c-0.1,0-0.1-0.1-0.1-0.2
		v-0.5c0-0.1,0-0.1,0.2-0.1c0.2,0,0.8,0.1,2.1,0.1c1.1,0,1.5-0.1,1.7-0.1c0.2,0,0.2,0,0.2,0.1v0.4c0,0.1,0,0.2-0.1,0.2h-0.5
		c-0.3,0-0.5,0.3-0.5,1c-0.1,1.2-0.4,5.3-0.4,7.7v3.1c0,0.3,0,0.6-0.3,0.6c-0.3,0-0.5-0.1-0.7-0.3c-0.3-0.3-1.2-1.2-2.3-2.5L84,72.7
		c-0.3-0.4-2.8-3.5-3.2-4.1h-0.1v3.6c0,1.5,0.2,3.7,0.2,4.4c0,1,0.4,1.6,1.1,1.6h0.4c0.1,0,0.1,0.1,0.1,0.2v0.4c0,0.1,0,0.1-0.1,0.1
		c-0.2,0-1.3-0.1-2.1-0.1c-0.6,0-1.8,0.1-2,0.1c-0.1,0-0.1,0-0.1-0.2v-0.5c0-0.1,0-0.1,0.1-0.1H79c0.4,0,0.7-0.6,0.8-1.8
		c0-0.3,0.2-3.2,0.2-5.9V69c0-1.1-0.6-2.1-1.5-2.1l-0.5,0c-0.1,0-0.1-0.1-0.1-0.1v-0.5c0-0.1,0-0.1,0.1-0.1c0.1,0,0.2,0,0.6,0
		c0.4,0,0.9,0,1.9,0c0.6,0,1.2,0,1.4,0c0.2,0,0.4,0.1,0.5,0.2l4.2,5.1l3.1,3.8h0.1V73.7z"/>
	<path class="st1" d="M94.5,70.7c0-0.5-0.1-3-0.1-3.3c-0.1-0.4-0.3-0.5-0.6-0.5h-0.9c-0.1,0-0.1,0-0.1-0.1v-0.5
		c0-0.1,0.1-0.1,0.1-0.1c0.2,0,1,0.1,2.8,0.1c0.5,0,2.3-0.1,2.7-0.1c2.4,0,4.4,0.2,6.1,1.6c1.2,1,2,2.5,2,4.6c0,2.1-0.6,3.4-1.8,4.7
		c-1.7,1.9-4.8,1.9-6,1.9c-0.3,0-2.4-0.1-3.4-0.1c-1.6,0-2.3,0.1-2.5,0.1c-0.1,0-0.1,0-0.1-0.2v-0.5c0-0.1,0.1-0.1,0.1-0.1h0.9
		c0.3,0,0.5-0.1,0.6-0.4c0.1-0.4,0.1-4.4,0.1-5.8V70.7z M97.2,72.4c0,0.2,0,3.3,0,4.4c0,0.4,0.1,0.6,0.3,1c0.2,0.3,0.8,0.4,1.4,0.4
		c1,0,2.4-0.5,3.4-1.8c0.7-1,1.3-2.4,1.3-4.1c0-1.5-0.6-3-1.5-3.9c-1-1.1-2.5-1.6-3.6-1.6c-0.5,0-0.8,0-1,0.1
		c-0.3,0.1-0.3,0.4-0.4,0.8c0,0.8,0,3.1,0,3.4V72.4z"/>
	<path class="st1" d="M116.1,66.8c-0.3,0-0.5,0-1,0.3c-0.4,0.3-1.9,2-2.3,2.5c-0.1,0.1-0.1,0.1-0.2,0.1l-0.3-0.2
		c-0.1,0-0.1-0.1-0.1-0.2l1.1-3.2c0.1-0.2,0.2-0.2,0.3-0.2c0.1,0,0.3,0,0.4,0c0.8,0.1,3.4,0.1,4.9,0.1c1.1,0,2,0,2.7-0.1
		c0.6,0,1.2-0.1,1.3-0.1c0.3,0,0.4,0.2,0.3,0.4c-0.1,0.2-8,11.2-8.4,11.7h4.3c0.5,0,0.9,0,1.3-0.2c0.5-0.2,2.3-2.1,2.5-2.4
		c0.1-0.1,0.1-0.1,0.2-0.1l0.3,0.2c0.1,0,0.1,0.1,0,0.2c-0.3,0.4-1.1,2.6-1.4,3.1c0,0.1-0.1,0.2-0.2,0.2c-0.1,0-0.2,0-0.4-0.1
		c-1-0.1-3.9-0.2-5.5-0.2h-4.2c-0.1,0-0.3,0-0.3-0.1c0-0.1,0-0.3,0.1-0.4c0.7-1.1,8.1-11.4,8.3-11.6H116.1z"/>
	<path class="st1" d="M127.1,78c-1.3-0.8-2.6-2.7-2.6-5.3c0-1.1,0.3-2.8,1.7-4.5c1.6-1.9,3.6-2.3,5.2-2.3c1.5,0,2.9,0.2,4.4,1.4
		c1.4,1.1,2.5,2.9,2.5,5.4c0,1.3-0.4,2.7-1.4,3.9c-1.2,1.5-2.7,2.5-5.5,2.5C130.1,79.2,128.5,78.9,127.1,78z M135.4,72.9
		c0-3.9-2.6-6.1-4.1-6.1c-0.4,0-1.3-0.1-2.4,1c-1.1,1-1.6,2.9-1.6,4.4c0,4.6,2.6,6.2,4.1,6.2C134.8,78.4,135.4,74.4,135.4,72.9z"/>
	<path class="st1" d="M142.9,78c-1.3-0.8-2.6-2.7-2.6-5.3c0-1.1,0.3-2.8,1.7-4.5c1.6-1.9,3.6-2.3,5.2-2.3c1.5,0,2.9,0.2,4.4,1.4
		c1.4,1.1,2.5,2.9,2.5,5.4c0,1.3-0.4,2.7-1.4,3.9c-1.2,1.5-2.7,2.5-5.5,2.5C145.9,79.2,144.3,78.9,142.9,78z M151.2,72.9
		c0-3.9-2.6-6.1-4.1-6.1c-0.4,0-1.3-0.1-2.4,1c-1.1,1-1.6,2.9-1.6,4.4c0,4.6,2.6,6.2,4.1,6.2C150.6,78.4,151.2,74.4,151.2,72.9z"/>
	<path class="st1" d="M158.3,67.7c0,1.9-1.7,3-2,3.2c-0.2,0.1-0.4,0.2-0.5,0.2c-0.1,0-0.2-0.1-0.2-0.1s0.1-0.2,0.2-0.3
		c0.3-0.2,1-1.1,1-2c0-0.2-0.1-0.5-0.3-0.5c-0.2-0.1-0.9-0.3-0.9-1.2c0-0.6,0.5-1,1.1-1C157.4,65.9,158.3,66.6,158.3,67.7z
		 M161.7,67.7c0,1.9-1.7,3-2,3.2c-0.2,0.1-0.4,0.2-0.5,0.2c-0.1,0-0.2-0.1-0.2-0.1s0.1-0.2,0.2-0.3c0.3-0.2,1-1.1,1-2
		c0-0.2-0.1-0.5-0.3-0.5c-0.2-0.1-0.9-0.3-0.9-1.2c0-0.6,0.5-1,1.1-1C160.8,65.9,161.7,66.6,161.7,67.7z"/>
</g>
</svg>
