<svg version="1.1" id="Layer_1" xmlns="http://www.w3.org/2000/svg" xmlns:xlink="http://www.w3.org/1999/xlink" x="0px" y="0px"
	 viewBox="0 0 168.8 104" style="enable-background:new 0 0 168.8 104;" xml:space="preserve">
<style type="text/css">
	.st0{enable-background:new    ;}
	.st1{fill:#95272B;}
</style>

<g id="Layer_2_1_">
	<g id="Layer_1-2">
		<g class="st0">
			<path class="st1" d="M40.9,48.6c-1.2-0.2-2.4-0.3-3.6-0.4c-1.2-0.1-2.4-0.2-3.6-0.2c-1.3,0-2.6,0-4,0c-1.4,0-3,0.1-4.7,0.2
				c-2,0.1-3.7,0.2-5.3,0.4c-1.6,0.1-3,0.3-4.2,0.5c-1.3,0.2-2.4,0.4-3.4,0.6c-1,0.2-2,0.4-2.9,0.7c-0.7,0.2-1.3,0.3-1.9,0.4
				c-0.5,0.1-1,0.1-1.4,0c-0.4-0.1-0.9-0.3-1.3-0.6c-0.5-0.3-1-0.7-1.7-1.2c-1.1-1-1.6-1.6-1.3-1.9c0.2-0.3,1.2-0.5,2.9-0.4
				c1.5,0,3.4,0,5.7-0.2c2.4-0.2,5.4-0.4,9-0.9l0.1-8.3c-0.7,0.1-1.3,0.1-1.9,0.1c-0.5,0-1,0-1.4,0c-0.4,0-0.8-0.1-1.1-0.2
				c-0.4-0.1-0.7-0.3-1.1-0.5c-1.4-0.6-2-1.1-1.9-1.4c0.1-0.3,0.9-0.5,2.2-0.6c1.7-0.1,3.4-0.3,5.2-0.7c0-1.1,0-2,0-2.8
				c0-0.7,0-1.3-0.1-1.8c-0.1-0.5-0.1-0.9-0.2-1.3c-0.1-0.4-0.2-0.7-0.3-1.1c-1.8,0.2-3.2,0.2-4.1,0.2c-1-0.1-1.8-0.3-2.5-0.6
				c-1.2-0.6-1.8-1.1-1.8-1.3c0-0.3,0.5-0.5,1.5-0.5c0.8,0,1.8-0.1,3.1-0.3c1.3-0.2,2.6-0.4,4-0.6c1.3-0.2,2.6-0.5,3.8-0.7
				c1.2-0.3,2.1-0.5,2.7-0.7c1.5-0.5,2.7-0.8,3.7-0.9c1-0.1,2,0.1,3.1,0.6c1.5,0.7,2.2,1.3,2.1,1.9c-0.1,0.6-0.8,1-2,1.3
				c-1.2,0.2-2.6,0.5-4,0.7c-1.4,0.2-2.8,0.5-4.2,0.6c1.1,0.7,1.8,1.3,1.9,1.8c0.1,0.5-0.1,1-0.5,1.6c-0.3,0.3-0.4,0.7-0.5,1.1
				c-0.1,0.4-0.1,1-0.1,1.8c0.3-0.1,0.6-0.2,0.9-0.3c0.3-0.1,0.5-0.2,0.8-0.3c1.3-0.4,2.4-0.6,3.2-0.7c0.8,0,1.7,0.2,2.8,0.7
				c1,0.5,1.5,1,1.4,1.6c-0.1,0.6-0.7,1.1-1.9,1.4c-0.7,0.2-1.6,0.4-2.6,0.6c-1,0.2-2.5,0.5-4.4,0.7l-0.1,8.2
				c2.1-0.2,3.9-0.4,5.4-0.6c1.4-0.2,2.6-0.3,3.5-0.4c0.9-0.1,1.6-0.2,2.1-0.3c0.5-0.1,0.8-0.2,1.1-0.2c1.5-0.4,2.9-0.6,4.1-0.4
				c1.2,0.2,2.3,0.7,3.1,1.7c1.5,1.8,2.1,3,1.8,3.6C45.3,48.9,43.7,49,40.9,48.6z M44.1,18.8c-0.9,0-1.8,0.2-2.8,0.4
				c-1,0.2-2.3,0.7-3.8,1.4c-1.6,0.8-2.7,1-3,0.8c-0.4-0.2-0.1-1.2,0.7-2.7c0.4-0.7,0.7-1.2,0.8-1.7c0.2-0.4,0.2-0.7,0.2-0.9
				c-0.1-0.2-0.2-0.3-0.5-0.4c-0.3,0-0.6-0.1-1.1-0.1c-0.7,0-1.8,0.1-3.2,0.2c-1.4,0.1-2.9,0.2-4.6,0.4c-1.6,0.2-3.3,0.3-4.9,0.5
				c-1.6,0.2-3.1,0.4-4.2,0.6c-2,0.3-3.5,0.6-4.6,0.7c-1.1,0.1-2,0.1-2.9-0.1c-0.2,1.1-0.5,2.2-1,3.3c-0.5,1.1-1.1,2-1.8,2.8
				c-1.1,1.2-2.2,1.8-3.2,1.7c-1-0.1-1.6-0.8-1.8-2.2c-0.1-0.8-0.2-1.4-0.2-1.9c0-0.5,0-1,0.1-1.3c0.1-0.4,0.2-0.7,0.5-0.9
				c0.2-0.3,0.5-0.5,0.8-0.8c1.3-1.1,2.4-2.6,3.2-4.7c0.4-1,0.9-1.5,1.5-1.5s1.2,1,1.8,2.8c1,0,2.1-0.1,3.4-0.3
				c1.3-0.1,2.8-0.3,4.5-0.5c1.7-0.2,3.7-0.5,5.9-0.8c2.2-0.3,4.8-0.7,7.6-1.2c0.7-0.1,1.3-0.3,2-0.5c0.7-0.2,1.5-0.5,2.6-0.9
				c0.6-0.2,1.2-0.4,1.7-0.5c0.5-0.1,1,0,1.6,0.2c0.6,0.2,1.3,0.6,2.1,1.1c0.8,0.5,1.8,1.3,3,2.2c1.9,1.5,2.8,2.6,2.7,3.4
				C47,18.3,46,18.7,44.1,18.8z M22.1,11.5c-0.8-0.6-1.5-1.3-2.2-2c-0.7-0.7-1.4-1.6-2.1-2.8c-0.8-1.2-1.1-1.9-0.9-2.2
				c0.2-0.3,1-0.4,2.5-0.3C22,4.3,23.9,4.7,25,5.6c1.2,0.8,1.8,2,1.7,3.6c0,0.8-0.2,1.4-0.5,1.9c-0.3,0.5-0.7,0.8-1.2,1
				s-1,0.2-1.5,0.1C23.1,12.1,22.6,11.9,22.1,11.5z M32.5,42.6c-0.5-0.3-1-0.8-1.6-1.5c-0.6-0.7-1.2-1.5-1.8-2.4
				c-0.5-0.9-0.7-1.5-0.5-1.8c0.2-0.3,1-0.4,2.2-0.2c2,0.3,3.3,0.8,4.1,1.5c0.8,0.7,1.1,1.5,0.9,2.4c-0.2,1.3-0.6,2.1-1.2,2.4
				C34.1,43.3,33.4,43.2,32.5,42.6z"/>
			<path class="st1" d="M76.6,14.3c-2.1,0.5-4.1,0.9-5.9,1.1c-1.8,0.2-3.8,0.4-5.9,0.5c-1,0-1.8,0-2.3-0.1c-0.5-0.1-1-0.2-1.5-0.5
				c-1.1-0.5-1.6-1-1.6-1.3c0.1-0.3,0.8-0.6,2.1-0.8c1.8-0.2,3.7-0.5,5.5-0.9c1.8-0.4,3.4-0.8,4.6-1.2c0.8-0.2,1.4-0.4,1.9-0.6
				c0.5-0.2,1-0.2,1.4-0.3c0.4,0,0.8,0,1.2,0.1c0.4,0.1,0.9,0.2,1.5,0.4c0.6,0.2,1,0.4,1.3,0.7c0.3,0.3,0.4,0.6,0.3,1
				c-0.1,0.3-0.3,0.7-0.7,1C78.2,13.8,77.5,14,76.6,14.3z M78.7,35.5c0.1,1.7,0.1,3.1,0.1,4.4c0,1.2-0.1,2.3-0.2,3.2
				c-0.1,0.9-0.4,1.8-0.7,2.6c-0.3,0.8-0.7,1.5-1.3,2.2c-1,1.3-1.9,1.9-2.7,1.9c-0.9,0-1.4-0.5-1.8-1.5c-0.2-0.7-0.5-1.3-0.8-1.9
				c-0.3-0.6-0.8-1.2-1.5-1.9c-1.2-1.1-1.7-1.9-1.5-2.2c0.2-0.3,1.1-0.3,2.7,0.1c0.7,0.2,1.2,0.3,1.6,0.3c0.4,0,0.7-0.1,0.8-0.3
				c0.2-0.2,0.3-0.5,0.3-0.9c0.1-0.4,0.1-0.8,0.1-1.3c0.2-3.1,0.2-6.1,0.2-8.9c-0.1-2.9-0.2-5.5-0.4-7.9c-0.1-0.7-0.2-1.1-0.3-1.2
				c-0.1-0.2-0.3-0.2-0.6-0.2c-0.7,0.1-1.4,0.2-2.4,0.3c-0.9,0.1-1.9,0.2-2.8,0.4c0.1,0.8,0.1,1.7,0.1,2.8c0,1.1,0,2.4-0.1,4
				c1.6-0.1,2.9,0,3.8,0.4c0.9,0.3,1.5,0.9,1.7,1.8c0.3,1.1,0.2,2-0.3,2.6s-1.2,0.5-2.3-0.3c-0.5-0.4-1-0.7-1.5-1.1
				c-0.5-0.3-1-0.8-1.5-1.4c-0.1,2.2-0.3,5-0.5,8.3c-0.1,1.2-0.2,2.3-0.3,3.1c-0.2,0.9-0.3,1.7-0.6,2.4c-0.6,1.8-1.4,2.7-2.2,2.7
				c-0.9-0.1-1.7-0.9-2.5-2.6c-0.2-0.5-0.4-0.9-0.5-1.3c-0.1-0.4-0.1-0.9-0.1-1.3c0-0.5,0.2-1,0.4-1.6c0.2-0.6,0.5-1.3,0.8-2.1
				c0.3-0.7,0.6-1.8,0.8-3.4c0.2-1.6,0.4-3.8,0.4-6.4c0.1-1.5,0-2.9-0.2-4.2c-0.2-1.4-0.6-2.4-1.1-3c-0.4-0.5-0.7-1-0.8-1.4
				s0-0.7,0.3-0.8c0.3-0.2,0.8-0.2,1.6-0.2c0.8,0.1,1.8,0.2,3.2,0.5c1.5-0.2,2.8-0.4,4-0.6c1.2-0.3,2-0.6,2.6-1
				c0.3-0.3,0.7-0.5,0.9-0.6c0.3-0.1,0.6-0.2,0.9-0.2c0.3,0,0.7,0.1,1.1,0.3c0.4,0.2,0.9,0.4,1.5,0.7c0.8,0.5,1.5,0.8,1.9,1.1
				c0.4,0.3,0.7,0.6,0.9,0.9c0.1,0.3,0.2,0.5,0.1,0.8c-0.1,0.3-0.3,0.6-0.5,1c-0.2,0.3-0.4,0.8-0.5,1.4c-0.1,0.6-0.2,1.4-0.3,2.4
				c0,1,0,2.3,0,3.8C78.6,31.5,78.6,33.4,78.7,35.5z M98.8,11.7c-2.2,0.5-4.3,0.9-6.2,1.1c-1.9,0.3-4,0.4-6.2,0.5c-0.5,0-1,0-1.4,0
				c-0.4,0-0.7,0-1-0.1s-0.6-0.1-0.8-0.2c-0.2-0.1-0.5-0.2-0.8-0.3c-1.2-0.6-1.7-1-1.7-1.4c0.1-0.3,0.8-0.6,2.2-0.8
				c1.9-0.3,3.8-0.6,5.8-1c2-0.4,3.6-0.8,4.8-1.3c0.8-0.3,1.5-0.5,2-0.6c0.5-0.2,1-0.2,1.5-0.3s0.9,0,1.3,0.1
				c0.4,0.1,0.9,0.2,1.5,0.4c1.5,0.4,2.1,1,1.9,1.8C101.7,10.6,100.7,11.2,98.8,11.7z M100.2,36.3c0.2,2,0.2,3.7,0.3,5.1
				s0,2.6-0.2,3.6c-0.2,1-0.4,1.8-0.7,2.5c-0.3,0.7-0.8,1.3-1.3,2c-1.1,1.3-2.2,1.9-3,1.9s-1.4-0.6-1.6-1.7
				c-0.1-0.6-0.3-1.2-0.7-1.9c-0.4-0.7-1-1.6-2-2.6c-1.2-1.3-1.7-2.2-1.5-2.5c0.2-0.3,1.2-0.2,2.9,0.2c0.5,0.1,1,0.2,1.3,0.3
				c0.3,0.1,0.5,0,0.7-0.1c0.2-0.1,0.3-0.3,0.3-0.6s0.1-0.7,0.1-1.2c0.2-4,0.3-7.5,0.2-10.6s-0.2-5.8-0.5-8.1
				c-0.1-0.8-0.2-1.3-0.3-1.5c-0.1-0.2-0.3-0.2-0.5-0.2c-0.8,0.1-1.7,0.2-2.9,0.3c-1.2,0.1-2.3,0.2-3.3,0.4c0.1,0.9,0.1,1.9,0.1,3
				c0,1.1,0,2.2,0,3.4c0.2,0,0.3,0,0.5,0c0.2,0,0.4,0,0.5,0.1c1.8,0.2,3.1,0.6,3.8,1c0.7,0.5,1.2,1.2,1.5,2.3
				c0.1,0.6,0.1,1.1-0.1,1.5c-0.2,0.4-0.4,0.7-0.7,0.9c-0.3,0.2-0.7,0.2-1.2,0.2c-0.5,0-0.9-0.2-1.4-0.5c-0.5-0.3-1-0.7-1.4-1.1
				c-0.4-0.4-0.9-1.1-1.5-1.9c0,2.1,0,4-0.1,5.8c-0.1,1.8-0.1,3.3-0.3,4.4c-0.1,1.1-0.3,2.3-0.5,3.5c-0.2,1.2-0.4,2-0.6,2.4
				c-0.6,1.5-1.3,2.2-2,2.2c-0.7,0-1.6-0.9-2.6-2.8c-0.4-0.8-0.6-1.7-0.6-2.6c0-0.9,0.4-2.1,1-3.4c0.2-0.5,0.4-1.1,0.5-2
				c0.1-0.9,0.2-1.8,0.3-2.8c0.1-1,0.1-2,0.2-2.9c0-1,0.1-1.7,0.1-2.4c0-2.6-0.1-4.6-0.3-6.1c-0.1-1.5-0.5-2.6-1.1-3.2
				c-0.3-0.3-0.4-0.7-0.5-1c0-0.3,0.1-0.6,0.4-0.7c0.3-0.2,0.8-0.3,1.5-0.3c0.7,0,1.6,0.1,2.8,0.4c2-0.2,3.6-0.4,5-0.7
				c1.4-0.3,2.3-0.6,2.8-1c0.7-0.5,1.4-0.8,2.1-0.7c0.7,0,1.6,0.4,2.9,1.1c0.8,0.5,1.5,0.9,2,1.2c0.5,0.3,0.8,0.6,0.9,0.9
				c0.1,0.3,0.1,0.6,0,0.9c-0.2,0.3-0.4,0.7-0.8,1.1c-0.6,0.8-0.9,2.4-1,5C99.7,29.3,99.9,32.5,100.2,36.3z"/>
			<path class="st1" d="M161.8,45.8c-2.8,0.6-4.9,1-6.5,1.2c-1.6,0.2-2.9,0.3-3.8,0.2c-1-0.1-1.7-0.4-2.4-0.9
				c-0.6-0.5-1.3-1.2-2.1-2c-0.9-1-2-2.2-3.5-3.7c-1.5-1.5-3.2-3.2-5.1-5.1c0,1,0,2.1,0,3.1c0,1.1,0,2.3,0.1,3.6c0,1.5,0,2.8,0,3.9
				c0,1.1-0.1,1.9-0.1,2.6c-0.1,0.7-0.2,1.3-0.3,1.7c-0.1,0.4-0.2,0.8-0.3,1.1c-0.6,1.3-1.3,2-2.1,2c-0.8,0-1.7-0.6-2.7-2
				c-0.3-0.5-0.6-1-0.8-1.4c-0.2-0.4-0.3-0.8-0.3-1.3c0-0.5,0-1,0.2-1.6c0.2-0.6,0.4-1.3,0.7-2.2c0.2-0.5,0.4-1.4,0.5-2.7
				s0.3-3.1,0.4-5.5c-2,3.1-4.3,5.6-7,7.4c-2.7,1.8-5.9,3.1-9.8,3.9c-1.8,0.4-2.8,0.4-2.9,0.1c-0.1-0.3,0.5-0.8,1.8-1.5
				c1.6-0.8,3.1-1.8,4.6-2.8c1.5-1,2.9-2.1,4.2-3.3c1.3-1.2,2.6-2.4,3.7-3.6c1.1-1.3,2.1-2.5,2.9-3.8c-1.1,0.1-2.1,0.2-3,0.4
				c-0.9,0.1-1.6,0.3-2,0.4c-1,0.2-1.9,0.4-2.5,0.5c-0.7,0.1-1.2,0.2-1.7,0.1c-0.5,0-1-0.1-1.4-0.3c-0.4-0.2-0.9-0.4-1.5-0.8
				c-1.3-0.9-1.9-1.4-1.8-1.7c0.1-0.2,1-0.4,2.6-0.3c0.6,0,1.3,0,2,0c0.7,0,1.5-0.1,2.6-0.2s2.3-0.2,3.8-0.4
				c1.5-0.2,3.4-0.4,5.6-0.7c0-1.3,0.1-2.6,0.1-4s0-2.6-0.1-3.6c-1.1,0.2-2.1,0.3-2.8,0.3c-0.7,0.1-1.4,0.1-1.9,0.1
				c-0.5,0-0.9,0-1.3-0.1c-0.3-0.1-0.7-0.2-1.1-0.3c-1.1-0.5-1.7-1-1.7-1.3c0-0.3,0.8-0.5,2.2-0.6c0.7,0,1.6-0.1,2.8-0.3
				c1.2-0.2,2.4-0.4,3.7-0.5c0-0.7-0.1-1.2-0.2-1.5c-0.1-0.3-0.3-0.7-0.6-1.1c-0.8-1-0.9-1.7-0.5-2.3c0.5-0.6,1.7-0.6,3.8,0
				c1.5,0.4,2.5,0.9,2.8,1.4c0.3,0.5,0.2,1.3-0.3,2.4c1.2-0.3,2.2-0.6,3.1-0.8c0.8-0.2,1.5-0.3,2.1-0.4c0.6-0.1,1.1-0.1,1.5,0
				c0.4,0.1,0.8,0.2,1.2,0.3c1.2,0.6,1.8,1.2,1.7,1.7c-0.1,0.5-1.1,1-3.1,1.3c-1.4,0.3-2.7,0.5-3.8,0.6c-1.1,0.2-2.1,0.3-3.1,0.4
				c0,0.9-0.1,1.9-0.1,3.2c0,1.2,0,2.7-0.1,4.5c1.6-0.2,3-0.4,4.4-0.6c1.4-0.2,2.4-0.4,2.9-0.5c1.5-0.3,2.7-0.5,3.8-0.7
				c1-0.2,1.9-0.2,2.6-0.2c0.7,0,1.3,0.1,1.7,0.3s0.9,0.5,1.3,0.8c1.5,1.5,2.1,2.5,1.8,3s-1.8,0.7-4.3,0.5c-2.3-0.2-4.5-0.3-6.6-0.2
				c-2.2,0-4.6,0.2-7.2,0.5c2.5,1.8,4.6,3.3,6.4,4.4c1.8,1.1,3.5,2.1,5.2,2.9c1.6,0.8,3.3,1.5,5.1,2s3.8,1.2,6.2,1.8
				c1.7,0.5,2.6,0.9,2.7,1.3C164.5,45.1,163.6,45.5,161.8,45.8z M156.3,8.8c1.6,1.5,2.2,2.6,1.8,3.2c-0.4,0.6-1.7,0.8-3.9,0.5
				c-0.5-0.1-1.1-0.1-1.8-0.2s-1.4-0.1-2.1-0.1c-0.7,0-1.4,0-2.2,0c-0.7,0-1.4,0-2,0.1c-0.4,0.8-0.8,1.5-1.2,2
				c-0.4,0.5-0.8,0.9-1.4,1.4c-1,0.8-1.8,1.3-2.3,1.2c-0.5,0-0.6-0.7-0.1-2.1c0.2-0.4,0.3-0.8,0.4-1.1c0.1-0.4,0.2-0.8,0.3-1.2
				c-1.6,0.1-3.2,0.2-4.6,0.4c-1.5,0.2-3.2,0.3-5.1,0.5c0,0.2,0,0.4,0,0.6c0,0.2,0,0.4,0,0.7c0,0.8-0.1,1.4-0.3,1.8
				c-0.2,0.4-0.5,0.7-0.9,0.8c-0.3,0.1-0.7,0-1.1-0.4c-0.4-0.3-0.7-0.9-1-1.6c-0.1-0.3-0.2-0.5-0.2-0.7c-0.1-0.2-0.2-0.5-0.2-0.7
				c-1,0.1-1.8,0.2-2.5,0.3c-0.7,0.1-1.3,0.2-1.8,0.3c-0.8,0.2-1.5,0.3-2.1,0.4s-1.1,0-1.5,0s-0.9-0.2-1.3-0.4
				c-0.4-0.2-0.8-0.5-1.3-0.9c-1-0.8-1.4-1.3-1.2-1.6s1.1-0.4,2.7-0.3c0.9,0,2,0,3.3-0.1c1.3-0.1,2.9-0.2,4.6-0.4
				c-0.4-1.1-0.7-2-1.1-2.6c-0.3-0.6-0.8-1.1-1.3-1.4c-1.5-0.9-2-1.6-1.8-2.2s1.7-0.6,4.3-0.3c1.2,0.2,2.1,0.4,2.9,0.6
				c0.7,0.2,1.3,0.5,1.6,0.8c0.3,0.3,0.5,0.7,0.5,1c0,0.4-0.1,0.8-0.3,1.3c-0.2,0.4-0.3,1.1-0.3,2.2c0.8-0.1,1.7-0.2,2.7-0.3
				c0.9-0.1,1.9-0.2,2.8-0.3c0.9-0.1,1.8-0.2,2.7-0.3s1.6-0.2,2.3-0.3c0.2-1.1,0.2-2,0.1-2.6c-0.1-0.7-0.2-1.3-0.4-1.7
				c-0.7-1.5-0.8-2.4-0.3-2.7c0.5-0.3,2-0.1,4.5,0.9c1,0.4,1.8,0.8,2.4,1.2c0.6,0.4,0.9,0.7,1.1,1s0.1,0.7,0,1
				c-0.2,0.3-0.4,0.6-0.8,0.9c-0.2,0.2-0.4,0.3-0.5,0.5c-0.2,0.2-0.3,0.4-0.5,0.7c1.3-0.2,2.5-0.4,3.4-0.5c0.9-0.1,1.7-0.1,2.3-0.1
				c0.6,0,1.1,0.1,1.5,0.3C155.6,8.3,156,8.5,156.3,8.8z M131.6,27.6c0,0.6-0.1,1-0.3,1.4c-0.3,0.4-0.6,0.6-1,0.8
				c-0.4,0.2-0.8,0.2-1.3,0.1c-0.5-0.1-0.9-0.4-1.3-0.7c-1.1-1.1-2-2.2-2.6-3.4c-0.4-0.7-0.5-1.2-0.2-1.6c0.2-0.3,0.9-0.4,1.9-0.2
				c1.1,0.2,2,0.5,2.6,0.7s1.1,0.5,1.4,0.7c0.3,0.3,0.5,0.6,0.6,1C131.5,26.6,131.6,27.1,131.6,27.6z M149.5,25.5
				c-0.3,0-0.6,0.1-0.9,0.2c-0.4,0.1-0.9,0.3-1.5,0.5c-0.6,0.2-1.4,0.5-2.4,0.8s-2.1,0.8-3.5,1.3c-1,0.4-1.5,0.5-1.8,0.3
				c-0.2-0.2,0.2-0.8,1.3-1.6c1.4-1.1,2.4-2,2.8-2.6c0.5-0.6,0.7-1.2,0.6-1.8c0-0.9,0.2-1.4,0.8-1.5c0.6-0.1,1.7,0.2,3.4,0.9
				c1.9,0.9,2.8,1.6,2.9,2.2C151.3,24.8,150.7,25.2,149.5,25.5z"/>
		</g>
	</g>
</g>
<g class="st0">
	<path class="st1" d="M4.1,69.5c0-1.9,1.7-3,2-3.2c0.2-0.1,0.4-0.2,0.5-0.2c0.1,0,0.2,0.1,0.2,0.1s-0.1,0.2-0.2,0.3
		c-0.3,0.2-1,1.1-1,2c0,0.2,0.1,0.5,0.3,0.5c0.2,0.1,0.9,0.3,0.9,1.2c0,0.6-0.5,1-1.1,1C5,71.4,4.1,70.7,4.1,69.5z M7.5,69.5
		c0-1.9,1.7-3,2-3.2c0.2-0.1,0.4-0.2,0.5-0.2c0.1,0,0.2,0.1,0.2,0.1s-0.1,0.2-0.2,0.3c-0.3,0.2-1,1.1-1,2c0,0.2,0.1,0.5,0.3,0.5
		c0.2,0.1,0.9,0.3,0.9,1.2c0,0.6-0.5,1-1.1,1C8.4,71.4,7.5,70.7,7.5,69.5z"/>
	<path class="st1" d="M15.9,74.4c0,0.8,0,3.3,0,3.5c0,0.4,0.2,0.6,0.5,0.6h0.9c0.1,0,0.1,0.1,0.1,0.1v0.5c0,0.1,0,0.1-0.2,0.1
		c-0.3,0-0.8-0.1-2.9-0.1c-1.6,0-2.3,0.1-2.5,0.1c-0.1,0-0.1-0.1-0.1-0.1v-0.5c0-0.1,0-0.1,0.1-0.1h0.5c0.6,0,0.7-0.1,0.8-0.5
		c0-0.2,0.1-3,0.1-5.1v-2.1c0-1.2,0-3.1,0-3.3c0-0.4-0.2-0.4-0.6-0.4h-0.8c-0.1,0-0.1,0-0.1-0.1v-0.5c0-0.1,0-0.1,0.1-0.1
		c0.2,0,0.8,0.1,2.7,0.1c0.3,0,1.4-0.1,2-0.1c2.2,0,3.3,0.2,4.3,1c0.8,0.6,1.3,1.6,1.3,2.8c0,2.2-1.7,3.6-4.8,3.6
		c-0.6,0-1,0-1.5-0.1V74.4z M15.9,73.1c0.4,0.1,0.8,0.1,1.1,0.1c0.6,0,1.5-0.6,1.9-1.2c0.4-0.6,0.4-1.2,0.4-1.9c0-2.5-1.8-3-2.5-3
		c-0.3,0-0.5,0-0.8,0.1V73.1z"/>
	<path class="st1" d="M26.1,78.3c-1.3-0.8-2.6-2.7-2.6-5.3c0-1.1,0.3-2.8,1.7-4.5c1.6-1.9,3.6-2.3,5.2-2.3c1.5,0,2.9,0.2,4.4,1.4
		c1.4,1.1,2.5,2.9,2.5,5.4c0,1.3-0.4,2.7-1.4,3.9c-1.2,1.5-2.7,2.5-5.5,2.5C29.1,79.5,27.6,79.2,26.1,78.3z M34.4,73.1
		c0-3.9-2.6-6.1-4.1-6.1c-0.4,0-1.3-0.1-2.4,1c-1.1,1-1.6,2.9-1.6,4.4c0,4.6,2.6,6.2,4.1,6.2C33.8,78.6,34.4,74.6,34.4,73.1z"/>
	<path class="st1" d="M43.1,73.6c0,0.3,0,4.2,0.1,4.9h1c0.8,0,1.7,0,2.6-0.1c1-0.1,2.2-2.2,2.5-2.9c0.1-0.1,0.1-0.2,0.2-0.1l0.4,0.1
		c0.1,0,0.1,0.1,0,0.2c-0.1,0.1-0.8,3.1-0.9,3.6c-0.5,0-5.7-0.1-7.3-0.1c-1.8,0-2.4,0.1-2.7,0.1c-0.1,0-0.1,0-0.1-0.2v-0.5
		c0-0.1,0-0.1,0.1-0.1h0.6c0.7,0,0.8-0.3,0.8-0.5c0-0.3,0.1-4.8,0.1-5.9v-1c0-1.2,0-3.1-0.1-3.3c0-0.5-0.1-0.6-0.5-0.6h-0.7
		C39,67.1,39,67,39,67v-0.4c0-0.1,0-0.1,0.1-0.1c0.2,0,0.8,0.1,2.5,0.1c2.1,0,2.9-0.1,3-0.1c0.1,0,0.2,0.1,0.2,0.2V67
		c0,0.1,0,0.1-0.2,0.1h-0.8c-0.6,0-0.6,0.2-0.6,0.7c0,0.2-0.1,3-0.1,4.2V73.6z"/>
	<path class="st1" d="M53.4,74.3c-0.1,0.4-1,2.8-1,3.4c0,0.4,0.2,0.8,0.7,0.8h0.6c0.2,0,0.2,0.1,0.2,0.1v0.4c0,0.1,0,0.2-0.2,0.2
		c-0.2,0-1-0.1-2.4-0.1c-1.3,0-1.7,0.1-2,0.1c-0.1,0-0.1-0.1-0.1-0.2v-0.3c0-0.1,0-0.2,0.1-0.2h0.5c0.4,0,0.9-0.3,1.2-0.8
		c0.3-0.4,1.5-3.5,2.1-5.1c0.1-0.4,1.6-4.2,1.8-4.7c0.1-0.2,0.1-0.4,0-0.6c-0.1-0.1-0.1-0.2-0.1-0.2c0-0.1,0-0.1,0.2-0.2
		c0.6-0.1,1.7-0.6,2-0.9c0.1-0.1,0.1-0.2,0.2-0.2c0.1,0,0.1,0.1,0.2,0.3c0.3,1.1,1.7,5.2,2.1,6.3c0.4,1.4,1.6,4.8,1.8,5.2
		c0.3,0.6,0.8,0.8,1,0.8h0.6c0.1,0,0.1,0.1,0.1,0.2V79c0,0.1,0,0.2-0.2,0.2c-0.3,0-0.7-0.1-3-0.1c-1.5,0-2.1,0.1-2.5,0.1
		c-0.2,0-0.2-0.1-0.2-0.2v-0.3c0-0.1,0-0.2,0.1-0.2h0.5c0.5,0,0.6-0.2,0.5-0.6c-0.2-0.6-0.9-3-1.1-3.6H53.4z M57.2,73.5l-1.4-4.8
		c-0.1-0.3-0.1-0.4-0.2-0.4c-0.1,0-0.2,0.1-0.2,0.2c-0.1,0.2-1.6,4.5-1.8,4.9H57.2z"/>
	<path class="st1" d="M65.2,71c0-1.3,0-2.5,0-3c0-0.6-0.3-0.9-0.5-0.9H64c-0.1,0-0.1-0.1-0.1-0.1v-0.5c0-0.1,0-0.1,0.1-0.1
		c0.2,0,0.7,0.1,2.7,0.1c1,0,2.6-0.1,3.3-0.1c1.4,0,2.4,0.5,3.2,1.2c0.6,0.6,1,1.3,1,2c0,2.3-1.7,3.3-3.3,3.5v0.1
		c0.6,0.2,0.8,0.5,1.2,1c0.2,0.3,1.2,1.9,1.4,2.1c0.1,0.2,1.1,1.5,1.4,1.9c0.2,0.2,0.9,0.4,1.3,0.4c0.1,0,0.1,0.1,0.1,0.1v0.4
		c0,0.1,0,0.2-0.1,0.2c-0.1,0-0.6-0.1-2-0.1c-0.5,0-1.2,0-1.7,0.1c-0.5-0.4-1.7-2.5-2-3.1c-0.6-1.2-1.4-2.6-2.2-2.6h-0.6v0.9
		c0,1.1,0.1,3.1,0.1,3.3c0,0.4,0.2,0.7,0.5,0.7H69c0.1,0,0.1,0.1,0.1,0.1v0.4c0,0.1,0,0.2-0.3,0.2c0,0-0.5-0.1-2.4-0.1
		c-1.9,0-2.3,0.1-2.5,0.1c-0.1,0-0.1-0.1-0.1-0.2v-0.4c0-0.1,0-0.1,0.1-0.1h0.5c0.4,0,0.7-0.1,0.7-0.6c0-1.8,0-3.5,0-5.2V71z
		 M67.7,72.9c0.3,0,0.6,0,0.7,0c2.4,0,2.9-2.3,2.9-3.1c0-0.8-0.3-1.6-0.7-2c-0.6-0.6-1.5-0.8-2-0.8c-0.3,0-0.5,0-0.7,0.2
		c-0.1,0.1-0.2,0.3-0.2,0.5L67.7,72.9z"/>
	<path class="st1" d="M79.5,78.3c-1.3-0.8-2.6-2.7-2.6-5.3c0-1.1,0.3-2.8,1.7-4.5c1.6-1.9,3.6-2.3,5.2-2.3c1.5,0,2.9,0.2,4.4,1.4
		c1.4,1.1,2.5,2.9,2.5,5.4c0,1.3-0.4,2.7-1.4,3.9c-1.2,1.5-2.7,2.5-5.5,2.5C82.5,79.5,80.9,79.2,79.5,78.3z M87.8,73.1
		c0-3.9-2.6-6.1-4.1-6.1c-0.4,0-1.3-0.1-2.4,1c-1.1,1-1.6,2.9-1.6,4.4c0,4.6,2.6,6.2,4.1,6.2C87.2,78.6,87.8,74.6,87.8,73.1z"/>
	<path class="st1" d="M93.9,71.7c0-0.4-0.1-3.7-0.1-3.9c0-0.4-0.2-0.6-0.6-0.6h-0.9c-0.1,0-0.1,0-0.1-0.1v-0.5
		c0-0.1,0.1-0.1,0.1-0.1c0.2,0,1.1,0.1,2.9,0.1c1.8,0,2.4-0.1,2.7-0.1c0.1,0,0.1,0.1,0.1,0.2V67c0,0.1-0.1,0.1-0.1,0.1h-0.5
		c-0.5,0-0.7,0.1-0.7,0.5c0,0.2-0.1,4.2-0.1,4.4v1.4c0,0.2,0.1,4.3,0.1,4.5c0,0.6,0.3,0.6,0.6,0.6h0.7c0.1,0,0.1,0,0.1,0.1v0.5
		c0,0.1-0.1,0.1-0.2,0.1c-0.2,0-0.9-0.1-2.6-0.1c-1.9,0-2.7,0.1-2.9,0.1c-0.1,0-0.1,0-0.1-0.1v-0.5c0-0.1,0.1-0.1,0.1-0.1H93
		c0.4,0,0.7-0.1,0.8-0.5c0-0.3,0.1-4.2,0.1-5.1V71.7z"/>
	<path class="st1" d="M101.4,70.9c0-0.5-0.1-3-0.1-3.3c-0.1-0.4-0.3-0.5-0.6-0.5h-0.9c-0.1,0-0.1,0-0.1-0.1v-0.5
		c0-0.1,0.1-0.1,0.1-0.1c0.2,0,1,0.1,2.8,0.1c0.5,0,2.3-0.1,2.7-0.1c2.4,0,4.4,0.2,6.1,1.6c1.2,1,2,2.5,2,4.6c0,2.1-0.6,3.4-1.8,4.7
		c-1.7,1.9-4.8,1.9-6,1.9c-0.3,0-2.4-0.1-3.4-0.1c-1.6,0-2.3,0.1-2.5,0.1c-0.1,0-0.1,0-0.1-0.2v-0.5c0-0.1,0.1-0.1,0.1-0.1h0.9
		c0.3,0,0.5-0.1,0.6-0.4c0.1-0.4,0.1-4.4,0.1-5.8V70.9z M104.1,72.7c0,0.2,0,3.3,0,4.4c0,0.4,0.1,0.6,0.3,1c0.2,0.3,0.8,0.4,1.4,0.4
		c1,0,2.4-0.5,3.4-1.8c0.7-1,1.3-2.4,1.3-4.1c0-1.5-0.6-3-1.5-3.9c-1-1.1-2.5-1.6-3.6-1.6c-0.5,0-0.8,0-1,0.1
		c-0.3,0.1-0.3,0.4-0.4,0.8c0,0.8,0,3.1,0,3.4V72.7z"/>
	<path class="st1" d="M117.7,68c0,1.9-1.7,3-2,3.2c-0.2,0.1-0.4,0.2-0.5,0.2c-0.1,0-0.2-0.1-0.2-0.1s0.1-0.2,0.2-0.3
		c0.3-0.2,1-1.1,1-2c0-0.2-0.1-0.5-0.3-0.5c-0.2-0.1-0.9-0.3-0.9-1.2c0-0.6,0.5-1,1.1-1C116.9,66.2,117.7,66.8,117.7,68z M121.1,68
		c0,1.9-1.7,3-2,3.2c-0.2,0.1-0.4,0.2-0.5,0.2c-0.1,0-0.2-0.1-0.2-0.1s0.1-0.2,0.2-0.3c0.3-0.2,1-1.1,1-2c0-0.2-0.1-0.5-0.3-0.5
		c-0.2-0.1-0.9-0.3-0.9-1.2c0-0.6,0.5-1,1.1-1C120.3,66.2,121.1,66.8,121.1,68z"/>
</g>
</svg>
