<svg version="1.1" id="Layer_1" xmlns="http://www.w3.org/2000/svg" xmlns:xlink="http://www.w3.org/1999/xlink" x="0px" y="0px"
	 viewBox="0 0 239 104" style="enable-background:new 0 0 239 104;" xml:space="preserve">
<style type="text/css">
	.st0{enable-background:new    ;}
	.st1{fill:#95272B;}
</style>
<g id="Layer_2_1_">
	<g id="Layer_1-2">
		<g class="st0">
			<path class="st1" d="M58.7,47.3c-2.6,1.3-4.7,2.4-6.1,3.1c-1.5,0.7-2.8,1.2-3.8,1.4c-1,0.2-2,0.2-2.8,0.1c-0.9-0.2-1.9-0.5-3.2-1
				c-3.8-1.4-6.8-2.6-9.1-3.4c-2.3-0.9-4.1-1.6-5.5-2.1s-2.5-0.9-3.2-1.1c-0.8-0.2-1.5-0.5-2.2-0.7c-1.5-0.4-2.8-0.5-4-0.3
				s-2.7,0.6-4.4,1.4c-0.4,0.2-0.7,0.3-1,0.4c-0.3,0.1-0.6,0.1-1,0c-0.3-0.1-0.7-0.3-1.2-0.6c-0.5-0.3-1-0.7-1.7-1.3
				c-1.5-1.2-2.2-2-2-2.5c0.2-0.4,1.2-0.5,3-0.3c0.7,0.1,1.4,0.1,2.2-0.1c0.8-0.1,1.9-0.3,3.1-0.6c1.2-0.3,2.4-0.3,3.7-0.2
				c0-1.1-0.2-2-0.4-2.7c-0.2-0.7-0.6-1.3-1-1.9c-0.5-0.6-0.9-1.1-1.1-1.5c-0.3-0.4-0.4-0.9-0.4-1.4c0-0.5,0.1-1.1,0.3-1.7
				c0.2-0.6,0.6-1.4,1.1-2.3c0.4-0.7,0.5-1.1,0.4-1.2c-0.1-0.1-0.3-0.2-0.6-0.1c-0.8,0.3-1.4,0.5-1.8,0.6s-0.9,0.2-1.2,0.2
				c-0.4,0-0.7-0.1-1-0.3c-0.3-0.2-0.7-0.4-1.2-0.7c-1.4-1-2.1-1.6-1.9-1.9c0.1-0.3,1-0.5,2.7-0.8c1-0.2,1.9-0.4,2.7-0.7
				c0.8-0.3,1.5-0.7,2.1-1.2c0.4-0.3,0.8-0.6,1.1-0.7c0.3-0.2,0.6-0.2,1-0.2s0.7,0.1,1.2,0.3c0.4,0.2,1,0.5,1.7,0.9
				c0.8,0.5,1.3,0.9,1.7,1.2c0.4,0.4,0.6,0.7,0.7,1c0.1,0.3,0,0.6-0.2,0.9s-0.5,0.6-0.9,0.9c-2.1,1.7-3.4,3.2-3.9,4.4
				c-0.6,1.2-0.4,2.1,0.5,2.7c1,0.7,1.6,1.5,1.8,2.6c0.3,1.1,0.2,2.4-0.3,4c0.5,0.1,1,0.2,1.5,0.3c0.5,0.1,1,0.2,1.6,0.4
				c3.7,1,6.9,1.8,9.6,2.4c2.7,0.6,5.3,1,7.6,1.3c2.4,0.3,4.7,0.5,7.1,0.5s5,0,8.1-0.1c2.2-0.1,3.4,0.1,3.6,0.4
				C61.6,45.6,60.7,46.3,58.7,47.3z M25,14c0,0.6-0.1,1.1-0.4,1.6c-0.2,0.5-0.6,0.8-1,1s-0.9,0.3-1.3,0.3c-0.5-0.1-1-0.3-1.6-0.8
				c-0.7-0.6-1.4-1.3-2.2-2.1c-0.7-0.8-1.5-1.8-2.4-3c-0.5-0.7-0.9-1.3-1.1-1.7S14.9,8.5,15,8.3C15.1,8.1,15.5,8,16,8
				c0.5,0,1.2,0,2.2,0.1c2.6,0.2,4.4,0.8,5.4,1.7C24.6,10.7,25.1,12.1,25,14z M55.9,15.5c1.5,1.4,2,2.5,1.6,3.1
				c-0.4,0.7-2.1,0.9-5.1,0.7c-0.7-0.1-1.5-0.1-2.6-0.1s-2.2,0.1-3.4,0.1c0.1,5.3,0.3,9.9,0.5,13.8c0,1.1,0,2.1,0,3
				c0,0.8-0.1,1.6-0.2,2.2c-0.1,0.6-0.4,1.2-0.7,1.8c-0.3,0.6-0.7,1.2-1.2,1.9c-0.9,1.1-1.8,1.7-2.7,1.8s-1.6-0.3-2-1.3
				c-0.7-1.8-2.1-3.5-4-5.1c-1.5-1.2-2.2-2-1.9-2.3c0.3-0.3,1.3-0.3,3.1,0.1c1.3,0.3,2.3,0.4,2.8,0.3c0.5-0.1,0.8-0.4,0.8-0.9
				c0.1-1.6,0.2-3.8,0.3-6.4c0.1-2.6,0.1-5.4,0.1-8.3c-1.1,0.2-2.3,0.4-3.6,0.6c-1.2,0.2-2.5,0.5-3.8,0.8c-1.4,0.3-2.5,0.5-3.2,0.4
				c-0.8-0.1-1.5-0.5-2.2-1.1c-1.3-1.1-1.9-1.7-1.8-2c0.2-0.3,1.1-0.4,2.8-0.5c1.6-0.1,3.4-0.2,5.5-0.5c2-0.3,4.1-0.6,6.2-1
				c-0.1-2.7-0.3-5.1-0.7-7.2c-0.4-2.1-0.9-3.5-1.4-4.1c-1.2-1.4-1.4-2.4-0.7-2.8c0.7-0.5,2.5-0.2,5.3,0.9c2,0.8,3.2,1.5,3.7,2.2
				c0.5,0.6,0.5,1.4,0.1,2.2c-0.4,0.7-0.7,1.7-0.8,3c-0.1,1.2-0.2,2.9-0.1,5c0.8-0.2,1.6-0.3,2.2-0.5c1.1-0.3,2-0.5,2.8-0.6
				s1.4-0.2,1.9-0.2c0.5,0,1,0.2,1.3,0.3C55.2,14.9,55.5,15.1,55.9,15.5z M37.5,28.3c0,0.8-0.1,1.4-0.3,1.9
				c-0.2,0.5-0.5,0.9-0.9,1.1c-0.4,0.2-0.8,0.3-1.3,0.3c-0.5,0-0.9-0.2-1.4-0.6C33,30.6,32.4,30,32,29.2c-0.4-0.8-0.9-2-1.5-3.6
				c-0.4-1.2-0.5-1.9-0.3-2.3c0.2-0.3,1-0.3,2.5,0.1c1.5,0.4,2.7,1.1,3.5,2C37,26.4,37.5,27.3,37.5,28.3z"/>
		</g>
		<g class="st0">
			<path class="st1" d="M93.7,20.2c1.3,0.7,1.9,1.2,1.7,1.7c-0.2,0.5-1.4,0.9-3.6,1.3c-0.9,0.2-1.8,0.4-2.6,0.5
				c-0.8,0.1-1.6,0.3-2.3,0.5c0,0.7-0.1,1.3-0.1,2.1c0,0.7,0,1.5-0.1,2.4c1.1-0.1,1.9-0.2,2.6-0.1c0.7,0,1.2,0.1,1.7,0.2
				s0.9,0.3,1.2,0.5c0.3,0.2,0.6,0.5,0.9,0.9c0.4,0.5,0.7,1,0.7,1.5c0.1,0.4,0,0.8-0.2,1.1c-0.2,0.3-0.5,0.6-0.9,0.7
				c-0.4,0.1-0.8,0.2-1.3,0.1c-1-0.2-1.8-0.5-2.6-0.9c-0.7-0.4-1.4-0.9-2.2-1.5c0,1.8,0,3.7,0,5.8c0,2.1,0,4.2,0.1,6.4
				c0,1.1,0,2,0,2.8c0,0.8-0.1,1.5-0.1,2.1c-0.1,0.6-0.2,1.2-0.3,1.7c-0.2,0.5-0.4,1-0.6,1.5c-0.7,1.5-1.6,2.2-2.6,2.3
				c-1,0.1-1.8-0.6-2.4-2.2c-0.2-0.6-0.4-1.1-0.6-1.6c-0.2-0.5-0.2-0.9-0.2-1.4s0.1-1,0.2-1.5c0.1-0.5,0.4-1.2,0.7-1.9
				c0.2-0.3,0.3-0.7,0.4-1.2c0.1-0.5,0.2-1.1,0.3-2c0.1-0.8,0.2-1.9,0.3-3.2c0.1-1.3,0.2-3,0.2-5.1c-1.3,1.8-2.8,3.3-4.5,4.6
				c-1.7,1.3-3.7,2.5-6,3.6c-2,0.9-3.1,1.2-3.5,0.9c-0.3-0.3,0.4-1.2,2.1-2.8c3-2.7,5.5-5.3,7.3-7.9c1.8-2.6,3.1-4.9,3.9-6.8
				c-1.3,0.3-2.4,0.6-3.2,0.8c-0.8,0.2-1.5,0.5-2,0.8c-0.6,0.3-1.1,0.5-1.5,0.7c-0.4,0.2-0.9,0.2-1.3,0.1c-0.4-0.1-0.9-0.3-1.4-0.6
				c-0.5-0.3-1.1-0.8-1.9-1.4c-1.2-1-1.8-1.6-1.6-2c0.2-0.3,1.2-0.5,3.1-0.5c1.2,0,2.8-0.1,4.7-0.4c2-0.2,4-0.6,6-1
				c0-1.8,0-3.2-0.1-4.1c-0.1-1-0.3-1.8-0.6-2.5c-0.7,0.1-1.3,0.2-2.1,0.3s-1.6,0.2-2.4,0.3c-1.4,0.1-2.2,0-2.3-0.4
				c-0.2-0.4,0.6-0.9,2.2-1.6c1.6-0.7,3-1.3,4.1-1.9c1.1-0.6,2-1.1,2.8-1.7c0.7-0.5,1.2-1,1.6-1.4c0.3-0.4,0.5-0.9,0.6-1.3
				c0.1-0.9,0.5-1.4,1.2-1.4c0.7-0.1,1.9,0.4,3.5,1.4c1,0.6,1.7,1.2,2.2,1.6c0.4,0.5,0.7,0.9,0.7,1.3c0,0.4-0.2,0.7-0.6,0.9
				c-0.4,0.2-0.9,0.5-1.6,0.6c-0.6,0.2-1.1,0.4-1.6,0.6c-0.5,0.2-1,0.4-1.6,0.6c-0.4,0.2-0.8,0.4-1.2,0.5c-0.4,0.2-0.7,0.3-1.1,0.4
				c0.7,0.3,1.2,0.6,1.6,0.8c0.4,0.2,0.6,0.5,0.7,0.7c0.1,0.2,0.1,0.5,0.1,0.7c-0.1,0.3-0.2,0.6-0.3,0.9c-0.2,0.5-0.4,1-0.5,1.5
				c-0.1,0.5-0.2,1.2-0.3,2.1c0.4-0.1,0.7-0.2,1.1-0.3c0.3-0.1,0.6-0.2,0.9-0.3c1-0.3,1.8-0.5,2.4-0.5
				C92.2,19.7,92.9,19.9,93.7,20.2z M112.8,27.1c-0.4,0-0.9,0.1-1.3,0.2c-0.5,0.1-0.9,0.2-1.3,0.4c-0.7,0.2-1.5,0.4-2.2,0.6
				c-0.7,0.2-1.5,0.3-2.2,0.5c0.9,0.4,1.4,0.7,1.6,0.9c0.2,0.2,0.2,0.6,0.1,0.9c-0.2,0.5-0.3,0.9-0.4,1.2c-0.1,0.3-0.2,0.8-0.2,1.3
				c1.1-0.3,2.1-0.5,2.8-0.6c0.7,0,1.4,0.1,2,0.3c1.5,0.6,2.2,1.2,2.2,1.8c-0.1,0.6-0.8,1-2.3,1.3c-0.6,0.2-1.3,0.3-2.1,0.5
				c-0.8,0.1-1.7,0.2-2.6,0.3l-0.2,5.8c1.5-0.2,2.7-0.4,3.8-0.6c1.1-0.2,1.9-0.4,2.4-0.5c1.5-0.4,2.8-0.5,3.8-0.3
				c1.1,0.2,2,0.7,2.9,1.5c0.8,0.8,1.4,1.5,1.8,2.1c0.3,0.6,0.4,1.1,0.2,1.4c-0.2,0.3-0.8,0.5-1.6,0.6c-0.9,0.1-2.1-0.1-3.7-0.4
				c-0.6-0.1-1.4-0.2-2.4-0.3c-1-0.1-2.1-0.1-3.3-0.1c-1.2,0-2.5,0-3.8,0c-1.3,0-2.6,0.1-3.8,0.2c-1.2,0.1-2.4,0.2-3.5,0.4
				c-1.1,0.2-2,0.3-2.8,0.6c-0.9,0.3-1.7,0.5-2.3,0.6c-0.6,0.1-1.2,0.2-1.6,0.1s-0.9-0.2-1.3-0.3c-0.4-0.2-0.8-0.5-1.3-0.8
				c-0.7-0.5-1.3-0.9-1.6-1.2c-0.3-0.3-0.4-0.6-0.3-0.8c0.1-0.2,0.5-0.3,1.2-0.4c0.7-0.1,1.7-0.1,3-0.1c0.7,0,1.8-0.1,3.5-0.3
				c1.7-0.2,3.5-0.4,5.5-0.6l0.1-6c-1,0.1-1.8,0.1-2.5,0.1c-0.7,0-1.3-0.1-1.6-0.2c-2-0.6-3-1.1-3.2-1.4c-0.2-0.4,0.9-0.7,3-0.9
				c0.5-0.1,1.2-0.2,1.9-0.2c0.7-0.1,1.5-0.2,2.4-0.4c0-1,0-1.9-0.1-2.7c-0.1-0.8-0.2-1.5-0.4-2.1c-0.8,0.1-1.6,0.2-2.3,0.3
				s-1.4,0.1-2,0.1c-0.9,0.1-1.6,0-2.1-0.1c-0.5-0.1-0.7-0.3-0.8-0.5c0-0.2,0.1-0.4,0.5-0.7c0.4-0.2,0.9-0.5,1.7-0.7
				c1.7-0.4,3.3-0.9,4.7-1.4c1.4-0.5,2.6-1,3.6-1.4c1-0.5,1.8-0.9,2.4-1.3c0.6-0.4,0.9-0.8,1.1-1.1c0.2-0.7,0.6-1,1.1-1.1
				c0.5-0.1,1.2,0.2,2.2,0.9c0.5,0.4,1,0.7,1.3,1c0.3,0.3,0.7,0.6,1.2,1c0.9,0.7,1.3,1.3,1.2,1.8C114.8,26.7,114.1,27,112.8,27.1z
				 M114,8.9c1,0.7,1.7,1.2,2.2,1.7c0.5,0.5,0.8,0.9,0.9,1.3c0.1,0.4,0,0.7-0.3,1.1c-0.3,0.3-0.7,0.7-1.1,1
				c-0.2,0.2-0.5,0.4-0.7,0.5c-0.2,0.2-0.4,0.4-0.7,0.7c-0.2,0.3-0.5,0.7-0.8,1.2c-0.3,0.5-0.7,1.1-1.1,1.8c0.6,0.5,1,0.9,1.2,1.3
				c0.2,0.4,0.2,0.7,0,1s-0.5,0.5-1,0.7c-0.5,0.2-1.1,0.2-1.8,0.2c-0.9,0-2.1,0-3.7,0.1c-1.6,0.1-3.6,0.4-6.2,0.8
				c-0.2,0.5-0.5,1-0.8,1.3c-0.3,0.4-0.7,0.6-1.1,0.6c-0.4,0-0.7-0.2-1-0.6c-0.3-0.4-0.5-1.1-0.7-2.2c-0.4-2.6-0.9-4.7-1.4-6.2
				c-0.5-1.5-1-2.5-1.5-3c-0.3-0.4-0.6-0.7-0.7-1.1c-0.1-0.3,0-0.6,0.2-0.8c0.2-0.2,0.7-0.3,1.3-0.3c0.7,0,1.6,0,2.7,0.1
				c1.2-0.1,2.3-0.2,3.4-0.4c1.1-0.2,2.1-0.4,3-0.6c0.9-0.2,1.6-0.5,2.3-0.7c0.7-0.2,1.1-0.5,1.4-0.7c0.4-0.3,0.8-0.5,1.1-0.6
				c0.4-0.1,0.8-0.2,1.2-0.1c0.4,0.1,0.9,0.3,1.5,0.5C112.6,8,113.2,8.4,114,8.9z M108.6,13.6c0.2-0.9,0.2-1.4,0.1-1.6
				c-0.1-0.2-0.4-0.3-0.8-0.3c-0.6,0-1.6,0.1-2.9,0.3c-1.3,0.1-2.8,0.3-4.5,0.5c0.2,1,0.4,2.1,0.5,3.3c0.1,1.2,0.2,2.4,0.2,3.7
				c1.3-0.3,2.5-0.5,3.5-0.7c1-0.2,1.8-0.4,2.5-0.6C107.7,17.4,108.1,15.9,108.6,13.6z"/>
		</g>
	</g>
</g>
<g class="st0">
	<path class="st1" d="M5.3,69.5c0-1.9,1.7-3,2-3.2c0.2-0.1,0.4-0.2,0.5-0.2c0.1,0,0.2,0.1,0.2,0.1s-0.1,0.2-0.2,0.3
		c-0.3,0.2-1,1.1-1,2c0,0.2,0.1,0.5,0.3,0.5c0.2,0.1,0.9,0.3,0.9,1.2c0,0.6-0.5,1-1.1,1C6.1,71.4,5.3,70.7,5.3,69.5z M8.7,69.5
		c0-1.9,1.7-3,2-3.2c0.2-0.1,0.4-0.2,0.5-0.2c0.1,0,0.2,0.1,0.2,0.1s-0.1,0.2-0.2,0.3c-0.3,0.2-1,1.1-1,2c0,0.2,0.1,0.5,0.3,0.5
		c0.2,0.1,0.9,0.3,0.9,1.2c0,0.6-0.5,1-1.1,1C9.6,71.4,8.7,70.7,8.7,69.5z"/>
	<path class="st1" d="M18,67.3h-0.6c-0.6,0-1.7,0-2.4,0.3c-0.4,0.3-1.2,1.4-1.6,2c-0.1,0.1-0.1,0.1-0.2,0.1l-0.4-0.1
		c-0.1,0-0.1-0.1-0.1-0.2c0.2-0.8,0.8-3.1,0.9-3.5c0.1-0.2,0.1-0.3,0.3-0.3s0.2,0.1,0.3,0.3c0.2,0.3,0.5,0.4,1.2,0.5
		c1,0.1,1.7,0.1,3.6,0.1h1c2,0,2.7-0.1,3.5-0.1c0.4,0,1.1-0.2,1.3-0.5c0.2-0.2,0.3-0.3,0.4-0.3s0.2,0.1,0.2,0.3l0.5,3.6
		c0,0.1,0,0.1-0.1,0.2l-0.4,0.1c-0.1,0-0.1,0-0.2-0.2c-0.4-0.6-1.1-1.6-1.5-2c-0.5-0.3-2.1-0.3-2.5-0.3h-0.6v5c0,0.3,0,5.3,0,5.6
		c0,0.5,0.2,0.7,0.6,0.7h0.8c0.2,0,0.2,0.1,0.2,0.2v0.4c0,0.1,0,0.1-0.2,0.1c-0.2,0-0.8-0.1-2.8-0.1c-1.9,0-2.7,0.1-2.9,0.1
		c-0.1,0-0.2-0.1-0.2-0.2v-0.3c0-0.1,0-0.2,0.1-0.2h0.9c0.4,0,0.6-0.2,0.6-0.5c0-0.4,0-5.9,0-6.2V67.3z"/>
	<path class="st1" d="M29.5,78.3c-1.3-0.8-2.6-2.7-2.6-5.3c0-1.1,0.3-2.8,1.7-4.5c1.6-1.9,3.6-2.3,5.2-2.3c1.5,0,2.9,0.2,4.4,1.4
		c1.4,1.1,2.5,2.9,2.5,5.4c0,1.3-0.4,2.7-1.4,3.9c-1.2,1.5-2.7,2.5-5.5,2.5C32.4,79.5,30.9,79.2,29.5,78.3z M37.8,73.1
		c0-3.9-2.6-6.1-4.1-6.1c-0.4,0-1.3-0.1-2.4,1c-1.1,1-1.6,2.9-1.6,4.4c0,4.6,2.6,6.2,4.1,6.2C37.2,78.6,37.8,74.6,37.8,73.1z"/>
	<path class="st1" d="M46.4,73.6c0,0.3,0,4.2,0.1,4.9h1c0.8,0,1.7,0,2.6-0.1c1-0.1,2.2-2.2,2.5-2.9c0.1-0.1,0.1-0.2,0.2-0.1l0.4,0.1
		c0.1,0,0.1,0.1,0,0.2c-0.1,0.1-0.8,3.1-0.9,3.6c-0.5,0-5.7-0.1-7.3-0.1c-1.8,0-2.4,0.1-2.7,0.1c-0.1,0-0.1,0-0.1-0.2v-0.5
		c0-0.1,0-0.1,0.1-0.1h0.6c0.7,0,0.8-0.3,0.8-0.5c0-0.3,0.1-4.8,0.1-5.9v-1c0-1.2,0-3.1-0.1-3.3c0-0.5-0.1-0.6-0.5-0.6h-0.7
		c-0.1,0-0.1-0.1-0.1-0.2v-0.4c0-0.1,0-0.1,0.1-0.1c0.2,0,0.8,0.1,2.5,0.1c2.1,0,2.9-0.1,3-0.1c0.1,0,0.2,0.1,0.2,0.2V67
		c0,0.1,0,0.1-0.2,0.1h-0.8c-0.6,0-0.6,0.2-0.6,0.7c0,0.2-0.1,3-0.1,4.2V73.6z"/>
	<path class="st1" d="M55.3,71.7c0-0.4-0.1-3.7-0.1-3.9c0-0.4-0.2-0.6-0.6-0.6h-0.9c-0.1,0-0.1,0-0.1-0.1v-0.5
		c0-0.1,0.1-0.1,0.1-0.1c0.2,0,1.1,0.1,2.9,0.1c1.8,0,2.4-0.1,2.7-0.1c0.1,0,0.1,0.1,0.1,0.2V67c0,0.1-0.1,0.1-0.1,0.1h-0.5
		c-0.5,0-0.7,0.1-0.7,0.5c0,0.2-0.1,4.2-0.1,4.4v1.4c0,0.2,0.1,4.3,0.1,4.5c0,0.6,0.3,0.6,0.6,0.6h0.7c0.1,0,0.1,0,0.1,0.1v0.5
		c0,0.1-0.1,0.1-0.2,0.1c-0.2,0-0.9-0.1-2.6-0.1c-1.9,0-2.7,0.1-2.9,0.1c-0.1,0-0.1,0-0.1-0.1v-0.5c0-0.1,0.1-0.1,0.1-0.1h0.5
		c0.4,0,0.7-0.1,0.8-0.5c0-0.3,0.1-4.2,0.1-5.1V71.7z"/>
	<path class="st1" d="M65.5,72.3c0.8,0,1.6-0.1,1.8-0.1c0.3-0.1,0.6-0.2,0.8-0.6c0.2-0.3,0.4-0.8,0.4-1.1c0-0.1,0.1-0.2,0.1-0.2
		l0.5,0.1c0.1,0,0.2,0,0.1,0.1c-0.1,0.3-0.1,1.2-0.1,1.9c0,0.8,0.1,1.7,0.1,2.1c0,0.1-0.1,0.1-0.1,0.1l-0.4,0.1
		c-0.1,0-0.1,0-0.1-0.1c-0.1-0.3-0.3-0.7-0.4-0.9c-0.2-0.3-0.6-0.6-1-0.6c-0.5-0.1-1-0.1-1.8-0.1V74c0,1,0.1,2.7,0.1,3
		c0,0.9,0.2,1.3,0.4,1.4c0.3,0.1,0.6,0.2,1.5,0.2c0.3,0,1.1,0,1.4-0.1c0.4,0,0.9-0.2,1.4-0.6s1.5-1.5,1.8-1.9
		c0.1-0.1,0.1-0.1,0.2-0.1l0.3,0.2c0.1,0,0.1,0.1,0.1,0.1L71.9,79c-0.1,0.2-0.2,0.3-0.4,0.3c-0.1,0-0.5,0-1.6,0c-1.2,0-3.1,0-6.2,0
		c-0.7,0-1.2,0-1.5,0c-0.4,0-0.6,0-0.8,0c-0.1,0-0.2-0.1-0.2-0.2v-0.4c0-0.1,0.1-0.2,0.2-0.2h0.5c0.8,0,0.9-0.1,0.9-0.8v-6
		c0-1.5,0-3.7-0.1-3.9c-0.1-0.6-0.3-0.7-0.7-0.7h-0.7c-0.1,0-0.1-0.1-0.1-0.2v-0.4c0-0.1,0-0.1,0.1-0.1c0.4,0,1,0.1,2.7,0.1l6.3,0
		c0.3,0,0.6,0,0.7,0c0.1,0,0.1,0,0.1,0.1c0.1,0.3,0.7,2.7,0.7,2.9c0,0.1,0,0.1-0.1,0.2l-0.3,0.1c-0.1,0-0.2,0-0.2-0.1
		c-0.1-0.1-1.7-1.8-2.1-2c-0.4-0.2-0.9-0.5-1.4-0.5l-2.4-0.1L65.5,72.3z"/>
	<path class="st1" d="M78.8,70.9c0-0.5-0.1-3-0.1-3.3c-0.1-0.4-0.3-0.5-0.6-0.5h-0.9c-0.1,0-0.1,0-0.1-0.1v-0.5
		c0-0.1,0.1-0.1,0.1-0.1c0.2,0,1,0.1,2.8,0.1c0.5,0,2.3-0.1,2.7-0.1c2.4,0,4.4,0.2,6.1,1.6c1.2,1,2,2.5,2,4.6c0,2.1-0.6,3.4-1.8,4.7
		c-1.7,1.9-4.8,1.9-6,1.9c-0.3,0-2.4-0.1-3.4-0.1c-1.6,0-2.3,0.1-2.5,0.1c-0.1,0-0.1,0-0.1-0.2v-0.5c0-0.1,0.1-0.1,0.1-0.1h0.9
		c0.3,0,0.5-0.1,0.6-0.4c0.1-0.4,0.1-4.4,0.1-5.8V70.9z M81.5,72.7c0,0.2,0,3.3,0,4.4c0,0.4,0.1,0.6,0.3,1c0.2,0.3,0.8,0.4,1.4,0.4
		c1,0,2.4-0.5,3.4-1.8c0.7-1,1.3-2.4,1.3-4.1c0-1.5-0.6-3-1.5-3.9c-1-1.1-2.5-1.6-3.6-1.6c-0.5,0-0.8,0-1,0.1
		c-0.3,0.1-0.3,0.4-0.4,0.8c0,0.8,0,3.1,0,3.4V72.7z"/>
	<path class="st1" d="M96.7,72.3c0.8,0,1.6-0.1,1.8-0.1c0.3-0.1,0.6-0.2,0.8-0.6c0.2-0.3,0.4-0.8,0.4-1.1c0-0.1,0.1-0.2,0.1-0.2
		l0.5,0.1c0.1,0,0.2,0,0.1,0.1c-0.1,0.3-0.1,1.2-0.1,1.9c0,0.8,0.1,1.7,0.1,2.1c0,0.1-0.1,0.1-0.1,0.1l-0.4,0.1
		c-0.1,0-0.1,0-0.1-0.1c-0.1-0.3-0.3-0.7-0.4-0.9c-0.2-0.3-0.6-0.6-1-0.6c-0.5-0.1-1-0.1-1.8-0.1V74c0,1,0.1,2.7,0.1,3
		c0,0.9,0.2,1.3,0.4,1.4c0.3,0.1,0.6,0.2,1.5,0.2c0.3,0,1.1,0,1.4-0.1c0.4,0,0.9-0.2,1.4-0.6s1.5-1.5,1.8-1.9
		c0.1-0.1,0.1-0.1,0.2-0.1l0.3,0.2c0.1,0,0.1,0.1,0.1,0.1l-0.8,2.7c-0.1,0.2-0.2,0.3-0.4,0.3c-0.1,0-0.5,0-1.6,0c-1.2,0-3.1,0-6.2,0
		c-0.7,0-1.2,0-1.5,0c-0.4,0-0.6,0-0.8,0c-0.1,0-0.2-0.1-0.2-0.2v-0.4c0-0.1,0.1-0.2,0.2-0.2h0.5c0.8,0,0.9-0.1,0.9-0.8v-6
		c0-1.5,0-3.7-0.1-3.9c-0.1-0.6-0.3-0.7-0.7-0.7h-0.7c-0.1,0-0.1-0.1-0.1-0.2v-0.4c0-0.1,0-0.1,0.1-0.1c0.4,0,1,0.1,2.7,0.1l6.3,0
		c0.3,0,0.6,0,0.7,0s0.1,0,0.1,0.1c0.1,0.3,0.7,2.7,0.7,2.9c0,0.1,0,0.1-0.1,0.2l-0.3,0.1c-0.1,0-0.2,0-0.2-0.1
		c-0.1-0.1-1.7-1.8-2.1-2c-0.4-0.2-0.9-0.5-1.4-0.5l-2.4-0.1L96.7,72.3z"/>
	<path class="st1" d="M112.3,66.5c0-0.1,0-0.1,0.1-0.1c0.2,0,1,0.1,2.2,0.1c1.7,0,2.1-0.1,2.3-0.1c0.1,0,0.1,0,0.1,0.2V67
		c0,0.1,0,0.1-0.1,0.1h-0.4c-0.3,0-0.9,0.1-1.3,0.9c-0.7,1.2-1.5,3.3-2.2,4.9c-0.5,1-2.5,5.8-2.8,6.3c-0.1,0.2-0.2,0.3-0.4,0.3
		c-0.2,0-0.3-0.2-0.4-0.5c-0.7-1.4-2.3-5.8-2.8-7c-0.5-1.2-1.4-3.9-1.6-4.4c-0.2-0.4-0.4-0.6-0.8-0.6h-0.5c-0.1,0-0.1-0.1-0.1-0.2
		v-0.4c0-0.1,0-0.1,0.1-0.1c0.2,0,0.8,0.1,2.9,0.1c1.9,0,2.7-0.1,2.8-0.1s0.2,0.1,0.2,0.2V67c0,0.1,0,0.2-0.1,0.2h-0.8
		c-0.4,0-0.8,0.2-0.8,0.4c0,0.1,0,0.4,0.1,0.6c0.1,0.6,0.8,2.8,1.2,3.8l1.4,4h0.1c0.5-1.2,1.4-3.5,1.6-4.1c0.3-0.9,0.9-2.4,1.2-3.2
		c0.2-0.5,0.2-0.8,0.2-1c0-0.2-0.2-0.6-0.7-0.6h-0.6c-0.1,0-0.1-0.1-0.1-0.2V66.5z"/>
	<path class="st1" d="M121.1,72.3c0.8,0,1.6-0.1,1.8-0.1c0.3-0.1,0.6-0.2,0.8-0.6c0.2-0.3,0.4-0.8,0.4-1.1c0-0.1,0.1-0.2,0.1-0.2
		l0.5,0.1c0.1,0,0.2,0,0.1,0.1c-0.1,0.3-0.1,1.2-0.1,1.9c0,0.8,0.1,1.7,0.1,2.1c0,0.1-0.1,0.1-0.1,0.1l-0.4,0.1
		c-0.1,0-0.1,0-0.1-0.1c-0.1-0.3-0.3-0.7-0.4-0.9c-0.2-0.3-0.6-0.6-1-0.6c-0.5-0.1-1-0.1-1.8-0.1V74c0,1,0.1,2.7,0.1,3
		c0,0.9,0.2,1.3,0.4,1.4c0.3,0.1,0.6,0.2,1.5,0.2c0.3,0,1.1,0,1.4-0.1c0.4,0,0.9-0.2,1.4-0.6c0.5-0.4,1.5-1.5,1.8-1.9
		c0.1-0.1,0.1-0.1,0.2-0.1l0.3,0.2c0.1,0,0.1,0.1,0.1,0.1l-0.8,2.7c-0.1,0.2-0.2,0.3-0.4,0.3c-0.1,0-0.5,0-1.6,0c-1.2,0-3.1,0-6.2,0
		c-0.7,0-1.2,0-1.5,0c-0.4,0-0.6,0-0.8,0c-0.1,0-0.2-0.1-0.2-0.2v-0.4c0-0.1,0.1-0.2,0.2-0.2h0.5c0.8,0,0.9-0.1,0.9-0.8v-6
		c0-1.5,0-3.7-0.1-3.9c-0.1-0.6-0.3-0.7-0.7-0.7h-0.7c-0.1,0-0.1-0.1-0.1-0.2v-0.4c0-0.1,0-0.1,0.1-0.1c0.4,0,1,0.1,2.7,0.1l6.3,0
		c0.3,0,0.6,0,0.7,0s0.1,0,0.1,0.1c0.1,0.3,0.7,2.7,0.7,2.9c0,0.1,0,0.1-0.1,0.2l-0.3,0.1c-0.1,0-0.2,0-0.2-0.1
		c-0.1-0.1-1.7-1.8-2.1-2c-0.4-0.2-0.9-0.5-1.4-0.5l-2.4-0.1L121.1,72.3z"/>
	<path class="st1" d="M133.2,73.6c0,0.3,0,4.2,0.1,4.9h1c0.8,0,1.7,0,2.6-0.1c1-0.1,2.2-2.2,2.5-2.9c0.1-0.1,0.1-0.2,0.2-0.1
		l0.4,0.1c0.1,0,0.1,0.1,0,0.2c-0.1,0.1-0.8,3.1-0.9,3.6c-0.5,0-5.7-0.1-7.3-0.1c-1.8,0-2.4,0.1-2.7,0.1c-0.1,0-0.1,0-0.1-0.2v-0.5
		c0-0.1,0-0.1,0.1-0.1h0.6c0.7,0,0.8-0.3,0.8-0.5c0-0.3,0.1-4.8,0.1-5.9v-1c0-1.2,0-3.1-0.1-3.3c0-0.5-0.1-0.6-0.5-0.6h-0.7
		c-0.1,0-0.1-0.1-0.1-0.2v-0.4c0-0.1,0-0.1,0.1-0.1c0.2,0,0.8,0.1,2.5,0.1c2.1,0,2.9-0.1,3-0.1c0.1,0,0.2,0.1,0.2,0.2V67
		c0,0.1,0,0.1-0.2,0.1h-0.8c-0.6,0-0.6,0.2-0.6,0.7c0,0.2-0.1,3-0.1,4.2V73.6z"/>
	<path class="st1" d="M143.6,78.3c-1.3-0.8-2.6-2.7-2.6-5.3c0-1.1,0.3-2.8,1.7-4.5c1.6-1.9,3.6-2.3,5.2-2.3c1.5,0,2.9,0.2,4.4,1.4
		c1.4,1.1,2.5,2.9,2.5,5.4c0,1.3-0.4,2.7-1.4,3.9c-1.2,1.5-2.7,2.5-5.5,2.5C146.6,79.5,145.1,79.2,143.6,78.3z M151.9,73.1
		c0-3.9-2.6-6.1-4.1-6.1c-0.4,0-1.3-0.1-2.4,1c-1.1,1-1.6,2.9-1.6,4.4c0,4.6,2.6,6.2,4.1,6.2C151.4,78.6,151.9,74.6,151.9,73.1z"/>
	<path class="st1" d="M160.5,74.4c0,0.8,0,3.3,0,3.5c0,0.4,0.2,0.6,0.5,0.6h0.9c0.1,0,0.1,0.1,0.1,0.1v0.5c0,0.1,0,0.1-0.2,0.1
		c-0.3,0-0.8-0.1-2.9-0.1c-1.6,0-2.3,0.1-2.5,0.1c-0.1,0-0.1-0.1-0.1-0.1v-0.5c0-0.1,0-0.1,0.1-0.1h0.5c0.6,0,0.7-0.1,0.8-0.5
		c0-0.2,0.1-3,0.1-5.1v-2.1c0-1.2,0-3.1,0-3.3c0-0.4-0.2-0.4-0.6-0.4h-0.8c-0.1,0-0.1,0-0.1-0.1v-0.5c0-0.1,0-0.1,0.1-0.1
		c0.2,0,0.8,0.1,2.7,0.1c0.3,0,1.4-0.1,2-0.1c2.2,0,3.3,0.2,4.3,1c0.8,0.6,1.3,1.6,1.3,2.8c0,2.2-1.7,3.6-4.8,3.6
		c-0.6,0-1,0-1.5-0.1V74.4z M160.5,73.1c0.4,0.1,0.8,0.1,1.1,0.1c0.6,0,1.5-0.6,1.9-1.2c0.4-0.6,0.4-1.2,0.4-1.9c0-2.5-1.8-3-2.5-3
		c-0.3,0-0.5,0-0.8,0.1V73.1z"/>
	<path class="st1" d="M170.3,76.8c0.1,0.7,0.3,1.7,0.9,1.7h0.7c0.1,0,0.1,0.1,0.1,0.1v0.5c0,0.1,0,0.1-0.2,0.1c-0.2,0-0.7-0.1-2-0.1
		c-1.5,0-2.2,0.1-2.3,0.1c-0.1,0-0.2,0-0.2-0.2v-0.5c0-0.1,0-0.1,0.1-0.1h0.7c0.6,0,0.8-0.8,0.9-1.4c0.2-1.3,0.3-5.5,0.3-5.9l0-2.8
		c0-0.8-0.2-1.4-1-1.4h-0.6c-0.1,0-0.1-0.1-0.1-0.1v-0.5c0-0.1,0-0.1,0.1-0.1c0.2,0,0.7,0.1,2.8,0.1c0.8,0,1.4-0.1,1.6-0.1
		c0.2,0,0.3,0,0.4,0.3c1.2,3.1,2.4,6,3.5,8.8c0.2-0.3,1.6-3.7,1.7-3.9c0.1-0.2,1.9-4.5,2-4.8c0.1-0.2,0.3-0.2,0.8-0.2
		c2.8,0,3.4-0.1,3.6-0.1c0.1,0,0.1,0.1,0.1,0.2V67c0,0.1,0,0.2-0.1,0.2h-0.8c-0.4,0-0.5,0.3-0.5,0.7c0,0.3,0,4.7,0,5.1
		c0,0.4,0.1,4.3,0.1,4.6c0,0.7,0.2,1,0.4,1h0.9c0.1,0,0.1,0.1,0.1,0.1v0.5c0,0.1,0,0.2-0.2,0.2c-0.2,0-0.5-0.1-2.7-0.1
		c-1.8,0-2.5,0.1-2.8,0.1c-0.1,0-0.1-0.1-0.1-0.2v-0.5c0-0.1,0-0.1,0.1-0.1h1c0.3,0,0.5-0.1,0.5-0.6c0-0.2,0.1-3.5,0.1-4.8v-5.5
		h-0.1c-0.2,0.3-2.2,5.2-2.5,5.9c-0.4,0.8-2,4.8-2.1,5c-0.1,0.1-0.2,0.4-0.4,0.4c-0.1,0-0.2-0.1-0.3-0.3c-0.1-0.1-2.4-5.7-2.6-6
		c-0.3-0.8-2-4.9-2.1-5.1c-0.1,0.3-0.1,4.8-0.1,5C170.1,72.8,170.2,75.3,170.3,76.8z"/>
	<path class="st1" d="M190,72.3c0.8,0,1.6-0.1,1.8-0.1c0.3-0.1,0.6-0.2,0.8-0.6c0.2-0.3,0.4-0.8,0.4-1.1c0-0.1,0.1-0.2,0.1-0.2
		l0.5,0.1c0.1,0,0.2,0,0.1,0.1c-0.1,0.3-0.1,1.2-0.1,1.9c0,0.8,0.1,1.7,0.1,2.1c0,0.1-0.1,0.1-0.1,0.1l-0.4,0.1
		c-0.1,0-0.1,0-0.1-0.1c-0.1-0.3-0.3-0.7-0.4-0.9c-0.2-0.3-0.6-0.6-1-0.6c-0.5-0.1-1-0.1-1.8-0.1V74c0,1,0.1,2.7,0.1,3
		c0,0.9,0.2,1.3,0.4,1.4c0.3,0.1,0.6,0.2,1.5,0.2c0.3,0,1.1,0,1.4-0.1c0.4,0,0.9-0.2,1.4-0.6c0.5-0.4,1.5-1.5,1.8-1.9
		c0.1-0.1,0.1-0.1,0.2-0.1l0.3,0.2c0.1,0,0.1,0.1,0.1,0.1l-0.8,2.7c-0.1,0.2-0.2,0.3-0.4,0.3c-0.1,0-0.5,0-1.6,0c-1.2,0-3.1,0-6.2,0
		c-0.7,0-1.2,0-1.5,0c-0.4,0-0.6,0-0.8,0c-0.1,0-0.2-0.1-0.2-0.2v-0.4c0-0.1,0.1-0.2,0.2-0.2h0.5c0.8,0,0.9-0.1,0.9-0.8v-6
		c0-1.5,0-3.7-0.1-3.9c-0.1-0.6-0.3-0.7-0.7-0.7h-0.7c-0.1,0-0.1-0.1-0.1-0.2v-0.4c0-0.1,0-0.1,0.1-0.1c0.4,0,1,0.1,2.7,0.1l6.3,0
		c0.3,0,0.6,0,0.7,0s0.1,0,0.1,0.1c0.1,0.3,0.7,2.7,0.7,2.9c0,0.1,0,0.1-0.1,0.2l-0.3,0.1c-0.1,0-0.2,0-0.2-0.1
		c-0.1-0.1-1.7-1.8-2.1-2c-0.4-0.2-0.9-0.5-1.4-0.5l-2.4-0.1L190,72.3z"/>
	<path class="st1" d="M209.1,74c0-1.6,0-2.5-0.1-3.4c0-0.7-0.1-2.5-0.2-2.7c-0.1-0.5-0.5-0.7-1-0.7h-0.6c-0.1,0-0.1-0.1-0.1-0.2
		v-0.5c0-0.1,0-0.1,0.2-0.1c0.2,0,0.8,0.1,2.1,0.1c1.1,0,1.5-0.1,1.7-0.1c0.2,0,0.2,0,0.2,0.1V67c0,0.1,0,0.2-0.1,0.2h-0.5
		c-0.3,0-0.5,0.3-0.5,1c-0.1,1.2-0.4,5.3-0.4,7.7v3.1c0,0.3,0,0.6-0.3,0.6c-0.3,0-0.5-0.1-0.7-0.3c-0.3-0.3-1.2-1.2-2.3-2.5
		l-3.1-3.7c-0.3-0.4-2.8-3.5-3.2-4.1h-0.1v3.6c0,1.5,0.2,3.7,0.2,4.4c0,1,0.4,1.6,1.1,1.6h0.4c0.1,0,0.1,0.1,0.1,0.2v0.4
		c0,0.1,0,0.1-0.1,0.1c-0.2,0-1.3-0.1-2.1-0.1c-0.6,0-1.8,0.1-2,0.1c-0.1,0-0.1,0-0.1-0.2v-0.5c0-0.1,0-0.1,0.1-0.1h0.6
		c0.4,0,0.7-0.6,0.8-1.8c0-0.3,0.2-3.2,0.2-5.9v-1.6c0-1.1-0.6-2.1-1.5-2.1l-0.5,0c-0.1,0-0.1-0.1-0.1-0.1v-0.5c0-0.1,0-0.1,0.1-0.1
		s0.2,0,0.6,0c0.4,0,0.9,0,1.9,0c0.6,0,1.2,0,1.4,0c0.2,0,0.4,0.1,0.5,0.2l4.2,5.1l3.1,3.8h0.1V74z"/>
	<path class="st1" d="M217.2,67.3h-0.6c-0.6,0-1.7,0-2.4,0.3c-0.4,0.3-1.2,1.4-1.6,2c-0.1,0.1-0.1,0.1-0.2,0.1l-0.4-0.1
		c-0.1,0-0.1-0.1-0.1-0.2c0.2-0.8,0.8-3.1,0.9-3.5c0.1-0.2,0.1-0.3,0.3-0.3s0.2,0.1,0.3,0.3c0.2,0.3,0.5,0.4,1.2,0.5
		c1,0.1,1.7,0.1,3.6,0.1h1c2,0,2.7-0.1,3.5-0.1c0.4,0,1.1-0.2,1.3-0.5c0.2-0.2,0.3-0.3,0.4-0.3s0.2,0.1,0.2,0.3l0.5,3.6
		c0,0.1,0,0.1-0.1,0.2l-0.4,0.1c-0.1,0-0.1,0-0.2-0.2c-0.4-0.6-1.1-1.6-1.5-2c-0.5-0.3-2.1-0.3-2.5-0.3h-0.6v5c0,0.3,0,5.3,0,5.6
		c0,0.5,0.2,0.7,0.6,0.7h0.8c0.2,0,0.2,0.1,0.2,0.2v0.4c0,0.1,0,0.1-0.2,0.1c-0.2,0-0.8-0.1-2.8-0.1c-1.9,0-2.7,0.1-2.9,0.1
		c-0.1,0-0.2-0.1-0.2-0.2v-0.3c0-0.1,0-0.2,0.1-0.2h0.9c0.4,0,0.6-0.2,0.6-0.5c0-0.4,0-5.9,0-6.2V67.3z"/>
	<path class="st1" d="M229.4,68c0,1.9-1.7,3-2,3.2c-0.2,0.1-0.4,0.2-0.5,0.2c-0.1,0-0.2-0.1-0.2-0.1s0.1-0.2,0.2-0.3
		c0.3-0.2,1-1.1,1-2c0-0.2-0.1-0.5-0.3-0.5c-0.2-0.1-0.9-0.3-0.9-1.2c0-0.6,0.5-1,1.1-1C228.6,66.2,229.4,66.8,229.4,68z M232.8,68
		c0,1.9-1.7,3-2,3.2c-0.2,0.1-0.4,0.2-0.5,0.2c-0.1,0-0.2-0.1-0.2-0.1s0.1-0.2,0.2-0.3c0.3-0.2,1-1.1,1-2c0-0.2-0.1-0.5-0.3-0.5
		c-0.2-0.1-0.9-0.3-0.9-1.2c0-0.6,0.5-1,1.1-1C232,66.2,232.8,66.8,232.8,68z"/>
</g>
</svg>
