<svg xmlns="http://www.w3.org/2000/svg" viewBox="0 0 666.21 16.32"><defs><style>.cls-1{fill:#95272b;}</style></defs><title>Asset 4</title><g id="Layer_2" data-name="Layer 2"><g id="Layer_1-2" data-name="Layer 1"><path class="cls-1" d="M0,6.84A6,6,0,0,1,.47,4.49,6.35,6.35,0,0,1,1.76,2.57,6.43,6.43,0,0,1,3.67,1.28a6.09,6.09,0,0,1,4.69,0,6.12,6.12,0,0,1,1.92,1.29,6,6,0,0,1,1.29,1.92A5.84,5.84,0,0,1,12,6.84a5.76,5.76,0,0,1-.47,2.34,5.86,5.86,0,0,1-1.29,1.91,5.8,5.8,0,0,1-1.92,1.29A5.81,5.81,0,0,1,6,12.86a5.8,5.8,0,0,1-2.34-.48,6.08,6.08,0,0,1-1.91-1.29A6.19,6.19,0,0,1,.47,9.18,5.93,5.93,0,0,1,0,6.84Zm1.17,0a4.71,4.71,0,0,0,.38,1.88,5.16,5.16,0,0,0,1,1.54,5,5,0,0,0,1.54,1A4.59,4.59,0,0,0,6,11.69,4.63,4.63,0,0,0,7.9,11.3a4.77,4.77,0,0,0,1.53-1,4.84,4.84,0,0,0,1.05-1.54,4.84,4.84,0,0,0,0-3.76A4.84,4.84,0,0,0,9.43,3.42a4.77,4.77,0,0,0-1.53-1A4.63,4.63,0,0,0,6,2a4.58,4.58,0,0,0-1.88.38,5,5,0,0,0-1.54,1A5.16,5.16,0,0,0,1.55,5,4.71,4.71,0,0,0,1.17,6.84ZM8,3.65V6.06l-.2-.23a1.94,1.94,0,0,0-.68-.5,1.83,1.83,0,0,0-.8-.17,1.63,1.63,0,0,0-1.2.47,1.66,1.66,0,0,0-.46,1.21A1.58,1.58,0,0,0,6.27,8.5a1.85,1.85,0,0,0,.78-.16,2.4,2.4,0,0,0,.7-.5L8,7.67V10l-.27.09a5,5,0,0,1-.8.21,4.23,4.23,0,0,1-.7.06,3.58,3.58,0,0,1-1.43-.28,3.71,3.71,0,0,1-1.18-.75,3.41,3.41,0,0,1-1.1-2.51,3.23,3.23,0,0,1,.3-1.38,3.6,3.6,0,0,1,.79-1.13,3.76,3.76,0,0,1,1.18-.77,3.83,3.83,0,0,1,1.43-.27A4.4,4.4,0,0,1,7,3.37a3.4,3.4,0,0,1,.84.25Z"/><path class="cls-1" d="M23.43,10h4.74v2.49H18.49l5.36-8.82H19.39V1.14h9.36Z"/><path class="cls-1" d="M32.35,9.06c0,1.17.55,1.76,1.65,1.76a1.47,1.47,0,0,0,1.34-.73H38q-.8,2.65-4,2.65a5.13,5.13,0,0,1-1.79-.3,3.83,3.83,0,0,1-1.38-.83,3.66,3.66,0,0,1-.9-1.29,4.3,4.3,0,0,1-.31-1.68,4.72,4.72,0,0,1,.3-1.73,3.71,3.71,0,0,1,.85-1.32,4,4,0,0,1,1.35-.83,5.52,5.52,0,0,1,3.53,0A3.49,3.49,0,0,1,37.78,7a5.37,5.37,0,0,1,.29,1.81v.28Zm3.18-1.57A1.64,1.64,0,0,0,35,6.57a1.55,1.55,0,0,0-1-.34,1.52,1.52,0,0,0-1,.33,1.49,1.49,0,0,0-.5.93Z"/><path class="cls-1" d="M41.71,4.75l1.85,4.06,1.92-4.06h1.71l1.92,4.17L51,4.75h3l-4,7.7H48.22L46.3,8.24l-1.83,4.21H42.63l-4-7.7Z"/><path class="cls-1" d="M57.43,9.06c0,1.17.55,1.76,1.65,1.76a1.47,1.47,0,0,0,1.34-.73H63q-.8,2.65-4,2.65a5.13,5.13,0,0,1-1.79-.3,3.83,3.83,0,0,1-1.38-.83,3.66,3.66,0,0,1-.9-1.29,4.3,4.3,0,0,1-.31-1.68A4.72,4.72,0,0,1,55,6.91a3.71,3.71,0,0,1,.85-1.32,4,4,0,0,1,1.35-.83,5.52,5.52,0,0,1,3.53,0A3.49,3.49,0,0,1,62.86,7a5.37,5.37,0,0,1,.29,1.81v.28Zm3.18-1.57a1.64,1.64,0,0,0-.55-.92,1.55,1.55,0,0,0-1-.34,1.52,1.52,0,0,0-1,.33,1.49,1.49,0,0,0-.5.93Z"/><path class="cls-1" d="M64.51,1.8a1.45,1.45,0,0,1,.12-.59A1.51,1.51,0,0,1,65,.72a1.63,1.63,0,0,1,.49-.33A1.48,1.48,0,0,1,66,.27a1.53,1.53,0,0,1,.6.12,1.58,1.58,0,0,1,.48.33,1.51,1.51,0,0,1,.33.49,1.45,1.45,0,0,1,.12.59,1.45,1.45,0,0,1-.12.59,1.51,1.51,0,0,1-.33.49,1.58,1.58,0,0,1-.48.33,1.53,1.53,0,0,1-.6.12,1.48,1.48,0,0,1-.59-.12A1.63,1.63,0,0,1,65,2.88a1.51,1.51,0,0,1-.33-.49A1.45,1.45,0,0,1,64.51,1.8Zm2.9,3v7.7H64.69V4.75Z"/><path class="cls-1" d="M77.56,5.5h4.25V1.14h2.94V12.45H81.81V7.79H77.56v4.66H74.62V1.14h2.94Z"/><path class="cls-1" d="M86.56,8.54a3.71,3.71,0,0,1,.35-1.6,3.82,3.82,0,0,1,1-1.29,4.51,4.51,0,0,1,1.46-.86,5.28,5.28,0,0,1,1.85-.32A5.23,5.23,0,0,1,93,4.78a4.43,4.43,0,0,1,1.47.85,3.8,3.8,0,0,1,1,1.31,4,4,0,0,1,.34,1.67,3.82,3.82,0,0,1-.35,1.67,3.93,3.93,0,0,1-1,1.31,4.43,4.43,0,0,1-1.47.85,6,6,0,0,1-1.87.3,5.66,5.66,0,0,1-1.83-.3,4.29,4.29,0,0,1-1.45-.86,4,4,0,0,1-1-1.33A4.12,4.12,0,0,1,86.56,8.54Zm2.87,0a1.83,1.83,0,0,0,.14.71,2,2,0,0,0,.38.56,1.62,1.62,0,0,0,.55.37,1.59,1.59,0,0,0,.68.14,1.64,1.64,0,0,0,.69-.14,1.62,1.62,0,0,0,.55-.37,2,2,0,0,0,.38-.56,1.82,1.82,0,0,0,.14-.7,1.72,1.72,0,0,0-.14-.68,2,2,0,0,0-.38-.57A1.77,1.77,0,0,0,91.87,7a1.8,1.8,0,0,0-.69-.13A1.75,1.75,0,0,0,90.5,7a1.77,1.77,0,0,0-.55.37,2.13,2.13,0,0,0-.38.56A1.72,1.72,0,0,0,89.43,8.57Z"/><path class="cls-1" d="M97.36,4.75h2.72v1a3,3,0,0,1,1.12-.91,3.65,3.65,0,0,1,1.34-.23,3.45,3.45,0,0,1,1.39.26,3,3,0,0,1,1,.74,2.27,2.27,0,0,1,.45.87,4.63,4.63,0,0,1,.12,1.1v4.89h-2.72V8.57a4,4,0,0,0-.08-.93,1.11,1.11,0,0,0-.29-.56,1,1,0,0,0-.41-.25,1.51,1.51,0,0,0-.48-.08,1.33,1.33,0,0,0-1,.41,1.7,1.7,0,0,0-.37,1.18v4.11H97.36Z"/><path class="cls-1" d="M115.93,4.75v7.17a8,8,0,0,1-.07,1.16,5,5,0,0,1-.21.9,2.85,2.85,0,0,1-.56.92,3.83,3.83,0,0,1-.93.75,4.79,4.79,0,0,1-1.22.49,5.77,5.77,0,0,1-1.48.18,5.4,5.4,0,0,1-1.65-.23,4.18,4.18,0,0,1-1.31-.62,3.54,3.54,0,0,1-.92-.93,3,3,0,0,1-.48-1.16h3.06a1.22,1.22,0,0,0,1.29.77,1.71,1.71,0,0,0,1.31-.48,1.86,1.86,0,0,0,.46-1.34v-.74a4,4,0,0,1-.58.48,4.4,4.4,0,0,1-.56.31,3,3,0,0,1-.6.17,4.86,4.86,0,0,1-.69,0,4.15,4.15,0,0,1-1.52-.28,3.54,3.54,0,0,1-2-2A4.5,4.5,0,0,1,107,8.71a4.32,4.32,0,0,1,1.12-3,3.85,3.85,0,0,1,1.23-.88,3.65,3.65,0,0,1,1.55-.33,3,3,0,0,1,2.3,1V4.75Zm-6.09,3.82a1.74,1.74,0,0,0,.14.69,1.7,1.7,0,0,0,.37.57,1.62,1.62,0,0,0,.55.37,1.82,1.82,0,0,0,.7.13,1.72,1.72,0,0,0,.68-.13,1.66,1.66,0,0,0,.56-.37,1.87,1.87,0,0,0,.37-.57,1.75,1.75,0,0,0,0-1.37,1.91,1.91,0,0,0-.38-.56,2,2,0,0,0-.56-.37,1.74,1.74,0,0,0-.67-.13,1.56,1.56,0,0,0-.68.14,1.9,1.9,0,0,0-.55.37,1.75,1.75,0,0,0-.38.55A1.57,1.57,0,0,0,109.84,8.57Z"/><path class="cls-1" d="M131.47,12.45h-9.1l2.8-2.91a26.13,26.13,0,0,0,1.74-2,10,10,0,0,0,.94-1.35,3.37,3.37,0,0,0,.38-.9,2.92,2.92,0,0,0,.08-.59,1.62,1.62,0,0,0-.08-.49,1.22,1.22,0,0,0-.25-.43,1.08,1.08,0,0,0-.4-.3,1.36,1.36,0,0,0-1.48.27,1.44,1.44,0,0,0-.34,1,3.5,3.5,0,0,0,0,.48h-3.21a4.73,4.73,0,0,1,.33-1.8,4,4,0,0,1,.9-1.39,4.07,4.07,0,0,1,1.39-.9A4.79,4.79,0,0,1,127,.84a5,5,0,0,1,1.75.3,4.14,4.14,0,0,1,1.39.84A3.88,3.88,0,0,1,131,3.26a3.94,3.94,0,0,1,.33,1.62A3.77,3.77,0,0,1,131,6.59a6.11,6.11,0,0,1-1.27,1.62L127.81,10h3.66Z"/><path class="cls-1" d="M132.45,6.78a8.14,8.14,0,0,1,.35-2.45,5.69,5.69,0,0,1,1-1.88,4.43,4.43,0,0,1,1.52-1.21,4.57,4.57,0,0,1,3.87,0,4.34,4.34,0,0,1,1.52,1.21,5.49,5.49,0,0,1,1,1.88A7.84,7.84,0,0,1,142,6.78a7.84,7.84,0,0,1-.35,2.45,5.64,5.64,0,0,1-1,1.89,4.37,4.37,0,0,1-1.52,1.22,4.41,4.41,0,0,1-5.39-1.22,5.84,5.84,0,0,1-1-1.89A8.14,8.14,0,0,1,132.45,6.78Zm2.91,0a6.44,6.44,0,0,0,.13,1.37,3.77,3.77,0,0,0,.39,1.06,2.06,2.06,0,0,0,.59.7,1.33,1.33,0,0,0,1.55,0,2,2,0,0,0,.59-.7A4.11,4.11,0,0,0,139,8.15a6.44,6.44,0,0,0,.13-1.37A6.47,6.47,0,0,0,139,5.42a4,4,0,0,0-.38-1.06,1.83,1.83,0,0,0-.59-.69,1.33,1.33,0,0,0-1.55,0,1.93,1.93,0,0,0-.59.69,3.66,3.66,0,0,0-.39,1.06A6.47,6.47,0,0,0,135.36,6.78Z"/><path class="cls-1" d="M146.32,3.63h-1.65V1.14h4.59V12.45h-2.94Z"/><path class="cls-1" d="M155.56,6.48A2.55,2.55,0,0,1,153.79,4a2.92,2.92,0,0,1,.29-1.3,3,3,0,0,1,.79-1,3.51,3.51,0,0,1,1.21-.65,5.71,5.71,0,0,1,3.14,0,3.6,3.6,0,0,1,1.21.65,3,3,0,0,1,.79,1A2.92,2.92,0,0,1,161.5,4a3.2,3.2,0,0,1-.09.8,1.93,1.93,0,0,1-.3.65,3,3,0,0,1-.57.55,5.42,5.42,0,0,1-.88.49A3.06,3.06,0,0,1,162,9.39a2.91,2.91,0,0,1-.32,1.34,3.37,3.37,0,0,1-.9,1.06,4.44,4.44,0,0,1-1.37.71,5.56,5.56,0,0,1-1.73.25,5.46,5.46,0,0,1-1.7-.25,4.26,4.26,0,0,1-1.38-.69,3.42,3.42,0,0,1-.91-1.07,2.81,2.81,0,0,1-.33-1.35A3,3,0,0,1,155.56,6.48ZM156.3,9a1.4,1.4,0,0,0,.1.54,1.35,1.35,0,0,0,.29.44,1.19,1.19,0,0,0,.43.3,1.17,1.17,0,0,0,.53.11,1.19,1.19,0,0,0,.52-.11,1.28,1.28,0,0,0,.43-.3,1.26,1.26,0,0,0,.29-.43A1.37,1.37,0,0,0,159,9a1.37,1.37,0,0,0-1.35-1.36,1.28,1.28,0,0,0-1,.4A1.3,1.3,0,0,0,156.3,9Zm.1-5a1.21,1.21,0,0,0,.36.89,1.19,1.19,0,0,0,.89.37,1,1,0,0,0,.49-.11,1.19,1.19,0,0,0,.39-.27,1.31,1.31,0,0,0,.26-.4,1.06,1.06,0,0,0,.1-.46,1.21,1.21,0,0,0-.36-.88,1.16,1.16,0,0,0-.88-.37,1.21,1.21,0,0,0-.89.36A1.19,1.19,0,0,0,156.4,4Z"/><path class="cls-1" d="M167.85,7.31h13V9.57h-13Z"/><path class="cls-1" d="M189,1.14,191,8.45l2.4-7.31h2.34l2.4,7.31,1.95-7.31h3.07l-3.37,11.31h-3L194.55,5.9l-2.22,6.55h-3L186,1.14Z"/><path class="cls-1" d="M206.52,9.06c0,1.17.55,1.76,1.65,1.76a1.45,1.45,0,0,0,1.33-.73h2.63q-.8,2.65-4,2.65a5.08,5.08,0,0,1-1.78-.3,4,4,0,0,1-1.39-.83,3.64,3.64,0,0,1-.89-1.29,4.3,4.3,0,0,1-.32-1.68,4.72,4.72,0,0,1,.3-1.73,3.73,3.73,0,0,1,.86-1.32,4,4,0,0,1,1.34-.83,5.19,5.19,0,0,1,1.78-.29,5.06,5.06,0,0,1,1.75.29,3.62,3.62,0,0,1,1.32.85A3.66,3.66,0,0,1,212,7a5.37,5.37,0,0,1,.28,1.81v.28Zm3.18-1.57a1.65,1.65,0,0,0-.56-.92,1.55,1.55,0,0,0-1-.34,1.52,1.52,0,0,0-1,.33,1.49,1.49,0,0,0-.5.93Z"/><path class="cls-1" d="M216.49,0V5.52a3.18,3.18,0,0,1,2.4-1,3.68,3.68,0,0,1,1.57.32,3.54,3.54,0,0,1,1.21.87A3.83,3.83,0,0,1,222.46,7a4.35,4.35,0,0,1,.29,1.58,4.51,4.51,0,0,1-.29,1.61,4,4,0,0,1-.82,1.3,3.94,3.94,0,0,1-1.24.88,3.79,3.79,0,0,1-1.54.32,2.84,2.84,0,0,1-2.37-1.1v.86h-2.71V0Zm3.42,8.62a1.75,1.75,0,0,0-.13-.68,1.79,1.79,0,0,0-.38-.56,1.75,1.75,0,0,0-.55-.38,1.58,1.58,0,0,0-.69-.14,1.72,1.72,0,0,0-.68.13,1.6,1.6,0,0,0-.54.38,1.85,1.85,0,0,0-.38.56,1.56,1.56,0,0,0-.14.68,1.72,1.72,0,0,0,.13.68,1.6,1.6,0,0,0,.38.54,2,2,0,0,0,.56.38,1.76,1.76,0,0,0,.68.14,1.56,1.56,0,0,0,.68-.14,1.72,1.72,0,0,0,.55-.37,2.12,2.12,0,0,0,.37-.55A1.52,1.52,0,0,0,219.91,8.62Z"/><path class="cls-1" d="M229.39,6.74a3.19,3.19,0,0,0-1.47-.4,1.13,1.13,0,0,0-.61.16.46.46,0,0,0-.23.4.48.48,0,0,0,0,.22.38.38,0,0,0,.17.16,1.41,1.41,0,0,0,.37.13l.65.15a3.15,3.15,0,0,1,1.68.8,2.06,2.06,0,0,1,.56,1.48,2.7,2.7,0,0,1-.27,1.22,2.52,2.52,0,0,1-.75.9,3.4,3.4,0,0,1-1.16.57,5,5,0,0,1-1.48.21,6.06,6.06,0,0,1-3.08-.89l1-1.92a3.87,3.87,0,0,0,2.16.78,1,1,0,0,0,.62-.17.48.48,0,0,0,.24-.42.8.8,0,0,0,0-.24.39.39,0,0,0-.16-.18,1,1,0,0,0-.35-.15c-.16-.05-.36-.09-.61-.14a3.49,3.49,0,0,1-1.76-.76,1.87,1.87,0,0,1-.5-1.39,2.7,2.7,0,0,1,.24-1.16,2.37,2.37,0,0,1,.69-.88,3,3,0,0,1,1.09-.55,4.75,4.75,0,0,1,1.41-.2,6.45,6.45,0,0,1,2.48.49Z"/><path class="cls-1" d="M231.75,1.8a1.45,1.45,0,0,1,.12-.59,1.51,1.51,0,0,1,.33-.49,1.58,1.58,0,0,1,.48-.33,1.53,1.53,0,0,1,.6-.12,1.48,1.48,0,0,1,.59.12,1.63,1.63,0,0,1,.49.33,1.51,1.51,0,0,1,.33.49,1.45,1.45,0,0,1,.12.59,1.45,1.45,0,0,1-.12.59,1.51,1.51,0,0,1-.33.49,1.63,1.63,0,0,1-.49.33,1.48,1.48,0,0,1-.59.12,1.53,1.53,0,0,1-.6-.12,1.58,1.58,0,0,1-.48-.33,1.51,1.51,0,0,1-.33-.49A1.45,1.45,0,0,1,231.75,1.8Zm2.89,3v7.7h-2.71V4.75Z"/><path class="cls-1" d="M239.53,7v5.43h-2.71V7h-.9V4.75h.9V2.45h2.71v2.3h1.55V7Z"/><path class="cls-1" d="M244.68,9.06c0,1.17.55,1.76,1.65,1.76a1.45,1.45,0,0,0,1.33-.73h2.63q-.79,2.65-4,2.65a5.08,5.08,0,0,1-1.78-.3,3.87,3.87,0,0,1-1.39-.83,3.64,3.64,0,0,1-.89-1.29,4.3,4.3,0,0,1-.32-1.68,4.72,4.72,0,0,1,.3-1.73,3.73,3.73,0,0,1,.86-1.32,4,4,0,0,1,1.34-.83,5.19,5.19,0,0,1,1.78-.29,5.06,5.06,0,0,1,1.75.29,3.62,3.62,0,0,1,1.32.85A3.66,3.66,0,0,1,250.11,7a5.37,5.37,0,0,1,.28,1.81v.28Zm3.18-1.57a1.65,1.65,0,0,0-.56-.92,1.55,1.55,0,0,0-1-.34,1.52,1.52,0,0,0-1,.33,1.49,1.49,0,0,0-.5.93Z"/><path class="cls-1" d="M263,0h2.73V12.45H263v-.86a2.84,2.84,0,0,1-2.36,1.1,3.88,3.88,0,0,1-1.54-.31,3.7,3.7,0,0,1-1.23-.88,3.79,3.79,0,0,1-.82-1.3,4.32,4.32,0,0,1-.29-1.62A4.59,4.59,0,0,1,257,7a4.08,4.08,0,0,1,.79-1.3A3.82,3.82,0,0,1,259,4.84a3.71,3.71,0,0,1,1.57-.32,3.14,3.14,0,0,1,2.39,1Zm-3.42,8.58a1.82,1.82,0,0,0,.13.7,1.76,1.76,0,0,0,.37.56,1.62,1.62,0,0,0,.55.37,1.65,1.65,0,0,0,.7.14,1.56,1.56,0,0,0,.68-.14,1.66,1.66,0,0,0,.56-.37,1.9,1.9,0,0,0,.37-.55,1.62,1.62,0,0,0,0-1.36,1.82,1.82,0,0,0-.37-.56A1.68,1.68,0,0,0,262,7a1.84,1.84,0,0,0-1.36,0,1.68,1.68,0,0,0-.56.38,2,2,0,0,0-.37.54A1.52,1.52,0,0,0,259.56,8.58Z"/><path class="cls-1" d="M270,9.06c0,1.17.55,1.76,1.65,1.76a1.45,1.45,0,0,0,1.33-.73h2.63q-.8,2.65-4,2.65a5.08,5.08,0,0,1-1.78-.3,3.87,3.87,0,0,1-1.39-.83,3.64,3.64,0,0,1-.89-1.29,4.3,4.3,0,0,1-.32-1.68,4.72,4.72,0,0,1,.3-1.73,3.73,3.73,0,0,1,.86-1.32,4,4,0,0,1,1.34-.83,5.19,5.19,0,0,1,1.78-.29,5.06,5.06,0,0,1,1.75.29,3.62,3.62,0,0,1,1.32.85A3.66,3.66,0,0,1,275.43,7a5.37,5.37,0,0,1,.28,1.81v.28Zm3.18-1.57a1.65,1.65,0,0,0-.56-.92,1.55,1.55,0,0,0-1-.34,1.52,1.52,0,0,0-1,.33,1.49,1.49,0,0,0-.5.93Z"/><path class="cls-1" d="M282.36,6.74a3.19,3.19,0,0,0-1.47-.4,1.1,1.1,0,0,0-.61.16.44.44,0,0,0-.23.4.69.69,0,0,0,0,.22.44.44,0,0,0,.17.16,1.41,1.41,0,0,0,.37.13l.66.15a3.15,3.15,0,0,1,1.68.8,2.06,2.06,0,0,1,.55,1.48,2.7,2.7,0,0,1-.27,1.22,2.52,2.52,0,0,1-.75.9,3.35,3.35,0,0,1-1.15.57,5,5,0,0,1-1.49.21,6,6,0,0,1-3.07-.89l1-1.92a3.87,3.87,0,0,0,2.16.78,1,1,0,0,0,.61-.17.48.48,0,0,0,.24-.42.57.57,0,0,0,0-.24.32.32,0,0,0-.15-.18,1,1,0,0,0-.36-.15,5.49,5.49,0,0,0-.6-.14,3.57,3.57,0,0,1-1.77-.76,1.91,1.91,0,0,1-.5-1.39,2.7,2.7,0,0,1,.24-1.16,2.37,2.37,0,0,1,.69-.88,3,3,0,0,1,1.09-.55,4.82,4.82,0,0,1,1.42-.2,6.4,6.4,0,0,1,2.47.49Z"/><path class="cls-1" d="M284.71,1.8a1.45,1.45,0,0,1,.12-.59,1.54,1.54,0,0,1,.82-.82,1.51,1.51,0,0,1,1.18,0,1.54,1.54,0,0,1,.82.82,1.45,1.45,0,0,1,.12.59,1.45,1.45,0,0,1-.12.59,1.54,1.54,0,0,1-.82.82,1.51,1.51,0,0,1-1.18,0,1.54,1.54,0,0,1-.82-.82A1.45,1.45,0,0,1,284.71,1.8Zm2.9,3v7.7h-2.72V4.75Z"/><path class="cls-1" d="M298.08,4.75v7.17a7.92,7.92,0,0,1-.08,1.16,5,5,0,0,1-.21.9,2.85,2.85,0,0,1-.56.92,3.77,3.77,0,0,1-.92.75,4.86,4.86,0,0,1-1.23.49,5.69,5.69,0,0,1-1.47.18,5.4,5.4,0,0,1-1.65-.23,4.23,4.23,0,0,1-1.32-.62,3.54,3.54,0,0,1-.92-.93,3,3,0,0,1-.48-1.16h3.06a1.22,1.22,0,0,0,1.29.77,1.71,1.71,0,0,0,1.31-.48,1.86,1.86,0,0,0,.46-1.34v-.74a4,4,0,0,1-.58.48,4.4,4.4,0,0,1-.56.31,3,3,0,0,1-.6.17,4.86,4.86,0,0,1-.69,0,4.1,4.1,0,0,1-1.51-.28,3.82,3.82,0,0,1-1.2-.8,3.75,3.75,0,0,1-.78-1.22,4.5,4.5,0,0,1-.27-1.59,4.38,4.38,0,0,1,1.11-3,3.85,3.85,0,0,1,1.23-.88,3.7,3.7,0,0,1,1.56-.33,3,3,0,0,1,2.29,1V4.75ZM292,8.57a1.73,1.73,0,0,0,.13.69,1.7,1.7,0,0,0,.37.57,1.62,1.62,0,0,0,.55.37,1.82,1.82,0,0,0,.7.13,1.72,1.72,0,0,0,.68-.13,1.66,1.66,0,0,0,.56-.37,1.87,1.87,0,0,0,.37-.57,1.64,1.64,0,0,0,0-1.37,1.91,1.91,0,0,0-.38-.56,2,2,0,0,0-.56-.37,1.74,1.74,0,0,0-.67-.13,1.52,1.52,0,0,0-.67.14,2,2,0,0,0-.56.37,1.75,1.75,0,0,0-.38.55A1.56,1.56,0,0,0,292,8.57Z"/><path class="cls-1" d="M299.92,4.75h2.72v1a3,3,0,0,1,1.12-.91,3.65,3.65,0,0,1,1.34-.23,3.36,3.36,0,0,1,1.38.26,2.93,2.93,0,0,1,1,.74,2.27,2.27,0,0,1,.45.87,4.63,4.63,0,0,1,.12,1.1v4.89h-2.72V8.57a4.65,4.65,0,0,0-.08-.93,1.2,1.2,0,0,0-.29-.56,1,1,0,0,0-.41-.25,1.51,1.51,0,0,0-.48-.08,1.37,1.37,0,0,0-1.06.41,1.75,1.75,0,0,0-.36,1.18v4.11h-2.72Z"/><path class="cls-1" d="M312.33,9.06c0,1.17.55,1.76,1.65,1.76a1.45,1.45,0,0,0,1.33-.73h2.63q-.79,2.65-4,2.65a5.13,5.13,0,0,1-1.79-.3,3.83,3.83,0,0,1-1.38-.83,3.64,3.64,0,0,1-.89-1.29,4.3,4.3,0,0,1-.32-1.68,4.72,4.72,0,0,1,.3-1.73,3.73,3.73,0,0,1,.86-1.32,4,4,0,0,1,1.34-.83,5.19,5.19,0,0,1,1.78-.29,5.1,5.1,0,0,1,1.75.29,3.62,3.62,0,0,1,1.32.85A3.52,3.52,0,0,1,317.75,7,5.13,5.13,0,0,1,318,8.78v.28Zm3.17-1.57a1.59,1.59,0,0,0-.55-.92,1.55,1.55,0,0,0-1-.34,1.52,1.52,0,0,0-1,.33,1.49,1.49,0,0,0-.5.93Z"/><path class="cls-1" d="M325.53,0h2.72V12.45h-2.72v-.86a2.84,2.84,0,0,1-2.36,1.1,3.93,3.93,0,0,1-1.55-.31,3.77,3.77,0,0,1-1.22-.88,3.64,3.64,0,0,1-.82-1.3,4.32,4.32,0,0,1-.29-1.62A4.59,4.59,0,0,1,319.56,7a4.08,4.08,0,0,1,.79-1.3,3.82,3.82,0,0,1,1.22-.87,3.71,3.71,0,0,1,1.57-.32,3.14,3.14,0,0,1,2.39,1Zm-3.42,8.58a1.82,1.82,0,0,0,.13.7,1.76,1.76,0,0,0,.37.56,1.62,1.62,0,0,0,.55.37,1.65,1.65,0,0,0,.7.14,1.56,1.56,0,0,0,.68-.14,1.66,1.66,0,0,0,.56-.37,1.9,1.9,0,0,0,.37-.55,1.62,1.62,0,0,0,0-1.36,1.82,1.82,0,0,0-.37-.56,1.68,1.68,0,0,0-.56-.38,1.84,1.84,0,0,0-1.36,0,1.68,1.68,0,0,0-.56.38,2,2,0,0,0-.37.54A1.52,1.52,0,0,0,322.11,8.58Z"/><path class="cls-1" d="M337.92,0V5.52a3.18,3.18,0,0,1,2.4-1,3.63,3.63,0,0,1,1.56.32,3.58,3.58,0,0,1,1.22.87A4,4,0,0,1,343.89,7a4.34,4.34,0,0,1,.28,1.58,4.51,4.51,0,0,1-.29,1.61,4,4,0,0,1-.82,1.3,3.94,3.94,0,0,1-1.24.88,3.74,3.74,0,0,1-1.53.32,2.84,2.84,0,0,1-2.37-1.1v.86H335.2V0Zm3.42,8.62a1.8,1.8,0,0,0-.51-1.24,1.79,1.79,0,0,0-.56-.38,1.58,1.58,0,0,0-.69-.14,1.67,1.67,0,0,0-.67.13,1.64,1.64,0,0,0-.55.38,1.85,1.85,0,0,0-.38.56,1.72,1.72,0,0,0,0,1.36,1.58,1.58,0,0,0,.37.54,2,2,0,0,0,.56.38,1.81,1.81,0,0,0,.69.14,1.52,1.52,0,0,0,.67-.14,1.72,1.72,0,0,0,.55-.37,1.9,1.9,0,0,0,.37-.55A1.53,1.53,0,0,0,341.34,8.62Z"/><path class="cls-1" d="M348.1,11.4l-3.72-6.65h3.15l2.05,3.95,2-3.95h3.12l-6.18,11.54h-3Z"/><path class="cls-1" d="M363.71,7l-4.12-5.88h3.51l2.1,3.09,2.09-3.09h3.5L366.66,7v5.43h-3Z"/><path class="cls-1" d="M370,8.54a3.71,3.71,0,0,1,.35-1.6,3.82,3.82,0,0,1,1-1.29,4.51,4.51,0,0,1,1.46-.86,5.28,5.28,0,0,1,1.85-.32,5.23,5.23,0,0,1,1.84.31,4.43,4.43,0,0,1,1.47.85,3.8,3.8,0,0,1,1,1.31,4,4,0,0,1,.34,1.67,3.82,3.82,0,0,1-.35,1.67,3.93,3.93,0,0,1-1,1.31,4.43,4.43,0,0,1-1.47.85,6,6,0,0,1-1.87.3,5.66,5.66,0,0,1-1.83-.3,4.29,4.29,0,0,1-1.45-.86,4,4,0,0,1-.95-1.33A4.12,4.12,0,0,1,370,8.54Zm2.87,0a1.83,1.83,0,0,0,.14.71,2,2,0,0,0,.38.56,1.62,1.62,0,0,0,.55.37,1.75,1.75,0,0,0,1.37,0,1.62,1.62,0,0,0,.55-.37,2,2,0,0,0,.38-.56,1.82,1.82,0,0,0,.14-.7,1.72,1.72,0,0,0-.14-.68,2,2,0,0,0-.38-.57,1.69,1.69,0,0,0-1.24-.5A1.75,1.75,0,0,0,374,7a1.77,1.77,0,0,0-.55.37,2.13,2.13,0,0,0-.38.56A1.72,1.72,0,0,0,372.88,8.57Z"/><path class="cls-1" d="M383.53,4.75V9.09a1.38,1.38,0,1,0,2.76,0V4.75H389V9.62A2.76,2.76,0,0,1,388,12a6.43,6.43,0,0,1-6.14,0,2.77,2.77,0,0,1-1-2.34V4.75Z"/><path class="cls-1" d="M390.85,4.75h2.71v1a3,3,0,0,1,1.13-.91A3.61,3.61,0,0,1,396,4.59a3.4,3.4,0,0,1,1.38.26,2.89,2.89,0,0,1,1,.74,2.14,2.14,0,0,1,.45.87,4.63,4.63,0,0,1,.12,1.1v4.89h-2.71V8.57a4.65,4.65,0,0,0-.08-.93,1.3,1.3,0,0,0-.29-.56,1.11,1.11,0,0,0-.41-.25,1.51,1.51,0,0,0-.48-.08,1.37,1.37,0,0,0-1.06.41,1.75,1.75,0,0,0-.37,1.18v4.11h-2.71Z"/><path class="cls-1" d="M409.42,4.75v7.17a7.92,7.92,0,0,1-.08,1.16,5,5,0,0,1-.21.9,2.68,2.68,0,0,1-.56.92,3.59,3.59,0,0,1-.92.75,4.94,4.94,0,0,1-1.22.49,5.83,5.83,0,0,1-1.48.18,5.4,5.4,0,0,1-1.65-.23,4.07,4.07,0,0,1-1.31-.62,3.43,3.43,0,0,1-.93-.93,3,3,0,0,1-.48-1.16h3.06a1.22,1.22,0,0,0,1.29.77,1.75,1.75,0,0,0,1.32-.48,1.91,1.91,0,0,0,.45-1.34v-.74a4.54,4.54,0,0,1-.57.48,5.33,5.33,0,0,1-.57.31,3,3,0,0,1-.6.17,4.86,4.86,0,0,1-.69,0,4.1,4.1,0,0,1-1.51-.28,3.67,3.67,0,0,1-1.19-.8,3.45,3.45,0,0,1-.78-1.22,4.28,4.28,0,0,1-.28-1.59,4.43,4.43,0,0,1,.3-1.64,4.26,4.26,0,0,1,.82-1.32,3.79,3.79,0,0,1,2.78-1.21,3,3,0,0,1,2.29,1V4.75Zm-6.09,3.82a1.73,1.73,0,0,0,.13.69,1.87,1.87,0,0,0,.37.57,1.66,1.66,0,0,0,.56.37,1.73,1.73,0,0,0,.69.13,1.8,1.8,0,0,0,.69-.13,1.62,1.62,0,0,0,.55-.37,1.9,1.9,0,0,0,.38-.57,1.75,1.75,0,0,0,0-1.37,2.17,2.17,0,0,0-.39-.56,1.82,1.82,0,0,0-.56-.37,1.7,1.7,0,0,0-.67-.13,1.52,1.52,0,0,0-.67.14,1.76,1.76,0,0,0-.94.92A1.72,1.72,0,0,0,403.33,8.57Z"/><path class="cls-1" d="M419.35,7l-4.13-5.88h3.51l2.1,3.09,2.09-3.09h3.51L422.29,7v5.43h-2.94Z"/><path class="cls-1" d="M428.45,9.06c0,1.17.55,1.76,1.65,1.76a1.47,1.47,0,0,0,1.34-.73h2.62q-.8,2.65-4,2.65a5.13,5.13,0,0,1-1.79-.3,3.83,3.83,0,0,1-1.38-.83,3.66,3.66,0,0,1-.9-1.29,4.3,4.3,0,0,1-.31-1.68,4.72,4.72,0,0,1,.3-1.73,3.71,3.71,0,0,1,.85-1.32,4,4,0,0,1,1.35-.83,5.52,5.52,0,0,1,3.53,0A3.49,3.49,0,0,1,433.88,7a5.37,5.37,0,0,1,.29,1.81v.28Zm3.18-1.57a1.64,1.64,0,0,0-.55-.92,1.55,1.55,0,0,0-1-.34,1.52,1.52,0,0,0-1,.33,1.49,1.49,0,0,0-.5.93Z"/><path class="cls-1" d="M436.55,9.58h2.55l-2.76,5H434.6Z"/><path class="cls-1" d="M451.85,4.75h2.73v7.7h-2.73v-.86a2.82,2.82,0,0,1-2.35,1.1,3.77,3.77,0,0,1-1.55-.31,3.65,3.65,0,0,1-1.23-.86,3.81,3.81,0,0,1-.81-1.31,4.49,4.49,0,0,1,0-3.2,4.08,4.08,0,0,1,.79-1.3,3.82,3.82,0,0,1,1.22-.87,3.63,3.63,0,0,1,1.56-.32,3.12,3.12,0,0,1,2.38,1Zm-3.42,3.83a1.82,1.82,0,0,0,.14.7,1.76,1.76,0,0,0,.37.56,1.62,1.62,0,0,0,.55.37,1.65,1.65,0,0,0,.7.14,1.56,1.56,0,0,0,.68-.14,1.66,1.66,0,0,0,.56-.37,1.9,1.9,0,0,0,.37-.55,1.72,1.72,0,0,0,0-1.36,1.82,1.82,0,0,0-.37-.56,1.68,1.68,0,0,0-.56-.38,1.72,1.72,0,0,0-.68-.13,1.82,1.82,0,0,0-.7.13,1.64,1.64,0,0,0-.55.38,1.79,1.79,0,0,0-.37.54A1.67,1.67,0,0,0,448.43,8.58Z"/><path class="cls-1" d="M456.43,4.75h2.71v1a3,3,0,0,1,1.13-.91,3.59,3.59,0,0,1,1.33-.23,3.41,3.41,0,0,1,1.39.26,2.89,2.89,0,0,1,1,.74,2.27,2.27,0,0,1,.45.87,4.63,4.63,0,0,1,.12,1.1v4.89h-2.71V8.57a4.65,4.65,0,0,0-.08-.93,1.21,1.21,0,0,0-.3-.56,1,1,0,0,0-.4-.25,1.51,1.51,0,0,0-.48-.08,1.37,1.37,0,0,0-1.06.41,1.75,1.75,0,0,0-.37,1.18v4.11h-2.71Z"/><path class="cls-1" d="M472.33,0h2.73V12.45h-2.73v-.86a2.84,2.84,0,0,1-2.36,1.1,3.88,3.88,0,0,1-1.54-.31,3.7,3.7,0,0,1-1.23-.88,3.94,3.94,0,0,1-.82-1.3,4.52,4.52,0,0,1-.29-1.62A4.37,4.37,0,0,1,466.37,7a3.89,3.89,0,0,1,.78-1.3,3.76,3.76,0,0,1,1.23-.87,3.63,3.63,0,0,1,1.56-.32,3.14,3.14,0,0,1,2.39,1Zm-3.42,8.58a1.82,1.82,0,0,0,.13.7,1.76,1.76,0,0,0,.37.56,1.66,1.66,0,0,0,.56.37,1.58,1.58,0,0,0,.69.14,1.64,1.64,0,0,0,.69-.14,1.62,1.62,0,0,0,.55-.37,1.93,1.93,0,0,0,.38-.55,1.72,1.72,0,0,0,0-1.36,1.85,1.85,0,0,0-.38-.56,1.64,1.64,0,0,0-.55-.38,1.8,1.8,0,0,0-.69-.13A1.75,1.75,0,0,0,470,7a1.64,1.64,0,0,0-.55.38,2,2,0,0,0-.38.54A1.67,1.67,0,0,0,468.91,8.58Z"/><path class="cls-1" d="M487.94,0h2.73V12.45h-2.73v-.86a2.82,2.82,0,0,1-2.35,1.1,3.93,3.93,0,0,1-1.55-.31,3.7,3.7,0,0,1-1.23-.88,3.77,3.77,0,0,1-.81-1.3,4.32,4.32,0,0,1-.3-1.62A4.59,4.59,0,0,1,482,7a4.08,4.08,0,0,1,.79-1.3A3.82,3.82,0,0,1,484,4.84a3.71,3.71,0,0,1,1.57-.32,3.12,3.12,0,0,1,2.38,1Zm-3.42,8.58a1.82,1.82,0,0,0,.14.7,1.76,1.76,0,0,0,.37.56,1.62,1.62,0,0,0,.55.37,1.65,1.65,0,0,0,.7.14,1.56,1.56,0,0,0,.68-.14,1.66,1.66,0,0,0,.56-.37,1.9,1.9,0,0,0,.37-.55,1.72,1.72,0,0,0,0-1.36,1.82,1.82,0,0,0-.37-.56A1.68,1.68,0,0,0,487,7a1.84,1.84,0,0,0-1.36,0,1.68,1.68,0,0,0-.56.38,2,2,0,0,0-.37.54A1.53,1.53,0,0,0,484.52,8.58Z"/><path class="cls-1" d="M495,9.06c0,1.17.55,1.76,1.65,1.76a1.47,1.47,0,0,0,1.34-.73h2.62q-.79,2.65-4,2.65a5.13,5.13,0,0,1-1.79-.3,3.83,3.83,0,0,1-1.38-.83,3.66,3.66,0,0,1-.9-1.29,4.3,4.3,0,0,1-.31-1.68,4.72,4.72,0,0,1,.3-1.73,3.71,3.71,0,0,1,.85-1.32,4,4,0,0,1,1.35-.83,5.52,5.52,0,0,1,3.53,0A3.49,3.49,0,0,1,500.39,7a5.37,5.37,0,0,1,.29,1.81v.28Zm3.18-1.57a1.64,1.64,0,0,0-.55-.92,1.55,1.55,0,0,0-1-.34,1.52,1.52,0,0,0-1,.33,1.49,1.49,0,0,0-.5.93Z"/><path class="cls-1" d="M504,4.75l1.83,3.95,1.86-3.95h3l-4,7.7h-1.81l-4-7.7Z"/><path class="cls-1" d="M513.74,9.06c0,1.17.55,1.76,1.65,1.76a1.47,1.47,0,0,0,1.34-.73h2.62q-.79,2.65-4,2.65a5.13,5.13,0,0,1-1.79-.3,3.83,3.83,0,0,1-1.38-.83,3.66,3.66,0,0,1-.9-1.29A4.3,4.3,0,0,1,511,8.64a4.72,4.72,0,0,1,.3-1.73,3.71,3.71,0,0,1,.85-1.32,4,4,0,0,1,1.35-.83,5.52,5.52,0,0,1,3.53,0A3.49,3.49,0,0,1,519.17,7a5.37,5.37,0,0,1,.29,1.81v.28Zm3.18-1.57a1.64,1.64,0,0,0-.55-.92,1.55,1.55,0,0,0-1-.34,1.5,1.5,0,0,0-1,.33,1.44,1.44,0,0,0-.5.93Z"/><path class="cls-1" d="M523.72,0V12.45H521V0Z"/><path class="cls-1" d="M525.28,8.54a3.7,3.7,0,0,1,.34-1.6,3.82,3.82,0,0,1,1-1.29A4.51,4.51,0,0,1,528,4.79a5.34,5.34,0,0,1,1.86-.32,5.27,5.27,0,0,1,1.84.31,4.65,4.65,0,0,1,1.47.85,3.9,3.9,0,0,1,1,1.31,4.16,4.16,0,0,1,0,3.34,4.07,4.07,0,0,1-1,1.31,4.48,4.48,0,0,1-1.48.85,6,6,0,0,1-1.87.3,5.66,5.66,0,0,1-1.83-.3,4.15,4.15,0,0,1-1.44-.86,3.88,3.88,0,0,1-1-1.33A4.11,4.11,0,0,1,525.28,8.54Zm2.86,0a1.67,1.67,0,0,0,.15.71,1.76,1.76,0,0,0,.37.56,1.62,1.62,0,0,0,.55.37,1.64,1.64,0,0,0,.69.14,1.56,1.56,0,0,0,.68-.14,1.62,1.62,0,0,0,.55-.37,1.79,1.79,0,0,0,.38-.56,1.82,1.82,0,0,0,.14-.7,1.72,1.72,0,0,0-.14-.68,1.84,1.84,0,0,0-.38-.57,1.77,1.77,0,0,0-.55-.37,1.72,1.72,0,0,0-.68-.13,1.8,1.8,0,0,0-.69.13,1.77,1.77,0,0,0-.55.37,1.88,1.88,0,0,0-.37.56A1.57,1.57,0,0,0,528.14,8.57Z"/><path class="cls-1" d="M538.79,16.29h-2.71V4.75h2.71v.86a2.86,2.86,0,0,1,2.37-1.09,3.63,3.63,0,0,1,1.54.32,4,4,0,0,1,1.24.87A3.91,3.91,0,0,1,544.75,7a4.29,4.29,0,0,1,.3,1.6,4.09,4.09,0,0,1-.3,1.59,3.85,3.85,0,0,1-.8,1.29,3.7,3.7,0,0,1-1.23.88,3.87,3.87,0,0,1-1.53.31,3.21,3.21,0,0,1-2.4-1Zm3.42-7.67a1.75,1.75,0,0,0-.13-.68,1.58,1.58,0,0,0-.36-.56,1.79,1.79,0,0,0-.56-.38,1.65,1.65,0,0,0-.7-.14,1.72,1.72,0,0,0-.68.13,1.6,1.6,0,0,0-.54.38,1.85,1.85,0,0,0-.38.56,1.56,1.56,0,0,0-.14.68,1.72,1.72,0,0,0,.13.68,1.6,1.6,0,0,0,.38.54,2,2,0,0,0,.56.38,1.72,1.72,0,0,0,.68.14,1.56,1.56,0,0,0,.68-.14,1.72,1.72,0,0,0,.55-.37,2.12,2.12,0,0,0,.37-.55A1.52,1.52,0,0,0,542.21,8.62Z"/><path class="cls-1" d="M549,9.06c0,1.17.55,1.76,1.65,1.76a1.45,1.45,0,0,0,1.33-.73h2.63q-.79,2.65-4,2.65a5.08,5.08,0,0,1-1.78-.3,3.87,3.87,0,0,1-1.39-.83,3.64,3.64,0,0,1-.89-1.29,4.3,4.3,0,0,1-.32-1.68,4.72,4.72,0,0,1,.3-1.73,3.73,3.73,0,0,1,.86-1.32,4,4,0,0,1,1.34-.83,5.19,5.19,0,0,1,1.78-.29,5.06,5.06,0,0,1,1.75.29,3.62,3.62,0,0,1,1.32.85A3.66,3.66,0,0,1,554.47,7a5.37,5.37,0,0,1,.28,1.81v.28Zm3.18-1.57a1.65,1.65,0,0,0-.56-.92,1.55,1.55,0,0,0-1-.34,1.52,1.52,0,0,0-1,.33,1.49,1.49,0,0,0-.5.93Z"/><path class="cls-1" d="M562.24,0H565V12.45h-2.73v-.86a2.84,2.84,0,0,1-2.36,1.1,3.88,3.88,0,0,1-1.54-.31,3.7,3.7,0,0,1-1.23-.88,3.79,3.79,0,0,1-.82-1.3A4.32,4.32,0,0,1,556,8.58,4.59,4.59,0,0,1,556.27,7a4.08,4.08,0,0,1,.79-1.3,3.76,3.76,0,0,1,1.23-.87,3.63,3.63,0,0,1,1.56-.32,3.14,3.14,0,0,1,2.39,1Zm-3.42,8.58a1.82,1.82,0,0,0,.13.7,1.76,1.76,0,0,0,.37.56,1.76,1.76,0,0,0,1.93.37,1.66,1.66,0,0,0,.56-.37,1.9,1.9,0,0,0,.37-.55,1.62,1.62,0,0,0,0-1.36,1.82,1.82,0,0,0-.37-.56,1.68,1.68,0,0,0-.56-.38,1.84,1.84,0,0,0-1.36,0,1.68,1.68,0,0,0-.56.38,2,2,0,0,0-.37.54A1.52,1.52,0,0,0,558.82,8.58Z"/><path class="cls-1" d="M574.63,0V5.52a3.18,3.18,0,0,1,2.4-1,3.63,3.63,0,0,1,1.56.32,3.58,3.58,0,0,1,1.22.87A4,4,0,0,1,580.6,7a4.34,4.34,0,0,1,.28,1.58,4.51,4.51,0,0,1-.29,1.61,4,4,0,0,1-.82,1.3,3.94,3.94,0,0,1-1.24.88,3.71,3.71,0,0,1-1.53.32,2.84,2.84,0,0,1-2.37-1.1v.86h-2.72V0Zm3.42,8.62a1.8,1.8,0,0,0-.51-1.24A1.79,1.79,0,0,0,577,7a1.58,1.58,0,0,0-.69-.14,1.67,1.67,0,0,0-.67.13,1.64,1.64,0,0,0-.55.38,1.85,1.85,0,0,0-.38.56,1.72,1.72,0,0,0,0,1.36,1.58,1.58,0,0,0,.37.54,2,2,0,0,0,.56.38,1.81,1.81,0,0,0,.69.14,1.52,1.52,0,0,0,.67-.14,1.72,1.72,0,0,0,.55-.37,1.9,1.9,0,0,0,.37-.55A1.53,1.53,0,0,0,578.05,8.62Z"/><path class="cls-1" d="M584.83,11.4l-3.72-6.65h3.15l2,3.95,2-3.95h3.12l-6.18,11.54h-3Z"/><path class="cls-1" d="M602,3.63v8.82h-2.94V3.63h-2.41V1.14h7.77V3.63Z"/><path class="cls-1" d="M604.63,8.54a3.7,3.7,0,0,1,.34-1.6,3.82,3.82,0,0,1,1-1.29,4.51,4.51,0,0,1,1.46-.86,5.34,5.34,0,0,1,1.86-.32,5.17,5.17,0,0,1,1.83.31,4.43,4.43,0,0,1,1.47.85,3.8,3.8,0,0,1,1,1.31,4,4,0,0,1,.35,1.67,3.82,3.82,0,0,1-.36,1.67,3.9,3.9,0,0,1-1,1.31,4.48,4.48,0,0,1-1.48.85,6,6,0,0,1-1.87.3,5.66,5.66,0,0,1-1.83-.3,4.29,4.29,0,0,1-1.45-.86,4,4,0,0,1-.95-1.33A4.11,4.11,0,0,1,604.63,8.54Zm2.86,0a1.83,1.83,0,0,0,.14.71,2,2,0,0,0,.38.56,1.62,1.62,0,0,0,.55.37,1.64,1.64,0,0,0,.69.14,1.59,1.59,0,0,0,.68-.14,1.62,1.62,0,0,0,.55-.37,2,2,0,0,0,.38-.56,1.82,1.82,0,0,0,.14-.7,1.72,1.72,0,0,0-.14-.68,2,2,0,0,0-.38-.57,1.77,1.77,0,0,0-.55-.37,1.75,1.75,0,0,0-.68-.13,1.8,1.8,0,0,0-.69.13,1.77,1.77,0,0,0-.55.37,2.13,2.13,0,0,0-.38.56A1.72,1.72,0,0,0,607.49,8.57Z"/><path class="cls-1" d="M615.43,4.75h2.71v1a3.52,3.52,0,0,1,2.49-1.07,3.07,3.07,0,0,0,5.22,0,3.11,3.11,0,0,1,1,.16,2.1,2.1,0,0,1,.83.49,2.34,2.34,0,0,1,.54.88,3.63,3.63,0,0,1,.21,1.31v5h-2.72V8.66a5,5,0,0,0-.08-1,1.72,1.72,0,0,0-.24-.59.81.81,0,0,0-.37-.28,1.33,1.33,0,0,0-.45-.08c-.87,0-1.3.64-1.3,1.91v3.79h-2.72V8.66a5.21,5.21,0,0,0-.07-1,1.86,1.86,0,0,0-.22-.61.79.79,0,0,0-.37-.31,1.62,1.62,0,0,0-.52-.08,1.27,1.27,0,0,0-.48.08.8.8,0,0,0-.4.29,1.39,1.39,0,0,0-.27.6,3.9,3.9,0,0,0-.1,1v3.79h-2.71Z"/><path class="cls-1" d="M638.6,1.14V10h3.53v2.49h-6.47V1.14Z"/><path class="cls-1" d="M643.21,1.8a1.45,1.45,0,0,1,.12-.59,1.51,1.51,0,0,1,.33-.49,1.58,1.58,0,0,1,.48-.33,1.53,1.53,0,0,1,.6-.12,1.48,1.48,0,0,1,.59.12,1.63,1.63,0,0,1,.49.33,1.51,1.51,0,0,1,.33.49,1.45,1.45,0,0,1,.12.59,1.45,1.45,0,0,1-.12.59,1.51,1.51,0,0,1-.33.49,1.63,1.63,0,0,1-.49.33,1.48,1.48,0,0,1-.59.12,1.53,1.53,0,0,1-.6-.12,1.58,1.58,0,0,1-.48-.33,1.51,1.51,0,0,1-.33-.49A1.45,1.45,0,0,1,643.21,1.8Zm2.89,3v7.7h-2.71V4.75Z"/><path class="cls-1" d="M648,4.75h2.72v1a3.52,3.52,0,0,1,2.49-1.07,3.07,3.07,0,0,0,5.22,0,3.11,3.11,0,0,1,1,.16,2.07,2.07,0,0,1,.82.49,2.49,2.49,0,0,1,.55.88,3.88,3.88,0,0,1,.2,1.31v5h-2.71V8.66a4.22,4.22,0,0,0-.09-1,1.4,1.4,0,0,0-.24-.59.74.74,0,0,0-.36-.28,1.33,1.33,0,0,0-.45-.08c-.87,0-1.31.64-1.31,1.91v3.79h-2.71V8.66a5.1,5.1,0,0,0-.08-1,1.66,1.66,0,0,0-.22-.61.72.72,0,0,0-.36-.31,1.69,1.69,0,0,0-.53-.08,1.27,1.27,0,0,0-.48.08.84.84,0,0,0-.4.29,1.68,1.68,0,0,0-.27.6,4.49,4.49,0,0,0-.09,1v3.79H648Z"/><path class="cls-1" d="M662.71,11a1.72,1.72,0,0,1,.13-.68,1.57,1.57,0,0,1,.37-.56,1.84,1.84,0,0,1,.57-.38,1.72,1.72,0,0,1,1.36,0,1.84,1.84,0,0,1,.57.38,1.57,1.57,0,0,1,.37.56,1.84,1.84,0,0,1,0,1.36,1.57,1.57,0,0,1-.37.56,1.68,1.68,0,0,1-.57.38,1.72,1.72,0,0,1-1.36,0,1.68,1.68,0,0,1-.57-.38,1.57,1.57,0,0,1-.37-.56A1.72,1.72,0,0,1,662.71,11Z"/></g></g></svg>