<?xml version="1.0" encoding="utf-8"?>
<!-- Generator: Adobe Illustrator 22.1.0, SVG Export Plug-In . SVG Version: 6.00 Build 0)  -->
<svg version="1.1" id="Layer_1" xmlns="http://www.w3.org/2000/svg" xmlns:xlink="http://www.w3.org/1999/xlink" x="0px" y="0px"
	 viewBox="0 0 666.2 16.3" style="enable-background:new 0 0 666.2 16.3;" xml:space="preserve">
<style type="text/css">
	.st0{fill:#95272B;}
</style>
<title>Asset 4</title>
<path class="st0" d="M0,6.8C0,6,0.2,5.2,0.5,4.5c0.3-0.7,0.7-1.4,1.3-1.9C2.3,2,3,1.6,3.7,1.3c1.5-0.6,3.2-0.6,4.7,0
	C9.1,1.6,9.7,2,10.3,2.6c0.6,0.6,1,1.2,1.3,1.9C11.9,5.2,12,6,12,6.8c0,0.8-0.2,1.6-0.5,2.3c-0.3,0.7-0.7,1.4-1.3,1.9
	c-0.5,0.6-1.2,1-1.9,1.3c-0.7,0.3-1.5,0.5-2.3,0.5c-0.8,0-1.6-0.2-2.3-0.5c-0.7-0.3-1.4-0.7-1.9-1.3c-0.5-0.6-1-1.2-1.3-1.9
	C0.2,8.4,0,7.6,0,6.8z M1.2,6.8c0,0.6,0.1,1.3,0.4,1.9c0.2,0.6,0.6,1.1,1,1.5c0.4,0.4,1,0.8,1.5,1c0.6,0.3,1.2,0.4,1.9,0.4
	c0.7,0,1.3-0.1,1.9-0.4c0.6-0.2,1.1-0.6,1.5-1c0.4-0.4,0.8-1,1.1-1.5C11,7.6,11,6.2,10.5,5c-0.2-0.6-0.6-1.1-1.1-1.6
	C9,3,8.5,2.7,7.9,2.4C7.3,2.1,6.7,2,6,2C5.4,2,4.7,2.1,4.1,2.4C3.5,2.6,3,3,2.6,3.4c-0.4,0.5-0.8,1-1,1.6C1.3,5.6,1.2,6.2,1.2,6.8z
	 M8,3.7v2.4L7.8,5.8C7.6,5.6,7.4,5.4,7.1,5.3C6.9,5.2,6.6,5.2,6.3,5.2c-0.4,0-0.9,0.2-1.2,0.5C4.8,6,4.6,6.4,4.7,6.8
	c0,0.9,0.6,1.6,1.5,1.7c0,0,0.1,0,0.1,0c0.3,0,0.5-0.1,0.8-0.2C7.3,8.2,7.5,8,7.8,7.8L8,7.7V10l-0.3,0.1c-0.3,0.1-0.5,0.2-0.8,0.2
	c-0.2,0-0.5,0.1-0.7,0.1c-0.5,0-1-0.1-1.4-0.3C4.4,9.9,4,9.7,3.6,9.3C2.9,8.7,2.5,7.8,2.5,6.8c0-0.5,0.1-0.9,0.3-1.4
	C3,5,3.3,4.6,3.6,4.3C4,4,4.4,3.7,4.8,3.5c0.5-0.2,0.9-0.3,1.4-0.3c0.3,0,0.5,0,0.8,0.1c0.3,0,0.6,0.1,0.8,0.2L8,3.7z"/>
<path class="st0" d="M23.4,10h4.7v2.5h-9.7l5.4-8.8h-4.5V1.1h9.4L23.4,10z"/>
<path class="st0" d="M32.3,9.1c0,1.2,0.5,1.8,1.7,1.8c0.5,0,1.1-0.3,1.3-0.7H38c-0.5,1.8-1.9,2.7-4,2.6c-0.6,0-1.2-0.1-1.8-0.3
	c-0.5-0.2-1-0.5-1.4-0.8c-0.4-0.4-0.7-0.8-0.9-1.3c-0.2-0.5-0.3-1.1-0.3-1.7c0-0.6,0.1-1.2,0.3-1.7c0.2-0.5,0.5-0.9,0.9-1.3
	c0.4-0.4,0.8-0.6,1.3-0.8c1.1-0.4,2.4-0.4,3.5,0c1,0.4,1.8,1.2,2.1,2.2c0.2,0.6,0.3,1.2,0.3,1.8v0.3L32.3,9.1z M35.5,7.5
	c-0.1-0.4-0.3-0.7-0.5-0.9c-0.3-0.2-0.6-0.3-1-0.3c-0.4,0-0.7,0.1-1,0.3c-0.3,0.2-0.5,0.6-0.5,0.9L35.5,7.5z"/>
<path class="st0" d="M41.7,4.8l1.8,4.1l1.9-4.1h1.7l1.9,4.2L51,4.8h3l-4,7.7h-1.8l-1.9-4.2l-1.8,4.2h-1.8l-4-7.7H41.7z"/>
<path class="st0" d="M57.4,9.1c0,1.2,0.5,1.8,1.7,1.8c0.5,0,1.1-0.3,1.3-0.7H63c-0.5,1.8-1.9,2.7-4,2.6c-0.6,0-1.2-0.1-1.8-0.3
	c-0.5-0.2-1-0.5-1.4-0.8c-0.4-0.4-0.7-0.8-0.9-1.3c-0.2-0.5-0.3-1.1-0.3-1.7c0-0.6,0.1-1.2,0.4-1.7c0.2-0.5,0.5-0.9,0.8-1.3
	c0.4-0.4,0.8-0.6,1.3-0.8c1.1-0.4,2.4-0.4,3.5,0c1,0.4,1.8,1.2,2.1,2.2c0.2,0.6,0.3,1.2,0.3,1.8v0.3L57.4,9.1z M60.6,7.5
	c-0.1-0.4-0.3-0.7-0.5-0.9c-0.3-0.2-0.6-0.3-1-0.3c-0.4,0-0.7,0.1-1,0.3c-0.3,0.2-0.5,0.6-0.5,0.9L60.6,7.5z"/>
<path class="st0" d="M64.5,1.8c0-0.2,0-0.4,0.1-0.6C64.7,1,64.8,0.9,65,0.7c0.1-0.1,0.3-0.3,0.5-0.3c0.2-0.1,0.3-0.1,0.5-0.1
	c0.2,0,0.4,0,0.6,0.1c0.2,0.1,0.3,0.2,0.5,0.3c0.1,0.1,0.3,0.3,0.3,0.5c0.1,0.2,0.1,0.4,0.1,0.6c0,0.2,0,0.4-0.1,0.6
	c-0.1,0.2-0.2,0.3-0.3,0.5c-0.1,0.1-0.3,0.3-0.5,0.3c-0.2,0.1-0.4,0.1-0.6,0.1c-0.2,0-0.4,0-0.6-0.1C65.3,3.1,65.1,3,65,2.9
	c-0.1-0.1-0.3-0.3-0.3-0.5C64.6,2.2,64.5,2,64.5,1.8z M67.4,4.8v7.7h-2.7V4.8L67.4,4.8z"/>
<path class="st0" d="M77.6,5.5h4.2V1.1h2.9v11.3h-2.9V7.8h-4.2v4.7h-2.9V1.1h2.9L77.6,5.5z"/>
<path class="st0" d="M86.6,8.5c0-0.6,0.1-1.1,0.3-1.6c0.2-0.5,0.6-0.9,1-1.3c0.4-0.4,0.9-0.7,1.5-0.9c0.6-0.2,1.2-0.3,1.8-0.3
	c0.6,0,1.2,0.1,1.8,0.3c0.5,0.2,1,0.5,1.5,0.8c0.4,0.4,0.8,0.8,1,1.3c0.2,0.5,0.3,1.1,0.3,1.7c0,0.6-0.1,1.1-0.3,1.7
	c-0.2,0.5-0.6,0.9-1,1.3C94,12,93.5,12.3,93,12.4c-0.6,0.2-1.2,0.3-1.9,0.3c-0.6,0-1.2-0.1-1.8-0.3c-0.5-0.2-1-0.5-1.4-0.9
	c-0.4-0.4-0.8-0.8-1-1.3C86.6,9.7,86.5,9.1,86.6,8.5z M89.4,8.5c0,0.2,0,0.5,0.1,0.7c0.1,0.2,0.2,0.4,0.4,0.6
	c0.2,0.2,0.3,0.3,0.6,0.4c0.2,0.1,0.4,0.1,0.7,0.1c0.2,0,0.5,0,0.7-0.1c0.2-0.1,0.4-0.2,0.6-0.4c0.2-0.2,0.3-0.4,0.4-0.6
	c0.1-0.2,0.1-0.5,0.1-0.7c0-0.2,0-0.5-0.1-0.7c-0.1-0.2-0.2-0.4-0.4-0.6c-0.2-0.1-0.4-0.2-0.6-0.3c-0.2-0.1-0.5-0.1-0.7-0.1
	c-0.2,0-0.5,0-0.7,0.1c-0.2,0.1-0.4,0.2-0.6,0.4c-0.2,0.2-0.3,0.4-0.4,0.6C89.5,8.1,89.4,8.3,89.4,8.5L89.4,8.5z"/>
<path class="st0" d="M97.4,4.8h2.7v1c0.3-0.4,0.7-0.7,1.1-0.9c0.4-0.2,0.9-0.2,1.3-0.2c0.5,0,0.9,0.1,1.4,0.3c0.4,0.2,0.7,0.4,1,0.7
	c0.2,0.3,0.4,0.6,0.4,0.9c0.1,0.4,0.1,0.7,0.1,1.1v4.9h-2.7V8.6c0-0.3,0-0.6-0.1-0.9c0-0.2-0.1-0.4-0.3-0.6
	c-0.1-0.1-0.3-0.2-0.4-0.2c-0.2-0.1-0.3-0.1-0.5-0.1c-0.4,0-0.7,0.1-1,0.4c-0.3,0.3-0.4,0.8-0.4,1.2v4.1h-2.8V4.8z"/>
<path class="st0" d="M115.9,4.8v7.2c0,0.4,0,0.8-0.1,1.2c0,0.3-0.1,0.6-0.2,0.9c-0.1,0.3-0.3,0.7-0.6,0.9c-0.3,0.3-0.6,0.6-0.9,0.8
	c-0.4,0.2-0.8,0.4-1.2,0.5c-0.5,0.1-1,0.2-1.5,0.2c-0.6,0-1.1-0.1-1.7-0.2c-0.5-0.1-0.9-0.3-1.3-0.6c-0.4-0.3-0.7-0.6-0.9-0.9
	c-0.2-0.3-0.4-0.7-0.5-1.2h3.1c0.2,0.5,0.7,0.8,1.3,0.8c0.5,0,1-0.1,1.3-0.5c0.3-0.4,0.5-0.9,0.5-1.3v-0.7c-0.2,0.2-0.4,0.3-0.6,0.5
	c-0.2,0.1-0.4,0.2-0.6,0.3c-0.2,0.1-0.4,0.1-0.6,0.2c-0.2,0-0.5,0-0.7,0c-0.5,0-1-0.1-1.5-0.3c-0.9-0.4-1.6-1.1-2-2
	c-0.2-0.5-0.3-1-0.3-1.6c0-1.1,0.4-2.2,1.1-3c0.3-0.4,0.8-0.7,1.2-0.9c0.5-0.2,1-0.3,1.6-0.3c0.9,0,1.7,0.3,2.3,1V4.8H115.9z
	 M109.8,8.6c0,0.2,0,0.5,0.1,0.7c0.1,0.2,0.2,0.4,0.4,0.6c0.2,0.2,0.3,0.3,0.6,0.4c0.2,0.1,0.5,0.1,0.7,0.1c0.2,0,0.5,0,0.7-0.1
	c0.2-0.1,0.4-0.2,0.6-0.4c0.2-0.2,0.3-0.4,0.4-0.6c0.2-0.4,0.2-0.9,0-1.4c-0.1-0.2-0.2-0.4-0.4-0.6c-0.2-0.2-0.4-0.3-0.6-0.4
	c-0.2-0.1-0.4-0.1-0.7-0.1c-0.2,0-0.5,0-0.7,0.1c-0.2,0.1-0.4,0.2-0.6,0.4c-0.2,0.2-0.3,0.3-0.4,0.6C109.9,8.1,109.8,8.3,109.8,8.6z
	"/>
<path class="st0" d="M131.5,12.4h-9.1l2.8-2.9c0.6-0.6,1.2-1.3,1.7-2c0.3-0.4,0.7-0.9,0.9-1.3c0.2-0.3,0.3-0.6,0.4-0.9
	c0-0.2,0.1-0.4,0.1-0.6c0-0.2,0-0.3-0.1-0.5c-0.1-0.2-0.1-0.3-0.2-0.4c-0.1-0.1-0.2-0.2-0.4-0.3c-0.5-0.2-1.1-0.1-1.5,0.3
	c-0.2,0.3-0.4,0.6-0.3,1c0,0.2,0,0.3,0,0.5h-3.2c0-0.6,0.1-1.2,0.3-1.8c0.2-0.5,0.5-1,0.9-1.4c0.4-0.4,0.9-0.7,1.4-0.9
	c0.6-0.2,1.2-0.3,1.8-0.3c0.6,0,1.2,0.1,1.8,0.3c0.5,0.2,1,0.5,1.4,0.8c0.4,0.4,0.7,0.8,0.9,1.3c0.2,0.5,0.3,1.1,0.3,1.6
	c0,0.6-0.1,1.2-0.3,1.7c-0.3,0.6-0.8,1.2-1.3,1.6l-1.9,1.8h3.7V12.4z"/>
<path class="st0" d="M132.4,6.8c0-0.8,0.1-1.7,0.4-2.5c0.2-0.7,0.6-1.3,1-1.9c0.4-0.5,0.9-0.9,1.5-1.2c1.2-0.6,2.6-0.6,3.9,0
	c0.6,0.3,1.1,0.7,1.5,1.2c0.5,0.6,0.8,1.2,1,1.9c0.2,0.8,0.3,1.6,0.3,2.5c0,0.8-0.1,1.7-0.4,2.5c-0.2,0.7-0.5,1.3-1,1.9
	c-0.4,0.5-0.9,0.9-1.5,1.2c-1.9,0.9-4.1,0.4-5.4-1.2c-0.4-0.6-0.8-1.2-1-1.9C132.5,8.4,132.4,7.6,132.4,6.8z M135.4,6.8
	c0,0.5,0,0.9,0.1,1.4c0.1,0.4,0.2,0.7,0.4,1.1c0.1,0.3,0.3,0.5,0.6,0.7c0.5,0.3,1.1,0.3,1.6,0c0.2-0.2,0.5-0.4,0.6-0.7
	c0.2-0.3,0.3-0.7,0.4-1.1c0.1-0.5,0.1-0.9,0.1-1.4c0-0.5,0-0.9-0.1-1.4c-0.1-0.4-0.2-0.7-0.4-1.1c-0.1-0.3-0.3-0.5-0.6-0.7
	c-0.5-0.3-1.1-0.3-1.6,0c-0.2,0.2-0.5,0.4-0.6,0.7c-0.2,0.3-0.3,0.7-0.4,1.1C135.4,5.9,135.4,6.3,135.4,6.8z"/>
<path class="st0" d="M146.3,3.6h-1.6V1.1h4.6v11.3h-2.9V3.6z"/>
<path class="st0" d="M155.6,6.5c-1.1-0.3-1.8-1.4-1.8-2.5c0-0.4,0.1-0.9,0.3-1.3c0.2-0.4,0.5-0.7,0.8-1c0.4-0.3,0.8-0.5,1.2-0.6
	c1-0.3,2.1-0.3,3.1,0c0.4,0.1,0.9,0.4,1.2,0.6c0.3,0.3,0.6,0.6,0.8,1c0.2,0.4,0.3,0.9,0.3,1.3c0,0.3,0,0.5-0.1,0.8
	c-0.1,0.2-0.2,0.5-0.3,0.7c-0.2,0.2-0.4,0.4-0.6,0.6c-0.3,0.2-0.6,0.4-0.9,0.5C161,6.8,162,8,162,9.4c0,0.5-0.1,0.9-0.3,1.3
	c-0.2,0.4-0.5,0.8-0.9,1.1c-0.4,0.3-0.9,0.6-1.4,0.7c-0.6,0.2-1.1,0.3-1.7,0.2c-0.6,0-1.2-0.1-1.7-0.2c-0.5-0.1-1-0.4-1.4-0.7
	c-0.4-0.3-0.7-0.7-0.9-1.1c-0.2-0.4-0.3-0.9-0.3-1.4C153.4,8,154.3,6.8,155.6,6.5z M156.3,9c0,0.2,0,0.4,0.1,0.5
	c0.1,0.2,0.2,0.3,0.3,0.4c0.1,0.1,0.3,0.2,0.4,0.3c0.2,0.1,0.3,0.1,0.5,0.1c0.2,0,0.4,0,0.5-0.1c0.2-0.1,0.3-0.2,0.4-0.3
	c0.1-0.1,0.2-0.3,0.3-0.4C159,9.4,159,9.2,159,9c0-0.7-0.6-1.3-1.4-1.4c-0.4,0-0.7,0.1-1,0.4C156.4,8.3,156.3,8.6,156.3,9z M156.4,4
	c0,0.3,0.1,0.7,0.4,0.9c0.2,0.2,0.6,0.4,0.9,0.4c0.2,0,0.3,0,0.5-0.1c0.1-0.1,0.3-0.2,0.4-0.3c0.1-0.1,0.2-0.3,0.3-0.4
	c0.1-0.1,0.1-0.3,0.1-0.5c0-0.3-0.1-0.6-0.4-0.9c-0.2-0.2-0.5-0.4-0.9-0.4c-0.3,0-0.7,0.1-0.9,0.4C156.5,3.4,156.4,3.7,156.4,4
	L156.4,4z"/>
</svg>
