<svg xmlns="http://www.w3.org/2000/svg" viewBox="0 0 412.33 48.18"><defs><style>.cls-1{fill:#95272b;}.cls-2{fill:#93272d;}</style></defs><title>Asset 3</title><g id="Layer_2" data-name="Layer 2"><g id="Layer_1-2" data-name="Layer 1"><path class="cls-1" d="M24.24,22.71a1.28,1.28,0,0,1,.5,1.53,3.08,3.08,0,0,1-1.92,1.49,16.73,16.73,0,0,1-2.91.73,23.49,23.49,0,0,1-3.1.28,21.84,21.84,0,0,1-3-.14,11.52,11.52,0,0,1-2.46-.55,5.34,5.34,0,0,1-1.62-.85,3.53,3.53,0,0,1-1-1.33,6.94,6.94,0,0,1-.49-2q-.12-1.23-.12-3c-.82.13-1.62.22-2.4.29a1.88,1.88,0,0,1-.44.82.82.82,0,0,1-.53.28.9.9,0,0,1-.43-.14,2.75,2.75,0,0,1-.48-.4,2.48,2.48,0,0,1-.45-.59,3.24,3.24,0,0,1-.28-.73Q2.48,15.09,1.86,13a7.61,7.61,0,0,0-1.3-2.8A2.24,2.24,0,0,1,0,9.36a.48.48,0,0,1,.22-.57,2.14,2.14,0,0,1,1.09-.17,11.13,11.13,0,0,1,2.06.3c.88-.11,1.73-.22,2.54-.35s1.57-.25,2.28-.38a27,27,0,0,0-.28-3.51,4.46,4.46,0,0,0-.67-1.87c-.75-1-.92-1.63-.52-1.86s1.49,0,3.23.57a6.68,6.68,0,0,1,1.33.63,1.94,1.94,0,0,1,.64.64,1,1,0,0,1,.11.68,2,2,0,0,1-.28.69,3.13,3.13,0,0,0-.3,1,23.21,23.21,0,0,0-.27,2.51c1.05-.17,1.93-.34,2.65-.51a7.27,7.27,0,0,0,1.57-.5l.79-.35a1.57,1.57,0,0,1,.64-.11,2.22,2.22,0,0,1,.73.18,8.18,8.18,0,0,1,1,.47A15.19,15.19,0,0,1,20.19,8a2.77,2.77,0,0,1,.77.8.62.62,0,0,1,0,.64,2.53,2.53,0,0,1-.55.62,4.28,4.28,0,0,0-.95,1.07A4.66,4.66,0,0,0,19,12.38c-.07.23-.15.53-.25.91s-.23.78-.37,1.2-.28.84-.42,1.27-.3.82-.44,1.15a3.81,3.81,0,0,1-1.61,1.8,1.31,1.31,0,0,1-.75.19.56.56,0,0,1-.48-.28.89.89,0,0,0-.33-.45.9.9,0,0,0-.42-.09c-.23,0-.62,0-1.17.08s-1.13.13-1.76.23a12.4,12.4,0,0,0,.25,3.23c.19.66.45,1.07.79,1.21a8.57,8.57,0,0,0,3.9.74,11.73,11.73,0,0,0,3.81-.74,2.31,2.31,0,0,0,1.12-1.1,8.56,8.56,0,0,0,.9-2.8c.23-1.32.5-2,.82-2s.52.67.63,2c.06.67.13,1.23.2,1.67a7.31,7.31,0,0,0,.25,1.08,3.34,3.34,0,0,0,.3.67A1.94,1.94,0,0,0,24.24,22.71ZM8.24,10c-.67.13-1.32.24-1.95.32s-1.23.15-1.8.19c.11.61.22,1.23.35,1.86s.24,1.25.35,1.87S5.4,15.4,5.5,16s.2,1.07.28,1.51L7,17.34c.41-.05.79-.11,1.15-.17,0-.51,0-1,0-1.48V14.27c-.44,0-.79.06-1,.06a2.56,2.56,0,0,1-.76-.12c-.5-.17-.75-.38-.75-.62s.25-.4.75-.49L7.22,13a9.11,9.11,0,0,0,1-.23Zm7.46,0c.07-.63-.07-.94-.41-.94-.54,0-1.17,0-1.87.11s-1.45.18-2.25.33c0,.4,0,.8,0,1.21s0,.83,0,1.25a6.61,6.61,0,0,1,1.48-.21,3.22,3.22,0,0,1,.85.14c.63.21.91.47.85.76s-.35.55-.85.79a6.63,6.63,0,0,1-1.09.36L11,14v2.64q1.35-.25,1.92-.3a2.13,2.13,0,0,1,1,.11.37.37,0,0,0,.45-.06,2.29,2.29,0,0,0,.49-1c.11-.36.21-.79.32-1.29s.19-1,.26-1.53.14-1,.19-1.48S15.68,10.22,15.7,9.92Z"/><path class="cls-1" d="M47.89,10.14a2.4,2.4,0,0,0-.37.51,4.78,4.78,0,0,0-.34.9,11.33,11.33,0,0,0-.32,1.51q-.13.93-.27,2.37c-.06.7-.13,1.3-.2,1.81a9.18,9.18,0,0,1-.28,1.34,6.29,6.29,0,0,1-.41,1c-.16.28-.33.56-.52.83-.42.59-.82.89-1.18.9s-.68-.45-.93-1.37a.65.65,0,0,0-.18-.33.64.64,0,0,0-.44-.13,4.54,4.54,0,0,0-1,.1c-.43.07-1,.19-1.81.36l-.9.19-.65.09a3.41,3.41,0,0,1-.55,0l-.58,0a2.47,2.47,0,0,1-.41,1.15.74.74,0,0,1-.53.27.65.65,0,0,1-.41-.18,1.86,1.86,0,0,1-.46-.67,8,8,0,0,1-.46-1.41A19,19,0,0,1,34.35,17a34.48,34.48,0,0,0-.65-4.05,6.1,6.1,0,0,0-1-2.38c-.67-.79-.85-1.33-.52-1.62s1.32-.22,3,.18c.52,0,1.07-.08,1.63-.16s1.22-.21,2-.38c0-1,0-1.91,0-2.63s0-1.34-.09-1.86a5.87,5.87,0,0,0-.26-1.27A2.27,2.27,0,0,0,38,2,5.05,5.05,0,0,1,37.24.84.58.58,0,0,1,37.3.16a1.5,1.5,0,0,1,1-.14,10.91,10.91,0,0,1,2.16.55,6.32,6.32,0,0,1,1.19.49,1.42,1.42,0,0,1,.55.49.8.8,0,0,1,.07.6A7.64,7.64,0,0,1,42,3a3.4,3.4,0,0,0-.22.68,9.85,9.85,0,0,0-.18,1c-.05.39-.1.86-.14,1.42s-.08,1.23-.12,2a8.34,8.34,0,0,0,2.2-.73L44.26,7a1.39,1.39,0,0,1,.54-.12,1.29,1.29,0,0,1,.5.11,3,3,0,0,1,.6.36c.59.42,1.06.77,1.4,1.06a3.8,3.8,0,0,1,.73.72.66.66,0,0,1,.14.52A1.61,1.61,0,0,1,47.89,10.14Zm-9.14.13c-.35.06-.73.12-1.11.16l-1.44.12c.09.72.17,1.46.25,2.24s.17,1.53.24,2.27.14,1.43.21,2.09.11,1.22.15,1.68l.79-.18.82-.22.06-3.81a3.09,3.09,0,0,1-1.19-.16c-.68-.27-1-.51-.85-.71s.41-.35.94-.46l.6-.12.5-.13Zm5.39-.38a.69.69,0,0,0-.22-.49c-.13-.09-.43-.08-.92,0l-1.73.38-.09,2.45a2.82,2.82,0,0,1,1.64-.06,2,2,0,0,1,.69.43.7.7,0,0,1,.22.45.57.57,0,0,1-.16.4.79.79,0,0,1-.41.23c-.23.07-.52.14-.88.22l-1.16.29L41,17.8l.67-.15a2.85,2.85,0,0,1,.46,0,.81.81,0,0,1,.33.06,1.46,1.46,0,0,1,.3.16c.29.19.48.25.57.2s.17-.3.25-.74a38.34,38.34,0,0,0,.5-3.93A28.73,28.73,0,0,0,44.14,9.89ZM58.81,20a2.64,2.64,0,0,1-.63.87,2.14,2.14,0,0,1-.75.45,1.14,1.14,0,0,1-.7,0,.89.89,0,0,1-.5-.44,5,5,0,0,0-1.17-1.44,16.33,16.33,0,0,0-2.2-1.59c-.82-.5-1.2-.9-1.13-1.19s.52-.35,1.38-.16c.69.17,1.24.28,1.62.34a2.63,2.63,0,0,0,.84.05c.17,0,.25-.11.25-.25a1.81,1.81,0,0,0-.13-.58,4.84,4.84,0,0,0-.92-1.77,15.52,15.52,0,0,0-1.94-1.85,4.33,4.33,0,0,1-.52-.49.94.94,0,0,1-.21-.44,1.11,1.11,0,0,1,.1-.54,4.93,4.93,0,0,1,.41-.74L53,9.59c.12-.22.25-.44.39-.67s.28-.49.44-.78.33-.6.52-1c.3-.54.2-.74-.28-.59-.76.23-1.35.4-1.77.5a8.06,8.06,0,0,1-1.16.22c0,1.24,0,2.4,0,3.48s0,2.16,0,3.24,0,2.2,0,3.36,0,2.42,0,3.81c0,.71,0,1.34,0,1.87s-.06,1-.11,1.5-.13.9-.22,1.32-.22.86-.37,1.32c-.35,1.16-.68,1.76-1,1.83s-.58-.53-.83-1.77a11,11,0,0,1-.19-2.06q0-1.34,0-2.88c0-1.2,0-2.24.06-3.13s0-1.77,0-2.63,0-1.79,0-2.77,0-2.18,0-3.56A12.2,12.2,0,0,0,48.23,8a3.76,3.76,0,0,0-.53-1.4,2.38,2.38,0,0,1-.43-.89.34.34,0,0,1,.28-.41,2.86,2.86,0,0,1,1.11,0c.51.08,1.2.24,2.06.47A11,11,0,0,0,53,5.26a4.15,4.15,0,0,0,1.35-.75A8.6,8.6,0,0,1,55,4a1.12,1.12,0,0,1,.6-.19,1.71,1.71,0,0,1,.74.21c.28.13.67.33,1.15.58,1.2.67,1.84,1.22,1.92,1.64s-.25.78-1,1.1a7.62,7.62,0,0,0-.91.44q-.44.25-1,.63a14.73,14.73,0,0,0-1.16.93c-.44.37-.94.83-1.53,1.4-.23.23-.34.4-.33.5s.12.21.33.32a20,20,0,0,1,3.34,2,6.44,6.44,0,0,1,1.82,2,3.85,3.85,0,0,1,.49,2.15A6.29,6.29,0,0,1,58.81,20Z"/><path class="cls-1" d="M77.55,17.29c.17.19.1.44-.21.74a10.94,10.94,0,0,1-1.21,1c-1.07.81-1.95,1.49-2.64,2s-1.26,1-1.69,1.33-.76.66-1,.89a7.37,7.37,0,0,0-.57.63,1.93,1.93,0,0,1-.47.45.72.72,0,0,1-.55.08,3.1,3.1,0,0,1-.84-.33c-.33-.18-.76-.44-1.29-.8-1-.67-1.51-1.2-1.46-1.59s.64-.61,1.78-.65a5.59,5.59,0,0,0,1.53-.3,16.5,16.5,0,0,0,2-.83l0-5.13a6,6,0,0,1-1.49.09,4.84,4.84,0,0,1-1.15-.31c-.65-.3-1-.51-1-.65s.38-.29,1.18-.46c.4-.1.79-.21,1.16-.33a10.69,10.69,0,0,0,1.29-.48c0-2.27,0-4-.14-5.19A4.89,4.89,0,0,0,70.12,5a4,4,0,0,1-.7-1.12c-.1-.3-.07-.51.1-.64a1.46,1.46,0,0,1,1-.11,10.36,10.36,0,0,1,2,.49,4.75,4.75,0,0,1,1.23.56,1.84,1.84,0,0,1,.6.67,1.19,1.19,0,0,1,.07.75,3.42,3.42,0,0,1-.29.85,4.76,4.76,0,0,0-.35,1.65c-.06.77-.1,1.93-.1,3.48a3.11,3.11,0,0,1,.84-.15,4.08,4.08,0,0,1,.68.06c.79.17,1.25.4,1.37.71s-.28.69-1.19,1.15a14.91,14.91,0,0,1-1.7.75l0,4.44a21.73,21.73,0,0,1,2.83-1.16C77.13,17.25,77.46,17.21,77.55,17.29ZM95.4,21.35A2.9,2.9,0,0,1,96,22.6a1.32,1.32,0,0,1-.38,1.19,4.67,4.67,0,0,1-1.76,1.11,19.14,19.14,0,0,1-3.53.93,22.48,22.48,0,0,1-3.24.28,19.59,19.59,0,0,1-3.62-.28,7.34,7.34,0,0,1-3.75-1.58A5.76,5.76,0,0,1,78.11,21a12.26,12.26,0,0,1-.2-2c0-.83,0-1.66,0-2.5a3.26,3.26,0,0,1-1.3.55A2.06,2.06,0,0,1,75.47,17a5.48,5.48,0,0,1-.9-.49c-.18-.14-.26-.26-.23-.36s.14-.2.36-.29.52-.19.9-.31A19.55,19.55,0,0,0,78,14.43a17.2,17.2,0,0,0-.14-2.76,3.52,3.52,0,0,0-.43-1.43c-.67-.76-.89-1.28-.64-1.56s1-.22,2.34.2a5.49,5.49,0,0,1,1.2.51,1.77,1.77,0,0,1,.58.52.8.8,0,0,1,.14.55,2.4,2.4,0,0,1-.15.6,4,4,0,0,0-.3,1.07c0,.29-.06.61-.08.94l.88-.49.88-.48V9.61c0-.48,0-1,0-1.48s0-1,0-1.48c0-.69,0-1.27-.08-1.73A9.26,9.26,0,0,0,82,3.77,4,4,0,0,0,81.85,3a2.9,2.9,0,0,0-.24-.47,5.73,5.73,0,0,1-.74-1.19c-.14-.32-.13-.56,0-.72a1,1,0,0,1,.86-.19,7.5,7.5,0,0,1,1.78.43A6.67,6.67,0,0,1,85,1.53a2.05,2.05,0,0,1,.69.69,1.14,1.14,0,0,1,.13.73,2.73,2.73,0,0,1-.29.77,3.43,3.43,0,0,0-.2.65,8.13,8.13,0,0,0-.19,1.26c0,.53-.11,1.2-.16,2s-.09,1.78-.11,2.91c.76-.48,1.3-.85,1.64-1.1a2,2,0,0,0,.6-.6,2.89,2.89,0,0,1,.45-.72.92.92,0,0,1,.55-.3,2,2,0,0,1,.79.09,12,12,0,0,1,1.2.46,8.22,8.22,0,0,1,1.38.74,1.32,1.32,0,0,1,.57.65.71.71,0,0,1-.13.63,4.08,4.08,0,0,1-.62.69,2.28,2.28,0,0,0-.29.33,2.2,2.2,0,0,0-.25.53c-.08.25-.17.56-.27,1s-.2.91-.33,1.56-.29,1.3-.42,1.82a12.56,12.56,0,0,1-.43,1.37,6.59,6.59,0,0,1-.49,1,4.29,4.29,0,0,1-.61.78c-.61.61-1.08.89-1.4.82s-.58-.45-.77-1.16a4.67,4.67,0,0,0-.32-.87c-.15-.3-.34-.7-.6-1.18s-.43-1-.36-1.1.38,0,.93.25a1.12,1.12,0,0,0,.71.17q.27,0,.42-.48T87,15a6.26,6.26,0,0,0,.17-.88c.05-.33.09-.7.13-1.13s.08-1,.13-1.66a.32.32,0,0,0-.18-.34A.34.34,0,0,0,87,11l-1.1.62-1.1.64c-.06,1.56-.18,3-.35,4.27a27.87,27.87,0,0,1-.5,2.94,6,6,0,0,1-.62,1.66c-.22.34-.42.49-.61.42s-.34-.32-.46-.79a9,9,0,0,1-.17-2c0-.12,0-.38,0-.75s0-.82,0-1.31,0-1,0-1.51,0-1,.07-1.37l-.88.53c-.28.17-.56.36-.85.57a31.56,31.56,0,0,0-.08,3.29,10.31,10.31,0,0,0,.2,2A5.82,5.82,0,0,0,81,21.4a1.78,1.78,0,0,0,.61.71,2.91,2.91,0,0,0,.91.39,11.22,11.22,0,0,0,1.36.27,12.54,12.54,0,0,0,2.47.21,15.37,15.37,0,0,0,3.16-.46,9.31,9.31,0,0,0,1.31-.39,2.54,2.54,0,0,0,1-.78,4.51,4.51,0,0,0,.76-1.44,15.84,15.84,0,0,0,.57-2.4,6.72,6.72,0,0,1,.31-1.37c.13-.32.25-.5.38-.52s.24.13.35.46a8,8,0,0,1,.25,1.56c0,.61.09,1.12.16,1.53s.13.75.2,1a3.28,3.28,0,0,0,.25.7A2.92,2.92,0,0,0,95.4,21.35Z"/><path class="cls-1" d="M113.76,17.17c.15.16.11.35-.1.55s-.61.54-1.22,1q-1.77,1.32-2.82,2.16c-.71.55-1.26,1-1.67,1.35s-.71.62-.9.82a6.66,6.66,0,0,0-.47.55,1.88,1.88,0,0,1-.54.52,1,1,0,0,1-.63.14,2.31,2.31,0,0,1-.83-.28,12.18,12.18,0,0,1-1.18-.72c-1-.66-1.39-1.13-1.28-1.42s.73-.57,1.85-.82a15.32,15.32,0,0,0,1.51-.43,17.18,17.18,0,0,0,1.92-.8l0-5.86c-.29.05-.55.08-.76.1a2.94,2.94,0,0,1-.59,0,4.43,4.43,0,0,1-.6-.07l-.73-.16c-.67-.17-1-.36-1-.58s.43-.41,1.23-.55c.35-.07.74-.16,1.16-.27s.84-.25,1.26-.4c0-1,0-1.95-.05-2.7s-.08-1.41-.14-1.94A6.08,6.08,0,0,0,107,6.07a2.94,2.94,0,0,0-.42-.87,5.51,5.51,0,0,1-.8-1.24c-.14-.33-.13-.56,0-.7a1.4,1.4,0,0,1,1-.09,12.66,12.66,0,0,1,2,.55c.63.21,1.13.39,1.5.55a1.82,1.82,0,0,1,.76.52.82.82,0,0,1,.12.65,4.08,4.08,0,0,1-.36.93,4.39,4.39,0,0,0-.39,1.44c-.1.65-.18,1.63-.24,2.93a2.41,2.41,0,0,1,.74-.16,2.36,2.36,0,0,1,.55.07c1.93.54,2,1.21.19,2l-.8.32-.74.28L110,18.49a24.1,24.1,0,0,1,2.74-1.18C113.35,17.13,113.68,17.08,113.76,17.17Zm15.15,5.1c1.11.94,1.55,1.61,1.32,2s-1.18.44-2.84.17c-.48-.08-1-.15-1.6-.2s-1.2-.09-1.83-.1-1.27,0-1.92,0-1.27,0-1.86.08c-1.7.13-3.08.26-4.15.41a25.85,25.85,0,0,0-2.62.47,8.35,8.35,0,0,1-1,.22,3.57,3.57,0,0,1-.79,0,2.54,2.54,0,0,1-.71-.17,7.05,7.05,0,0,1-.78-.39c-1-.57-1.44-.94-1.4-1.12s.58-.29,1.65-.33l1.62-.11c.74-.05,1.62-.13,2.63-.24,0-2.08.06-3.76.06-5s0-2.32-.06-3.09a9,9,0,0,0-.21-1.71,2.86,2.86,0,0,0-.39-1c-.63-.94-.83-1.56-.61-1.84s1-.11,2.5.52c.53.23.93.42,1.23.58a1.65,1.65,0,0,1,.6.5.93.93,0,0,1,.08.65,6.45,6.45,0,0,1-.34,1,3.23,3.23,0,0,0-.2.74c0,.3-.09.77-.13,1.41s0,1.52-.06,2.63,0,2.59,0,4.41c.49,0,1-.09,1.44-.16s1-.11,1.43-.15c0-2-.07-3.91-.08-5.61s0-3.18,0-4.44c0-1.7,0-3.09,0-4.17s-.09-1.95-.16-2.61a5.61,5.61,0,0,0-.33-1.53,4.35,4.35,0,0,0-.54-.95,5.66,5.66,0,0,1-.66-1c-.12-.28-.13-.49,0-.63s.36-.19.75-.17a7.08,7.08,0,0,1,1.66.37q1.35.45,2.07.75a2.8,2.8,0,0,1,1,.59.74.74,0,0,1,.17.68,5.41,5.41,0,0,1-.38,1,7.11,7.11,0,0,0-.33.93A7.64,7.64,0,0,0,122.8,7c0,.57-.08,1.3-.1,2.18s0,2,0,3.34c.69-.32,1.26-.56,1.7-.73a5.1,5.1,0,0,1,1.1-.31,2.07,2.07,0,0,1,.79,0,5.3,5.3,0,0,1,.79.27c.9.38,1.32.75,1.27,1.12s-.47.64-1.27.83a24.75,24.75,0,0,1-2.46.47,7.08,7.08,0,0,1-2,0q0,.6,0,1.23c0,.36,0,.78,0,1.26s0,1,0,1.45c0,1.16,0,2.48,0,4l1.36-.24a9.77,9.77,0,0,0,1-.23c.46-.13.86-.22,1.21-.29a2.7,2.7,0,0,1,1,0,2.73,2.73,0,0,1,.88.31A6.68,6.68,0,0,1,128.91,22.27Z"/><path class="cls-1" d="M29.51,40.33c0-.8-.44-3-.44-3.46s.3-.65.74-.65.72.23.72.65-.45,2.66-.49,3.46Zm2.51,0c0-.8-.44-3-.44-3.45a.64.64,0,0,1,.73-.66c.48,0,.73.23.73.65s-.46,2.67-.5,3.47Zm5.73,1.27c.12,0,1.8,0,2-.07.46-.08.58-.2.73-.69a3.67,3.67,0,0,0,.13-.76.1.1,0,0,1,.11-.11l.39,0a.1.1,0,0,1,.1.12c-.05.27-.06,1.56-.06,1.79,0,.55,0,1.3.08,1.63a.13.13,0,0,1-.1.13l-.35,0c-.07,0-.11,0-.12-.14a7.33,7.33,0,0,0-.17-.74.74.74,0,0,0-.67-.62c-.73-.08-1.81-.09-2.07-.09v1c0,.85,0,2.37,0,2.68,0,.82.4,1.14.89,1.23a5.82,5.82,0,0,0,1.16.12c.26,0,1.05,0,1.38,0a3,3,0,0,0,1.37-.54,14.27,14.27,0,0,0,1.3-1.63c0-.08.09-.14.19-.1l.25.15c.08,0,.07.09,0,.22l-.85,2.29a.33.33,0,0,1-.35.24l-1.37,0-4.91,0c-.58,0-1,0-1.33,0s-.53,0-.67,0-.15,0-.14-.11v-.42c0-.06.05-.08.16-.08h.62c.73,0,.79-.1.79-.68l.05-5.26c0-1.3,0-3.26,0-3.42,0-.5-.21-.61-.79-.62h-.57c-.07,0-.12,0-.12-.11v-.43s0-.08.11-.08c.35,0,.9.06,1.93.07h.69l4.66,0c.25,0,.55,0,.63,0a.11.11,0,0,1,.12.08l.78,2.54c0,.06,0,.11,0,.14l-.23.12c-.05,0-.11,0-.13,0a13.27,13.27,0,0,0-1.55-1.8,2.48,2.48,0,0,0-1.19-.43L37.79,37Zm8.13-.22c0-.1,0-.11.14-.11l4.39,0c.12,0,.17,0,.17.17v.6c0,.09-.07.11-.19.11l-4.38,0c-.11,0-.14,0-.14-.08Zm13.34,3.91c.22-.23,1.82-4,2-4.17s1.85-3.89,1.9-4.2.21-.19.37-.19c2.08,0,2.62,0,2.79,0s.09.05.09.11v.36c0,.09,0,.14-.13.14H65.5c-.47,0-.52.28-.52.64s-.07,2.7-.08,3.75v1.1c0,.78,0,3.32,0,3.64,0,.59.13.85.52.85h.93c.09,0,.11,0,.11.11v.36c0,.09,0,.14-.14.14s-.47,0-2.2-.07c-1.44,0-2.05,0-2.25,0s-.13,0-.13-.14v-.36c0-.08,0-.11.13-.11h1.07c.26,0,.41-.09.44-.56,0-.19.06-2.92.07-4.08v-1c0-1,0-3.83,0-4h0c-.16.2-2.43,5.12-2.51,5.28S59,47.13,59,47.27s-.19.37-.32.37-.17-.12-.23-.28l-2.09-5.27c-.29-.73-1.69-4.26-1.91-4.45-.06.22-.13,4.19-.13,4.38s0,3.5,0,4c.07.89.21,1.14.71,1.15h.78c.1,0,.11,0,.11.11v.39c0,.06,0,.11-.14.11s-.6-.05-1.9-.07-1.88,0-2,0-.15,0-.14-.14v-.38a.08.08,0,0,1,.09-.09h.84c.59,0,.74-.4.84-.94.19-1.11.28-5.12.28-5.41s0-2.58,0-3,0-.58-.64-.58h-1c-.09,0-.11,0-.1-.11V36.7c0-.05,0-.1.11-.1s.58.06,1.91.07c.74,0,1.15,0,1.34,0s.33.07.4.27Zm11.42-1.75c-.16.39-1,2.77-1.13,3.1,0,.11-.05.26-.05.34s.19.35.53.35h.74c.11,0,.16,0,.16.11v.36c0,.11,0,.14-.12.14-.22,0-.87-.06-1.79-.06-1.15,0-1.49,0-1.71,0s-.11,0-.11-.13v-.38c0-.07.07-.1.13-.1h.55c.47,0,.69-.21.91-.71.12-.25,1.29-3.14,1.75-4.43.12-.31,1.42-3.67,1.56-4.09a.64.64,0,0,0,0-.54.4.4,0,0,1-.11-.2s0-.11.14-.14a3.23,3.23,0,0,0,1.31-.77c.08-.08.13-.14.21-.14s.12.09.17.26c.29,1,1.48,4.52,1.77,5.53.35,1.22,1.34,4.15,1.56,4.61a1.16,1.16,0,0,0,1.06.71h.52c.09,0,.12,0,.12.11v.39c0,.08,0,.11-.16.11-.28,0-.61,0-1.88-.07s-1.85,0-2.21,0a.12.12,0,0,1-.13-.14V47.5c0-.1,0-.11.14-.11H75c.44,0,.58-.15.48-.59s-.75-2.58-1-3.21ZM74.31,43c-.13-.48-1.37-4.41-1.45-4.64s-.07-.22-.12-.22-.13.1-.17.23S71,42.61,70.85,43Zm7-1.59c0-.38,0-3.2,0-3.44s-.19-.53-.78-.54h-.91c-.08,0-.13,0-.13-.1v-.42c0-.07,0-.1.11-.1s1,.06,2.44.07,1.9,0,2.12,0a.11.11,0,0,1,.11.12v.39c0,.08,0,.11-.13.11h-.74c-.31,0-.55.12-.55.43,0,.16-.08,3.63-.08,3.82v1.2c0,.16,0,3.78,0,4,0,.48.23.56.73.57h.65c.08,0,.12,0,.12.11V48c0,.06,0,.1-.14.09s-.82,0-2.18-.06-2.17,0-2.34,0-.13,0-.13-.1v-.42c0-.07,0-.1.12-.1h.88c.32,0,.65,0,.71-.45,0-.23.11-3.62.12-4.45Zm6.2-.4c0-1,0-2.67,0-2.95s-.11-.57-.58-.57h-.74c-.09,0-.11-.08-.11-.15V37c0-.08,0-.11.11-.11s.73.05,2,.07c1.52,0,2.18,0,2.32,0s.14.05.14.13v.36c0,.08,0,.12-.16.12h-.94c-.49,0-.55.16-.56.61,0,.2-.07,2.57-.08,3.67v1.35c0,.27,0,3.65,0,4.3.35,0,3.45.09,3.94,0,.92-.13,1.88-2,2.11-2.61,0-.07.06-.1.12-.07l.25.1s0,0,0,.14-.69,2.69-.79,3.12c-.21,0-1.43,0-2.83-.06s-2.93,0-3.78,0H86.58l-.61,0c-.11,0-.13,0-.13-.11V47.6c0-.08,0-.11.12-.11h.75c.58,0,.68-.22.68-.42s.08-4.21.09-5.16Zm9.69-.12c0-.8-.44-3-.44-3.45s.3-.66.74-.66.72.23.72.65-.45,2.67-.49,3.46Zm2.51,0c0-.8-.44-3-.44-3.45a.64.64,0,0,1,.73-.66c.48,0,.73.23.73.65s-.46,2.67-.5,3.47Z"/><path class="cls-2" d="M167.91,7.6a2.24,2.24,0,0,0-1.46.49,36,36,0,0,0-3.35,3.61c-.08.13-.21.21-.31.16l-.45-.24c-.08,0-.1-.1-.08-.23l1.65-4.65a.37.37,0,0,1,.37-.29,4.41,4.41,0,0,1,.6,0c1.23.16,4.91.16,7.08.16,1.6,0,3-.06,3.95-.08s1.72-.08,1.91-.08c.42,0,.6.34.36.63s-11.65,16.28-12.18,17h6.3a4.37,4.37,0,0,0,1.94-.29,24.62,24.62,0,0,0,3.68-3.48.28.28,0,0,1,.34-.07l.45.23a.15.15,0,0,1,0,.24c-.37.6-1.62,3.81-2,4.52a.43.43,0,0,1-.34.26,6.49,6.49,0,0,1-.65-.08c-1.44-.18-5.6-.29-7.95-.29h-6.11c-.21,0-.5,0-.5-.21a1,1,0,0,1,.13-.52c1.07-1.65,11.81-16.52,12-16.83Z"/><path class="cls-2" d="M182.1,14.86c0-1.62,0-5.14,0-5.51,0-1.33-.18-1.7-.89-1.7h-1.07c-.29,0-.31-.1-.31-.26v-.5c0-.15,0-.31.29-.31.44,0,1.28.08,3.89.08s3.5-.08,3.95-.08c.28,0,.31.08.31.29v.54c0,.16,0,.24-.31.24h-.63c-.94,0-1.07.44-1.15,1.44,0,.36-.16,3.81-.16,5.28v.39c0,.13.08.21.42.21h7.82c.39,0,.52-.05.52-.34v-.26c0-1.49-.18-5.13-.18-5.39,0-.83-.14-1.33-.61-1.33h-1.07c-.23,0-.26-.08-.26-.26V6.81c0-.15,0-.23.24-.23.47,0,1.59.08,3.81.08s3.27-.08,3.61-.08.34.08.34.29v.49c0,.19,0,.29-.34.29h-.78c-.76,0-.84.44-.84,1.33,0,.37-.05,4.79-.05,5.75v.89c0,.84.05,5.81.08,7.24,0,.94.26,1.31,1,1.31h.89c.21,0,.24.08.24.24V25c0,.13,0,.26-.29.26-.42,0-1.31-.08-3.66-.08-2.67,0-3.5.08-4.11.08-.28,0-.34-.13-.34-.26v-.57c0-.16,0-.24.29-.24h1.15c.63,0,.71-.5.73-1.15.06-1.23.11-5.44.11-6.27v-.32c0-.28-.26-.31-.58-.31h-7.81c-.29,0-.37.08-.37.31v.4c0,.65.11,4.67.19,6.45,0,.63.28.89.86.89h.73c.21,0,.24,0,.24.21V25c0,.15,0,.23-.24.23-.47,0-1.39-.08-3.58-.08-2.77,0-3.56.08-4.08.08-.23,0-.26-.08-.26-.29v-.54c0-.19,0-.24.26-.24h1.2c.66,0,.74-.63.74-1.2,0-1.23.07-6.3.07-7Z"/><path class="cls-2" d="M206.88,23.86A9.17,9.17,0,0,1,203,16.09a10.2,10.2,0,0,1,2.43-6.51,9.32,9.32,0,0,1,7.61-3.32,9.44,9.44,0,0,1,6.38,2.07A9.74,9.74,0,0,1,223,16.15a9.53,9.53,0,0,1-2,5.72c-1.7,2.12-3.92,3.68-8.05,3.68A11.8,11.8,0,0,1,206.88,23.86Zm12.05-7.51c0-5.72-3.76-8.86-6-8.86a4.25,4.25,0,0,0-3.42,1.42,9.37,9.37,0,0,0-2.33,6.35c0,6.69,3.85,9.07,6,9.07C218.07,24.33,218.93,18.5,218.93,16.35Z"/><path class="cls-2" d="M241.57,17.56c0-2.33,0-3.61-.08-4.92,0-1-.16-3.58-.23-4a1.41,1.41,0,0,0-1.39-1H239c-.13,0-.15-.08-.15-.24V6.76c0-.13,0-.18.23-.18s1.13.08,3.06.08c1.57,0,2.2-.08,2.48-.08s.26,0,.26.21v.62c0,.14,0,.24-.13.24h-.73c-.44,0-.7.44-.78,1.39-.19,1.75-.6,7.65-.6,11.1v4.47c0,.4,0,.87-.4.87a1.34,1.34,0,0,1-1-.42c-.45-.42-1.73-1.81-3.3-3.66l-4.47-5.31c-.44-.52-4.05-5-4.65-5.88h-.21v5.28c0,2.17.24,5.39.26,6.38.05,1.52.52,2.3,1.62,2.3h.66c.18,0,.2.08.2.24V25c0,.16,0,.21-.2.21s-1.83-.08-3.06-.08c-.81,0-2.62.08-2.88.08-.1,0-.13,0-.13-.23v-.68a.14.14,0,0,1,.16-.16h.91c.58,0,1-.84,1.13-2.59,0-.49.23-4.68.23-8.54V10.68c0-1.54-.94-3-2.25-3l-.65,0c-.13,0-.16-.1-.16-.18v-.7c0-.11,0-.16.16-.16s.34,0,.84,0,1.36.06,2.72.06c.88,0,1.67-.06,2-.06a.93.93,0,0,1,.76.34L237,14.37l4.47,5.57h.11Z"/><path class="cls-2" d="M264.83,22.63c0,.36.11.62.11.83s-.16.32-.42.42a15.87,15.87,0,0,1-7.66,1.67c-2.72,0-5.78-.86-7.58-3a10.2,10.2,0,0,1-2.4-7.19,8.9,8.9,0,0,1,3-6.56,10.62,10.62,0,0,1,7.4-2.57,10.79,10.79,0,0,1,5.46,1.29c.31.18.49.13.65-.08l.26-.42c.13-.18.19-.26.34-.26s.37.18.37.47l.39,5.38c0,.32,0,.45-.1.47l-.74.16c-.15,0-.23,0-.31-.26a9.69,9.69,0,0,0-2.38-4,5.77,5.77,0,0,0-4.13-1.63,4.72,4.72,0,0,0-3.94,2,9.41,9.41,0,0,0-2.1,5.95c0,3.09.87,5.78,2.28,7.19a5,5,0,0,0,4,1.78,6,6,0,0,0,2.95-.52c.55-.26.6-1.1.6-2.46V19.44c0-.94-.26-1.2-.91-1.2h-1.1c-.16,0-.18-.11-.18-.24v-.65c0-.11,0-.19.18-.19s1.52.08,3.87.08,3.37-.08,3.58-.08.23.08.23.21V18c0,.15,0,.21-.18.21h-.76c-.47,0-.81.18-.81.94Z"/><path class="cls-2" d="M283.91,10.73c.21,0,.24.21.14.45-.21.47-1.18,3.19-1.57,4.36a16.19,16.19,0,0,0-.76,3.35.54.54,0,0,0,.55.52c1,0,3.42-2,3.42-6.45,0-3.85-2.12-5.62-5.64-5.62-5.34,0-9.52,5.46-9.52,10.53,0,4.21,2.85,6.51,6.59,6.48a10.27,10.27,0,0,0,4.73-.89c.13-.05.18-.07.23,0l.27.5a.23.23,0,0,1-.11.31,11.44,11.44,0,0,1-5.51,1.28c-5.75,0-8.84-3-8.84-7.31,0-6.2,5.93-12,12.44-12,5.18,0,7.77,2.72,7.77,7a7.69,7.69,0,0,1-8,7.32A1,1,0,0,1,279,19.7a9,9,0,0,1,.66-2.72l-.13-.05c-.84,1.2-2.46,3.63-4.89,3.63A1.57,1.57,0,0,1,273,18.84c0-3.27,4.08-8.34,7.11-8.34a1.26,1.26,0,0,1,1.34.91l.33-.49c.11-.16.16-.19.27-.19Zm-4.18.68c-1.91,0-3.68,4.89-3.68,6.59,0,.55.21.86.65.86.73,0,2.95-3.29,3.35-4.2a5.91,5.91,0,0,0,.52-2C280.57,12,280.31,11.41,279.73,11.41Z"/><path class="cls-2" d="M292.67,23.15a9.9,9.9,0,0,1-2.85-7,10.08,10.08,0,0,1,2.69-7.08,9,9,0,0,1,6.9-2.83,12.1,12.1,0,0,1,5.26,1.1c.36.19.49.16.55,0l.21-.66c.05-.15.1-.15.49-.15s.45,0,.45.41.47,4.94.6,5.73c0,.18,0,.31-.13.34l-.58.16c-.13.05-.23-.06-.31-.29a8.46,8.46,0,0,0-2.09-3.5,6.19,6.19,0,0,0-4.5-2c-3.81,0-5.43,3.48-5.41,7.35,0,1.65.47,4.86,2.33,6.82a5.49,5.49,0,0,0,4.08,2,7.41,7.41,0,0,0,6.16-2.79c.14-.21.27-.32.4-.21l.44.39c.08.05.11.16,0,.31a9.31,9.31,0,0,1-7.74,4.31C296.15,25.55,294.32,24.61,292.67,23.15Z"/><path class="cls-2" d="M311.8,23.15a9.89,9.89,0,0,1-2.84-7,10.08,10.08,0,0,1,2.69-7.08,9,9,0,0,1,6.9-2.83,12,12,0,0,1,5.25,1.1c.37.19.5.16.55,0l.21-.66c.05-.15.1-.15.5-.15s.44,0,.44.41.47,4.94.6,5.73c0,.18,0,.31-.13.34l-.57.16c-.13.05-.24-.06-.32-.29A8.35,8.35,0,0,0,323,9.38a6.16,6.16,0,0,0-4.49-2c-3.82,0-5.44,3.48-5.41,7.35,0,1.65.47,4.86,2.32,6.82a5.49,5.49,0,0,0,4.08,2,7.45,7.45,0,0,0,6.17-2.79c.13-.21.26-.32.39-.21l.44.39c.08.05.11.16,0,.31a9.29,9.29,0,0,1-7.73,4.31C315.28,25.55,313.45,24.61,311.8,23.15Z"/><path class="cls-2" d="M332.14,18a31.57,31.57,0,0,0-1.49,5c0,.57.24,1.2,1,1.2h.91c.27,0,.29.1.29.21V25c0,.21,0,.29-.23.29s-1.41-.08-3.56-.08c-1.91,0-2.48.08-2.85.08-.15,0-.18-.16-.18-.34v-.49c0-.16,0-.24.18-.24h.68A2.2,2.2,0,0,0,328.69,23c.37-.55,2.22-5.1,3.09-7.4.2-.52,2.32-6.14,2.56-6.85.07-.26.21-.6,0-.88a.75.75,0,0,1-.18-.34c0-.08.05-.19.26-.24A8,8,0,0,0,337.37,6c.13-.13.21-.23.34-.23s.21.16.29.44c.49,1.65,2.53,7.5,3,9.18.6,2,2.3,6.9,2.66,7.6a1.93,1.93,0,0,0,1.52,1.18h.89c.16,0,.18.1.18.24v.49c0,.16,0,.34-.23.34-.5,0-1.05-.08-4.39-.08-2.17,0-3.09.08-3.61.08-.26,0-.29-.16-.29-.34v-.49c0-.14,0-.24.16-.24h.73c.71,0,.94-.26.78-.94-.23-.94-1.25-4.29-1.56-5.23Zm5.49-1-2-6.93c-.1-.39-.16-.58-.29-.58s-.23.11-.31.34-2.38,6.51-2.59,7.17Z"/><path class="cls-2" d="M347.59,23.46a2,2,0,0,1,2.12-2,2,2,0,0,1,2,2.09,1.9,1.9,0,0,1-2,2A2,2,0,0,1,347.59,23.46Z"/><path class="cls-2" d="M360.48,15.15a16.69,16.69,0,0,0,2.66-.16,2.06,2.06,0,0,0,1.2-.81,3.28,3.28,0,0,0,.61-1.62c0-.18.07-.23.2-.23l.71.08c.13,0,.23.05.21.21a25.69,25.69,0,0,0-.08,2.71c0,1.18.1,2.44.16,3,0,.16-.08.19-.21.21l-.63.13c-.1,0-.16,0-.21-.2a7.48,7.48,0,0,0-.52-1.34,2.15,2.15,0,0,0-1.44-.91,17.15,17.15,0,0,0-2.66-.16v1.57c0,1.41.13,3.95.13,4.42,0,1.36.28,1.83.62,2a5.78,5.78,0,0,0,2.2.24c.44,0,1.54,0,2.09-.08a4,4,0,0,0,2-.86,29.09,29.09,0,0,0,2.66-2.8c.11-.1.19-.13.26-.08l.45.26c.1.06.13.13.1.21l-1.17,4a.57.57,0,0,1-.58.39l-2.38,0c-1.7,0-4.47,0-9,0-1,0-1.7,0-2.22,0s-.89,0-1.12,0-.24-.08-.24-.29v-.54c0-.16.08-.24.26-.24h.79c1.2,0,1.3-.18,1.3-1.1V14.32c0-2.17-.05-5.39-.08-5.65-.1-.84-.36-1-1.07-1h-1c-.1,0-.13-.08-.13-.26V6.76c0-.08,0-.18.19-.18.57,0,1.49.08,3.86.08l9.18,0c.42,0,.91,0,1,0s.19,0,.21.13c.11.37,1,4,1.07,4.21s.06.18-.07.26l-.42.21a.25.25,0,0,1-.32-.11A27.86,27.86,0,0,0,366,8.36a4.37,4.37,0,0,0-2-.71l-3.45-.1Z"/><path class="cls-2" d="M374.28,13.17c0-.68-.08-4.4-.13-4.79-.08-.63-.42-.73-.87-.73H372c-.14,0-.21,0-.21-.18V6.71c0-.11.07-.13.18-.13.34,0,1.49.08,4.1.08.68,0,3.3-.08,3.9-.08,3.55,0,6.37.31,8.86,2.38a8.27,8.27,0,0,1,2.93,6.64,9.32,9.32,0,0,1-2.59,6.87c-2.54,2.75-7,2.77-8.65,2.77-.42,0-3.51-.08-4.94-.08-2.28,0-3.32.08-3.69.08-.13,0-.18,0-.18-.23v-.68c0-.11.08-.16.21-.16h1.36c.49,0,.78-.21.83-.63s.19-6.43.19-8.41Zm3.92,2.53c0,.34,0,4.78.05,6.4a2.3,2.3,0,0,0,.44,1.44,2.67,2.67,0,0,0,2.09.63,6.35,6.35,0,0,0,4.89-2.56,10.09,10.09,0,0,0,1.86-6,8.91,8.91,0,0,0-2.12-5.7,7.72,7.72,0,0,0-5.2-2.38,3.09,3.09,0,0,0-1.47.21c-.39.18-.49.6-.52,1.13,0,1.09,0,4.52,0,4.93Z"/><path class="cls-2" d="M395.63,9c0-.91-.18-1.33-.73-1.33h-1.23c-.16,0-.18-.05-.18-.24V6.79c0-.16,0-.21.23-.21s1.55.08,4.29.08c2.3,0,3.55-.08,3.84-.08s.24,0,.24.21v.68c0,.13,0,.18-.21.18H401a1.24,1.24,0,0,0-1.39,1c0,.29-.05,2.06-.05,3.4v1.72c0,1.39.11,4.71.13,5.54a5.37,5.37,0,0,0,.84,3.11,4.14,4.14,0,0,0,3.27,1.47,5.3,5.3,0,0,0,3.08-1.15,5.49,5.49,0,0,0,1.65-4.26v-4a48.3,48.3,0,0,0-.37-5.67c-.1-.68-.52-1.15-1-1.15h-.83c-.16,0-.19-.08-.19-.21V6.76c0-.13,0-.18.19-.18s1.46.08,3.24.08c1.41,0,2.25-.08,2.48-.08s.26.1.26.23v.58c0,.16,0,.26-.15.26h-.81a1,1,0,0,0-1.13,1c-.05.37-.05,4-.05,4.34s-.05,4.94-.13,6a7,7,0,0,1-2.22,5,7.22,7.22,0,0,1-4.63,1.62,11.38,11.38,0,0,1-4-.65,6,6,0,0,1-3-3.45c-.44-1.12-.55-2.87-.55-6.3Z"/></g></g></svg>