<svg xmlns="http://www.w3.org/2000/svg" viewBox="0 0 529.29 216.73"><defs><style>.cls-1{fill:#95272b;}.cls-2{fill:#93272c;}.cls-3{fill:#93272d;}</style></defs><title>Asset 5</title><g id="Layer_2" data-name="Layer 2"><g id="Layer_1-2" data-name="Layer 1"><path class="cls-1" d="M28.38,22.14a1.28,1.28,0,0,1,.51,1.53A3.05,3.05,0,0,1,27,25.17a18.07,18.07,0,0,1-2.92.72,21.78,21.78,0,0,1-3.1.28A19.08,19.08,0,0,1,18,26a11.2,11.2,0,0,1-2.46-.55,5.13,5.13,0,0,1-1.62-.85,3.47,3.47,0,0,1-1-1.32,6.78,6.78,0,0,1-.49-2,28.43,28.43,0,0,1-.13-3c-.82.13-1.61.22-2.39.28a1.93,1.93,0,0,1-.44.82.81.81,0,0,1-.54.29.83.83,0,0,1-.42-.15A2.32,2.32,0,0,1,8,19.09a2.9,2.9,0,0,1-.72-1.32c-.47-2.16-.9-3.93-1.31-5.29A7.66,7.66,0,0,0,4.7,9.67a2.25,2.25,0,0,1-.53-.88.45.45,0,0,1,.22-.56,2.1,2.1,0,0,1,1.08-.18,11.11,11.11,0,0,1,2.07.3c.88-.1,1.72-.22,2.53-.34l2.28-.38a25.31,25.31,0,0,0-.28-3.51,4.67,4.67,0,0,0-.66-1.88c-.76-1-.93-1.62-.52-1.85s1.48,0,3.23.56a6.55,6.55,0,0,1,1.32.63,2,2,0,0,1,.65.65,1.05,1.05,0,0,1,.11.67,2,2,0,0,1-.29.7,3.74,3.74,0,0,0-.3,1c-.09.52-.18,1.35-.26,2.5,1-.16,1.93-.33,2.64-.5a8.75,8.75,0,0,0,1.58-.5c.31-.15.57-.27.78-.35A1.62,1.62,0,0,1,21,5.66a2.33,2.33,0,0,1,.72.17,10.62,10.62,0,0,1,1,.48,16.21,16.21,0,0,1,1.66,1.08,3.24,3.24,0,0,1,.77.8.63.63,0,0,1,0,.65,2.31,2.31,0,0,1-.55.61,4.6,4.6,0,0,0-.94,1.07,4.93,4.93,0,0,0-.54,1.3c-.06.23-.15.53-.25.91s-.23.78-.36,1.2-.28.84-.43,1.27a12.16,12.16,0,0,1-.44,1.15,3.84,3.84,0,0,1-.75,1.13,3.93,3.93,0,0,1-.85.67,1.34,1.34,0,0,1-.76.18.52.52,0,0,1-.47-.28,1,1,0,0,0-.33-.44.94.94,0,0,0-.43-.09c-.23,0-.62,0-1.16.07s-1.14.14-1.77.24a12.29,12.29,0,0,0,.26,3.23,1.74,1.74,0,0,0,.78,1.21A8.72,8.72,0,0,0,20,23a12.11,12.11,0,0,0,3.81-.74A2.36,2.36,0,0,0,25,21.17a8.84,8.84,0,0,0,.89-2.8c.23-1.33.51-2,.82-2s.53.66.63,2c.06.67.13,1.22.21,1.66a6.14,6.14,0,0,0,.25,1.09,2.57,2.57,0,0,0,.3.66A1.44,1.44,0,0,0,28.38,22.14Zm-16-12.75c-.68.13-1.33.23-2,.32s-1.22.14-1.79.18c.1.61.22,1.23.34,1.86s.25,1.26.35,1.88.21,1.21.32,1.78.2,1.07.28,1.51l1.24-.14c.41-.06.8-.11,1.15-.18,0-.5,0-1,0-1.48V13.71c-.44,0-.78.06-1,.06a2.19,2.19,0,0,1-.75-.13c-.5-.17-.76-.37-.76-.61s.26-.41.76-.49l.8-.14a7.22,7.22,0,0,0,1-.24Zm7.46,0c.06-.63-.08-.95-.41-.95a16.62,16.62,0,0,0-1.87.12c-.71.07-1.46.18-2.26.33,0,.4,0,.8,0,1.21s0,.82-.05,1.24a7.16,7.16,0,0,1,1.48-.2,3.08,3.08,0,0,1,.85.14c.63.21.91.46.85.75s-.34.56-.85.79a5.07,5.07,0,0,1-1.08.36c-.41.1-.86.19-1.34.27v2.65q1.35-.25,1.92-.3a2,2,0,0,1,.94.11.39.39,0,0,0,.46-.07,2.23,2.23,0,0,0,.49-1c.1-.36.21-.79.31-1.29s.2-1,.27-1.53.14-1,.19-1.48S19.83,9.65,19.85,9.36Z"/><path class="cls-1" d="M46.55,19.75c-.71.67-1.31,1.26-1.79,1.76s-.89,1-1.22,1.36a11.67,11.67,0,0,0-.78,1.07,5.84,5.84,0,0,0-.49.91,3.1,3.1,0,0,1-.49.79.51.51,0,0,1-.55.17,1.6,1.6,0,0,1-.72-.53,11.63,11.63,0,0,1-1-1.31,3.5,3.5,0,0,1-.76-1.7c0-.34.35-.61,1-.82s.84-.72,1-1.6.28-2,.34-3,.1-2,.1-3.13a1.82,1.82,0,0,0-.14-1c-.1-.1-.26-.1-.49,0l-.87.33a10,10,0,0,0-1,.52,4,4,0,0,1-.74.38,1.68,1.68,0,0,1-.65.11,1.49,1.49,0,0,1-.66-.21,4.86,4.86,0,0,1-.82-.59c-.63-.55-.86-.94-.71-1.17s.69-.33,1.6-.31a5.61,5.61,0,0,0,1.22-.16,8.07,8.07,0,0,0,1.31-.44,7.24,7.24,0,0,0,1.17-.65,3.63,3.63,0,0,0,.8-.74,2.65,2.65,0,0,1,.41-.45.83.83,0,0,1,.45-.22,1.59,1.59,0,0,1,.67,0c.26.07.6.17,1,.32a10.06,10.06,0,0,1,1.29.55,1.14,1.14,0,0,1,.55.5.62.62,0,0,1-.08.58,4.06,4.06,0,0,1-.6.76,4.79,4.79,0,0,0-.69,1,5.09,5.09,0,0,0-.41,1.34,17.58,17.58,0,0,0-.22,2.23q-.06,1.39-.12,3.63l.81-.43.57-.3.47-.23.54-.27c.9-.44,1.41-.56,1.53-.35S47.22,19.12,46.55,19.75Zm.57-16.06A2.53,2.53,0,0,1,47,4.92a1.68,1.68,0,0,1-.57.76,1.44,1.44,0,0,1-.86.23,2,2,0,0,1-1-.33,15.24,15.24,0,0,1-3.25-2.77q-.69-.72-.48-1t1.59-.36a6.1,6.1,0,0,1,3.46.45A2.32,2.32,0,0,1,47.12,3.69ZM63.43,9.8c.88.8,1.24,1.4,1.07,1.8s-1,.51-2.49.34c-.31,0-.74,0-1.29,0s-1.15,0-1.82.07-1.38.11-2.11.19l-2.18.26-.66,4a9.91,9.91,0,0,0,1.23-.36,5.61,5.61,0,0,0,1-.46,2.28,2.28,0,0,1,1.33-.4,4,4,0,0,1,1.66.66A17.51,17.51,0,0,1,60.93,17a3.11,3.11,0,0,1,.8.8.54.54,0,0,1,0,.62A2.19,2.19,0,0,1,61,19a6.9,6.9,0,0,0-2.3,2.74c.71.7,1,1.2.91,1.51s-.56.53-1.35.63c-1.2.15-2.38.28-3.53.38s-2.29.19-3.4.25A4.06,4.06,0,0,1,51,26c-.19.31-.38.46-.57.46a1.29,1.29,0,0,1-1-.65,4,4,0,0,1-.63-1.93,37.59,37.59,0,0,0-.67-3.75,4.74,4.74,0,0,0-.72-1.83,2.11,2.11,0,0,1-.43-.66.42.42,0,0,1,.12-.5,1.31,1.31,0,0,1,.85-.19,9.07,9.07,0,0,1,1.79.25l.85-.12.82-.13.44-4.06c-.55.08-1.06.17-1.54.27a6.64,6.64,0,0,0-1.29.36,6.36,6.36,0,0,1-1.07.34,2.48,2.48,0,0,1-.78.07,1.56,1.56,0,0,1-.64-.21,3.45,3.45,0,0,1-.69-.52c-.61-.54-.88-.89-.79-1s.55-.24,1.42-.28,1.63-.14,2.64-.28,2-.32,2.93-.51a9.67,9.67,0,0,0-.28-3.68c-.4.1-.8.2-1.19.28L49.35,8c-1,.19-1.54.16-1.6-.09s.34-.59,1.23-1a20.16,20.16,0,0,0,2.07-1.13,15.63,15.63,0,0,0,2.08-1.51,6.92,6.92,0,0,0,1.23-1.29,1.89,1.89,0,0,0,.35-1,1.4,1.4,0,0,1,.15-.68A.69.69,0,0,1,55.42,1a2.33,2.33,0,0,1,1,.19,9.9,9.9,0,0,1,1.63.8c1.32.78,2,1.39,2,1.84s-.49.75-1.46.9a7.33,7.33,0,0,0-1.43.42,14.4,14.4,0,0,0-1.56.71c-.25.15-.5.28-.74.4l-.74.33a9,9,0,0,1,1.1.6,1.64,1.64,0,0,1,.52.48.7.7,0,0,1,.08.51,2.62,2.62,0,0,1-.25.61,4.1,4.1,0,0,0-.3.79c-.1.31-.2.65-.3,1,.75-.13,1.52-.28,2.3-.46s1.45-.36,2-.55a8.2,8.2,0,0,1,2.43-.43A2.54,2.54,0,0,1,63.43,9.8Zm-6.77,9.26c.15-.53.14-.87,0-1s-.52-.2-1.08-.1c-1.81.36-3.38.6-4.73.73.11.73.2,1.42.29,2.06s.15,1.27.22,1.88l1.6-.21c.51-.07,1.06-.17,1.67-.3a3.15,3.15,0,0,0,.73-.23,1.44,1.44,0,0,0,.5-.46,3,3,0,0,0,.39-.87C56.35,20.16,56.49,19.67,56.66,19.06Z"/><path class="cls-1" d="M97.44,9.42a4.93,4.93,0,0,1,1,1.07.73.73,0,0,1,.1.77,1.15,1.15,0,0,1-.85.4,8.71,8.71,0,0,1-1.89,0,41.11,41.11,0,0,0-4.63-.21q-2.55,0-5.73.33c.46.38.63.69.52.93a1.5,1.5,0,0,1-.87.62,3.05,3.05,0,0,0-.71.53c-.34.32-.81.78-1.4,1.39a22.92,22.92,0,0,0,2.77-.65,7,7,0,0,0,1.48-.64,2.19,2.19,0,0,1,.65-.3,1.45,1.45,0,0,1,.66,0,2.94,2.94,0,0,1,.82.26c.3.15.68.36,1.12.63a13.13,13.13,0,0,1,1.45,1,1.94,1.94,0,0,1,.61.82.84.84,0,0,1-.11.72,3.56,3.56,0,0,1-.69.76,1.55,1.55,0,0,0-.33.39,3.67,3.67,0,0,0-.3.65c-.11.27-.22.61-.35,1s-.27.91-.44,1.5c-.25.94-.48,1.72-.69,2.33a6.7,6.7,0,0,1-.73,1.54,4.66,4.66,0,0,1-.94,1.07,10,10,0,0,1-1.36.92,3.08,3.08,0,0,1-1.87.61c-.37-.1-.61-.43-.74-1a4.74,4.74,0,0,0-.49-1.17,8.3,8.3,0,0,0-1.18-1.6c-.86-1-1.24-1.59-1.13-1.81s.82-.07,2.14.45a10.22,10.22,0,0,0,1.26.4,2,2,0,0,0,.83,0,.92.92,0,0,0,.52-.26,2.36,2.36,0,0,0,.35-.52,13.54,13.54,0,0,0,1.32-4.54,1.64,1.64,0,0,0-.17-1.18c-.18-.22-.52-.3-1-.24l-1.92.3c-.52.1-1,.2-1.37.3a6.6,6.6,0,0,0-1,.35,6.85,6.85,0,0,0-.79.44,4.86,4.86,0,0,1-.66.41.57.57,0,0,1-.45.06.9.9,0,0,1-.43-.34,8.58,8.58,0,0,1-.53-.82,5.88,5.88,0,0,1-.48-.87.87.87,0,0,1-.06-.53.68.68,0,0,1,.38-.37,5.06,5.06,0,0,1,.88-.31,2,2,0,0,0,.68-.38A3.62,3.62,0,0,0,81.3,14a4.92,4.92,0,0,0,.52-.9,3.19,3.19,0,0,0,.28-1c-.86.1-1.82.25-2.89.44s-2,.39-2.93.6l-1.34.27a3,3,0,0,1-.9,0,1.87,1.87,0,0,1-.71-.27,7.28,7.28,0,0,1-.77-.55c-.8-.63-1.16-1-1.09-1.24s.6-.27,1.56-.21a5.07,5.07,0,0,0,.66,0l.7,0,.83-.06L76.31,11l7.07-.79,4.72-.54c1.25-.14,2.24-.27,3-.39S92.42,9.06,92.9,9s1.1-.23,1.53-.3a4.78,4.78,0,0,1,1.17-.06,3.37,3.37,0,0,1,1,.23A3.44,3.44,0,0,1,97.44,9.42ZM92.21,3.53a5.51,5.51,0,0,0-1.48.93A5.5,5.5,0,0,0,89.63,6c.77.42,1.13.82,1.05,1.2s-.61.63-1.62.75l-1.65.19-1.62.19-1.69.17-1.9.18a1.38,1.38,0,0,1-.81.75,1,1,0,0,1-1-.31,1.84,1.84,0,0,1-.17-.22,1.5,1.5,0,0,1-.14-.4c0-.18-.09-.42-.14-.72s-.12-.71-.21-1.21a9.3,9.3,0,0,0-.49-2,5.31,5.31,0,0,0-.77-1.47A3.16,3.16,0,0,1,78,2.18a.34.34,0,0,1,.22-.49,3.25,3.25,0,0,1,1.21-.09c.58,0,1.38.12,2.41.27Q83.11,1.74,84,1.6a15.56,15.56,0,0,0,1.59-.33A8.92,8.92,0,0,0,86.76.86a5.79,5.79,0,0,0,.88-.51,2.15,2.15,0,0,1,.51-.28,1.43,1.43,0,0,1,.6-.06,3.76,3.76,0,0,1,.83.2,10.35,10.35,0,0,1,1.21.55,10.36,10.36,0,0,1,1.58,1,2.27,2.27,0,0,1,.67.76.48.48,0,0,1-.09.58A2.1,2.1,0,0,1,92.21,3.53Zm-4.91.63a2.85,2.85,0,0,0,.08-1.05c-.06-.16-.2-.23-.43-.21l-1.81.21c-.79.09-1.72.23-2.79.39a15,15,0,0,1,.16,1.7c0,.55,0,1.1,0,1.64,1.07-.1,1.92-.21,2.55-.31a9,9,0,0,0,1.55-.38A3.44,3.44,0,0,0,87,5.41,10,10,0,0,0,87.3,4.16Z"/><path class="cls-1" d="M118.41,13.55a3.73,3.73,0,0,0-1,1,5.47,5.47,0,0,0-.69,1.6,2.67,2.67,0,0,1,.8.55.66.66,0,0,1,.21.51.64.64,0,0,1-.32.41,2,2,0,0,1-.75.23c-.91.11-1.65.2-2.24.29s-1.16.16-1.7.25a3.83,3.83,0,0,1-.44,1.67,1.84,1.84,0,0,1-.73.81.66.66,0,0,1-.74-.18,1.93,1.93,0,0,1-.45-1.33c0-.42-.08-.83-.11-1.22s-.07-.78-.11-1.14a12.23,12.23,0,0,1-3.62,2.87q-1.52.81-1.74.6c-.14-.15.19-.68,1-1.58a24.35,24.35,0,0,0,1.73-2.09,23.32,23.32,0,0,0,1.92-3.2c-.48-.8-.67-1.3-.56-1.51s.55-.28,1.35-.22q.57-1.32.9-2.19a11.77,11.77,0,0,0,.47-1.45,3.54,3.54,0,0,0,.13-1c0-.27,0-.56-.08-.85a7,7,0,0,1-1.51,0,5.94,5.94,0,0,1-1.26-.34c-.76-.31-1.12-.57-1.07-.78s.49-.35,1.35-.41A22.52,22.52,0,0,0,112,4.43a16.32,16.32,0,0,0,2.89-1,4.34,4.34,0,0,1,1.56-.38,4.76,4.76,0,0,1,1.75.32,1,1,0,0,1,.53.33.45.45,0,0,1,.07.46,1.37,1.37,0,0,1-.51.53,5.31,5.31,0,0,1-1.19.57,11.55,11.55,0,0,1-1.25.39c-.45.12-.9.23-1.37.33a5.1,5.1,0,0,1,.87.65,1,1,0,0,1,.31.5.48.48,0,0,1-.11.44,4.5,4.5,0,0,1-.37.43,4.46,4.46,0,0,0-.85,1.21c-.36.64-.77,1.49-1.23,2.53a4.55,4.55,0,0,0,.88-.33,4.72,4.72,0,0,0,.63-.36,2.46,2.46,0,0,1,.44-.25,1.21,1.21,0,0,1,.52-.08,2.82,2.82,0,0,1,.74.17c.29.11.66.27,1.1.48a5,5,0,0,1,1.07.69,1.22,1.22,0,0,1,.41.58.6.6,0,0,1-.08.49A1.12,1.12,0,0,1,118.41,13.55ZM115,14c.13-.7-.23-1-1.07-.82-.3,0-.55.09-.77.14l-.84.17c0,.61.1,1.17.16,1.69s.12,1.05.16,1.62l.94-.19a5.59,5.59,0,0,0,.85-.25,7.17,7.17,0,0,0,.36-1.2C114.91,14.77,115,14.38,115,14Zm14,3.59c.59.52.82,1,.69,1.37s-.68.53-1.67.42a4.7,4.7,0,0,0-.77,0l-1.23.08-1.35.11c-.45,0-.83.08-1.15.13l-.82.12-1.26.22c-.46.09-.92.18-1.38.29s-.86.21-1.2.31a3.71,3.71,0,0,1-.72.21,1.71,1.71,0,0,1-.6,0,2.09,2.09,0,0,1-.6-.24,3.71,3.71,0,0,1-.72-.52q-.92-.72-.87-1c0-.15.4-.23,1.12-.23a9.84,9.84,0,0,0,1.16-.07c.42,0,1-.13,1.83-.28,1.47-.25,2.75-.5,3.86-.74s2-.49,2.81-.74a2.72,2.72,0,0,1,1.53-.11A3.7,3.7,0,0,1,129,17.55Zm5.2-2.71a3.07,3.07,0,0,0-.73,1.49,19.34,19.34,0,0,0-.44,3.07,14.55,14.55,0,0,1-.9,4.18,6.19,6.19,0,0,1-2,2.75,3.63,3.63,0,0,1-2,1,.75.75,0,0,1-.77-.76c0-.21-.09-.41-.15-.61a3,3,0,0,0-.26-.65c-.13-.23-.3-.5-.52-.82s-.52-.69-.9-1.13c-.55-.67-.77-1.11-.68-1.32s.58-.17,1.47.12a10.58,10.58,0,0,0,1.33.38,1.32,1.32,0,0,0,.78,0A1,1,0,0,0,129,22a8.47,8.47,0,0,0,.41-1c.1-.32.21-.71.31-1.18s.2-1,.29-1.56.15-1.15.2-1.76.09-1.21.11-1.8a.51.51,0,0,0-.23-.42,1.06,1.06,0,0,0-.52-.21,12.81,12.81,0,0,0-2,.14c-.84.12-1.69.27-2.54.46s-1.62.39-2.31.61a5.2,5.2,0,0,0-1.42.62,5.62,5.62,0,0,1-.78.5.8.8,0,0,1-.56.1,1.1,1.1,0,0,1-.48-.35,5.11,5.11,0,0,1-.57-.82,2.07,2.07,0,0,1-.38-1.13c0-.23.34-.43.88-.6.15,0,.29-.23.41-.57a7,7,0,0,0,.32-1.21c.08-.47.15-1,.2-1.56s.09-1.1.1-1.59a10.14,10.14,0,0,0,0-1.29,2.17,2.17,0,0,0-.16-.71c-.54-.77-.66-1.29-.34-1.54s1-.14,2.17.34a7.9,7.9,0,0,1,1.15.59,1.64,1.64,0,0,1,.53.52.64.64,0,0,1,.07.52,2,2,0,0,1-.3.55,2.63,2.63,0,0,0-.29.53,8,8,0,0,0-.28.93c-.11.41-.22.95-.35,1.61s-.27,1.5-.44,2.53c.78-.06,1.47-.13,2.07-.22s1.12-.18,1.59-.28a1.31,1.31,0,0,1-.67-.85,1.32,1.32,0,0,1-.09-.39,3.46,3.46,0,0,1,0-.56,3.78,3.78,0,0,1,.08-.56,1.5,1.5,0,0,1,.19-.48,4.07,4.07,0,0,0,.21-.55c.07-.24.14-.58.22-1s.15-1,.23-1.71.18-1.52.29-2.53c0-.36,0-.58-.08-.68a.46.46,0,0,0-.43-.08c-.44.07-.94.17-1.51.3a13.79,13.79,0,0,0-1.73.55,7,7,0,0,1-.76.24,1.82,1.82,0,0,1-.61,0,1.7,1.7,0,0,1-.63-.22,7,7,0,0,1-.8-.57c-.57-.48-.82-.81-.74-1s.46-.25,1.18-.25a13.05,13.05,0,0,0,1.74-.12A14.94,14.94,0,0,0,123.54,2,15.33,15.33,0,0,0,125,1.49a4.32,4.32,0,0,0,1-.54l.52-.38a1.16,1.16,0,0,1,.5-.18,1.25,1.25,0,0,1,.65.11,7.65,7.65,0,0,1,1,.48,13.12,13.12,0,0,1,1.37.85,2.1,2.1,0,0,1,.58.62.46.46,0,0,1-.06.5,3.35,3.35,0,0,1-.57.52,2.32,2.32,0,0,0-.61.68,4.53,4.53,0,0,0-.43,1,13.69,13.69,0,0,0-.35,1.53c-.1.6-.21,1.31-.31,2.12a8,8,0,0,1-.28,1.22,8.83,8.83,0,0,1-.43,1.07,6.59,6.59,0,0,1-.49.85,3.08,3.08,0,0,1-.47.55c.9-.13,1.6-.25,2.09-.36a4.17,4.17,0,0,0,1-.33,1.84,1.84,0,0,1,1.18-.27,5.47,5.47,0,0,1,1.59.61A12,12,0,0,1,134,13a2.14,2.14,0,0,1,.64.68.58.58,0,0,1,0,.57A2,2,0,0,1,134.22,14.84Z"/><path class="cls-1" d="M13.26,41.06c0-.8-.45-3-.44-3.46s.3-.65.74-.65.72.23.72.65-.45,2.66-.49,3.46Zm2.51,0c0-.8-.45-3-.44-3.45a.64.64,0,0,1,.73-.66c.48,0,.73.23.73.65s-.46,2.67-.5,3.47Z"/><path class="cls-1" d="M22.46,37.83h-.39a11.3,11.3,0,0,0-2.48.16c-.71.22-1.19,1.31-1.41,1.81,0,.08-.08.09-.16.08l-.28-.08s-.09,0-.06-.13c.16-.56.73-2.58.76-2.75s.1-.25.16-.25a.27.27,0,0,1,.19.06l.2.14a1.28,1.28,0,0,0,.89.28c.83,0,1.49.11,3,.12h.76c1.71,0,2.38-.05,3.15-.07a1.56,1.56,0,0,0,.82-.21l.3-.19a.3.3,0,0,1,.19-.06c.08,0,.11,0,.14.25s.31,2.14.43,2.83c0,.08,0,.11-.1.12l-.25.06c-.06,0-.08,0-.12-.11-.13-.3-.59-1.51-1.1-1.76a9.19,9.19,0,0,0-2.71-.29h-.44l0,4.47c0,.22,0,4.61,0,4.88s.15.63.53.63h1c.14,0,.15.05.15.16v.33c0,.08,0,.13-.16.12s-.66,0-2.19-.06-2.17,0-2.39,0-.14-.06-.14-.15V48c0-.11,0-.16.11-.16h1.07c.31,0,.51-.18.52-.37.05-.46.1-5.27.1-5.57Z"/><path class="cls-1" d="M32.87,42.45c.12,0,1.8,0,2-.07.46-.08.58-.2.73-.69a3.67,3.67,0,0,0,.13-.76.1.1,0,0,1,.11-.11l.39,0a.1.1,0,0,1,.1.12c0,.27-.06,1.56-.07,1.79,0,.55.06,1.3.08,1.63a.12.12,0,0,1-.09.13l-.35,0c-.08,0-.11,0-.12-.14a6.75,6.75,0,0,0-.17-.74.74.74,0,0,0-.67-.62C34.2,43,33.12,43,32.86,43v1c0,.85,0,2.37,0,2.68,0,.82.4,1.13.89,1.23a5.75,5.75,0,0,0,1.16.12c.26,0,1.05,0,1.38,0a3.09,3.09,0,0,0,1.37-.54A14.68,14.68,0,0,0,39,45.75c0-.07.09-.14.19-.09l.25.15c.07,0,.07.09,0,.22l-.86,2.29a.32.32,0,0,1-.34.24l-1.37-.05L32,48.45H30.62c-.33,0-.53,0-.67,0s-.15,0-.14-.11V48c0-.06.05-.08.16-.08h.62c.73,0,.79-.1.79-.69l.05-5.25c0-1.3,0-3.26,0-3.42-.06-.5-.21-.61-.79-.62h-.57c-.07,0-.12,0-.12-.11v-.43s0-.08.11-.08c.35,0,.9.06,1.93.07h.69c1.55,0,3.11,0,4.66,0,.25,0,.55,0,.63,0a.11.11,0,0,1,.12.08L38.85,40c0,.06,0,.11-.05.14l-.23.12s-.11,0-.13,0a13.27,13.27,0,0,0-1.55-1.8A2.38,2.38,0,0,0,35.7,38l-2.79-.09Z"/><path class="cls-1" d="M42,41.51c0-1,0-2.66,0-2.94s-.1-.57-.57-.58h-.74c-.09,0-.11-.08-.11-.16v-.34c0-.08,0-.11.12-.11s.73,0,2,.06c1.53,0,2.18,0,2.33,0s.14.05.14.13v.36c0,.08,0,.13-.16.13h-.94c-.48,0-.55.15-.55.61,0,.2-.07,2.57-.08,3.67v1.34c0,.27,0,3.66,0,4.3.34,0,3.45.1,3.93,0,.93-.14,1.89-2,2.11-2.62,0-.06.07-.09.13-.06l.25.09s0,0,0,.15-.7,2.69-.79,3.11c-.21,0-1.43,0-2.83-.06l-3.78,0H41.1l-.62,0c-.11,0-.12,0-.12-.12v-.39c0-.08,0-.11.11-.11h.76c.58,0,.67-.21.67-.42s.09-4.2.1-5.16Z"/><path class="cls-1" d="M53.68,42.64c.13,0,1.8,0,2-.08.46-.07.58-.2.73-.68a3.79,3.79,0,0,0,.13-.77.1.1,0,0,1,.11-.11L57,41a.1.1,0,0,1,.1.12c-.05.27-.06,1.56-.07,1.79,0,.55.06,1.3.08,1.63a.12.12,0,0,1-.09.13l-.35,0c-.07,0-.11,0-.12-.14s-.12-.56-.17-.74a.73.73,0,0,0-.67-.61c-.73-.09-1.81-.1-2.06-.1v1c0,.85,0,2.37,0,2.68,0,.82.4,1.14.89,1.23a5.82,5.82,0,0,0,1.16.12c.26,0,1.05,0,1.38,0a3.09,3.09,0,0,0,1.37-.54,14.27,14.27,0,0,0,1.3-1.63c0-.08.09-.14.19-.1l.25.15c.08,0,.07.09,0,.22l-.85,2.3a.34.34,0,0,1-.35.23l-1.37-.05-4.91,0H51.43c-.33,0-.53,0-.67,0s-.14,0-.14-.11v-.42c0-.06.05-.08.16-.08h.62c.73,0,.79-.1.79-.68l.05-5.26c0-1.3,0-3.26,0-3.42,0-.5-.21-.61-.79-.62h-.57c-.07,0-.12,0-.12-.11v-.43s0-.07.11-.07c.35,0,.9.05,1.93.06h.69l4.66,0c.25,0,.55,0,.63,0s.11,0,.12.08l.78,2.53c0,.06,0,.11,0,.14l-.23.12c-.05,0-.11,0-.13,0a13.27,13.27,0,0,0-1.55-1.8,2.48,2.48,0,0,0-1.19-.43L53.72,38Z"/><path class="cls-1" d="M64.12,44.58c0,.74,0,2.87,0,3.09s.18.5.51.5h1c.11,0,.13,0,.13.11v.38c0,.08,0,.13-.15.12s-.7,0-2.18-.06-2,0-2.16,0-.13,0-.13-.11v-.4c0-.07,0-.11.09-.1h.68c.53,0,.64-.07.69-.49,0-.16.09-2.61.1-4.43l0-1.8c0-1,0-2.75,0-2.9,0-.32-.18-.35-.61-.35h-.89c-.08,0-.09,0-.09-.13v-.37c0-.08,0-.11.1-.11s.73,0,2.22.06c.28,0,1.21,0,1.73,0a5.49,5.49,0,0,1,3.49.82,2.77,2.77,0,0,1,1.17,2.28c0,2-1.52,3.19-4,3.17a15.14,15.14,0,0,1-1.71-.1Zm0-1.38a5.84,5.84,0,0,0,1.45.15A2.85,2.85,0,0,0,67.8,42.3a2.58,2.58,0,0,0,.42-1.58A2.67,2.67,0,0,0,65.4,38.1a4.72,4.72,0,0,0-1.22.09Z"/><path class="cls-1" d="M72.59,42.63c0-1,0-3.09,0-3.34,0-.8-.1-1-.68-1h-.74c-.08,0-.09,0-.09-.13v-.38c0-.08,0-.11.13-.11.31,0,.81.06,2.19.07,1.23,0,1.79,0,2.09,0,.11,0,.16,0,.16.08v.41c0,.09,0,.12-.12.12h-.8c-.54,0-.62.26-.62.88,0,.22,0,2.29-.06,3.17v.27c0,.08,0,.13.18.13l5.81,0c.23,0,.31,0,.31-.23V42.4c0-.9,0-3.08,0-3.27,0-.5-.06-.8-.51-.8H79c-.08,0-.11,0-.11-.11v-.4c0-.07,0-.1.1-.1.33,0,1,.06,2.07.07s1.71,0,2,0c.11,0,.12,0,.12.12v.38c0,.09,0,.11-.13.11h-.7c-.46,0-.51.27-.51.83,0,.22-.06,2.87-.06,3.45v.53c0,.51,0,3.49,0,4.38,0,.57.15.79.62.79h.69c.11,0,.14,0,.14.11v.37c0,.1,0,.13-.13.13-.3,0-.83-.06-2-.07-1.36,0-1.86,0-2.33,0a.1.1,0,0,1-.1-.11v-.39c0-.08,0-.11.12-.11h1c.38,0,.43-.3.43-.72,0-.74.08-3.26.08-3.83v-.22c0-.17-.07-.19-.34-.19l-5.74-.05c-.17,0-.22.05-.22.16v.33c0,.42,0,2.83,0,3.93,0,.38.17.54.5.54h.77c.09,0,.12,0,.12.11v.39c0,.08,0,.11-.13.11-.29,0-.84-.05-2-.06-1.35,0-1.82,0-2.18,0-.08,0-.11,0-.11-.11v-.4a.1.1,0,0,1,.11-.1h.93c.39,0,.44-.37.44-.75,0-.74.08-3.78.09-4.19Z"/><path class="cls-1" d="M87.1,48.15a5.48,5.48,0,0,1-2.27-4.68,6.13,6.13,0,0,1,1.5-3.89,5.13,5.13,0,0,1,4.27-2,5.29,5.29,0,0,1,3.5,1.28,6,6,0,0,1,2.11,4.7A5.7,5.7,0,0,1,95,47a5.33,5.33,0,0,1-4.54,2.17A6.89,6.89,0,0,1,87.1,48.15Zm7.57-4.43c0-3.44-2.4-5.48-4.14-5.5a3,3,0,0,0-2.49.9A5.61,5.61,0,0,0,86.44,43c0,4.12,2.82,5.6,4.15,5.62C94,48.64,94.66,45.11,94.67,43.72Z"/><path class="cls-1" d="M99.31,40c0-.93-.46-1.45-1-1.47l-.65,0c-.07,0-.09-.07-.09-.11V38c0-.06,0-.1.09-.1s.2,0,.44,0,.58,0,1.11,0,.87,0,1,0a.56.56,0,0,1,.46.21l3.25,4.3c.17.22,2.8,3.49,3.17,4h.06l0-1.86c0-1.4,0-2.17,0-2.95a18.75,18.75,0,0,0-.17-2.42.84.84,0,0,0-.86-.62h-.5c-.06,0-.09,0-.09-.11V38a.09.09,0,0,1,.1-.1c.21,0,.72.06,1.72.07s1.32,0,1.52,0,.13.05.13.11v.4c0,.06,0,.11-.09.1h-.43c-.42,0-.58.26-.61.86-.08,1.05-.09,2.6-.1,3.62l0,5.87c0,.22,0,.37-.08.37s-.33-.19-.38-.25l-1.89-2.43c-1.08-1.38-2.22-2.83-2.31-2.92s-3-3.81-3.12-3.94h-.09l0,3.48c0,1.46.09,4,.12,4.33,0,.62.14.92.57.92H101c.11,0,.12,0,.12.14V49c0,.09,0,.13-.13.12L99.48,49l-1.57,0c-.06,0-.08,0-.07-.11v-.41c0-.05,0-.1.09-.09h.54c.45,0,.63-.18.71-.95,0-.3.08-2.09.11-4.88Z"/><path class="cls-1" d="M113.57,43.16c.13,0,1.81,0,2-.08.46-.07.59-.2.73-.68a3.2,3.2,0,0,0,.13-.77.1.1,0,0,1,.11-.11l.4,0a.1.1,0,0,1,.09.13c0,.26-.06,1.55-.06,1.78,0,.55.05,1.31.08,1.64a.11.11,0,0,1-.1.12l-.34,0c-.08,0-.11,0-.13-.15s-.12-.56-.16-.73a.74.74,0,0,0-.67-.62c-.74-.09-1.82-.1-2.07-.1v1c0,.85,0,2.37,0,2.69,0,.81.39,1.13.88,1.23a7.81,7.81,0,0,0,1.16.12c.27,0,1,0,1.38,0a2.93,2.93,0,0,0,1.37-.54,13.44,13.44,0,0,0,1.3-1.63c0-.08.09-.14.19-.09l.25.14c.08.05.08.09,0,.22l-.85,2.3a.34.34,0,0,1-.35.23l-1.37,0-4.9-.06c-.58,0-1,0-1.34,0l-.67,0c-.1,0-.14,0-.14-.11v-.43c0-.06,0-.07.16-.07h.63c.72,0,.78-.1.79-.68l0-5.26c0-1.3,0-3.26,0-3.42-.06-.5-.22-.61-.8-.61h-.56c-.08,0-.13,0-.13-.11v-.42s0-.08.12-.08c.34,0,.89,0,1.92.06h.69l4.66,0c.25,0,.55,0,.63,0a.12.12,0,0,1,.13.08l.77,2.53c0,.06,0,.11,0,.14l-.24.12a.11.11,0,0,1-.13,0,12.69,12.69,0,0,0-1.55-1.81,2.44,2.44,0,0,0-1.19-.43l-2.79-.09Z"/><path class="cls-1" d="M122.18,42c0-.8-.45-3-.45-3.45a.66.66,0,0,1,.75-.66c.47,0,.72.23.71.65s-.44,2.67-.48,3.47Zm2.51,0c0-.8-.45-3-.45-3.45a.65.65,0,0,1,.73-.66c.49,0,.74.23.73.66s-.46,2.66-.5,3.46Z"/><path class="cls-2" d="M167.41,26.37a16.26,16.26,0,0,1-4-4.7,14.83,14.83,0,0,1-1.79-7,14.36,14.36,0,0,1,2-7.18,17.56,17.56,0,0,1,3.84-4.57.67.67,0,0,1,.47-.21c.24,0,.52.24.52.37a.87.87,0,0,1-.21.46c-2.13,2.58-3.27,6.42-3.27,11.13,0,4.33,1.19,8.54,3.27,11.09a.84.84,0,0,1,.21.47c0,.13-.28.39-.52.39A.75.75,0,0,1,167.41,26.37Z"/><path class="cls-2" d="M181.83,4.73a.25.25,0,0,1,.26.28,2.91,2.91,0,0,1-.47,1,51.48,51.48,0,0,0-3.09,6.21,60.52,60.52,0,0,0-2.65,8.29,2.4,2.4,0,0,1-2.19,2,1.53,1.53,0,0,1-1.55-1.63,7.79,7.79,0,0,1,1.14-3c.44-.81,5-8.29,6.18-10.11h-6c-1.56,0-1.84.49-2.6,1.43-.15.2-.31.18-.54.05s-.24-.16-.16-.39L171.8,4c0-.16.08-.19.39-.19s.39.08.34.47.15.5,1.48.5Z"/><path class="cls-2" d="M187.33,9.14c0-.62-.13-1.19-.59-1.19a4,4,0,0,0-1.17.18l-1.28.36c-.13,0-.23,0-.28-.07l-.18-.52c-.06-.11,0-.21.15-.32l6.32-3.09a1.16,1.16,0,0,1,.49-.15c.16,0,.23.18.23.39S191,9,191,12.36v1.1c0,1.35,0,5.82,0,6.1,0,1.35.13,1.54,1.43,1.54h.94c.18,0,.26.07.26.2V22c0,.13-.08.18-.29.18l-4.16-.08c-.75,0-4.41.08-4.54.08s-.21-.05-.21-.18v-.7c0-.16.15-.18.36-.18h.68c1.43,0,1.82-.08,1.87-1.41.05-1.09,0-4,0-4.88Z"/><path class="cls-2" d="M203,22.08c-.23,0-.31,0-.31-.28V18h-6.71c-.46,0-.78-.18-.78-.49a1.65,1.65,0,0,1,.47-1l9.3-11.75a.86.86,0,0,1,.68-.41c.26,0,.36.18.36.88V15.64h1.64c.18,0,.31.1.31.23v1.87c0,.16-.08.26-.41.26H206v3.72c0,.28-.05.36-.36.36Zm-.29-6.44V9.9c0-.37-.26-.37-.49-.06L198,15.12c-.23.28-.16.52.18.52Z"/><path class="cls-2" d="M210,2.88a16.26,16.26,0,0,1,4,4.7,14.81,14.81,0,0,1,1.79,7,14.38,14.38,0,0,1-2,7.2,17.37,17.37,0,0,1-3.84,4.57.67.67,0,0,1-.47.21c-.23,0-.52-.24-.52-.37a.87.87,0,0,1,.21-.46c2.1-2.63,3.27-6.42,3.27-11.15,0-4.31-1.22-8.52-3.27-11.07a.84.84,0,0,1-.21-.47c0-.13.29-.39.52-.39A.75.75,0,0,1,210,2.88Z"/><path class="cls-2" d="M218,14.29c0-.16.06-.18.24-.18h7.25c.21,0,.31.05.31.28V15.9c0,.13-.1.18-.26.18h-7.33c-.15,0-.21,0-.21-.13Z"/><path class="cls-2" d="M229.53,22.08c-.45,0-.91,0-1.3.05l-.81.06c-.13,0-.21,0-.28-.16a.57.57,0,0,1,.15-.62,46.39,46.39,0,0,0,5-5.33c1.61-2,2.65-4,2.57-6.31-.07-1.93-1.27-3.23-3-3.17a3.81,3.81,0,0,0-3,2c-.13.21-.21.21-.31.16l-.44-.18c-.08-.06-.11-.13,0-.37a5.89,5.89,0,0,1,5.58-3.89,4.79,4.79,0,0,1,4.94,4.72c0,2.21-1,4.34-3.92,7-1.51,1.4-2.68,2.36-3.49,3.11v.11h4.5a3.19,3.19,0,0,0,2.94-2c.13-.23.2-.28.46-.15s.39.23.32.41l-1.85,4.81c-.08.21-.16.29-.39.29s-.23-.06-.34-.26-.65-.37-1.69-.37Z"/><path class="cls-2" d="M247.82,22.08c-.24,0-.32,0-.32-.28V18h-6.7c-.47,0-.78-.18-.78-.49a1.65,1.65,0,0,1,.47-1l9.3-11.75a.86.86,0,0,1,.68-.41c.26,0,.36.18.36.88V15.64h1.64c.18,0,.31.1.31.23v1.87c0,.16-.08.26-.42.26h-1.53v3.72c0,.28-.05.36-.36.36Zm-.29-6.44V9.9c0-.37-.26-.37-.49-.06l-4.21,5.28c-.24.28-.16.52.18.52Z"/><path class="cls-2" d="M260.81,22.08c-.24,0-.31,0-.31-.28V18h-6.71c-.47,0-.78-.18-.78-.49a1.65,1.65,0,0,1,.47-1l9.3-11.75a.86.86,0,0,1,.68-.41c.26,0,.36.18.36.88V15.64h1.64c.18,0,.31.1.31.23v1.87c0,.16-.08.26-.42.26h-1.53v3.72c0,.28-.05.36-.36.36Zm-.29-6.44V9.9c0-.37-.26-.37-.49-.06l-4.21,5.28c-.24.28-.16.52.18.52Z"/><path class="cls-2" d="M267.33,14.29c0-.16.05-.18.23-.18h7.25c.21,0,.31.05.31.28V15.9c0,.13-.1.18-.26.18h-7.33c-.15,0-.2,0-.2-.13Z"/><path class="cls-2" d="M288.71,13.25c0,5.95-1.92,9.22-5.66,9.22-4.58,0-5.9-5-5.9-8.34,0-5.79,2-9.79,5.87-9.79C287.85,4.34,288.71,9.3,288.71,13.25Zm-7.17-6.13a34.26,34.26,0,0,0-.73,6.73,24.27,24.27,0,0,0,.42,5.53c.41,1.48.91,2,1.84,2s1.43-.52,1.67-1.69a44.39,44.39,0,0,0,.33-7c0-4.37-.49-7.28-1.92-7.28C282.24,5.4,281.75,6.13,281.54,7.12Z"/><path class="cls-2" d="M300.22,6.26a7.13,7.13,0,0,1,1.45,4.08,13,13,0,0,1-4.2,9.74,10.14,10.14,0,0,1-4.16,2.26,3.37,3.37,0,0,1-.81.13c-.21,0-.41-.08-.41-.39a.53.53,0,0,1,.33-.44c2.19-.83,4.63-3.64,5.18-7.25h-.19a4.65,4.65,0,0,1-2.85.75,4.39,4.39,0,0,1-4.32-4.62,6.85,6.85,0,0,1,1.87-4.76,5.4,5.4,0,0,1,3.74-1.42C298,4.34,299.18,4.88,300.22,6.26Zm-6.6,2.91c0,2.57,1.06,4.47,2.47,4.47a2,2,0,0,0,1.45-.52c.42-.47.39-2.08.39-3.28,0-2.41-.39-4.54-2-4.54S293.62,6.78,293.62,9.17Z"/><path class="cls-2" d="M304.74,20.76a8,8,0,0,1-1.59-5.12,11.54,11.54,0,0,1,3.38-8.06,11.82,11.82,0,0,1,5.09-3,4.26,4.26,0,0,1,1.2-.23c.16,0,.39.13.39.31s-.13.44-.6.62c-2.08.78-4.88,3.85-5.56,7l.16.08a4.47,4.47,0,0,1,2.86-1c3.22,0,4.52,2.54,4.52,4.83a6,6,0,0,1-1.69,4.62,5.6,5.6,0,0,1-4.32,1.69A4.42,4.42,0,0,1,304.74,20.76ZM311,17.48C311,15,310.3,13,308.79,13a1.93,1.93,0,0,0-1.53.45c-.52.52-.52,1.63-.52,3.45,0,1.51.34,4.6,2.1,4.6C309.81,21.51,311,21.12,311,17.48Z"/><path class="cls-2" d="M319,10.62a14.23,14.23,0,0,1,3.84.65,5,5,0,0,1,3.41,4.91c0,3.43-3.2,6.29-7.25,6.29-1.74,0-3.17-.7-3.17-1.45,0-.6.33-.91.7-.89a3.4,3.4,0,0,1,1.51.63,3.5,3.5,0,0,0,1.71.39,3.32,3.32,0,0,0,3.48-3.56,3.49,3.49,0,0,0-1.87-3.25,8.15,8.15,0,0,0-3.43-.73c-.31,0-.44-.13-.41-.39l1-8.08c0-.31.07-.41.41-.41h5.77c.91,0,1.12-.45,1.56-1.3.1-.19.18-.21.52-.08s.29.15.23.39l-1,3.48c-.13.44-.26.55-1.07.55h-5.48Z"/><path class="cls-1" d="M28.38,100.87a1.26,1.26,0,0,1,.51,1.52,3.05,3.05,0,0,1-1.92,1.5,17.08,17.08,0,0,1-2.92.72,21.64,21.64,0,0,1-6.06.15,11.18,11.18,0,0,1-2.46-.56,5.13,5.13,0,0,1-1.62-.85,3.39,3.39,0,0,1-1-1.32,6.71,6.71,0,0,1-.49-2,28.64,28.64,0,0,1-.13-3c-.82.13-1.61.22-2.39.29a1.88,1.88,0,0,1-.44.81.81.81,0,0,1-.54.29.9.9,0,0,1-.42-.14,2.78,2.78,0,0,1-.49-.4,2.52,2.52,0,0,1-.44-.6,2.76,2.76,0,0,1-.28-.72c-.47-2.16-.9-3.93-1.31-5.29A7.59,7.59,0,0,0,4.7,88.4a2.32,2.32,0,0,1-.53-.88A.46.46,0,0,1,4.39,87a2,2,0,0,1,1.08-.17,11.84,11.84,0,0,1,2.07.29c.88-.1,1.72-.22,2.53-.34s1.57-.25,2.28-.38a25.31,25.31,0,0,0-.28-3.51A4.55,4.55,0,0,0,11.41,81c-.76-1-.93-1.63-.52-1.86s1.48,0,3.23.57a6.55,6.55,0,0,1,1.32.63,1.89,1.89,0,0,1,.65.64,1.08,1.08,0,0,1,.11.68,2,2,0,0,1-.29.69,3.74,3.74,0,0,0-.3,1c-.09.52-.18,1.35-.26,2.51q1.57-.25,2.64-.51a7.39,7.39,0,0,0,1.58-.5c.31-.15.57-.26.78-.35a1.62,1.62,0,0,1,.65-.11,2.11,2.11,0,0,1,.72.18,8.18,8.18,0,0,1,1,.47,16.21,16.21,0,0,1,1.66,1.08,3.25,3.25,0,0,1,.77.81.61.61,0,0,1,0,.64,2.33,2.33,0,0,1-.55.62,4.23,4.23,0,0,0-.94,1.07,5,5,0,0,0-.54,1.29c-.06.23-.15.53-.25.91s-.23.78-.36,1.2-.28.84-.43,1.27a11.19,11.19,0,0,1-.44,1.15,4,4,0,0,1-.75,1.14,4.18,4.18,0,0,1-.85.66,1.45,1.45,0,0,1-.76.19.53.53,0,0,1-.47-.29,1,1,0,0,0-.33-.44.94.94,0,0,0-.43-.09,11.23,11.23,0,0,0-1.16.08c-.55.05-1.14.13-1.77.23a12.29,12.29,0,0,0,.26,3.23,1.72,1.72,0,0,0,.78,1.21,8.58,8.58,0,0,0,3.91.74,12.11,12.11,0,0,0,3.81-.74A2.31,2.31,0,0,0,25,99.89a8.84,8.84,0,0,0,.89-2.8c.23-1.32.51-2,.82-2s.53.67.63,2c.06.67.13,1.23.21,1.67a6.22,6.22,0,0,0,.25,1.08,2.5,2.5,0,0,0,.3.67A1.92,1.92,0,0,0,28.38,100.87Zm-16-12.76c-.68.13-1.33.24-2,.32s-1.22.15-1.79.19c.1.61.22,1.23.34,1.86s.25,1.25.35,1.87.21,1.21.32,1.78.2,1.07.28,1.51l1.24-.14c.41,0,.8-.11,1.15-.18q0-.75,0-1.47V92.43c-.44,0-.78.06-1,.06a2.19,2.19,0,0,1-.75-.13c-.5-.16-.76-.37-.76-.61s.26-.4.76-.49l.8-.14a8.79,8.79,0,0,0,1-.23Zm7.46,0c.06-.63-.08-.94-.41-.94-.55,0-1.17,0-1.87.11s-1.46.18-2.26.33c0,.4,0,.8,0,1.21s0,.82-.05,1.24a7.16,7.16,0,0,1,1.48-.2,3.08,3.08,0,0,1,.85.14c.63.21.91.46.85.76s-.34.55-.85.78a5.68,5.68,0,0,1-1.08.37c-.41.09-.86.18-1.34.26v2.65q1.35-.26,1.92-.3a2.08,2.08,0,0,1,.94.11.4.4,0,0,0,.46-.06,2.29,2.29,0,0,0,.49-1c.1-.36.21-.79.31-1.29s.2-1,.27-1.53.14-1,.19-1.48S19.83,88.38,19.85,88.08Z"/><path class="cls-1" d="M52,88.3a2.08,2.08,0,0,0-.36.51,4.84,4.84,0,0,0-.35.89A12.11,12.11,0,0,0,51,91.22q-.15.93-.27,2.37c-.06.7-.13,1.3-.21,1.81a8,8,0,0,1-.28,1.34,4.54,4.54,0,0,1-.41,1,9,9,0,0,1-.52.84c-.42.59-.81.89-1.18.9s-.68-.45-.93-1.37a.83.83,0,0,0-.17-.34.7.7,0,0,0-.44-.12,5.21,5.21,0,0,0-1,.09c-.43.08-1,.2-1.81.37l-.9.18a6.36,6.36,0,0,1-.64.1,2.54,2.54,0,0,1-.55,0c-.18,0-.38,0-.58,0a2.59,2.59,0,0,1-.41,1.15.73.73,0,0,1-.54.26.65.65,0,0,1-.41-.17,1.83,1.83,0,0,1-.46-.68,7.71,7.71,0,0,1-.45-1.4,17.07,17.07,0,0,1-.38-2.37,32.5,32.5,0,0,0-.65-4,6,6,0,0,0-1-2.38c-.67-.8-.84-1.34-.52-1.62s1.32-.22,3,.17A16.38,16.38,0,0,0,41,87.11c.56-.09,1.21-.21,2-.38,0-1,0-1.91,0-2.63s-.05-1.34-.1-1.86A5.93,5.93,0,0,0,42.6,81a2.44,2.44,0,0,0-.49-.85A4.62,4.62,0,0,1,41.39,79c-.13-.31-.11-.53.06-.68a1.42,1.42,0,0,1,1-.14,10.59,10.59,0,0,1,2.16.55,6.77,6.77,0,0,1,1.2.49,1.5,1.5,0,0,1,.55.49.85.85,0,0,1,.06.6,4.77,4.77,0,0,1-.27.81,5.46,5.46,0,0,0-.22.68c-.06.26-.12.59-.17,1s-.1.86-.14,1.41-.09,1.24-.13,2a8.14,8.14,0,0,0,2.21-.72c.27-.15.5-.26.69-.35a1.39,1.39,0,0,1,.53-.12,1.17,1.17,0,0,1,.51.11,3,3,0,0,1,.6.36c.58.42,1.05.77,1.4,1.06a3.69,3.69,0,0,1,.72.72.59.59,0,0,1,.14.52A1.43,1.43,0,0,1,52,88.3Zm-9.13.13-1.12.16-1.43.12c.08.72.17,1.46.25,2.24s.16,1.53.24,2.27.14,1.43.2,2.09.12,1.22.16,1.68l.79-.18.81-.23.07-3.81a3,3,0,0,1-1.2-.15c-.67-.28-1-.51-.85-.71s.42-.35,1-.46l.59-.12.51-.13Zm5.38-.38a.65.65,0,0,0-.22-.49c-.12-.09-.43-.09-.91,0s-1.19.25-1.73.38l-.1,2.45A2.74,2.74,0,0,1,47,90.35a2,2,0,0,1,.69.42.68.68,0,0,1,.22.46.6.6,0,0,1-.15.4.88.88,0,0,1-.41.23l-.88.22-1.17.28L45.1,96l.68-.14a2.77,2.77,0,0,1,.46,0,.88.88,0,0,1,.33.06,2.25,2.25,0,0,1,.3.16c.29.19.48.25.56.2s.17-.3.26-.74c.23-1.28.39-2.59.5-3.94A30.46,30.46,0,0,0,48.28,88.05ZM63,98.19a2.64,2.64,0,0,1-.63.87,2.17,2.17,0,0,1-.76.45,1,1,0,0,1-.69,0,.87.87,0,0,1-.51-.44,5.25,5.25,0,0,0-1.16-1.43A17,17,0,0,0,57,96.08q-1.23-.75-1.14-1.2c.07-.29.53-.34,1.39-.15.69.16,1.23.28,1.62.34a2.58,2.58,0,0,0,.83.05c.17,0,.26-.11.26-.25a2.14,2.14,0,0,0-.13-.58,5,5,0,0,0-.93-1.77A15.5,15.5,0,0,0,57,90.66a4.35,4.35,0,0,1-.52-.48.92.92,0,0,1-.2-.44,1.1,1.1,0,0,1,.09-.54,5.38,5.38,0,0,1,.41-.74c.15-.25.29-.49.41-.71l.4-.68c.13-.23.28-.48.44-.77l.52-1c.29-.54.2-.74-.29-.6-.75.24-1.34.4-1.76.51a10.1,10.1,0,0,1-1.16.22c0,1.24,0,2.4,0,3.48s0,2.16,0,3.24,0,2.2,0,3.36,0,2.42,0,3.81c0,.71,0,1.33,0,1.87s-.06,1-.11,1.49a10.54,10.54,0,0,1-.22,1.33,13.17,13.17,0,0,1-.36,1.32q-.54,1.72-1,1.83c-.31.06-.58-.53-.84-1.77a11.93,11.93,0,0,1-.19-2.06c0-.89,0-1.85,0-2.88,0-1.2,0-2.24.06-3.13s0-1.77,0-2.63,0-1.79,0-2.77,0-2.18,0-3.56a13,13,0,0,0-.22-2.25,4.07,4.07,0,0,0-.54-1.41,2.39,2.39,0,0,1-.42-.88c0-.21.06-.34.28-.41a3,3,0,0,1,1.1,0c.52.09,1.2.25,2.06.48a10.84,10.84,0,0,0,2.27-.54,4.32,4.32,0,0,0,1.36-.75,8.6,8.6,0,0,1,.69-.54,1.12,1.12,0,0,1,.6-.19,1.75,1.75,0,0,1,.74.21c.28.13.66.33,1.15.58,1.19.67,1.83,1.22,1.92,1.64s-.26.78-1,1.1a7,7,0,0,0-.91.44,9.76,9.76,0,0,0-1,.63q-.52.38-1.17.93c-.43.37-.94.83-1.53,1.4-.23.23-.34.4-.33.5s.12.21.33.32a19.64,19.64,0,0,1,3.34,2,6.49,6.49,0,0,1,1.83,2,3.85,3.85,0,0,1,.49,2.15A6.48,6.48,0,0,1,63,98.19Z"/><path class="cls-1" d="M81.69,95.45c.17.19.1.44-.2.74a10.83,10.83,0,0,1-1.21,1l-2.65,2c-.69.53-1.25,1-1.68,1.33s-.76.65-1,.89a5.79,5.79,0,0,0-.56.63,2.12,2.12,0,0,1-.47.45.74.74,0,0,1-.56.08,3.06,3.06,0,0,1-.83-.33c-.34-.18-.77-.45-1.29-.8q-1.55-1-1.47-1.59c.06-.39.65-.61,1.78-.65a5.45,5.45,0,0,0,1.53-.3,16.55,16.55,0,0,0,2-.83l0-5.14a5.69,5.69,0,0,1-1.5.1,4.4,4.4,0,0,1-1.14-.32c-.66-.29-1-.5-1-.64s.39-.29,1.18-.46q.6-.15,1.17-.33a10.91,10.91,0,0,0,1.29-.49c0-2.26,0-4-.14-5.18a4.87,4.87,0,0,0-.68-2.47,3.72,3.72,0,0,1-.69-1.12c-.11-.3-.08-.52.09-.64a1.49,1.49,0,0,1,1-.11,10.46,10.46,0,0,1,2,.49,4.18,4.18,0,0,1,1.23.56,1.66,1.66,0,0,1,.6.66,1.23,1.23,0,0,1,.08.76,3.1,3.1,0,0,1-.3.85,5,5,0,0,0-.35,1.65q-.09,1.15-.09,3.48a3,3,0,0,1,.83-.15,4,4,0,0,1,.68.06c.8.17,1.26.4,1.37.71s-.28.68-1.18,1.15a15.73,15.73,0,0,1-1.7.75l0,4.44a21.7,21.7,0,0,1,2.84-1.16C81.27,95.41,81.61,95.37,81.69,95.45Zm17.86,4.06a3.14,3.14,0,0,1,.63,1.25A1.38,1.38,0,0,1,99.8,102,4.85,4.85,0,0,1,98,103.06a18.47,18.47,0,0,1-3.53.92,21.32,21.32,0,0,1-3.24.29,19.73,19.73,0,0,1-3.63-.29,7.21,7.21,0,0,1-3.74-1.57,5.74,5.74,0,0,1-1.64-3.21,12.08,12.08,0,0,1-.21-2c0-.83,0-1.66,0-2.5a3.29,3.29,0,0,1-1.31.55,2,2,0,0,1-1.12-.18,4.74,4.74,0,0,1-.89-.48c-.18-.14-.26-.26-.24-.37s.14-.19.36-.28.52-.19.9-.31a18.89,18.89,0,0,0,2.39-1.07A16,16,0,0,0,82,89.83a3.56,3.56,0,0,0-.42-1.43c-.68-.76-.89-1.28-.65-1.56s1-.22,2.35.2a5.59,5.59,0,0,1,1.19.51,1.82,1.82,0,0,1,.59.52.86.86,0,0,1,.14.55,2.44,2.44,0,0,1-.16.6,4,4,0,0,0-.3,1.07c0,.29-.06.61-.08.94l.88-.49c.3-.15.59-.32.89-.48V87.77c0-.49,0-1,0-1.48s0-1,0-1.48c0-.7,0-1.27-.07-1.73s-.08-.85-.13-1.15a3.92,3.92,0,0,0-.19-.74,2.15,2.15,0,0,0-.24-.48A5.88,5.88,0,0,1,85,79.53c-.13-.32-.13-.56,0-.72a1.09,1.09,0,0,1,.87-.19,7.5,7.5,0,0,1,1.78.43,6.55,6.55,0,0,1,1.41.64,2,2,0,0,1,.7.69,1.2,1.2,0,0,1,.12.73,2.68,2.68,0,0,1-.28.77,3.37,3.37,0,0,0-.21.64,12.48,12.48,0,0,0-.19,1.26c0,.54-.1,1.21-.15,2S89,87.58,89,88.71c.75-.48,1.3-.85,1.63-1.1a1.81,1.81,0,0,0,.6-.6,2.89,2.89,0,0,1,.46-.72.92.92,0,0,1,.55-.3,2,2,0,0,1,.79.09c.31.1.71.25,1.19.46a8.83,8.83,0,0,1,1.39.74,1.44,1.44,0,0,1,.57.65.71.71,0,0,1-.13.63,5.26,5.26,0,0,1-.63.69,2.22,2.22,0,0,0-.28.33,2,2,0,0,0-.26.53c-.08.24-.17.56-.26,1s-.21.91-.33,1.56-.29,1.3-.43,1.82-.28,1-.42,1.37a6.59,6.59,0,0,1-.49,1,3.94,3.94,0,0,1-.62.78c-.6.61-1.07.89-1.4.82s-.58-.45-.77-1.16a4.36,4.36,0,0,0-.31-.87c-.15-.3-.35-.7-.6-1.18-.32-.63-.44-1-.36-1.1s.38,0,.93.25a1.11,1.11,0,0,0,.7.17c.18,0,.32-.19.43-.48l.27-.87a6.55,6.55,0,0,0,.17-.88c0-.33.08-.71.13-1.14s.08-1,.12-1.65a.34.34,0,0,0-.17-.35.36.36,0,0,0-.33-.06l-1.1.62c-.36.19-.73.41-1.11.64-.06,1.55-.17,3-.34,4.27a27.37,27.37,0,0,1-.51,2.94,6,6,0,0,1-.61,1.66c-.22.34-.43.48-.61.42s-.35-.32-.46-.79a8.41,8.41,0,0,1-.17-2c0-.13,0-.38,0-.76s0-.81,0-1.3,0-1,.05-1.51,0-1,.06-1.37l-.88.53c-.27.17-.55.36-.85.57-.08,1.22-.11,2.31-.08,3.29a9.48,9.48,0,0,0,.21,2,5.31,5.31,0,0,0,.42,1.18,1.87,1.87,0,0,0,.62.71,2.81,2.81,0,0,0,.91.39,11.41,11.41,0,0,0,1.35.27,11.93,11.93,0,0,0,2.48.2,15.35,15.35,0,0,0,3.16-.45,8.44,8.44,0,0,0,1.31-.4,2.43,2.43,0,0,0,1-.77,4.66,4.66,0,0,0,.76-1.45,15.53,15.53,0,0,0,.56-2.39,6.63,6.63,0,0,1,.32-1.37c.12-.32.25-.5.38-.52s.24.13.34.46a7.16,7.16,0,0,1,.25,1.56c.05.61.1,1.12.16,1.52a8.22,8.22,0,0,0,.21,1,2.81,2.81,0,0,0,.25.7A2.2,2.2,0,0,0,99.55,99.51Z"/><path class="cls-1" d="M117.9,95.32c.15.17.12.36-.09.56s-.62.54-1.23,1q-1.76,1.32-2.82,2.16c-.7.55-1.26,1-1.67,1.35s-.7.62-.89.82a5.15,5.15,0,0,0-.47.55,2,2,0,0,1-.54.52,1,1,0,0,1-.63.14,2.25,2.25,0,0,1-.83-.28,11.76,11.76,0,0,1-1.19-.73c-1-.65-1.39-1.12-1.27-1.41s.73-.57,1.84-.82a14.58,14.58,0,0,0,1.51-.43,15.75,15.75,0,0,0,1.92-.8l0-5.86c-.3,0-.55.08-.76.1a4,4,0,0,1-.6,0,3.3,3.3,0,0,1-.6-.08L108.9,92c-.67-.17-1-.36-1-.59s.43-.4,1.23-.55c.36-.06.75-.15,1.17-.26s.84-.25,1.26-.4c0-1,0-2,0-2.71s-.08-1.4-.14-1.93a7.91,7.91,0,0,0-.27-1.33,3.29,3.29,0,0,0-.43-.86,6.16,6.16,0,0,1-.8-1.24c-.14-.33-.12-.56,0-.7a1.37,1.37,0,0,1,1-.09,12.44,12.44,0,0,1,2,.55c.63.21,1.13.39,1.49.55a1.82,1.82,0,0,1,.76.52.78.78,0,0,1,.13.65,4.49,4.49,0,0,1-.37.92,5.14,5.14,0,0,0-.39,1.45c-.09.65-.17,1.63-.24,2.93a2.47,2.47,0,0,1,.74-.16,2,2,0,0,1,.56.07q2.9.81.18,2l-.8.32-.74.28-.06,5.26a21.71,21.71,0,0,1,2.74-1.18C117.5,95.29,117.82,95.24,117.9,95.32Zm15.15,5.11c1.11.94,1.55,1.61,1.32,2s-1.17.44-2.83.17c-.48-.09-1-.15-1.61-.21s-1.19-.08-1.82-.09h-1.92c-.65,0-1.27,0-1.86.08-1.7.12-3.09.26-4.16.41a23.08,23.08,0,0,0-2.61.47,10.29,10.29,0,0,1-1,.22,3.48,3.48,0,0,1-.78,0,2.54,2.54,0,0,1-.71-.17c-.23-.1-.49-.23-.79-.39-1-.57-1.43-.94-1.4-1.12s.58-.29,1.65-.33l1.63-.11c.74-.06,1.62-.13,2.62-.24,0-2.08.07-3.76.07-5.05s0-2.32-.07-3.09a10.28,10.28,0,0,0-.2-1.72,3.13,3.13,0,0,0-.39-.94c-.63-.95-.84-1.56-.62-1.84s1.06-.11,2.51.52c.52.23.93.42,1.22.58a1.42,1.42,0,0,1,.6.5.88.88,0,0,1,.08.65,5,5,0,0,1-.33,1,3.38,3.38,0,0,0-.2.74,11,11,0,0,0-.13,1.42c0,.64-.05,1.52-.06,2.63s0,2.58,0,4.41c.48,0,1-.09,1.43-.16l1.43-.16c0-2-.06-3.9-.07-5.6s0-3.18,0-4.44c0-1.7,0-3.09,0-4.17s-.08-2-.15-2.62a6.38,6.38,0,0,0-.33-1.52,4.35,4.35,0,0,0-.54-1,4.73,4.73,0,0,1-.66-1c-.13-.28-.13-.49,0-.63s.37-.19.76-.17a6.91,6.91,0,0,1,1.65.37c.9.3,1.6.54,2.08.74a2.82,2.82,0,0,1,1,.6.69.69,0,0,1,.17.68,5,5,0,0,1-.37,1,5.62,5.62,0,0,0-.33.93,7,7,0,0,0-.21,1.37c0,.57-.07,1.29-.09,2.18s0,2,0,3.33c.69-.31,1.26-.55,1.7-.72a5,5,0,0,1,1.1-.31,2.08,2.08,0,0,1,.79,0,4,4,0,0,1,.78.27c.91.38,1.33.75,1.28,1.12s-.48.64-1.28.83a24.11,24.11,0,0,1-2.45.47,7.15,7.15,0,0,1-2,0q0,.6,0,1.23c0,.36,0,.78,0,1.26s0,1,0,1.45c0,1.15,0,2.48,0,4L128,100a7.21,7.21,0,0,0,1-.24c.46-.12.87-.22,1.21-.28a2.7,2.7,0,0,1,1,0,2.65,2.65,0,0,1,.88.31A6.14,6.14,0,0,1,133.05,100.43Z"/><path class="cls-1" d="M33.66,118.49c0-.8-.45-3-.44-3.46s.3-.65.74-.65.72.23.71.65-.44,2.66-.48,3.46Zm2.51,0c0-.8-.45-3-.44-3.45a.64.64,0,0,1,.72-.66c.49,0,.74.23.73.65s-.46,2.66-.5,3.46Zm5.72,1.27c.13,0,1.81,0,2-.07.45-.08.58-.2.73-.69a4.5,4.5,0,0,0,.13-.76.1.1,0,0,1,.11-.11l.39,0a.09.09,0,0,1,.09.12c-.05.27-.06,1.55-.06,1.79,0,.55,0,1.3.08,1.63a.12.12,0,0,1-.09.13l-.35,0c-.08,0-.11,0-.12-.14s-.13-.57-.17-.74a.74.74,0,0,0-.67-.62c-.74-.08-1.82-.09-2.07-.09v1c0,.85,0,2.37,0,2.68,0,.82.4,1.13.88,1.23a5.91,5.91,0,0,0,1.16.12c.27,0,1,0,1.38,0a3,3,0,0,0,1.37-.54,14.45,14.45,0,0,0,1.3-1.64c.05-.07.1-.14.19-.09l.25.15c.08,0,.08.09,0,.22l-.85,2.29a.34.34,0,0,1-.35.24l-1.36,0L41,125.78H39.65l-.68,0c-.09,0-.14,0-.14-.11v-.42c0-.06.05-.08.16-.08h.63c.72,0,.78-.11.79-.69l.05-5.25c0-1.3,0-3.26,0-3.42-.06-.5-.22-.61-.8-.62h-.56c-.08,0-.13,0-.13-.12v-.42s0-.08.11-.08c.34,0,.89.06,1.93.07h.69c1.55,0,3.1,0,4.66,0,.25,0,.55,0,.62,0a.13.13,0,0,1,.13.08l.78,2.53c0,.07,0,.11-.05.15l-.24.12s-.11,0-.12,0a12.76,12.76,0,0,0-1.56-1.8,2.42,2.42,0,0,0-1.18-.44l-2.8-.08Zm8.13-.22c0-.1,0-.11.14-.11l4.39,0c.13,0,.18,0,.18.17v.6c0,.09-.06.11-.19.1l-4.38,0c-.11,0-.14,0-.14-.08Zm13.35,3.91c.22-.23,1.82-4,1.95-4.17s1.85-3.89,1.9-4.21.21-.18.36-.18c2.09,0,2.62,0,2.79,0s.1,0,.1.11v.36c0,.09,0,.14-.12.14h-.69c-.47,0-.52.28-.53.64s-.07,2.7-.08,3.75V121c0,.78,0,3.32,0,3.64,0,.59.13.85.53.85h.92c.1,0,.11,0,.11.11V126c0,.09,0,.14-.14.14s-.48,0-2.2-.07c-1.44,0-2.06,0-2.26,0s-.12,0-.12-.14v-.36c0-.08,0-.11.13-.11h1.06c.27,0,.41-.09.45-.56,0-.19,0-2.92.06-4.08v-1c0-1,0-3.82,0-4h0c-.16.2-2.43,5.12-2.51,5.28s-1.87,4.17-1.94,4.31-.19.37-.31.37-.17-.13-.24-.28l-2.08-5.28c-.3-.72-1.69-4.25-1.91-4.44-.06.22-.13,4.19-.13,4.38s0,3.5,0,4c.07.89.21,1.14.72,1.15h.78c.09,0,.11.05.11.12v.39c0,.06,0,.11-.14.11s-.59-.06-1.89-.07-1.89,0-2,0-.14,0-.14-.14v-.38s0-.09.1-.09h.83c.6,0,.74-.4.84-.94.2-1.11.28-5.12.28-5.41s0-2.58,0-3,0-.58-.63-.59h-1c-.09,0-.11,0-.11-.12v-.4s0-.1.11-.1.58.06,1.92.07c.74,0,1.14,0,1.33,0a.36.36,0,0,1,.41.27Zm11.41-1.75c-.16.39-1,2.77-1.12,3.09a2.67,2.67,0,0,0,0,.35c0,.22.18.35.53.35h.74c.1,0,.15,0,.15.11V126c0,.11,0,.14-.13.14s-.86-.06-1.79-.07c-1.14,0-1.49,0-1.71,0s-.11,0-.11-.13v-.38a.11.11,0,0,1,.12-.11H72c.47,0,.7-.21.92-.71.11-.25,1.28-3.15,1.75-4.43.11-.31,1.41-3.67,1.56-4.09a.72.72,0,0,0,0-.54.4.4,0,0,1-.11-.2s0-.11.14-.14a3.19,3.19,0,0,0,1.31-.78c.08-.07.13-.14.2-.13s.13.09.17.26c.29,1,1.49,4.52,1.78,5.53.35,1.22,1.34,4.15,1.56,4.61a1.15,1.15,0,0,0,1.06.71h.51c.1,0,.13,0,.13.12v.39c0,.08,0,.11-.15.11-.29,0-.61-.06-1.89-.07s-1.85,0-2.21,0c-.08,0-.12,0-.12-.14v-.36c0-.1,0-.11.14-.11h.4c.44,0,.58-.15.47-.59s-.74-2.58-1-3.21Zm3.68-.53c-.14-.48-1.38-4.41-1.45-4.65s-.08-.22-.12-.22-.13.11-.18.24-1.61,4.2-1.72,4.6Zm7-1.59c0-.38,0-3.2,0-3.44s-.18-.53-.78-.54h-.91c-.08,0-.12,0-.12-.1v-.42a.1.1,0,0,1,.11-.1c.19,0,1,.06,2.45.07s1.9,0,2.12,0a.1.1,0,0,1,.11.11v.4a.1.1,0,0,1-.12.1h-.74c-.32,0-.55.12-.55.43,0,.16-.08,3.63-.08,3.81l0,1.21c0,.16,0,3.78,0,4,0,.48.23.56.73.57h.64c.08,0,.13,0,.13.11v.41c0,.06,0,.09-.14.09s-.81,0-2.18-.06-2.16,0-2.34,0-.12,0-.12-.09v-.42c0-.07,0-.1.13-.1h.88c.31,0,.64,0,.71-.45,0-.23.11-3.62.12-4.45Zm6.2-.4c0-1,0-2.67,0-3s-.1-.57-.57-.57H90.3c-.1,0-.11-.08-.11-.16v-.34c0-.08,0-.11.11-.11s.74,0,2,.06c1.52,0,2.18,0,2.32,0s.14.05.14.13v.36c0,.07,0,.12-.16.12H93.7c-.48,0-.55.15-.55.61,0,.2-.07,2.57-.08,3.67v1.35c0,.27,0,3.65,0,4.3.34,0,3.45.09,3.93,0,.93-.13,1.89-2,2.11-2.62,0-.06.07-.09.13-.06l.25.1c.05,0,.05,0,0,.14s-.7,2.69-.8,3.12c-.2,0-1.42,0-2.82-.06s-2.93,0-3.78,0c-.61,0-1.07,0-1.4,0l-.61,0c-.11,0-.12,0-.12-.11v-.39c0-.08,0-.11.11-.11h.75c.58,0,.68-.21.68-.41s.09-4.21.09-5.16Zm9.7-.12c0-.8-.45-3-.44-3.46s.3-.65.74-.65.72.23.71.65-.44,2.66-.48,3.46Zm2.51,0c0-.8-.45-3-.45-3.45a.65.65,0,0,1,.73-.66c.49,0,.74.23.73.65s-.46,2.67-.5,3.47Z"/><path class="cls-3" d="M172.06,85.76a2.27,2.27,0,0,0-1.47.49,34.91,34.91,0,0,0-3.34,3.61c-.08.13-.21.21-.32.16l-.44-.24c-.08,0-.11-.1-.08-.23l1.65-4.66a.36.36,0,0,1,.36-.28,4.28,4.28,0,0,1,.6,0c1.23.16,4.92.16,7.09.16,1.59,0,2.95-.06,3.94-.08s1.73-.08,1.91-.08c.42,0,.6.34.37.63s-11.66,16.28-12.18,17h6.3a4.31,4.31,0,0,0,1.93-.29,24.71,24.71,0,0,0,3.69-3.48.29.29,0,0,1,.34-.08l.44.24c.08,0,.13.1.05.23-.36.61-1.62,3.82-2,4.53a.45.45,0,0,1-.34.26,6.24,6.24,0,0,1-.66-.08c-1.43-.18-5.59-.29-7.94-.29h-6.12c-.21,0-.5,0-.5-.21a1,1,0,0,1,.14-.52c1.07-1.65,11.81-16.52,12-16.83Z"/><path class="cls-3" d="M186.25,93c0-1.62-.05-5.15-.05-5.51,0-1.33-.19-1.7-.89-1.7h-1.07c-.29,0-.32-.11-.32-.26v-.5c0-.16,0-.31.29-.31.44,0,1.28.08,3.89.08s3.51-.08,4-.08c.29,0,.32.08.32.28v.55c0,.16,0,.24-.32.24h-.63c-.94,0-1.07.44-1.15,1.44,0,.36-.15,3.81-.15,5.28v.39c0,.13.08.21.42.21h7.81c.39,0,.52,0,.52-.34v-.26c0-1.49-.18-5.13-.18-5.39,0-.83-.13-1.33-.6-1.33H197c-.24,0-.26-.08-.26-.26V85c0-.15,0-.23.23-.23.47,0,1.6.08,3.82.08s3.27-.08,3.61-.08.33.08.33.28v.5c0,.18,0,.29-.33.29h-.79c-.76,0-.84.44-.84,1.33,0,.37,0,4.79,0,5.75v.89c0,.84,0,5.8.08,7.24,0,.94.26,1.31,1.05,1.31h.88c.21,0,.24.08.24.23v.58c0,.13,0,.26-.29.26-.42,0-1.3-.08-3.66-.08-2.66,0-3.5.08-4.1.08-.29,0-.34-.13-.34-.26v-.58c0-.15,0-.23.29-.23H198c.63,0,.7-.5.73-1.15,0-1.23.1-5.44.1-6.28v-.31c0-.29-.26-.31-.57-.31h-7.82c-.28,0-.36.08-.36.31V95c0,.66.1,4.68.18,6.46,0,.63.29.89.86.89h.74c.2,0,.23,0,.23.21v.62c0,.16,0,.24-.23.24-.48,0-1.39-.08-3.59-.08-2.77,0-3.55.08-4.07.08-.24,0-.26-.08-.26-.29v-.55c0-.18,0-.23.26-.23h1.2c.65,0,.73-.63.73-1.2,0-1.23.08-6.3.08-7Z"/><path class="cls-3" d="M211,102a9.11,9.11,0,0,1-3.84-7.76,10.12,10.12,0,0,1,2.43-6.51,9.31,9.31,0,0,1,7.6-3.32,9.42,9.42,0,0,1,6.38,2.07,9.7,9.7,0,0,1,3.58,7.81,9.54,9.54,0,0,1-2,5.73c-1.7,2.12-3.92,3.68-8.05,3.68A11.69,11.69,0,0,1,211,102Zm12.05-7.5c0-5.72-3.77-8.86-6-8.86a4.29,4.29,0,0,0-3.43,1.41,9.41,9.41,0,0,0-2.32,6.36c0,6.69,3.84,9.06,6,9.06C222.22,102.48,223.08,96.66,223.08,94.51Z"/><path class="cls-3" d="M245.71,95.72c0-2.33,0-3.61-.07-4.92,0-1-.16-3.58-.24-4a1.4,1.4,0,0,0-1.38-1h-.84c-.13,0-.16-.08-.16-.24v-.65c0-.13,0-.18.24-.18s1.12.08,3.06.08c1.56,0,2.19-.08,2.48-.08s.26.05.26.21v.62c0,.13,0,.24-.13.24h-.73c-.45,0-.71.44-.79,1.38-.18,1.76-.6,7.66-.6,11.11v4.47c0,.39,0,.87-.39.87a1.42,1.42,0,0,1-1-.42c-.44-.42-1.72-1.81-3.29-3.66l-4.47-5.31c-.45-.52-4-5-4.66-5.88h-.2v5.28c0,2.17.23,5.38.26,6.38.05,1.51.52,2.3,1.62,2.3h.65c.18,0,.21.08.21.23v.63c0,.16,0,.21-.21.21s-1.83-.08-3.06-.08c-.81,0-2.61.08-2.87.08-.11,0-.13-.05-.13-.24v-.68a.13.13,0,0,1,.15-.15h.92c.57,0,1-.84,1.12-2.59,0-.5.24-4.68.24-8.55V88.84c0-1.54-.94-3-2.25-3l-.65,0c-.13,0-.16-.1-.16-.18v-.71c0-.1,0-.15.16-.15s.34,0,.83,0,1.36.06,2.72.06c.89,0,1.67-.06,2-.06a.93.93,0,0,1,.76.34l6.06,7.43,4.47,5.56h.1Z"/><path class="cls-3" d="M269,100.79c0,.36.1.62.1.83s-.15.32-.42.42a15.8,15.8,0,0,1-7.65,1.67c-2.72,0-5.78-.86-7.58-3A10.12,10.12,0,0,1,251,93.55a9,9,0,0,1,3-6.57,10.66,10.66,0,0,1,7.4-2.56,10.92,10.92,0,0,1,5.46,1.28c.32.19.5.14.66-.07l.26-.42c.13-.19.18-.26.34-.26s.36.18.36.47l.4,5.38c0,.31,0,.45-.11.47l-.73.16c-.16,0-.24,0-.31-.26a9.9,9.9,0,0,0-2.38-4,5.82,5.82,0,0,0-4.13-1.62,4.76,4.76,0,0,0-3.95,2,9.52,9.52,0,0,0-2.09,6c0,3.09.86,5.78,2.27,7.19a5,5,0,0,0,4,1.78,6.19,6.19,0,0,0,3-.52c.55-.26.6-1.1.6-2.46V97.6c0-.94-.26-1.21-.92-1.21H263c-.15,0-.18-.1-.18-.23v-.65c0-.11,0-.19.18-.19s1.52.08,3.87.08,3.37-.08,3.58-.08.24.08.24.21v.66c0,.15,0,.2-.18.2h-.76c-.47,0-.81.19-.81,1Z"/><path class="cls-3" d="M288.06,88.89c.21,0,.24.21.13.45-.21.47-1.18,3.19-1.57,4.36a16.19,16.19,0,0,0-.76,3.35.54.54,0,0,0,.55.52c1,0,3.43-2,3.43-6.46,0-3.84-2.12-5.61-5.65-5.61-5.33,0-9.51,5.46-9.51,10.53,0,4.21,2.85,6.51,6.58,6.48a10.25,10.25,0,0,0,4.73-.89c.14-.05.19-.08.24,0l.26.5a.23.23,0,0,1-.1.31,11.45,11.45,0,0,1-5.52,1.28c-5.75,0-8.83-3-8.83-7.32,0-6.19,5.93-12,12.44-12,5.17,0,7.76,2.72,7.76,7a7.68,7.68,0,0,1-8,7.32c-.68,0-1.15-.42-1.15-.86a8.9,8.9,0,0,1,.65-2.72l-.13,0c-.83,1.2-2.45,3.63-4.89,3.63A1.56,1.56,0,0,1,277.11,97c0-3.27,4.08-8.34,7.11-8.34a1.23,1.23,0,0,1,1.33.91l.34-.49c.1-.16.16-.19.26-.19Zm-4.18.68c-1.91,0-3.69,4.89-3.69,6.59,0,.55.21.86.66.86.73,0,2.95-3.29,3.34-4.21a5.59,5.59,0,0,0,.52-2C284.71,90.12,284.45,89.57,283.88,89.57Z"/><path class="cls-3" d="M296.82,101.31a9.88,9.88,0,0,1-2.85-7,10.08,10.08,0,0,1,2.69-7.08,9,9,0,0,1,6.9-2.83,11.86,11.86,0,0,1,5.25,1.1c.37.18.5.16.55,0l.21-.66c.05-.16.11-.16.5-.16s.44.06.44.42.47,4.94.6,5.73c0,.18,0,.31-.13.34l-.57.15c-.13.06-.24,0-.32-.28A8.44,8.44,0,0,0,308,87.53a6.19,6.19,0,0,0-4.49-2c-3.82,0-5.44,3.48-5.41,7.35,0,1.65.47,4.86,2.32,6.82a5.49,5.49,0,0,0,4.08,2,7.43,7.43,0,0,0,6.17-2.8c.13-.21.26-.31.39-.21l.45.4c.07,0,.1.15,0,.31a9.32,9.32,0,0,1-7.74,4.31C300.29,103.71,298.46,102.77,296.82,101.31Z"/><path class="cls-3" d="M316,101.31a9.92,9.92,0,0,1-2.85-7,10.08,10.08,0,0,1,2.69-7.08,9,9,0,0,1,6.9-2.83,12,12,0,0,1,5.26,1.1c.36.18.49.16.55,0l.21-.66c.05-.16.1-.16.49-.16s.45.06.45.42.47,4.94.6,5.73c0,.18,0,.31-.13.34l-.58.15c-.13.06-.23,0-.31-.28a8.66,8.66,0,0,0-2.09-3.51,6.22,6.22,0,0,0-4.5-2c-3.81,0-5.44,3.48-5.41,7.35,0,1.65.47,4.86,2.33,6.82a5.49,5.49,0,0,0,4.08,2,7.41,7.41,0,0,0,6.16-2.8c.13-.21.26-.31.4-.21l.44.4c.08,0,.1.15,0,.31a9.31,9.31,0,0,1-7.74,4.31C319.43,103.71,317.6,102.77,316,101.31Z"/><path class="cls-3" d="M336.29,96.16a31.57,31.57,0,0,0-1.49,5c0,.57.23,1.2,1,1.2h.91c.26,0,.29.1.29.21v.57c0,.21,0,.29-.24.29s-1.41-.08-3.55-.08c-1.91,0-2.49.08-2.85.08-.16,0-.18-.16-.18-.34v-.5c0-.15,0-.23.18-.23h.68a2.22,2.22,0,0,0,1.78-1.15c.36-.55,2.22-5.1,3.08-7.4.21-.52,2.33-6.14,2.56-6.85a1.06,1.06,0,0,0,0-.89.69.69,0,0,1-.19-.34c0-.07.06-.18.27-.23a8,8,0,0,0,2.92-1.31c.13-.13.21-.23.34-.23s.21.15.29.44c.5,1.65,2.54,7.5,3,9.18.6,2,2.3,6.9,2.67,7.6a1.93,1.93,0,0,0,1.51,1.18h.89c.16,0,.19.1.19.23v.5c0,.16,0,.34-.24.34-.5,0-1-.08-4.39-.08-2.17,0-3.08.08-3.61.08-.26,0-.28-.16-.28-.34v-.5c0-.13,0-.23.15-.23h.73c.71,0,.94-.26.79-.94-.24-.94-1.26-4.29-1.57-5.23Zm5.48-1-2-6.92c-.1-.39-.15-.58-.28-.58s-.24.11-.32.34-2.38,6.51-2.58,7.16Z"/><path class="cls-3" d="M351.73,101.62a2,2,0,0,1,2.12-2,2,2,0,0,1,2,2.09,1.9,1.9,0,0,1-2,2A2.05,2.05,0,0,1,351.73,101.62Z"/><path class="cls-3" d="M364.62,93.31a17,17,0,0,0,2.67-.16,2.14,2.14,0,0,0,1.2-.81,3.27,3.27,0,0,0,.6-1.62c0-.18.08-.23.21-.23l.7.08c.14,0,.24.05.21.21-.07.44-.07,1.8-.07,2.71,0,1.18.1,2.43.15,3,0,.16-.08.19-.21.21l-.62.13c-.11,0-.16,0-.21-.21a8.19,8.19,0,0,0-.53-1.33,2,2,0,0,0-1.43-.91,17.29,17.29,0,0,0-2.67-.16v1.57c0,1.41.13,3.94.13,4.41,0,1.36.29,1.83.63,2a5.75,5.75,0,0,0,2.19.24c.45,0,1.55,0,2.1-.08a4,4,0,0,0,2-.86,29.21,29.21,0,0,0,2.67-2.8c.1-.11.18-.13.26-.08l.44.26a.17.17,0,0,1,.11.21L374,103a.56.56,0,0,1-.57.39c-.13,0-.71,0-2.38-.05s-4.47,0-9,0c-1,0-1.7,0-2.23,0s-.88.05-1.12.05-.23-.08-.23-.29v-.55c0-.15.07-.23.26-.23h.78c1.2,0,1.31-.18,1.31-1.1V92.47c0-2.16,0-5.38-.08-5.64-.1-.84-.37-1-1.07-1h-1c-.11,0-.13-.08-.13-.26v-.63c0-.08,0-.18.18-.18.58,0,1.49.08,3.87.08l9.17,0c.42,0,.92-.05,1.05-.05a.19.19,0,0,1,.21.13c.1.36,1,3.94,1.07,4.21s.05.18-.08.26l-.42.21a.24.24,0,0,1-.31-.11,28.81,28.81,0,0,0-3.08-2.93,4.52,4.52,0,0,0-2-.7l-3.45-.11Z"/><path class="cls-3" d="M378.42,91.32c0-.68-.08-4.39-.13-4.78-.08-.63-.42-.73-.86-.73h-1.31c-.13,0-.21,0-.21-.18v-.76c0-.11.08-.13.18-.13.34,0,1.49.08,4.11.08.68,0,3.29-.08,3.89-.08,3.56,0,6.38.31,8.86,2.38a8.24,8.24,0,0,1,2.93,6.64,9.28,9.28,0,0,1-2.59,6.87c-2.53,2.74-7,2.77-8.65,2.77-.42,0-3.5-.08-4.94-.08-2.27,0-3.32.08-3.68.08-.13,0-.19-.05-.19-.24v-.68c0-.1.08-.15.21-.15h1.36c.5,0,.79-.21.84-.63s.18-6.43.18-8.42Zm3.92,2.54c0,.34,0,4.78.05,6.4a2.33,2.33,0,0,0,.45,1.44c.31.47,1.2.63,2.09.63a6.36,6.36,0,0,0,4.89-2.56,10.15,10.15,0,0,0,1.85-6,8.94,8.94,0,0,0-2.11-5.7,7.76,7.76,0,0,0-5.21-2.38,3,3,0,0,0-1.46.21c-.39.18-.5.6-.52,1.12,0,1.1,0,4.53,0,4.94Z"/><path class="cls-3" d="M399.78,87.14c0-.91-.19-1.33-.74-1.33h-1.22c-.16,0-.19,0-.19-.24V85c0-.16,0-.21.24-.21s1.54.08,4.28.08c2.3,0,3.56-.08,3.85-.08s.23.05.23.21v.68c0,.13,0,.18-.21.18h-.89a1.23,1.23,0,0,0-1.38,1c0,.29-.05,2.06-.05,3.4V92c0,1.39.1,4.71.13,5.54a5.39,5.39,0,0,0,.83,3.11,4.16,4.16,0,0,0,3.27,1.47,5.31,5.31,0,0,0,3.09-1.15,5.52,5.52,0,0,0,1.64-4.26v-4A51.36,51.36,0,0,0,412.3,87c-.11-.68-.53-1.15-1-1.15h-.84c-.15,0-.18-.08-.18-.21v-.68c0-.13,0-.18.18-.18s1.47.08,3.24.08c1.42,0,2.25-.08,2.49-.08s.26.1.26.23v.58c0,.15,0,.26-.16.26h-.81a1,1,0,0,0-1.12,1c-.05.37-.05,4-.05,4.34s-.06,4.94-.14,6a7,7,0,0,1-2.22,5,7.19,7.19,0,0,1-4.62,1.62,11.34,11.34,0,0,1-4-.65,6,6,0,0,1-3-3.45c-.44-1.12-.54-2.88-.54-6.3Z"/><path class="cls-1" d="M12.07,161.51a8.44,8.44,0,0,0-.83.85,6.11,6.11,0,0,0-.68.95c-.44.82-.88,1.58-1.31,2.28S8.4,167,8,167.56a2.41,2.41,0,0,1,1,1.23,3.64,3.64,0,0,1-.13,1.57c0,.13-.05.41-.08.84s-.06.94-.08,1.54,0,1.23,0,1.9,0,1.32,0,1.93,0,1.15,0,1.63,0,.83,0,1c0,.61,0,1.1,0,1.48s-.05.7-.08.95-.07.46-.1.64a5.36,5.36,0,0,1-.14.58q-.4,1.52-1,1.53c-.43,0-1-.49-1.66-1.49a3.14,3.14,0,0,1-.5-1.59,6.35,6.35,0,0,1,.6-2.41,7.68,7.68,0,0,0,.47-2.62c0-1.09.06-2.33.06-3.71v-1.53c0-.43,0-.82,0-1.18a16.3,16.3,0,0,1-2.16,2,14.37,14.37,0,0,1-2.15,1.37Q.13,174.15,0,174c-.08-.1.33-.64,1.23-1.6A33.11,33.11,0,0,0,4,169a36.68,36.68,0,0,0,2.29-3.62,20.59,20.59,0,0,0,1.49-3.36,4.8,4.8,0,0,0,.3-2.53,4.72,4.72,0,0,1-.17-1.24c0-.31.11-.48.3-.52a1.59,1.59,0,0,1,.91.22,17.64,17.64,0,0,1,1.73.94,4.2,4.2,0,0,1,1.69,1.47A.94.94,0,0,1,12.07,161.51Zm16.09,17.2a3.06,3.06,0,0,1,.71.91.79.79,0,0,1,0,.76,1.15,1.15,0,0,1-.84.42,6,6,0,0,1-1.84-.08,15.86,15.86,0,0,0-1.78-.17c-.68,0-1.39-.05-2.11-.06s-1.45,0-2.17,0-1.38.07-2,.11c-1.37.1-2.49.22-3.37.36a19.81,19.81,0,0,0-2.49.55c-.35.11-.64.18-.86.24a1.65,1.65,0,0,1-.62,0,2,2,0,0,1-.6-.22c-.21-.12-.48-.29-.81-.52q-.86-.57-.63-.9t1.32-.36c.36,0,1.12-.1,2.3-.22s2.52-.29,4-.51l.06-5.07c-.61.09-1.1.15-1.46.19a7,7,0,0,1-.93.07,2.28,2.28,0,0,1-.63-.07l-.54-.15c-1-.34-1.44-.62-1.37-.84s.62-.4,1.62-.55c.55-.08,1.14-.18,1.78-.3s1.17-.22,1.59-.33v-1.64c0-.46,0-.86,0-1.21a5.39,5.39,0,0,0-.15-.91,4.32,4.32,0,0,0-.25-.77c-.8.12-1.45.21-1.95.26s-.92.09-1.24.1a3.27,3.27,0,0,1-.77-.05,3.08,3.08,0,0,1-.54-.16c-.88-.35-1.29-.63-1.21-.83s.6-.36,1.59-.49c.54-.06,1.17-.16,1.87-.28s1.41-.26,2.11-.41,1.39-.3,2.06-.47,1.25-.34,1.74-.51c.77-.27,1.42-.48,1.93-.63a8.8,8.8,0,0,1,1.34-.27,2.84,2.84,0,0,1,1.06.1,6.6,6.6,0,0,1,1.11.46c.65.35.95.71.9,1.07s-.42.6-1.12.72l-2.56.43-3.67.58a8.78,8.78,0,0,1,1,.61,1.35,1.35,0,0,1,.45.54.82.82,0,0,1,.05.53,2.11,2.11,0,0,1-.22.55,3.34,3.34,0,0,0-.3.76,6.87,6.87,0,0,0-.17,1.07,13.63,13.63,0,0,1,1.43-.31,4.92,4.92,0,0,1,1-.08,2.72,2.72,0,0,1,.8.14,4.35,4.35,0,0,1,.73.35c.54.29.75.63.63,1s-.53.62-1.2.73l-1.48.23-2.05.3-.16,5.1,2.11-.33q1.11-.17,1.86-.33c.63-.12,1.18-.22,1.64-.28a4.73,4.73,0,0,1,1.24,0,3.23,3.23,0,0,1,1,.32A4.07,4.07,0,0,1,28.16,178.71ZM20.67,162a2,2,0,0,1-.22.93,1.54,1.54,0,0,1-.57.59,1.2,1.2,0,0,1-.77.16,1.52,1.52,0,0,1-.84-.42,12.77,12.77,0,0,1-1.37-1.42c-.36-.46-.78-1-1.24-1.7s-.56-1-.42-1.15.57-.18,1.3-.08c.9.15,1.63.29,2.19.44a3.86,3.86,0,0,1,1.28.55,1.45,1.45,0,0,1,.56.84A4.28,4.28,0,0,1,20.67,162Z"/><path class="cls-1" d="M62.71,179a1.52,1.52,0,0,1,.34,1.64,4,4,0,0,1-2.11,1.57c-.44.19-.92.37-1.43.54a12.42,12.42,0,0,1-1.72.41c-.63.1-1.34.19-2.12.25s-1.67.08-2.63.06a11.14,11.14,0,0,1-4.9-.94,3.71,3.71,0,0,1-2-2.68,21.77,21.77,0,0,1-.27-2.22c0-.81-.06-1.68,0-2.63l-2.33.51c-.68.14-1.13.25-1.36.31-.56.17-1,.3-1.37.38a3.42,3.42,0,0,1-.89.11,2.26,2.26,0,0,1-.76-.17c-.25-.11-.58-.27-1-.48q-.91-.47-.66-.75a1.68,1.68,0,0,1,1.1-.35c.74-.06,1.77-.21,3.11-.45s2.73-.54,4.2-.9a15.91,15.91,0,0,0,0-2.25,4,4,0,0,0-.33-1.34q-.66.15-1.38.27a10.22,10.22,0,0,1-1.45.11c-1.39,0-2.09-.14-2.13-.41s.57-.55,1.78-.82a18.14,18.14,0,0,0,2.3-.71,23.12,23.12,0,0,0,2.22-1,16.56,16.56,0,0,0,1.75-1,2.71,2.71,0,0,0,.88-.81,8.32,8.32,0,0,1,.44-.77.62.62,0,0,1,.49-.28,1.57,1.57,0,0,1,.76.22c.3.16.71.39,1.24.71a7.38,7.38,0,0,1,1.48,1.1,1.09,1.09,0,0,1,.39.8c0,.22-.21.4-.55.52a4.62,4.62,0,0,1-1.32.25,16.69,16.69,0,0,0-2,.35,28,28,0,0,0-2.75.79c.52.17.92.31,1.21.42a1.17,1.17,0,0,1,.56.4.48.48,0,0,1,0,.48,3.37,3.37,0,0,1-.4.65,1.69,1.69,0,0,0-.31.63,5.28,5.28,0,0,0-.16.95c.71-.19,1.39-.39,2-.59s1.19-.39,1.7-.58,1-.37,1.38-.49a3.79,3.79,0,0,1,1-.19,2.27,2.27,0,0,1,.78.11,5.93,5.93,0,0,1,.85.38,3.71,3.71,0,0,1,1,.73c.21.23.24.44.08.63a2.37,2.37,0,0,1-1.06.52,20.51,20.51,0,0,1-2.36.45c-.63.09-1.43.21-2.39.38s-2,.37-3.05.6a14.15,14.15,0,0,0,0,2.25,10.13,10.13,0,0,0,.22,1.65,2.43,2.43,0,0,0,.28.8,1.23,1.23,0,0,0,.58.52,3.88,3.88,0,0,0,1.07.29,14.12,14.12,0,0,0,1.78.09,18.86,18.86,0,0,0,2.81-.23,13.46,13.46,0,0,0,2.83-.78,3.68,3.68,0,0,0,.76-.4,2.8,2.8,0,0,0,.64-.71,6.07,6.07,0,0,0,.55-1.14,9.6,9.6,0,0,0,.44-1.68c.34-1.64.66-2.41,1-2.32s.48.94.52,2.54a18.08,18.08,0,0,0,.21,2.46A2.38,2.38,0,0,0,62.71,179Zm-1.2-17.41a5.25,5.25,0,0,1,1.16,1.26,1.28,1.28,0,0,1,.24.88.76.76,0,0,1-.54.52,3.53,3.53,0,0,1-1.14.2,10.39,10.39,0,0,0-2.08.34,15.19,15.19,0,0,0-2.21.8c-.67.29-1.09.37-1.26.23s0-.6.51-1.4c.29-.46.51-.82.64-1.07a1.35,1.35,0,0,0,.21-.56q0-.19-.21-.21a4.75,4.75,0,0,0-.61,0c-.65,0-1.41.1-2.27.19l-2.63.26c-.89.1-1.76.2-2.61.32s-1.59.23-2.22.36-1.06.19-1.48.25a10.27,10.27,0,0,1-1.12.11,6.09,6.09,0,0,1-.88,0,3,3,0,0,1-.77-.2,12.26,12.26,0,0,1-.63,1.85,9.87,9.87,0,0,1-.85,1.58,3.27,3.27,0,0,1-.79.82,1.22,1.22,0,0,1-.79.26.89.89,0,0,1-.66-.36,2.3,2.3,0,0,1-.41-1,4.42,4.42,0,0,1-.06-1.63,2.13,2.13,0,0,1,.72-1.11,4.39,4.39,0,0,0,.95-1.05,7.22,7.22,0,0,0,.66-1.5,2.16,2.16,0,0,1,.28-.55A.36.36,0,0,1,41,161a1,1,0,0,1,.48.41,6.35,6.35,0,0,1,.61,1.15c.55,0,1.18-.06,1.91-.12s1.57-.17,2.53-.3l3.34-.51c1.26-.19,2.7-.44,4.31-.74a13,13,0,0,0,1.47-.34,8.2,8.2,0,0,0,1.56-.6,3.2,3.2,0,0,1,.8-.3,1.42,1.42,0,0,1,.8.08,4.29,4.29,0,0,1,1.07.6A18.69,18.69,0,0,1,61.51,161.61Zm-10-3.18a4,4,0,0,1,0,1.26,1.62,1.62,0,0,1-.39.82,1,1,0,0,1-.73.28,1.83,1.83,0,0,1-1-.35,9.84,9.84,0,0,1-1.34-1,11.58,11.58,0,0,1-1.28-1.37c-.48-.59-.65-1-.52-1.24s.56-.34,1.28-.3a15.1,15.1,0,0,1,1.87.2,4.3,4.3,0,0,1,1.18.38,1.67,1.67,0,0,1,.65.57A2.19,2.19,0,0,1,51.5,158.43Z"/><path class="cls-1" d="M81.69,174.17c.17.19.1.44-.2.74a12,12,0,0,1-1.21,1c-1.07.81-2,1.49-2.65,2s-1.25,1-1.68,1.34-.76.65-1,.88a5.79,5.79,0,0,0-.56.63,2.12,2.12,0,0,1-.47.45.74.74,0,0,1-.56.08,3.06,3.06,0,0,1-.83-.33,13,13,0,0,1-1.29-.8q-1.55-1-1.47-1.59c.06-.39.65-.61,1.78-.65a5.45,5.45,0,0,0,1.53-.3,15,15,0,0,0,2-.83l0-5.13a6.06,6.06,0,0,1-1.5.09,4.77,4.77,0,0,1-1.14-.31c-.66-.3-1-.51-1-.65s.39-.29,1.18-.46q.6-.15,1.17-.33a10.69,10.69,0,0,0,1.29-.48c0-2.27,0-4-.14-5.19a4.91,4.91,0,0,0-.68-2.47,3.82,3.82,0,0,1-.69-1.11c-.11-.31-.08-.52.09-.65a1.49,1.49,0,0,1,1-.11,10.46,10.46,0,0,1,2,.49,4.45,4.45,0,0,1,1.23.56,1.68,1.68,0,0,1,.6.67,1.19,1.19,0,0,1,.08.75,3.1,3.1,0,0,1-.3.85,5,5,0,0,0-.35,1.65q-.09,1.15-.09,3.48a3,3,0,0,1,.83-.15,4,4,0,0,1,.68.06c.8.17,1.26.4,1.37.71s-.28.69-1.18,1.15a15.73,15.73,0,0,1-1.7.75l0,4.44a21.7,21.7,0,0,1,2.84-1.16C81.27,174.13,81.61,174.09,81.69,174.17Zm17.86,4.06a3.14,3.14,0,0,1,.63,1.25,1.4,1.4,0,0,1-.38,1.2,5,5,0,0,1-1.76,1.1,19.14,19.14,0,0,1-3.53.93,22.74,22.74,0,0,1-3.24.28,19.7,19.7,0,0,1-3.63-.28,7.3,7.3,0,0,1-3.74-1.58,5.67,5.67,0,0,1-1.64-3.21,12.08,12.08,0,0,1-.21-2c0-.83,0-1.66,0-2.5a3.29,3.29,0,0,1-1.31.55,2.06,2.06,0,0,1-1.12-.17,5.29,5.29,0,0,1-.89-.49q-.27-.21-.24-.36c0-.11.14-.2.36-.29s.52-.19.9-.31a18.89,18.89,0,0,0,2.39-1.07,16.11,16.11,0,0,0-.14-2.76,3.56,3.56,0,0,0-.42-1.43c-.68-.76-.89-1.28-.65-1.56s1-.21,2.35.2a5.59,5.59,0,0,1,1.19.51,1.82,1.82,0,0,1,.59.52.86.86,0,0,1,.14.55,2.44,2.44,0,0,1-.16.6,4,4,0,0,0-.3,1.07c0,.29-.06.61-.08.94l.88-.48.89-.49v-2.49c0-.48,0-1,0-1.48s0-1,0-1.48c0-.69,0-1.27-.07-1.73s-.08-.85-.13-1.15a3.92,3.92,0,0,0-.19-.74,1.87,1.87,0,0,0-.24-.47,6.49,6.49,0,0,1-.74-1.18c-.13-.33-.13-.57,0-.73a1.09,1.09,0,0,1,.87-.19,7.5,7.5,0,0,1,1.78.43,6.55,6.55,0,0,1,1.41.64,2,2,0,0,1,.7.69,1.2,1.2,0,0,1,.12.73,2.68,2.68,0,0,1-.28.77,3.28,3.28,0,0,0-.21.65,11.63,11.63,0,0,0-.19,1.26q-.08.8-.15,2c-.06.81-.09,1.78-.11,2.91.75-.48,1.3-.85,1.63-1.1a1.81,1.81,0,0,0,.6-.6,2.89,2.89,0,0,1,.46-.72.92.92,0,0,1,.55-.3,1.83,1.83,0,0,1,.79.1,10.22,10.22,0,0,1,1.19.45,8.83,8.83,0,0,1,1.39.74,1.44,1.44,0,0,1,.57.65.71.71,0,0,1-.13.63,4.7,4.7,0,0,1-.63.69,2.22,2.22,0,0,0-.28.33,2.09,2.09,0,0,0-.26.54c-.08.24-.17.55-.26.94s-.21.91-.33,1.56-.29,1.3-.43,1.82-.28,1-.42,1.37a6.59,6.59,0,0,1-.49,1,4.32,4.32,0,0,1-.62.79c-.6.6-1.07.88-1.4.81s-.58-.45-.77-1.16a4.59,4.59,0,0,0-.31-.87c-.15-.3-.35-.7-.6-1.18s-.44-1-.36-1.1.38,0,.93.25a1.11,1.11,0,0,0,.7.17c.18,0,.32-.19.43-.48l.27-.87a6.26,6.26,0,0,0,.17-.88c0-.33.08-.7.13-1.13s.08-1,.12-1.66a.33.33,0,0,0-.17-.34c-.14-.09-.25-.11-.33-.07l-1.1.62c-.36.2-.73.41-1.11.64-.06,1.56-.17,3-.34,4.27a27.37,27.37,0,0,1-.51,2.94,6,6,0,0,1-.61,1.66c-.22.34-.43.49-.61.42s-.35-.32-.46-.79a8.41,8.41,0,0,1-.17-2c0-.12,0-.38,0-.75s0-.82,0-1.31,0-1,.05-1.51,0-1,.06-1.37l-.88.53c-.27.17-.55.36-.85.57-.08,1.22-.11,2.31-.08,3.29a9.39,9.39,0,0,0,.21,2,5.31,5.31,0,0,0,.42,1.18,1.8,1.8,0,0,0,.62.71,2.81,2.81,0,0,0,.91.39,11.41,11.41,0,0,0,1.35.27,12.65,12.65,0,0,0,2.48.21,15.46,15.46,0,0,0,3.16-.46A8.46,8.46,0,0,0,95,179a2.54,2.54,0,0,0,1-.78,4.72,4.72,0,0,0,.76-1.44,16,16,0,0,0,.56-2.4,6.8,6.8,0,0,1,.32-1.37c.12-.32.25-.5.38-.52s.24.14.34.46a7.39,7.39,0,0,1,.25,1.56c.05.61.1,1.12.16,1.53a8.61,8.61,0,0,0,.21,1,2.87,2.87,0,0,0,.25.69A2,2,0,0,0,99.55,178.23Z"/><path class="cls-1" d="M117.9,174.05c.15.17.12.35-.09.55s-.62.54-1.23,1q-1.76,1.32-2.82,2.16c-.7.55-1.26,1-1.67,1.35s-.7.62-.89.82a5.15,5.15,0,0,0-.47.55,1.88,1.88,0,0,1-.54.52,1,1,0,0,1-.63.14,2.25,2.25,0,0,1-.83-.28,13.49,13.49,0,0,1-1.19-.72c-1-.65-1.39-1.13-1.27-1.42s.73-.57,1.84-.82a14.58,14.58,0,0,0,1.51-.43,15.75,15.75,0,0,0,1.92-.8l0-5.86c-.3,0-.55.08-.76.1a3,3,0,0,1-.6,0,4.43,4.43,0,0,1-.6-.07l-.72-.16c-.67-.17-1-.36-1-.58s.43-.41,1.23-.55q.54-.11,1.17-.27c.42-.12.84-.25,1.26-.4,0-1,0-1.95,0-2.7s-.08-1.4-.14-1.94a7.57,7.57,0,0,0-.27-1.32,3.21,3.21,0,0,0-.43-.87,5.9,5.9,0,0,1-.8-1.24c-.14-.33-.12-.56,0-.7a1.37,1.37,0,0,1,1-.09,12.44,12.44,0,0,1,2,.55c.63.21,1.13.39,1.49.55a1.82,1.82,0,0,1,.76.52.78.78,0,0,1,.13.65,4.76,4.76,0,0,1-.37.93,5,5,0,0,0-.39,1.44c-.09.66-.17,1.63-.24,2.93a2.41,2.41,0,0,1,.74-.15,2.47,2.47,0,0,1,.56.06c1.93.54,2,1.21.18,2l-.8.32-.74.28-.06,5.26a23.35,23.35,0,0,1,2.74-1.18C117.5,174,117.82,174,117.9,174.05Zm15.15,5.1c1.11.94,1.55,1.61,1.32,2s-1.17.44-2.83.17c-.48-.08-1-.15-1.61-.2s-1.19-.09-1.82-.1-1.27,0-1.92,0-1.27,0-1.86.08c-1.7.13-3.09.26-4.16.41a25.59,25.59,0,0,0-2.61.47,8.08,8.08,0,0,1-1,.22,3.48,3.48,0,0,1-.78,0,2.54,2.54,0,0,1-.71-.17,8.1,8.1,0,0,1-.79-.39c-1-.57-1.43-.94-1.4-1.12s.58-.29,1.65-.33l1.63-.11c.74-.05,1.62-.13,2.62-.24,0-2.08.07-3.76.07-5.05s0-2.32-.07-3.09a10.14,10.14,0,0,0-.2-1.71,3.09,3.09,0,0,0-.39-1c-.63-.94-.84-1.56-.62-1.84s1.06-.11,2.51.52c.52.23.93.42,1.22.58a1.43,1.43,0,0,1,.6.51.85.85,0,0,1,.08.64,5.33,5.33,0,0,1-.33,1,3.23,3.23,0,0,0-.2.74,10.61,10.61,0,0,0-.13,1.41c0,.64-.05,1.52-.06,2.63s0,2.59,0,4.41c.48,0,1-.09,1.43-.16s1-.11,1.43-.15c0-2-.06-3.91-.07-5.61s0-3.18,0-4.44c0-1.7,0-3.09,0-4.17s-.08-2-.15-2.61a6.6,6.6,0,0,0-.33-1.53,4.35,4.35,0,0,0-.54-.95,4.5,4.5,0,0,1-.66-1c-.13-.28-.13-.49,0-.63s.37-.19.76-.17a6.56,6.56,0,0,1,1.65.38c.9.29,1.6.54,2.08.74a2.83,2.83,0,0,1,1,.59.69.69,0,0,1,.17.68,5.25,5.25,0,0,1-.37,1,5,5,0,0,0-.33.93,6.72,6.72,0,0,0-.21,1.37c0,.56-.07,1.29-.09,2.17s0,2,0,3.34c.69-.32,1.26-.56,1.7-.73a5,5,0,0,1,1.1-.31,2.31,2.31,0,0,1,.79,0,4.86,4.86,0,0,1,.78.27c.91.38,1.33.75,1.28,1.12s-.48.64-1.28.83c-1,.23-1.8.39-2.45.48a8,8,0,0,1-2,0c0,.39,0,.8,0,1.22s0,.78,0,1.26,0,1,0,1.45c0,1.16,0,2.48,0,4,.5-.08,1-.16,1.35-.24a9.19,9.19,0,0,0,1-.23c.46-.13.87-.22,1.21-.29a2.94,2.94,0,0,1,1,0,2.89,2.89,0,0,1,.88.31A7,7,0,0,1,133.05,179.15Z"/><path class="cls-1" d="M26,197.56c0-.81-.44-3-.44-3.46a.64.64,0,0,1,.74-.65c.47,0,.72.22.72.65s-.45,2.66-.48,3.46Zm2.51,0c0-.8-.44-3-.44-3.46s.3-.65.73-.65.73.23.73.65-.46,2.66-.5,3.46Z"/><path class="cls-1" d="M33.89,200.5c-.16.39-1,2.76-1.13,3.09,0,.11,0,.27,0,.35s.19.34.53.35H34c.11,0,.16,0,.16.11v.36c0,.11-.05.14-.12.14s-.87-.05-1.79-.06c-1.15,0-1.49,0-1.71,0s-.11,0-.11-.12v-.38a.12.12,0,0,1,.13-.11h.55c.47,0,.69-.22.91-.72.12-.25,1.29-3.14,1.75-4.42.12-.31,1.42-3.67,1.56-4.1a.61.61,0,0,0,0-.53.4.4,0,0,1-.11-.2c0-.05,0-.12.15-.15a3.08,3.08,0,0,0,1.3-.77c.08-.07.13-.14.21-.14s.12.1.17.27c.29,1,1.48,4.52,1.77,5.52.35,1.23,1.35,4.15,1.56,4.61a1.19,1.19,0,0,0,1.06.72H42c.09,0,.12,0,.12.11v.39c0,.08,0,.11-.16.11-.28,0-.61-.05-1.88-.06s-1.85,0-2.21,0a.12.12,0,0,1-.13-.14v-.37c0-.09,0-.1.14-.1h.39c.44,0,.58-.15.48-.59s-.75-2.58-1-3.21Zm3.67-.54c-.13-.47-1.37-4.4-1.45-4.64s-.07-.22-.12-.22-.13.11-.17.24-1.61,4.2-1.72,4.59Z"/><path class="cls-1" d="M44.58,197.75c0-.41,0-2.64-.06-2.9s-.24-.44-.67-.45H43c-.08,0-.12,0-.12-.11v-.42c0-.06.05-.08.11-.08s.89.06,2.31.07l2.33,0c2,0,3.72.27,5.09,1.46a5,5,0,0,1,1.7,4,5.59,5.59,0,0,1-1.58,4.12c-1.52,1.65-3.69,1.63-4.9,1.62-1,0-2.18-.07-2.88-.08-1.37,0-2,0-2.21,0s-.11,0-.11-.11v-.41c0-.06.05-.09.13-.09h1c.29,0,.47-.12.5-.37s.15-3.86.16-5.08ZM46,199.28c0,.21,0,2.87,0,3.85a1.52,1.52,0,0,0,.26.88,2.16,2.16,0,0,0,1.66.51,4.57,4.57,0,0,0,3.7-1.66,5.71,5.71,0,0,0,1.18-3.52,5.52,5.52,0,0,0-1.26-3.47,5.2,5.2,0,0,0-3.92-1.54,3.22,3.22,0,0,0-1.26.14c-.22.14-.28.39-.3.74,0,.65,0,2.71,0,3Z"/><path class="cls-1" d="M57.55,197.86c0-.41,0-2.63-.06-2.9s-.24-.44-.67-.45H56c-.08,0-.13,0-.12-.11V194c0-.06,0-.07.11-.07s.89,0,2.3.06c.41,0,2,0,2.34,0,2,0,3.72.26,5.09,1.45a5.06,5.06,0,0,1,1.7,4,5.58,5.58,0,0,1-1.58,4.11c-1.52,1.65-3.69,1.63-4.9,1.62-1,0-2.18-.07-2.88-.07-1.37,0-2,0-2.21,0s-.11,0-.11-.11v-.4c0-.07,0-.1.13-.1h1.05c.29,0,.47-.12.5-.37s.15-3.86.16-5.08ZM59,199.4c0,.2,0,2.87,0,3.84a1.5,1.5,0,0,0,.26.88,2.2,2.2,0,0,0,1.66.52,4.6,4.6,0,0,0,3.7-1.67,5.7,5.7,0,0,0,1.18-3.51A5.54,5.54,0,0,0,64.51,196a5.24,5.24,0,0,0-3.92-1.54,3.42,3.42,0,0,0-1.26.14c-.22.14-.28.39-.3.74,0,.66,0,2.71,0,3Z"/><path class="cls-1" d="M70.45,198c0-1.16,0-2.17,0-2.62s-.2-.79-.59-.79h-.63c-.07,0-.09,0-.09-.11v-.39c0-.08,0-.11.1-.11s.63.05,1.94.07c.88,0,2.34,0,2.62,0a4.27,4.27,0,0,1,2.93,1,2.7,2.7,0,0,1,.8,1.8c0,2-.92,2.69-2.93,3.11v0a1.63,1.63,0,0,1,.71.6c.19.21,1.29,1.82,1.42,2a12,12,0,0,0,1.36,1.81,1.85,1.85,0,0,0,1.13.28c.11,0,.12.06.12.12v.35c0,.09,0,.14-.13.14s-.53-.05-1.22-.06c-.46,0-1,0-1.27,0a8.61,8.61,0,0,1-.65-.9c-.13-.19-1-1.69-1-1.82s-.8-1.24-1-1.46a2,2,0,0,0-1.69-.93,2.56,2.56,0,0,0-.51,0v.88c0,.93,0,2.68,0,2.92s.16.61.39.62h1c.11,0,.12,0,.12.12v.35c0,.11,0,.14-.17.14s-.57-.06-2.06-.07-1.79,0-2,0-.12-.05-.12-.13v-.36c0-.08,0-.12.08-.12h.64c.35,0,.61-.1.62-.52,0-1.56.06-3,.07-4.52Zm1.4,1.56a3,3,0,0,0,.71.07c2.85,0,3.42-1.93,3.42-2.59a2.34,2.34,0,0,0-.77-1.79,3.79,3.79,0,0,0-2.59-.75,1.05,1.05,0,0,0-.54.12.6.6,0,0,0-.19.5Z"/><path class="cls-1" d="M83,199.28c.12,0,1.8-.05,2-.08.46-.08.58-.2.73-.68a3.79,3.79,0,0,0,.13-.77.1.1,0,0,1,.11-.11l.39,0a.1.1,0,0,1,.1.12c0,.27-.06,1.56-.07,1.79,0,.55.06,1.3.08,1.64a.11.11,0,0,1-.09.12l-.35,0c-.07,0-.11,0-.12-.14s-.12-.56-.17-.74a.75.75,0,0,0-.67-.62c-.73-.08-1.81-.09-2.07-.09v1c0,.85,0,2.37,0,2.68,0,.82.4,1.14.89,1.24a6.72,6.72,0,0,0,1.16.11c.26,0,1,0,1.38,0a3.09,3.09,0,0,0,1.37-.54,14.27,14.27,0,0,0,1.3-1.63c0-.08.09-.14.19-.1l.25.15c.08.05.07.09,0,.22l-.85,2.3a.34.34,0,0,1-.35.23l-1.37,0-4.91-.06H80.74l-.67,0c-.1,0-.14,0-.14-.11v-.43c0-.06,0-.08.16-.08h.62c.73,0,.79-.1.79-.68l0-5.26c0-1.3,0-3.26,0-3.42-.06-.5-.21-.61-.79-.62h-.57c-.07,0-.12,0-.12-.11v-.43s0-.07.11-.07c.35,0,.9,0,1.93.06h.69l4.66,0,.63,0c.08,0,.11,0,.12.08l.78,2.53c0,.06,0,.11,0,.14l-.23.12s-.11,0-.13-.05A13.27,13.27,0,0,0,87,195.2a2.48,2.48,0,0,0-1.19-.43L83,194.68Z"/><path class="cls-1" d="M92.1,204.78c-.19-.14-.28-.19-.36-.19s-.16.11-.25.27-.18.18-.29.18-.17-.08-.14-.25c.07-.39.25-2.38.3-2.84,0-.09,0-.09.11-.09l.23,0c.07,0,.1,0,.09.12a3.16,3.16,0,0,0,.55,1.83A2.65,2.65,0,0,0,94.53,205a2,2,0,0,0,2.15-2c0-1.62-1.14-2.23-2.39-2.68A6,6,0,0,1,92,199.07a3.11,3.11,0,0,1-.77-2.29,3,3,0,0,1,1-2,3.17,3.17,0,0,1,2.21-.74,4.46,4.46,0,0,1,1.84.41c.14.08.22.07.3,0l.21-.19a.3.3,0,0,1,.2-.09c.08,0,.13.13.13.27,0,.55.18,2.15.19,2.49,0,.08,0,.11-.08.13l-.18,0a.07.07,0,0,1-.1,0,3.76,3.76,0,0,0-1-1.75,2.14,2.14,0,0,0-1.7-.69,1.77,1.77,0,0,0-1.91,1.82,1.86,1.86,0,0,0,.47,1.36,4.88,4.88,0,0,0,1.78,1,5,5,0,0,1,2.52,1.32,3.09,3.09,0,0,1,.67,2.14,3.17,3.17,0,0,1-3.23,3.41A3.82,3.82,0,0,1,92.1,204.78Z"/><path class="cls-1" d="M100.91,204.86c-.18-.14-.28-.19-.36-.19s-.15.11-.25.26-.17.19-.28.19-.17-.08-.14-.25c.06-.39.24-2.39.29-2.84,0-.09,0-.09.11-.09h.24c.06,0,.09,0,.09.13a3.11,3.11,0,0,0,.55,1.83,2.62,2.62,0,0,0,2.18,1.18,2,2,0,0,0,2.15-2c0-1.61-1.14-2.22-2.39-2.67a6.2,6.2,0,0,1-2.28-1.29,3.07,3.07,0,0,1-.76-2.3,3,3,0,0,1,1-2,3.14,3.14,0,0,1,2.2-.73,4.52,4.52,0,0,1,1.85.41.22.22,0,0,0,.3,0l.2-.19a.32.32,0,0,1,.21-.09c.07,0,.12.12.12.26,0,.55.18,2.16.2,2.5,0,.08,0,.11-.08.13l-.19,0s-.08,0-.09,0a3.9,3.9,0,0,0-1-1.75,2.24,2.24,0,0,0-1.71-.69,1.78,1.78,0,0,0-1.91,1.82,1.92,1.92,0,0,0,.48,1.37,5,5,0,0,0,1.77,1,5,5,0,0,1,2.52,1.32,3.09,3.09,0,0,1,.67,2.14,3.17,3.17,0,0,1-3.23,3.41A3.89,3.89,0,0,1,100.91,204.86Z"/><path class="cls-1" d="M109,198.28c0-.8-.45-3-.45-3.45a.66.66,0,0,1,.75-.66c.47,0,.72.23.71.65s-.44,2.66-.48,3.46Zm2.51,0c0-.8-.45-3-.45-3.45a.64.64,0,0,1,.73-.65c.49,0,.74.22.73.64s-.46,2.67-.5,3.47Z"/><path class="cls-3" d="M163.57,177.24c0-2.3,1.42-3.72,3.32-4.89-2.14-1.54-3.42-2.43-3.42-4.68s2-5,6-5c2.74,0,4.7,1.73,4.7,3.58s-.76,3.16-3.35,4.65c2.33,1.23,3.72,2.64,3.72,5.23,0,2.17-2.1,4.78-5.75,4.78C165,180.89,163.57,178.93,163.57,177.24Zm7.74-.37c0-1.52-.91-2.46-3.5-3.9a4.71,4.71,0,0,0-1.73,3.69,3,3,0,0,0,2.67,3.22C170.4,179.88,171.31,178.78,171.31,176.87ZM166.79,167c0,1.38.76,2.06,3,3.34a4.06,4.06,0,0,0,1.78-3.42c0-1.75-.86-3.14-2.38-3.09S166.79,165.39,166.79,167Z"/><path class="cls-3" d="M176.77,177.24c0-2.3,1.42-3.72,3.32-4.89-2.14-1.54-3.42-2.43-3.42-4.68s2-5,6-5c2.74,0,4.7,1.73,4.7,3.58s-.76,3.16-3.35,4.65c2.33,1.23,3.72,2.64,3.72,5.23,0,2.17-2.1,4.78-5.75,4.78C178.16,180.89,176.77,178.93,176.77,177.24Zm7.74-.37c0-1.52-.91-2.46-3.5-3.9a4.71,4.71,0,0,0-1.73,3.69,3,3,0,0,0,2.67,3.22C183.6,179.88,184.51,178.78,184.51,176.87ZM180,167c0,1.38.76,2.06,3,3.34a4.06,4.06,0,0,0,1.78-3.42c0-1.75-.86-3.14-2.38-3.09S180,165.39,180,167Z"/><path class="cls-3" d="M196.8,170.2c0-1.62-.05-5.14-.05-5.51,0-1.33-.18-1.7-.89-1.7h-1.07c-.29,0-.31-.1-.31-.26v-.5c0-.15,0-.31.28-.31.45,0,1.29.08,3.9.08s3.5-.08,4-.08c.28,0,.31.08.31.29v.55c0,.15,0,.23-.31.23H202c-.94,0-1.07.44-1.15,1.44,0,.36-.16,3.81-.16,5.28v.39c0,.13.08.21.42.21h7.82c.39,0,.52-.05.52-.34v-.26c0-1.49-.18-5.12-.18-5.39,0-.83-.14-1.33-.61-1.33h-1.07c-.23,0-.26-.08-.26-.26v-.58c0-.15,0-.23.24-.23.47,0,1.59.08,3.81.08s3.27-.08,3.61-.08.34.08.34.29v.49c0,.19,0,.29-.34.29h-.78c-.76,0-.84.44-.84,1.33,0,.37,0,4.79,0,5.75V171c0,.84,0,5.81.07,7.24,0,.94.27,1.31,1,1.31h.89c.21,0,.23.08.23.24v.57c0,.13,0,.26-.28.26-.42,0-1.31-.08-3.66-.08-2.67,0-3.5.08-4.11.08-.28,0-.34-.13-.34-.26v-.57c0-.16,0-.24.29-.24h1.15c.63,0,.71-.5.73-1.15.06-1.23.11-5.44.11-6.27v-.32c0-.28-.26-.31-.58-.31H201c-.29,0-.37.08-.37.31v.4c0,.65.11,4.67.18,6.45,0,.63.29.89.87.89h.73c.21,0,.23.05.23.21v.63c0,.15,0,.23-.23.23-.47,0-1.39-.08-3.58-.08-2.77,0-3.56.08-4.08.08-.23,0-.26-.08-.26-.29v-.54c0-.19,0-.24.26-.24H196c.66,0,.74-.63.74-1.2,0-1.23.07-6.3.07-7Z"/><path class="cls-3" d="M220.25,169.55c0-.63-.08-5.33-.1-5.67-.06-.63-.32-.89-.87-.89H218c-.13,0-.21-.05-.21-.16v-.75c0-.11.08-.16.18-.16.32,0,1.65.08,4.21.08s3.5-.08,3.87-.08c.13,0,.18.08.18.23v.66c0,.13-.08.18-.21.18h-.76c-.65,0-1,.21-1,.68,0,.26-.08,6-.08,6.35v2c0,.27.08,6.3.08,6.54,0,.81.39.94.89.94h1.07c.13,0,.21.05.21.18v.74q0,.15-.24.15c-.31,0-1.36-.08-3.84-.08-2.74,0-3.87.08-4.15.08s-.21-.05-.21-.21v-.7c0-.11.07-.16.21-.16h.75c.53,0,1.07-.08,1.18-.71,0-.39.13-6,.13-7.42Z"/><path class="cls-3" d="M235.07,172.32c0,.45,0,6.09.08,7.14h1.49c1.23,0,2.4,0,3.81-.13s3.19-3.27,3.59-4.24c.07-.15.15-.23.31-.15l.52.2c.08.06.08.08,0,.24s-1.12,4.5-1.28,5.2c-.68-.05-8.2-.08-10.61-.08-2.59,0-3.53.08-3.87.08-.18,0-.21-.05-.21-.23v-.66c0-.13,0-.18.19-.18H230c1,0,1.12-.37,1.12-.65,0-.5.08-7,.08-8.6v-1.47c0-1.67-.05-4.44-.08-4.86,0-.68-.18-.94-.78-.94h-1c-.16,0-.18-.13-.18-.26v-.63c0-.13,0-.18.18-.18s1.23.08,3.61.08c3.06,0,4.15-.08,4.39-.08s.23.08.23.26v.6c0,.13-.05.21-.26.21h-1.23c-.81,0-.91.26-.91,1,0,.34-.08,4.28-.08,6.11Z"/><path class="cls-3" d="M251.75,172.32c0,.45,0,6.09.08,7.14h1.49c1.22,0,2.4,0,3.81-.13s3.19-3.27,3.58-4.24c.08-.15.16-.23.32-.15l.52.2c.08.06.08.08.05.24s-1.12,4.5-1.28,5.2c-.68-.05-8.21-.08-10.61-.08-2.59,0-3.53.08-3.87.08-.18,0-.21-.05-.21-.23v-.66c0-.13,0-.18.18-.18h.81c1,0,1.13-.37,1.13-.65,0-.5.08-7,.08-8.6v-1.47c0-1.67-.06-4.44-.08-4.86-.05-.68-.19-.94-.79-.94h-1c-.16,0-.19-.13-.19-.26v-.63c0-.13,0-.18.19-.18s1.23.08,3.6.08c3.06,0,4.16-.08,4.4-.08s.23.08.23.26v.6c0,.13,0,.21-.26.21h-1.23c-.81,0-.91.26-.91,1,0,.34-.08,4.28-.08,6.11Z"/><path class="cls-3" d="M264.84,174.73c.11,0,.19,0,.19.21a6.87,6.87,0,0,0,1,2.95,3.86,3.86,0,0,0,3.29,1.78c1.26,0,3.27-.84,3.27-2.9s-.42-2.8-3.81-4.08a14,14,0,0,1-3.79-2.28,4.86,4.86,0,0,1-1.31-3.71,4.19,4.19,0,0,1,2-3.84,5.54,5.54,0,0,1,3.76-1.26,9.32,9.32,0,0,1,3.48.53.48.48,0,0,0,.6-.13l.34-.34a.53.53,0,0,1,.39-.16c.19,0,.24.29.26.44l.42,4.47a.14.14,0,0,1-.13.16l-.57.18c-.13.06-.26,0-.34-.18a8,8,0,0,0-1.62-2.72,3.23,3.23,0,0,0-2.62-1.09,2.72,2.72,0,0,0-2.77,2.37,3.06,3.06,0,0,0,.68,2.41,8.84,8.84,0,0,0,3.45,1.7,8.34,8.34,0,0,1,3.35,2,4.73,4.73,0,0,1,1.43,3.9,5.57,5.57,0,0,1-5.72,5.77,7.7,7.7,0,0,1-4.68-1.12,1.25,1.25,0,0,0-.6-.29c-.16,0-.26.19-.42.45s-.29.31-.47.31-.39-.13-.36-.42l.41-5c0-.19.11-.19.21-.19Z"/><path class="cls-3" d="M280.71,169.55c0-.63-.08-5.33-.11-5.67-.05-.63-.31-.89-.86-.89h-1.25c-.13,0-.21-.05-.21-.16v-.75c0-.11.08-.16.18-.16.31,0,1.65.08,4.21.08s3.5-.08,3.87-.08c.13,0,.18.08.18.23v.66c0,.13-.08.18-.21.18h-.76c-.65,0-1,.21-1,.68,0,.26-.08,6-.08,6.35v2c0,.27.08,6.3.08,6.54,0,.81.39.94.89.94h1.07c.13,0,.21.05.21.18v.74q0,.15-.24.15c-.31,0-1.36-.08-3.84-.08-2.74,0-3.87.08-4.16.08-.13,0-.2-.05-.2-.21v-.7c0-.11.07-.16.2-.16h.76c.53,0,1.07-.08,1.18-.71.05-.39.13-6,.13-7.42Z"/><path class="cls-3" d="M291.64,168.51c0-.68-.08-4.4-.13-4.79-.08-.62-.42-.73-.87-.73h-1.3c-.14,0-.21,0-.21-.18v-.76c0-.11.07-.13.18-.13.34,0,1.49.08,4.1.08.68,0,3.3-.08,3.9-.08,3.55,0,6.38.31,8.86,2.38a8.27,8.27,0,0,1,2.93,6.64,9.32,9.32,0,0,1-2.59,6.87c-2.54,2.75-7,2.77-8.65,2.77-.42,0-3.51-.08-4.94-.08-2.28,0-3.32.08-3.69.08-.13,0-.18-.05-.18-.23v-.68c0-.11.08-.16.21-.16h1.36c.49,0,.78-.21.83-.63s.19-6.43.19-8.41Zm3.92,2.53c0,.34,0,4.78.05,6.4a2.3,2.3,0,0,0,.44,1.44,2.67,2.67,0,0,0,2.09.63A6.35,6.35,0,0,0,303,177a10.09,10.09,0,0,0,1.86-6,8.91,8.91,0,0,0-2.12-5.7,7.72,7.72,0,0,0-5.2-2.38,3.09,3.09,0,0,0-1.47.21c-.39.18-.49.6-.52,1.13,0,1.09,0,4.52,0,4.93Z"/><path class="cls-3" d="M317.7,170.49a18.52,18.52,0,0,0,2.66-.15,2.13,2.13,0,0,0,1.2-.82,3.28,3.28,0,0,0,.61-1.62c0-.18.07-.23.2-.23l.71.08c.13,0,.23.05.21.21a25.8,25.8,0,0,0-.08,2.72c0,1.17.1,2.43.16,3,0,.16-.08.19-.21.21l-.63.13c-.1,0-.16,0-.21-.2a7.48,7.48,0,0,0-.52-1.34,2.15,2.15,0,0,0-1.44-.91,17.06,17.06,0,0,0-2.66-.16V173c0,1.41.13,4,.13,4.42,0,1.36.28,1.83.62,2a5.82,5.82,0,0,0,2.2.24c.44,0,1.54,0,2.09-.08a4,4,0,0,0,2-.86,29.09,29.09,0,0,0,2.66-2.8c.11-.1.19-.13.26-.08l.45.26c.1.06.13.13.1.21L327,180.19a.55.55,0,0,1-.58.39l-2.38-.05c-1.7,0-4.47,0-9,0-1,0-1.7,0-2.22,0s-.89.05-1.12.05-.24-.08-.24-.29v-.54c0-.16.08-.24.26-.24h.79c1.2,0,1.3-.18,1.3-1.1v-8.75c0-2.17-.05-5.39-.08-5.65-.1-.84-.36-1-1.07-1h-1c-.1,0-.13-.08-.13-.26v-.63c0-.08,0-.18.19-.18.57,0,1.49.08,3.86.08l9.18,0c.42,0,.91-.05,1-.05s.19.05.21.13c.11.37,1,3.95,1.07,4.21s.06.18-.07.26l-.42.21a.23.23,0,0,1-.31-.11,29,29,0,0,0-3.09-2.92,4.37,4.37,0,0,0-2-.71l-3.45-.1Z"/><path class="cls-3" d="M339.13,169.13c0-1-.05-4.15-.08-4.57-.08-1.52-.5-1.57-1.36-1.57h-.84c-.18,0-.18,0-.18-.23v-.61c0-.15,0-.23.21-.23.34,0,1.6.08,4.08.08.83,0,2.4-.08,4.18-.08a10.22,10.22,0,0,1,4.47.7,3.67,3.67,0,0,1,2,3.56c0,1.72-1,3.4-3.81,4.31v0c3.24.84,4.94,2.41,4.94,5.18,0,1.41-.79,3.35-2,4-1.07.55-2.9,1-6.15,1-.23,0-.91,0-1.64-.08s-1.57-.08-2.07-.08c-1.3,0-2.17,0-2.74,0l-1,.05c-.26,0-.29-.08-.29-.29v-.57c0-.16,0-.21.26-.21H338c.78,0,.91-.31,1-1.1.08-.6.13-4,.13-6.19Zm3.81,1.07a5.26,5.26,0,0,0,3.51-.73,4.07,4.07,0,0,0,1.25-3.08,3.32,3.32,0,0,0-1.07-2.64,5,5,0,0,0-2.46-.94c-.55,0-1.12,0-1.15.44s-.08,2.8-.08,5Zm0,6.07c0,2.48.58,3.5,2,3.5,1.86,0,3.61-.91,3.61-4.18,0-2.12-.94-3.5-2.35-4.05a8.54,8.54,0,0,0-3.22-.45Z"/><path class="cls-3" d="M361.08,172.32c0,.45,0,6.09.08,7.14h1.49c1.23,0,2.41,0,3.82-.13s3.19-3.27,3.58-4.24c.08-.15.16-.23.31-.15l.53.2c.08.06.08.08.05.24s-1.13,4.5-1.28,5.2c-.68-.05-8.21-.08-10.61-.08-2.59,0-3.53.08-3.87.08s-.21-.05-.21-.23v-.66c0-.13,0-.18.18-.18H356c1,0,1.13-.37,1.13-.65,0-.5.07-7,.07-8.6v-1.47c0-1.67-.05-4.44-.07-4.86-.06-.68-.19-.94-.79-.94h-1c-.15,0-.18-.13-.18-.26v-.63c0-.13,0-.18.18-.18s1.23.08,3.61.08c3.06,0,4.16-.08,4.39-.08s.24.08.24.26v.6c0,.13-.05.21-.26.21h-1.23c-.81,0-.92.26-.92,1,0,.34-.08,4.28-.08,6.11Z"/><path class="cls-3" d="M381.4,162.1c0-.13,0-.18.15-.18s1.44.08,3.19.08c2.43,0,3.08-.08,3.32-.08s.18.05.18.23v.66c0,.1,0,.18-.18.18h-.6a2.25,2.25,0,0,0-1.94,1.36c-1,1.78-2.17,4.86-3.16,7.06-.65,1.41-3.6,8.41-4.05,9.17-.18.31-.31.45-.6.45s-.44-.32-.6-.66c-1-2.06-3.35-8.39-4.08-10.19s-2-5.59-2.35-6.33-.58-.86-1.13-.86h-.68c-.1,0-.13-.13-.13-.26v-.63c0-.13,0-.18.19-.18s1.12.08,4.26.08c2.72,0,3.89-.08,4.13-.08s.26.08.26.23v.61c0,.13,0,.23-.21.23h-1.12c-.63,0-1.13.29-1.13.63a4,4,0,0,0,.08.89c.21.94,1.2,4.05,1.75,5.56l2,5.83h.1c.76-1.75,2-5,2.38-6,.5-1.28,1.31-3.47,1.73-4.65a3.6,3.6,0,0,0,.26-1.44,1,1,0,0,0-1.07-.86h-.81c-.11,0-.13-.08-.13-.23Z"/><path class="cls-3" d="M390.26,168.51c0-.68-.08-4.4-.13-4.79-.08-.62-.42-.73-.87-.73H388c-.14,0-.21,0-.21-.18v-.76c0-.11.07-.13.18-.13.34,0,1.49.08,4.1.08.68,0,3.3-.08,3.9-.08,3.55,0,6.38.31,8.86,2.38a8.27,8.27,0,0,1,2.93,6.64,9.32,9.32,0,0,1-2.59,6.87c-2.54,2.75-7,2.77-8.65,2.77-.42,0-3.51-.08-4.94-.08-2.28,0-3.32.08-3.69.08-.13,0-.18-.05-.18-.23v-.68c0-.11.08-.16.21-.16h1.36c.49,0,.78-.21.83-.63s.19-6.43.19-8.41Zm3.92,2.53c0,.34,0,4.78.05,6.4a2.3,2.3,0,0,0,.44,1.44,2.67,2.67,0,0,0,2.09.63,6.35,6.35,0,0,0,4.89-2.56,10.09,10.09,0,0,0,1.86-6,8.91,8.91,0,0,0-2.12-5.7,7.72,7.72,0,0,0-5.2-2.38,3,3,0,0,0-1.46.21c-.4.18-.5.6-.53,1.13,0,1.09,0,4.52,0,4.93Z"/><path class="cls-3" d="M410.77,185.26a1.46,1.46,0,0,1-.6.1c-.21,0-.31-.1-.31-.26s.1-.23.26-.39c.55-.49,2-1.75,2-3.29a.92.92,0,0,0-.57-.79,1.8,1.8,0,0,1-1.44-1.72,2,2,0,0,1,1.88-2.14c1.49,0,2.64,1.38,2.64,3.42C414.59,182.93,411.58,184.84,410.77,185.26Z"/><path class="cls-3" d="M427.5,173.34a31.57,31.57,0,0,0-1.49,5c0,.57.24,1.2,1,1.2H428c.26,0,.29.1.29.21v.57c0,.21,0,.29-.24.29s-1.41-.08-3.55-.08c-1.91,0-2.49.08-2.85.08-.16,0-.19-.15-.19-.34v-.49c0-.16,0-.24.19-.24h.68a2.2,2.2,0,0,0,1.77-1.15c.37-.55,2.22-5.1,3.09-7.4.21-.52,2.32-6.14,2.56-6.85a1,1,0,0,0,0-.88c-.08-.11-.19-.24-.19-.34s.06-.19.26-.24a8,8,0,0,0,2.93-1.31c.13-.13.21-.23.34-.23s.21.16.29.44c.49,1.65,2.53,7.51,3,9.18.6,2,2.3,6.9,2.67,7.6a1.91,1.91,0,0,0,1.51,1.18h.89c.16,0,.19.1.19.24v.49c0,.16,0,.34-.24.34-.5,0-1.05-.08-4.39-.08-2.17,0-3.09.08-3.61.08-.26,0-.29-.15-.29-.34v-.49c0-.14,0-.24.16-.24H434c.71,0,.94-.26.79-.94-.24-.94-1.26-4.29-1.57-5.23Zm5.49-1-2-6.93c-.1-.39-.15-.58-.29-.58s-.23.11-.31.34-2.38,6.51-2.59,7.17Z"/><path class="cls-3" d="M448.49,173.58c0,1.23,0,4.78.06,5.09.05.58.31.84.73.84h1.33c.18,0,.21.08.21.18v.68c0,.13,0,.21-.24.21s-1.17-.08-4.23-.08c-2.3,0-3.32.08-3.61.08s-.21-.08-.21-.18v-.71c0-.13,0-.18.16-.18h.68c.89,0,1.07-.13,1.15-.78,0-.27.1-4.34.1-7.38v-3c0-1.73,0-4.47-.05-4.78-.05-.53-.31-.58-.83-.58h-1.23c-.13,0-.16-.05-.16-.21v-.68c0-.13,0-.18.16-.18.28,0,1.23.08,4,.08.47,0,2-.08,2.87-.08,3.22,0,4.76.26,6.28,1.44a5.07,5.07,0,0,1,1.88,4c0,3.13-2.51,5.28-6.9,5.28-.81,0-1.41,0-2.12-.08Zm0-2a7.57,7.57,0,0,0,1.6.16,4,4,0,0,0,2.69-1.75,5.11,5.11,0,0,0,.63-2.78c0-3.6-2.62-4.36-3.69-4.36a5.31,5.31,0,0,0-1.23.13Z"/><path class="cls-3" d="M466.89,163.2H466a11.61,11.61,0,0,0-3.5.42,17.52,17.52,0,0,0-2.38,2.95c-.08.13-.16.21-.26.18l-.58-.2a.19.19,0,0,1-.1-.24c.28-1.1,1.15-4.55,1.25-5.07.08-.34.21-.44.39-.44s.26.1.5.39a2.18,2.18,0,0,0,1.72.65c1.39.08,2.49.16,5.21.16h1.51c2.85,0,4-.11,5.07-.16a3.91,3.91,0,0,0,1.91-.65c.26-.26.42-.39.6-.39s.26.1.32.41l.78,5.2a.2.2,0,0,1-.1.24l-.55.21c-.11,0-.16-.05-.26-.24a18.08,18.08,0,0,0-2.25-2.92,11.3,11.3,0,0,0-3.58-.5h-.87v7.19c0,.36,0,7.68,0,8.07.05.66.26,1,.89,1h1.18c.23,0,.26.08.26.26v.6c0,.13,0,.21-.26.21s-1.1-.08-4-.08-3.87.08-4.24.08c-.21,0-.23-.1-.23-.31v-.5c0-.18,0-.26.18-.26H466a.82.82,0,0,0,.89-.78c.05-.55.05-8.58.05-9.07Z"/><path class="cls-3" d="M487.37,169a13.75,13.75,0,0,1,3.87.65,5,5,0,0,1,3.42,4.94c0,3.45-3.22,6.32-7.29,6.32-1.75,0-3.19-.7-3.19-1.46,0-.6.34-.91.7-.89a3.39,3.39,0,0,1,1.52.63,3.59,3.59,0,0,0,1.73.39,3.34,3.34,0,0,0,3.5-3.58,3.53,3.53,0,0,0-1.88-3.27,8.27,8.27,0,0,0-3.45-.73c-.32,0-.45-.13-.42-.39l1-8.13c0-.31.08-.42.42-.42h5.81c.91,0,1.12-.44,1.56-1.3.11-.19.19-.21.53-.08s.28.15.23.39l-1,3.5c-.13.45-.26.55-1.07.55h-5.52Z"/><path class="cls-3" d="M502.14,167.49c0-.63-.13-1.21-.61-1.21a4.16,4.16,0,0,0-1.17.19l-1.28.36c-.13,0-.24,0-.29-.08l-.18-.52c-.05-.1,0-.21.15-.31l6.36-3.11a1.18,1.18,0,0,1,.49-.16c.16,0,.24.18.24.39s-.08,4.32-.08,7.69v1.1c0,1.35,0,5.85,0,6.14,0,1.36.13,1.54,1.43,1.54h.94c.19,0,.27.08.27.21v.68c0,.13-.08.18-.29.18L504,180.5c-.76,0-4.45.08-4.58.08s-.21-.05-.21-.18v-.71c0-.15.16-.18.37-.18h.68c1.44,0,1.83-.08,1.88-1.41.05-1.1,0-4,0-4.92Z"/><path class="cls-3" d="M512.64,180.5c-.44,0-.91,0-1.3.06l-.81.05c-.13,0-.21,0-.29-.16a.58.58,0,0,1,.16-.63,46.63,46.63,0,0,0,5.07-5.35c1.62-2,2.66-4.08,2.58-6.36-.07-1.93-1.28-3.24-3-3.18a3.85,3.85,0,0,0-3.06,2c-.13.21-.2.21-.31.16l-.44-.18c-.08-.05-.11-.13,0-.37a5.93,5.93,0,0,1,5.62-3.92,4.82,4.82,0,0,1,5,4.76c0,2.22-1,4.36-3.94,7.08-1.52,1.41-2.7,2.38-3.51,3.14v.1h4.52a3.22,3.22,0,0,0,3-2c.13-.24.21-.29.47-.16s.39.23.31.42l-1.85,4.83c-.08.21-.16.29-.4.29s-.23,0-.33-.26-.66-.37-1.7-.37Z"/><path class="cls-3" d="M525.48,185.26a1.52,1.52,0,0,1-.6.1c-.21,0-.32-.1-.32-.26s.11-.23.26-.39c.55-.49,2-1.75,2-3.29a.92.92,0,0,0-.57-.79,1.81,1.81,0,0,1-1.44-1.72,2,2,0,0,1,1.88-2.14c1.49,0,2.64,1.38,2.64,3.42C529.29,182.93,526.29,184.84,525.48,185.26Z"/><path class="cls-3" d="M165.48,199.87c0-.68-.08-4.39-.13-4.78-.08-.63-.42-.73-.86-.73h-1.31c-.13,0-.21,0-.21-.18v-.76c0-.11.08-.13.19-.13.34,0,1.49.07,4.1.07.68,0,3.29-.07,3.89-.07,3.56,0,6.38.31,8.86,2.37a8.27,8.27,0,0,1,2.93,6.64,9.29,9.29,0,0,1-2.59,6.88c-2.53,2.74-7,2.77-8.65,2.77-.42,0-3.5-.08-4.94-.08-2.27,0-3.32.08-3.68.08-.13,0-.19,0-.19-.24V211c0-.1.08-.15.21-.15h1.36c.5,0,.79-.21.84-.63s.18-6.43.18-8.42Zm3.92,2.54c0,.34,0,4.78.06,6.4a2.34,2.34,0,0,0,.44,1.44c.31.47,1.2.63,2.09.63a6.35,6.35,0,0,0,4.89-2.56,10.15,10.15,0,0,0,1.85-6,8.88,8.88,0,0,0-2.11-5.7,7.75,7.75,0,0,0-5.2-2.38,3.07,3.07,0,0,0-1.47.21c-.39.18-.49.6-.52,1.12,0,1.1,0,4.52,0,4.94Z"/><path class="cls-3" d="M188.61,204.71a32.88,32.88,0,0,0-1.49,5c0,.58.24,1.21,1,1.21h.92c.26,0,.29.1.29.21v.57c0,.21,0,.29-.24.29s-1.41-.08-3.55-.08c-1.91,0-2.49.08-2.85.08-.16,0-.19-.16-.19-.34v-.5c0-.16,0-.23.19-.23h.68a2.2,2.2,0,0,0,1.77-1.15c.37-.55,2.23-5.1,3.09-7.4.21-.52,2.32-6.14,2.56-6.85a1.06,1.06,0,0,0,0-.89.69.69,0,0,1-.19-.34c0-.07.06-.18.26-.23a8,8,0,0,0,2.93-1.31c.13-.13.21-.23.34-.23s.21.15.29.44c.5,1.65,2.53,7.5,3,9.18.6,2,2.3,6.89,2.67,7.6a1.93,1.93,0,0,0,1.51,1.18h.89c.16,0,.19.1.19.23v.5c0,.16,0,.34-.24.34-.5,0-1.05-.08-4.39-.08-2.17,0-3.09.08-3.61.08-.26,0-.29-.16-.29-.34v-.5c0-.13,0-.23.16-.23h.73c.71,0,.94-.26.79-.94-.24-.95-1.26-4.29-1.57-5.23Zm5.49-1.05-2-6.92c-.1-.4-.15-.58-.28-.58s-.24.11-.32.34-2.38,6.51-2.59,7.16Z"/><path class="cls-3" d="M209.55,203.69c0,.44,0,6.09.08,7.13h1.49c1.23,0,2.4,0,3.82-.13s3.18-3.26,3.58-4.23c.08-.16.15-.24.31-.16l.52.21c.08.05.08.08.06.24s-1.13,4.49-1.29,5.2c-.67,0-8.2-.08-10.61-.08-2.58,0-3.53.08-3.87.08-.18,0-.2,0-.2-.24v-.65c0-.13,0-.18.18-.18h.81c1,0,1.12-.37,1.12-.66,0-.49.08-7,.08-8.6v-1.46c0-1.67,0-4.44-.08-4.86-.05-.68-.18-.94-.78-.94h-1c-.16,0-.18-.13-.18-.26v-.63c0-.13,0-.18.18-.18s1.23.07,3.61.07c3.06,0,4.15-.07,4.39-.07s.23.07.23.26v.6c0,.13-.05.21-.26.21h-1.23c-.81,0-.91.26-.91,1,0,.34-.08,4.29-.08,6.12Z"/><path class="cls-3" d="M227.74,207c0,1,.08,2.72.11,3,.08.84.47.92.89.92h.76c.18,0,.18.07.18.18v.65c0,.16,0,.24-.18.24s-1.34-.08-3.79-.08c-2.72,0-3.53.08-3.82.08-.11,0-.16-.08-.16-.26v-.63c0-.11,0-.18.19-.18h.91c.68,0,.89-.26.92-.6s.07-2.44.07-4.87v-1.12c-.41-.81-4.6-8.44-5.25-9.33a1.91,1.91,0,0,0-1.36-.6h-.39c-.16,0-.18-.08-.18-.18v-.74c0-.1,0-.15.18-.15s1.46.07,3.79.07c2.69,0,3.63-.07,3.89-.07s.19.05.19.18v.65c0,.13,0,.24-.19.24h-.6a.62.62,0,0,0-.63.68c0,.47,3.12,6.45,3.82,8,.78-1.44,3.92-6.95,3.92-7.76a1,1,0,0,0-1-.89h-.71c-.15,0-.18-.08-.18-.24v-.68c0-.1,0-.15.18-.15s1.34.07,3.27.07,2.38-.07,2.61-.07.21.05.21.21v.62c0,.16,0,.24-.21.24h-.47a2.22,2.22,0,0,0-1.49.62c-.34.42-4.41,7.12-5.49,9.13Z"/><path class="cls-3" d="M243.43,209.86a9.88,9.88,0,0,1-2.85-7,10.08,10.08,0,0,1,2.69-7.08,9,9,0,0,1,6.9-2.83,11.86,11.86,0,0,1,5.25,1.1c.37.18.5.16.55,0l.21-.65c.05-.16.11-.16.5-.16s.44.06.44.42.47,4.94.61,5.73c0,.18,0,.31-.14.34l-.57.15c-.13.06-.24-.05-.31-.28a8.58,8.58,0,0,0-2.1-3.51,6.15,6.15,0,0,0-4.49-2c-3.82,0-5.44,3.48-5.41,7.35,0,1.64.47,4.86,2.32,6.82a5.49,5.49,0,0,0,4.08,2,7.43,7.43,0,0,0,6.17-2.8c.13-.21.26-.31.39-.21l.45.4c.08.05.1.15,0,.31a9.33,9.33,0,0,1-7.74,4.31C246.9,212.26,245.07,211.32,243.43,209.86Z"/><path class="cls-3" d="M262.38,200.92c0-.63-.08-5.33-.11-5.67,0-.63-.31-.89-.86-.89h-1.25c-.13,0-.21-.05-.21-.16v-.76c0-.1.08-.15.18-.15.31,0,1.65.07,4.21.07s3.5-.07,3.87-.07c.13,0,.18.07.18.23v.66c0,.13-.08.18-.21.18h-.76c-.65,0-1,.21-1,.68,0,.26-.08,6-.08,6.35v2c0,.26.08,6.3.08,6.54,0,.81.39.94.89.94h1.07c.13,0,.21.05.21.18v.73c0,.11-.08.16-.24.16s-1.36-.08-3.84-.08c-2.74,0-3.87.08-4.16.08-.13,0-.21,0-.21-.21V211c0-.1.08-.15.21-.15h.76c.52,0,1.07-.08,1.18-.71.05-.39.13-6,.13-7.42Z"/><path class="cls-3" d="M277.51,194.57h-.91a11.58,11.58,0,0,0-3.5.41,17.64,17.64,0,0,0-2.38,3c-.08.13-.16.21-.26.18l-.58-.21c-.1,0-.13-.15-.1-.23.28-1.1,1.15-4.55,1.25-5.07.08-.34.21-.45.39-.45s.26.11.5.39a2.15,2.15,0,0,0,1.72.66c1.39.08,2.49.15,5.21.15h1.51c2.85,0,4-.1,5.07-.15a3.81,3.81,0,0,0,1.91-.66c.26-.26.42-.39.6-.39s.26.11.32.42l.78,5.2a.2.2,0,0,1-.1.24l-.55.21c-.11,0-.16-.06-.27-.24a18,18,0,0,0-2.24-2.93,11.57,11.57,0,0,0-3.58-.49h-.87v7.19c0,.36,0,7.68,0,8.07.05.65.26,1,.89,1h1.17c.24,0,.27.07.27.26v.6c0,.13,0,.21-.27.21s-1.09-.08-4-.08-3.86.08-4.23.08c-.21,0-.23-.11-.23-.32v-.49c0-.19,0-.26.18-.26h1.33a.84.84,0,0,0,.89-.79c.05-.55.05-8.57.05-9.07Z"/><path class="cls-3" d="M300.31,207c0,1,.07,2.72.1,3,.08.84.47.92.89.92h.76c.18,0,.18.07.18.18v.65c0,.16,0,.24-.18.24s-1.34-.08-3.79-.08c-2.72,0-3.53.08-3.82.08-.1,0-.16-.08-.16-.26v-.63c0-.11,0-.18.19-.18h.91c.68,0,.89-.26.92-.6s.07-2.44.07-4.87v-1.12c-.41-.81-4.6-8.44-5.25-9.33a1.91,1.91,0,0,0-1.36-.6h-.39c-.16,0-.18-.08-.18-.18v-.74c0-.1,0-.15.18-.15s1.46.07,3.79.07c2.69,0,3.63-.07,3.89-.07s.19.05.19.18v.65c0,.13,0,.24-.19.24h-.6a.62.62,0,0,0-.62.68c0,.47,3.11,6.45,3.81,8,.79-1.44,3.92-6.95,3.92-7.76a1,1,0,0,0-1-.89h-.71c-.15,0-.18-.08-.18-.24v-.68c0-.1,0-.15.18-.15s1.34.07,3.27.07,2.38-.07,2.61-.07.21.05.21.21v.62c0,.16,0,.24-.21.24h-.47a2.22,2.22,0,0,0-1.49.62c-.34.42-4.41,7.12-5.48,9.13Z"/><path class="cls-3" d="M307.68,216.63a1.54,1.54,0,0,1-.61.1c-.2,0-.31-.1-.31-.26s.11-.23.26-.39c.55-.5,2-1.75,2-3.29a.92.92,0,0,0-.57-.79,1.82,1.82,0,0,1-1.44-1.72,2,2,0,0,1,1.88-2.15c1.49,0,2.64,1.39,2.64,3.43C311.49,214.3,308.49,216.21,307.68,216.63Z"/><path class="cls-3" d="M321.53,209.86a9.92,9.92,0,0,1-2.85-7,10.08,10.08,0,0,1,2.69-7.08,9,9,0,0,1,6.9-2.83,12,12,0,0,1,5.26,1.1c.36.18.49.16.55,0l.21-.65c0-.16.1-.16.49-.16s.45.06.45.42.47,4.94.6,5.73c0,.18,0,.31-.13.34l-.58.15c-.13.06-.23-.05-.31-.28a8.66,8.66,0,0,0-2.09-3.51,6.18,6.18,0,0,0-4.5-2c-3.81,0-5.44,3.48-5.41,7.35,0,1.64.47,4.86,2.33,6.82a5.49,5.49,0,0,0,4.08,2,7.41,7.41,0,0,0,6.16-2.8c.13-.21.27-.31.4-.21l.44.4c.08.05.1.15,0,.31a9.33,9.33,0,0,1-7.74,4.31C325,212.26,323.18,211.32,321.53,209.86Z"/><path class="cls-3" d="M341.87,204.71a31.76,31.76,0,0,0-1.49,5c0,.58.23,1.21,1,1.21h.91c.26,0,.29.1.29.21v.57c0,.21,0,.29-.24.29s-1.41-.08-3.55-.08c-1.91,0-2.49.08-2.85.08-.16,0-.18-.16-.18-.34v-.5c0-.16,0-.23.18-.23h.68a2.22,2.22,0,0,0,1.78-1.15c.36-.55,2.22-5.1,3.08-7.4.21-.52,2.33-6.14,2.56-6.85a1.06,1.06,0,0,0,0-.89.69.69,0,0,1-.19-.34c0-.07.06-.18.27-.23a8,8,0,0,0,2.92-1.31c.13-.13.21-.23.34-.23s.21.15.29.44c.5,1.65,2.54,7.5,3,9.18.6,2,2.3,6.89,2.67,7.6a1.93,1.93,0,0,0,1.52,1.18h.88c.16,0,.19.1.19.23v.5c0,.16,0,.34-.24.34-.5,0-1-.08-4.39-.08-2.17,0-3.08.08-3.61.08-.26,0-.28-.16-.28-.34v-.5c0-.13,0-.23.15-.23h.73c.71,0,.94-.26.79-.94-.24-.95-1.26-4.29-1.57-5.23Zm5.48-1.05-2-6.92c-.11-.4-.16-.58-.29-.58s-.24.11-.32.34-2.38,6.51-2.58,7.16Z"/><path class="cls-3" d="M357.84,216.63a1.54,1.54,0,0,1-.61.1c-.2,0-.31-.1-.31-.26s.11-.23.26-.39c.55-.5,2-1.75,2-3.29a.92.92,0,0,0-.57-.79,1.82,1.82,0,0,1-1.44-1.72,2,2,0,0,1,1.88-2.15c1.49,0,2.64,1.39,2.64,3.43C361.65,214.3,358.65,216.21,357.84,216.63Z"/><path class="cls-3" d="M378.36,196a7.25,7.25,0,0,1,1.46,4.11,13.11,13.11,0,0,1-4.24,9.8,10.11,10.11,0,0,1-4.18,2.27,3.37,3.37,0,0,1-.81.13c-.21,0-.42-.08-.42-.39a.53.53,0,0,1,.34-.44c2.2-.84,4.66-3.66,5.21-7.3h-.19a4.59,4.59,0,0,1-2.87.76,4.42,4.42,0,0,1-4.34-4.65,6.87,6.87,0,0,1,1.88-4.78A5.4,5.4,0,0,1,374,194C376.11,194,377.31,194.57,378.36,196Zm-6.64,2.93c0,2.59,1.07,4.5,2.48,4.5a2,2,0,0,0,1.46-.53c.42-.47.4-2.09.4-3.29,0-2.43-.4-4.58-2-4.58S371.72,196.47,371.72,198.88Z"/><path class="cls-3" d="M388.37,211.87c-.24,0-.32,0-.32-.29v-3.81h-6.74c-.47,0-.79-.19-.79-.5a1.69,1.69,0,0,1,.48-1l9.35-11.81A.88.88,0,0,1,391,194c.26,0,.37.18.37.89v10.48h1.65c.18,0,.31.1.31.23v1.88c0,.16-.08.27-.42.27H391.4v3.73c0,.29,0,.37-.37.37Zm-.29-6.48v-5.78c0-.36-.26-.36-.5-.05l-4.23,5.31c-.24.28-.16.52.18.52Z"/><path class="cls-3" d="M406,203c0,6-1.93,9.28-5.69,9.28-4.6,0-5.94-5.07-5.94-8.39,0-5.83,2-9.85,5.91-9.85C405.12,194,406,199,406,203Zm-7.21-6.17a34.85,34.85,0,0,0-.73,6.77,23.92,23.92,0,0,0,.42,5.57c.41,1.49.91,2,1.85,2s1.44-.52,1.67-1.7a43.17,43.17,0,0,0,.34-7.08c0-4.39-.49-7.32-1.93-7.32C399.48,195.09,399,195.82,398.77,196.81Z"/><path class="cls-3" d="M411.87,198.85c0-.62-.14-1.2-.61-1.2a4.44,4.44,0,0,0-1.17.18l-1.28.37c-.13,0-.24,0-.29-.08l-.18-.52c-.06-.11,0-.21.15-.31l6.36-3.11a1.18,1.18,0,0,1,.49-.16c.16,0,.24.18.24.39s-.08,4.31-.08,7.69v1.09c0,1.36,0,5.86,0,6.14,0,1.36.14,1.55,1.44,1.55h.94c.19,0,.26.07.26.21v.68c0,.13-.07.18-.28.18l-4.19-.08c-.75,0-4.44.08-4.57.08s-.21,0-.21-.18v-.71c0-.16.16-.18.37-.18H410c1.44,0,1.83-.08,1.88-1.41.05-1.1,0-4,0-4.92Z"/><path class="cls-3" d="M427.57,211.87c-.23,0-.31,0-.31-.29v-3.81h-6.74c-.47,0-.79-.19-.79-.5a1.68,1.68,0,0,1,.47-1l9.36-11.81a.88.88,0,0,1,.68-.42c.26,0,.37.18.37.89v10.48h1.64c.19,0,.32.1.32.23v1.88c0,.16-.08.27-.42.27h-1.54v3.73c0,.29-.06.37-.37.37Zm-.28-6.48v-5.78c0-.36-.26-.36-.5-.05l-4.23,5.31c-.24.28-.16.52.18.52Z"/></g></g></svg>