<svg xmlns="http://www.w3.org/2000/svg" viewBox="0 0 529.29 60.23"><defs><style>.cls-1{fill:#95272b;}.cls-2{fill:#93272d;}</style></defs><title>Asset 2</title><g id="Layer_2" data-name="Layer 2"><g id="Layer_1-2" data-name="Layer 1"><path class="cls-1" d="M12.07,5a6.74,6.74,0,0,0-.83.85,6.07,6.07,0,0,0-.68.94c-.44.82-.88,1.58-1.31,2.28s-.85,1.36-1.27,2a2.41,2.41,0,0,1,1,1.23,3.64,3.64,0,0,1-.13,1.57c0,.13-.05.41-.08.84s-.06.94-.08,1.54,0,1.24,0,1.91,0,1.31,0,1.92,0,1.15,0,1.64,0,.82,0,1c0,.61,0,1.11,0,1.48s-.05.7-.08,1-.07.47-.1.64a5.5,5.5,0,0,1-.14.59c-.27,1-.62,1.51-1,1.52s-1-.48-1.66-1.49a3.08,3.08,0,0,1-.5-1.59,6.35,6.35,0,0,1,.6-2.41,7.67,7.67,0,0,0,.47-2.61c0-1.1.06-2.33.06-3.72V14.57c0-.43,0-.82,0-1.18a15.65,15.65,0,0,1-2.16,2,14.37,14.37,0,0,1-2.15,1.37c-1.14.59-1.75.83-1.83.73s.33-.64,1.23-1.61A33.11,33.11,0,0,0,4,12.54,36.68,36.68,0,0,0,6.25,8.92,20.51,20.51,0,0,0,7.74,5.57,4.84,4.84,0,0,0,8,3a4.72,4.72,0,0,1-.17-1.24c0-.31.11-.48.3-.52a1.67,1.67,0,0,1,.91.22,17.64,17.64,0,0,1,1.73.94A4.2,4.2,0,0,1,12.5,3.9C12.65,4.29,12.51,4.66,12.07,5ZM28.16,22.21a3.06,3.06,0,0,1,.71.91.79.79,0,0,1,0,.76,1.15,1.15,0,0,1-.84.42,5.74,5.74,0,0,1-1.84-.08,15.86,15.86,0,0,0-1.78-.17C23.75,24,23,24,22.32,24s-1.45,0-2.17,0-1.38.07-2,.11c-1.37.1-2.49.22-3.37.36a19.81,19.81,0,0,0-2.49.55c-.35.11-.64.19-.86.24a1.65,1.65,0,0,1-.62,0,1.76,1.76,0,0,1-.6-.22,8.41,8.41,0,0,1-.81-.52q-.86-.57-.63-.9t1.32-.36c.36,0,1.12-.09,2.3-.22s2.52-.29,4-.5l.06-5.07-1.46.19a8.91,8.91,0,0,1-.93.06,2.8,2.8,0,0,1-.63-.06L13,17.55c-1-.34-1.44-.61-1.37-.84s.62-.4,1.62-.55c.55-.08,1.14-.18,1.78-.3s1.17-.22,1.59-.33V13.9c0-.47,0-.87,0-1.22a5.39,5.39,0,0,0-.15-.91,4.32,4.32,0,0,0-.25-.77l-1.95.27c-.5.05-.92.08-1.24.09a2.81,2.81,0,0,1-.77,0,4.26,4.26,0,0,1-.54-.15c-.88-.36-1.29-.64-1.21-.84S11,10,12,9.83c.54-.06,1.17-.15,1.87-.28s1.41-.26,2.11-.41,1.39-.3,2.06-.47,1.25-.34,1.74-.51c.77-.27,1.42-.48,1.93-.62a6.88,6.88,0,0,1,1.34-.27,3.07,3.07,0,0,1,1.06.09,7.56,7.56,0,0,1,1.11.46c.65.36.95.71.9,1.07s-.42.6-1.12.72L22.45,10l-3.67.58a8.78,8.78,0,0,1,1,.61,1.35,1.35,0,0,1,.45.54.84.84,0,0,1,.05.54,2.43,2.43,0,0,1-.22.55,3.09,3.09,0,0,0-.3.75,7.08,7.08,0,0,0-.17,1.07c.56-.14,1-.25,1.43-.31a5.69,5.69,0,0,1,1-.08,2.72,2.72,0,0,1,.8.14,5.31,5.31,0,0,1,.73.35c.54.29.75.63.63,1s-.53.61-1.2.72l-1.48.24L19.5,17l-.16,5.11,2.11-.34q1.11-.16,1.86-.33c.63-.12,1.18-.22,1.64-.28a4.31,4.31,0,0,1,1.24,0,3,3,0,0,1,1,.31A4.07,4.07,0,0,1,28.16,22.21ZM20.67,5.49a2,2,0,0,1-.22.93,1.65,1.65,0,0,1-.57.6,1.26,1.26,0,0,1-.77.15,1.52,1.52,0,0,1-.84-.42A12,12,0,0,1,16.9,5.33c-.36-.46-.78-1-1.24-1.7s-.56-1-.42-1.15.57-.18,1.3-.08c.9.15,1.63.3,2.19.44A3.86,3.86,0,0,1,20,3.39a1.45,1.45,0,0,1,.56.84A4.28,4.28,0,0,1,20.67,5.49Z"/><path class="cls-1" d="M62.71,22.52a1.52,1.52,0,0,1,.34,1.64,4,4,0,0,1-2.11,1.58c-.44.18-.92.36-1.43.53a12.42,12.42,0,0,1-1.72.41c-.63.11-1.34.19-2.12.25A24.38,24.38,0,0,1,53,27a11.26,11.26,0,0,1-4.9-.95,3.71,3.71,0,0,1-2-2.68,21.77,21.77,0,0,1-.27-2.22c0-.8-.06-1.68,0-2.63L43.5,19l-1.36.31c-.56.17-1,.3-1.37.38a3,3,0,0,1-.89.11,2.26,2.26,0,0,1-.76-.17c-.25-.11-.58-.26-1-.47-.61-.32-.83-.57-.66-.76a1.74,1.74,0,0,1,1.1-.35c.74-.06,1.77-.21,3.11-.45s2.73-.54,4.2-.9a15.91,15.91,0,0,0,0-2.25,4,4,0,0,0-.33-1.34c-.44.11-.9.19-1.38.27a10.22,10.22,0,0,1-1.45.11c-1.39,0-2.09-.14-2.13-.41s.57-.55,1.78-.82a16.65,16.65,0,0,0,2.3-.71,23.12,23.12,0,0,0,2.22-1,15,15,0,0,0,1.75-1,2.71,2.71,0,0,0,.88-.8A6.28,6.28,0,0,1,50,8.06a.63.63,0,0,1,.49-.29A1.57,1.57,0,0,1,51.2,8c.3.16.71.4,1.24.71a7.38,7.38,0,0,1,1.48,1.1,1.11,1.11,0,0,1,.39.8c0,.23-.21.4-.55.52a4.58,4.58,0,0,1-1.32.26,14.59,14.59,0,0,0-2,.34c-.83.19-1.75.46-2.75.79.52.17.92.31,1.21.43a1.1,1.1,0,0,1,.56.39.5.5,0,0,1,0,.49,3.34,3.34,0,0,1-.4.64,1.69,1.69,0,0,0-.31.63,5.28,5.28,0,0,0-.16.95c.71-.19,1.39-.39,2-.59s1.19-.39,1.7-.58,1-.37,1.38-.49a4.3,4.3,0,0,1,1-.19,2.27,2.27,0,0,1,.78.12,5.78,5.78,0,0,1,.85.37,4.19,4.19,0,0,1,1,.73c.21.23.24.44.08.63a2.27,2.27,0,0,1-1.06.52A18.53,18.53,0,0,1,54,17c-.63.09-1.43.21-2.39.38s-2,.37-3.05.6a14.13,14.13,0,0,0,0,2.25,10.13,10.13,0,0,0,.22,1.65,2.49,2.49,0,0,0,.28.81,1.34,1.34,0,0,0,.58.52,3.91,3.91,0,0,0,1.07.28,14.12,14.12,0,0,0,1.78.09,17.62,17.62,0,0,0,2.81-.23,14.07,14.07,0,0,0,2.83-.77,3.72,3.72,0,0,0,.76-.41,2.8,2.8,0,0,0,.64-.71,6,6,0,0,0,.55-1.13,10,10,0,0,0,.44-1.69q.51-2.46,1-2.31c.31.09.48.94.52,2.53a18.08,18.08,0,0,0,.21,2.46A2.38,2.38,0,0,0,62.71,22.52ZM61.51,5.11a5.25,5.25,0,0,1,1.16,1.26,1.29,1.29,0,0,1,.24.88.75.75,0,0,1-.54.52A3.51,3.51,0,0,1,61.23,8a9.73,9.73,0,0,0-2.08.33,15.19,15.19,0,0,0-2.21.8q-1,.44-1.26.24t.51-1.41c.29-.46.51-.81.64-1.07A1.35,1.35,0,0,0,57,6.31q0-.19-.21-.21a4.75,4.75,0,0,0-.61,0c-.65,0-1.41.1-2.27.19l-2.63.26c-.89.1-1.76.2-2.61.32s-1.59.24-2.22.36-1.06.19-1.48.25a8.27,8.27,0,0,1-1.12.11,6.09,6.09,0,0,1-.88,0,3,3,0,0,1-.77-.2,12,12,0,0,1-.63,1.86,9.73,9.73,0,0,1-.85,1.57,3.27,3.27,0,0,1-.79.82,1.3,1.3,0,0,1-.79.27.87.87,0,0,1-.66-.37,2.3,2.3,0,0,1-.41-1,4.47,4.47,0,0,1-.06-1.64,2.07,2.07,0,0,1,.72-1.1,4.62,4.62,0,0,0,.95-1.06,7.22,7.22,0,0,0,.66-1.5,2.16,2.16,0,0,1,.28-.55A.35.35,0,0,1,41,4.5a.93.93,0,0,1,.48.41,6,6,0,0,1,.61,1.15C42.66,6,43.29,6,44,5.93s1.57-.16,2.53-.3,2.08-.3,3.34-.5,2.7-.45,4.31-.74c.38-.07.87-.18,1.47-.35a8.2,8.2,0,0,0,1.56-.6,3.64,3.64,0,0,1,.8-.3,1.52,1.52,0,0,1,.8.08,5.05,5.05,0,0,1,1.07.6A18.69,18.69,0,0,1,61.51,5.11Zm-10-3.18a4,4,0,0,1,0,1.26,1.62,1.62,0,0,1-.39.82,1,1,0,0,1-.73.28,1.81,1.81,0,0,1-1-.34,10.79,10.79,0,0,1-1.34-1,10.85,10.85,0,0,1-1.28-1.37c-.48-.58-.65-1-.52-1.24S46.81,0,47.53,0a15.1,15.1,0,0,1,1.87.2,4.3,4.3,0,0,1,1.18.38,1.67,1.67,0,0,1,.65.57A2.27,2.27,0,0,1,51.5,1.93Z"/><path class="cls-1" d="M81.69,17.67c.17.19.1.44-.2.74a12,12,0,0,1-1.21,1c-1.07.82-2,1.49-2.65,2s-1.25,1-1.68,1.34-.76.65-1,.88a5.79,5.79,0,0,0-.56.63,2.12,2.12,0,0,1-.47.45.7.7,0,0,1-.56.08,3.06,3.06,0,0,1-.83-.33,11.36,11.36,0,0,1-1.29-.8q-1.55-1-1.47-1.59c.06-.39.65-.6,1.78-.65a5.8,5.8,0,0,0,1.53-.29,16.85,16.85,0,0,0,2-.84l0-5.13a6.06,6.06,0,0,1-1.5.09A4.35,4.35,0,0,1,72.44,15c-.66-.3-1-.51-1-.65s.39-.29,1.18-.45l1.17-.34a10.69,10.69,0,0,0,1.29-.48c0-2.27,0-4-.14-5.18a4.84,4.84,0,0,0-.68-2.47,4,4,0,0,1-.69-1.12c-.11-.31-.08-.52.09-.65a1.56,1.56,0,0,1,1-.11,11.29,11.29,0,0,1,2,.49,4.44,4.44,0,0,1,1.23.57,1.66,1.66,0,0,1,.6.66,1.19,1.19,0,0,1,.08.75,3,3,0,0,1-.3.85,5,5,0,0,0-.35,1.66q-.09,1.14-.09,3.48a2.77,2.77,0,0,1,.83-.16,4,4,0,0,1,.68.06c.8.17,1.26.41,1.37.71s-.28.69-1.18,1.15a15.84,15.84,0,0,1-1.7.76l0,4.44a22.15,22.15,0,0,1,2.84-1.17C81.27,17.63,81.61,17.59,81.69,17.67Zm17.86,4.07a3.11,3.11,0,0,1,.63,1.24,1.4,1.4,0,0,1-.38,1.2A5,5,0,0,1,98,25.28a17.66,17.66,0,0,1-3.53.93,21.37,21.37,0,0,1-3.24.28,19.7,19.7,0,0,1-3.63-.28,7.3,7.3,0,0,1-3.74-1.58,5.67,5.67,0,0,1-1.64-3.21,12.08,12.08,0,0,1-.21-2c0-.83,0-1.66,0-2.5a3.15,3.15,0,0,1-1.31.55,2,2,0,0,1-1.12-.17,4.65,4.65,0,0,1-.89-.49q-.27-.21-.24-.36c0-.11.14-.2.36-.29l.9-.31a18.89,18.89,0,0,0,2.39-1.07A16.11,16.11,0,0,0,82,12.05a3.56,3.56,0,0,0-.42-1.43c-.68-.75-.89-1.27-.65-1.56s1-.21,2.35.21a5.65,5.65,0,0,1,1.19.5,1.82,1.82,0,0,1,.59.52.86.86,0,0,1,.14.55,2.44,2.44,0,0,1-.16.6,4.1,4.1,0,0,0-.3,1.07c0,.29-.06.61-.08,1,.3-.17.59-.34.88-.49l.89-.49V10c0-.48,0-1,0-1.48s0-1,0-1.48c0-.69,0-1.27-.07-1.73s-.08-.85-.13-1.15A4.13,4.13,0,0,0,86,3.41a1.87,1.87,0,0,0-.24-.47A6.17,6.17,0,0,1,85,1.76c-.13-.33-.13-.57,0-.73A1.13,1.13,0,0,1,85.9.84a8.65,8.65,0,0,1,1.78.43,6.55,6.55,0,0,1,1.41.64,2.11,2.11,0,0,1,.7.7,1.15,1.15,0,0,1,.12.72,2.68,2.68,0,0,1-.28.77,3.28,3.28,0,0,0-.21.65A11.63,11.63,0,0,0,89.23,6c0,.53-.1,1.21-.15,2S89,9.8,89,10.94c.75-.49,1.3-.85,1.63-1.11a1.91,1.91,0,0,0,.6-.59,2.79,2.79,0,0,1,.46-.73.92.92,0,0,1,.55-.3,1.83,1.83,0,0,1,.79.1,10.22,10.22,0,0,1,1.19.45,9.76,9.76,0,0,1,1.39.74,1.44,1.44,0,0,1,.57.65.71.71,0,0,1-.13.63,4.7,4.7,0,0,1-.63.69,4.09,4.09,0,0,0-.28.33,2.27,2.27,0,0,0-.26.54c-.08.24-.17.55-.26.94s-.21.91-.33,1.56-.29,1.3-.43,1.83-.28,1-.42,1.37a6.07,6.07,0,0,1-.49,1,4,4,0,0,1-.62.79c-.6.61-1.07.88-1.4.82s-.58-.45-.77-1.17a4.28,4.28,0,0,0-.31-.86c-.15-.31-.35-.7-.6-1.19s-.44-1-.36-1.1.38,0,.93.25a1.2,1.2,0,0,0,.7.18c.18,0,.32-.2.43-.49s.19-.6.27-.87a6.26,6.26,0,0,0,.17-.88c0-.32.08-.7.13-1.13s.08-1,.12-1.66a.33.33,0,0,0-.17-.34q-.21-.13-.33-.06L90,12c-.36.2-.73.41-1.11.64-.06,1.56-.17,3-.34,4.27a28.12,28.12,0,0,1-.51,2.95,6.07,6.07,0,0,1-.61,1.65c-.22.34-.43.49-.61.42s-.35-.32-.46-.78a8.5,8.5,0,0,1-.17-2c0-.12,0-.37,0-.75s0-.82,0-1.31,0-1,.05-1.51,0-1,.06-1.37l-.88.53c-.27.17-.55.36-.85.57-.08,1.22-.11,2.32-.08,3.29a9.31,9.31,0,0,0,.21,2,5.13,5.13,0,0,0,.42,1.18,1.8,1.8,0,0,0,.62.71,3.05,3.05,0,0,0,.91.4c.36.09.81.18,1.35.26a12.65,12.65,0,0,0,2.48.21,14.79,14.79,0,0,0,3.16-.46A7.49,7.49,0,0,0,95,22.51a2.61,2.61,0,0,0,1-.77,4.78,4.78,0,0,0,.76-1.45,16.12,16.12,0,0,0,.56-2.39,6.75,6.75,0,0,1,.32-1.38c.12-.32.25-.49.38-.51s.24.13.34.45A7.39,7.39,0,0,1,98.63,18c.05.61.1,1.12.16,1.53a8.61,8.61,0,0,0,.21,1,2.87,2.87,0,0,0,.25.69A2.29,2.29,0,0,0,99.55,21.74Z"/><path class="cls-1" d="M117.9,17.55c.15.17.12.35-.09.55s-.62.54-1.23,1q-1.76,1.32-2.82,2.16l-1.67,1.35c-.4.35-.7.62-.89.82a6.37,6.37,0,0,0-.47.55,1.88,1.88,0,0,1-.54.52,1,1,0,0,1-.63.15,2.5,2.5,0,0,1-.83-.29,13.49,13.49,0,0,1-1.19-.72c-1-.65-1.39-1.13-1.27-1.42s.73-.57,1.84-.82a12.34,12.34,0,0,0,1.51-.42,17.86,17.86,0,0,0,1.92-.81l0-5.85-.76.09a4.1,4.1,0,0,1-.6,0,4.51,4.51,0,0,1-.6-.08l-.72-.16c-.67-.17-1-.36-1-.58s.43-.41,1.23-.55c.36-.07.75-.15,1.17-.27l1.26-.39c0-1.05,0-2,0-2.71s-.08-1.4-.14-1.94a8,8,0,0,0-.27-1.32,3.21,3.21,0,0,0-.43-.87,5.9,5.9,0,0,1-.8-1.24c-.14-.33-.12-.56,0-.69a1.3,1.3,0,0,1,1-.1,13.58,13.58,0,0,1,2,.55c.63.21,1.13.4,1.49.55a1.82,1.82,0,0,1,.76.52.78.78,0,0,1,.13.65,4.76,4.76,0,0,1-.37.93,5,5,0,0,0-.39,1.45c-.09.65-.17,1.62-.24,2.92a2.41,2.41,0,0,1,.74-.15,2.47,2.47,0,0,1,.56.06q2.9.83.18,2l-.8.32-.74.28-.06,5.26a23.35,23.35,0,0,1,2.74-1.18C117.5,17.51,117.82,17.47,117.9,17.55Zm15.15,5.1c1.11.94,1.55,1.61,1.32,2s-1.17.45-2.83.17c-.48-.08-1-.15-1.61-.2s-1.19-.09-1.82-.1h-1.92c-.65,0-1.27,0-1.86.08-1.7.13-3.09.26-4.16.41s-1.94.31-2.61.47a8.08,8.08,0,0,1-1,.22,3,3,0,0,1-.78,0,2.56,2.56,0,0,1-.71-.18,6.31,6.31,0,0,1-.79-.39c-1-.57-1.43-.94-1.4-1.12s.58-.29,1.65-.33l1.63-.11c.74-.05,1.62-.13,2.62-.24,0-2.07.07-3.76.07-5.05s0-2.32-.07-3.09a10.28,10.28,0,0,0-.2-1.71,3.19,3.19,0,0,0-.39-.95c-.63-.94-.84-1.55-.62-1.84s1.06-.11,2.51.52c.52.23.93.43,1.22.58a1.43,1.43,0,0,1,.6.51A.86.86,0,0,1,122,13a5.33,5.33,0,0,1-.33,1,3.38,3.38,0,0,0-.2.74,10.8,10.8,0,0,0-.13,1.42c0,.64-.05,1.51-.06,2.63s0,2.58,0,4.4c.48,0,1-.09,1.43-.15s1-.12,1.43-.16c0-2-.06-3.91-.07-5.61s0-3.18,0-4.44c0-1.7,0-3.09,0-4.17s-.08-1.95-.15-2.61a6.6,6.6,0,0,0-.33-1.53,4.06,4.06,0,0,0-.54-.94,4.53,4.53,0,0,1-.66-1c-.13-.28-.13-.49,0-.63a1,1,0,0,1,.76-.17,7,7,0,0,1,1.65.38c.9.29,1.6.54,2.08.74a2.82,2.82,0,0,1,1,.6.67.67,0,0,1,.17.67,5.25,5.25,0,0,1-.37,1,5,5,0,0,0-.33.93,6.72,6.72,0,0,0-.21,1.37c0,.56-.07,1.29-.09,2.17s0,2,0,3.34c.69-.32,1.26-.56,1.7-.73a5.56,5.56,0,0,1,1.1-.31,2.31,2.31,0,0,1,.79,0,6.1,6.1,0,0,1,.78.27c.91.38,1.33.75,1.28,1.12s-.48.65-1.28.83a24.54,24.54,0,0,1-2.45.48,8,8,0,0,1-2,0q0,.6,0,1.23c0,.35,0,.77,0,1.25s0,1,0,1.45c0,1.16,0,2.48,0,4l1.35-.23c.4-.08.74-.16,1-.24.46-.13.87-.22,1.21-.28a2.71,2.71,0,0,1,1,0,2.89,2.89,0,0,1,.88.31A7,7,0,0,1,133.05,22.65Z"/><path class="cls-1" d="M26,41.06c0-.8-.44-3-.44-3.46s.31-.65.74-.65.72.23.72.65-.45,2.66-.48,3.46Zm2.51,0c0-.8-.44-3-.44-3.46s.3-.65.73-.65.73.23.73.65S29,40.28,29,41.08Z"/><path class="cls-1" d="M33.89,44c-.16.39-1,2.77-1.13,3.09,0,.11,0,.27,0,.35s.19.34.53.35H34c.11,0,.16,0,.16.11v.37c0,.11-.05.14-.12.14s-.87-.06-1.79-.07c-1.15,0-1.49,0-1.71,0s-.11,0-.11-.13v-.38a.12.12,0,0,1,.13-.11h.55c.47,0,.69-.21.91-.71.12-.25,1.29-3.15,1.75-4.43.12-.31,1.42-3.67,1.56-4.09a.64.64,0,0,0,0-.54.4.4,0,0,1-.11-.2s0-.11.15-.14a3.09,3.09,0,0,0,1.3-.78c.08-.07.13-.14.21-.13s.12.09.17.26c.29,1,1.48,4.52,1.77,5.52.35,1.23,1.35,4.16,1.56,4.61a1.17,1.17,0,0,0,1.06.72H42c.09,0,.12,0,.12.11v.4c0,.07,0,.11-.16.11-.28,0-.61-.06-1.88-.07s-1.85,0-2.21,0a.12.12,0,0,1-.13-.14v-.36c0-.1,0-.11.14-.11h.39c.44,0,.58-.15.48-.59s-.75-2.58-1-3.21Zm3.67-.54c-.13-.47-1.37-4.4-1.45-4.64S36,38.6,36,38.6s-.13.11-.17.24S34.21,43,34.1,43.43Z"/><path class="cls-1" d="M44.58,41.25c0-.41,0-2.63-.06-2.9s-.24-.44-.67-.45H43c-.08,0-.12,0-.12-.11v-.43c0-.06.05-.08.11-.07s.89.05,2.31.06c.4,0,2,0,2.33,0,2,0,3.72.26,5.09,1.45a5.06,5.06,0,0,1,1.7,4,5.58,5.58,0,0,1-1.58,4.11c-1.52,1.65-3.69,1.63-4.9,1.62-1,0-2.18-.07-2.88-.07-1.37,0-2,0-2.21,0s-.11,0-.11-.11V48c0-.06.05-.09.13-.09h1c.29,0,.47-.12.5-.37s.15-3.86.16-5.08ZM46,42.78c0,.21,0,2.88,0,3.85a1.52,1.52,0,0,0,.26.88,2.2,2.2,0,0,0,1.66.52,4.6,4.6,0,0,0,3.7-1.67,5.71,5.71,0,0,0,1.18-3.52,5.52,5.52,0,0,0-1.26-3.47,5.24,5.24,0,0,0-3.92-1.54,3.22,3.22,0,0,0-1.26.14c-.22.14-.28.39-.3.74,0,.66,0,2.71,0,3Z"/><path class="cls-1" d="M57.55,41.36c0-.4,0-2.63-.06-2.9s-.24-.44-.67-.44H56c-.08,0-.13,0-.12-.11v-.42c0-.07,0-.08.11-.08s.89.05,2.3.07l2.34,0c2,0,3.72.27,5.09,1.46a5,5,0,0,1,1.7,4A5.58,5.58,0,0,1,65.8,47c-1.52,1.65-3.69,1.63-4.9,1.62-1,0-2.18-.07-2.88-.07-1.37,0-2,0-2.21,0a.1.1,0,0,1-.11-.11v-.41c0-.06,0-.1.13-.1h1.05c.29,0,.47-.12.5-.37s.15-3.86.16-5.08ZM59,42.9c0,.2,0,2.87,0,3.84a1.48,1.48,0,0,0,.26.88,2.2,2.2,0,0,0,1.66.52,4.63,4.63,0,0,0,3.7-1.66A5.71,5.71,0,0,0,65.77,43a5.54,5.54,0,0,0-1.26-3.48,5.27,5.27,0,0,0-3.92-1.54,3.22,3.22,0,0,0-1.26.15c-.22.14-.28.39-.3.73,0,.66,0,2.71,0,3Z"/><path class="cls-1" d="M70.45,41.54c0-1.16,0-2.16,0-2.62s-.2-.79-.59-.79h-.63c-.07,0-.09-.05-.09-.11v-.4c0-.07,0-.11.1-.11s.63.06,1.94.07c.88,0,2.34,0,2.62,0a4.32,4.32,0,0,1,2.93,1,2.66,2.66,0,0,1,.8,1.79c0,2-.92,2.69-2.93,3.11v0a1.58,1.58,0,0,1,.71.61c.19.2,1.29,1.81,1.42,2a12,12,0,0,0,1.36,1.81,1.79,1.79,0,0,0,1.13.28c.11,0,.12.06.12.12v.35c0,.09,0,.14-.13.14s-.53,0-1.22-.06c-.46,0-1,0-1.27,0a8.61,8.61,0,0,1-.65-.9c-.13-.19-1-1.69-1-1.81s-.8-1.25-1-1.47a2,2,0,0,0-1.69-.93,2.06,2.06,0,0,0-.51,0v.88c0,.92,0,2.68,0,2.91s.16.62.39.62h1c.11,0,.12,0,.12.12v.35c0,.11,0,.14-.17.14s-.57,0-2.06-.07-1.79,0-2,0-.12-.05-.12-.12v-.36c0-.08,0-.13.08-.13h.64c.35,0,.61-.11.62-.53,0-1.56.06-3,.07-4.52Zm1.4,1.56a3,3,0,0,0,.71.07c2.85,0,3.42-1.93,3.42-2.59a2.34,2.34,0,0,0-.77-1.79,3.74,3.74,0,0,0-2.59-.74.88.88,0,0,0-.54.12.59.59,0,0,0-.19.5Z"/><path class="cls-1" d="M83,42.78c.12,0,1.8-.05,2-.08.46-.07.58-.2.73-.68a3.79,3.79,0,0,0,.13-.77.1.1,0,0,1,.11-.11l.39,0c.08,0,.11.06.1.13,0,.26-.06,1.55-.07,1.78,0,.55.06,1.31.08,1.64,0,.08,0,.11-.09.12l-.35.05q-.11,0-.12-.15c0-.2-.12-.56-.17-.74a.73.73,0,0,0-.67-.61,20.69,20.69,0,0,0-2.07-.1v1c0,.85,0,2.37,0,2.69,0,.81.4,1.13.89,1.23a7.81,7.81,0,0,0,1.16.12c.26,0,1,0,1.38,0a3.06,3.06,0,0,0,1.37-.53,14.45,14.45,0,0,0,1.3-1.64c0-.08.09-.14.19-.09l.25.14c.08,0,.07.1,0,.22l-.85,2.3a.34.34,0,0,1-.35.23l-1.37,0-4.91-.06H80.74l-.67,0c-.1,0-.14,0-.14-.11v-.43c0-.06,0-.07.16-.07h.62c.73,0,.79-.1.79-.68l0-5.26c0-1.3,0-3.26,0-3.42-.06-.5-.21-.61-.79-.61h-.57c-.07,0-.12,0-.12-.11v-.42s0-.08.11-.08c.35,0,.9,0,1.93.06h.69l4.66,0c.25,0,.55,0,.63,0s.11,0,.12.08L89,40.29c0,.06,0,.11,0,.14l-.23.12a.11.11,0,0,1-.13,0A12.69,12.69,0,0,0,87,38.7a2.48,2.48,0,0,0-1.19-.43L83,38.18Z"/><path class="cls-1" d="M92.1,48.29a.76.76,0,0,0-.36-.2c-.09,0-.16.11-.25.27s-.18.19-.29.18-.17-.08-.14-.25c.07-.39.25-2.38.3-2.83,0-.1,0-.1.11-.1l.23,0c.07,0,.1,0,.09.13a3.14,3.14,0,0,0,.55,1.82,2.65,2.65,0,0,0,2.19,1.18,2,2,0,0,0,2.15-2c0-1.62-1.14-2.22-2.39-2.67A6,6,0,0,1,92,42.57a3.11,3.11,0,0,1-.77-2.29,3,3,0,0,1,1-2,3.12,3.12,0,0,1,2.21-.73,4.5,4.5,0,0,1,1.84.4c.14.08.22.07.3,0l.21-.18c.08-.07.12-.1.2-.1s.13.13.13.27c0,.55.18,2.15.19,2.5,0,.07,0,.1-.08.12l-.18.05a.08.08,0,0,1-.1-.05,3.76,3.76,0,0,0-1-1.75,2.17,2.17,0,0,0-1.7-.69,1.77,1.77,0,0,0-1.91,1.82,1.88,1.88,0,0,0,.47,1.37,4.84,4.84,0,0,0,1.78,1,5.05,5.05,0,0,1,2.52,1.33,3.07,3.07,0,0,1,.67,2.14,3.16,3.16,0,0,1-3.23,3.4A3.87,3.87,0,0,1,92.1,48.29Z"/><path class="cls-1" d="M100.91,48.36c-.18-.14-.28-.19-.36-.19s-.15.11-.25.27-.17.18-.28.18-.17-.08-.14-.25c.06-.39.24-2.38.29-2.84,0-.09,0-.09.11-.09l.24,0c.06,0,.09,0,.09.12a3.09,3.09,0,0,0,.55,1.83,2.62,2.62,0,0,0,2.18,1.18,2,2,0,0,0,2.15-2c0-1.61-1.14-2.22-2.39-2.67a6.06,6.06,0,0,1-2.28-1.29,3.06,3.06,0,0,1-.76-2.29,2.92,2.92,0,0,1,1-2,3.14,3.14,0,0,1,2.2-.74,4.52,4.52,0,0,1,1.85.41c.14.08.22.07.3,0l.2-.19a.32.32,0,0,1,.21-.09c.07,0,.12.13.12.27,0,.55.18,2.15.2,2.49,0,.08,0,.11-.08.13l-.19,0s-.08,0-.09-.05a3.88,3.88,0,0,0-1-1.74,2.17,2.17,0,0,0-1.71-.69A1.77,1.77,0,0,0,101.19,40a1.92,1.92,0,0,0,.48,1.37,5,5,0,0,0,1.77,1A5,5,0,0,1,106,43.65a3.09,3.09,0,0,1,.67,2.14,3.17,3.17,0,0,1-3.23,3.41A3.89,3.89,0,0,1,100.91,48.36Z"/><path class="cls-1" d="M109,41.78c0-.8-.45-3-.45-3.45a.64.64,0,0,1,.75-.65c.47,0,.72.22.71.64s-.44,2.67-.48,3.47Zm2.51,0c0-.8-.45-3-.45-3.45a.64.64,0,0,1,.73-.65c.49,0,.74.22.73.65s-.46,2.66-.5,3.46Z"/><path class="cls-2" d="M163.57,20.74c0-2.3,1.42-3.71,3.32-4.89-2.14-1.54-3.42-2.43-3.42-4.68s2-5,6-5c2.74,0,4.7,1.73,4.7,3.58s-.76,3.17-3.35,4.66c2.33,1.22,3.72,2.64,3.72,5.22,0,2.17-2.1,4.79-5.75,4.79C165,24.4,163.57,22.44,163.57,20.74Zm7.74-.37c0-1.51-.91-2.45-3.5-3.89a4.67,4.67,0,0,0-1.73,3.68,3,3,0,0,0,2.67,3.22C170.4,23.38,171.31,22.28,171.31,20.37Zm-4.52-9.85c0,1.38.76,2.06,3,3.34a4.06,4.06,0,0,0,1.78-3.42c0-1.75-.86-3.14-2.38-3.09S166.79,8.9,166.79,10.52Z"/><path class="cls-2" d="M176.77,20.74c0-2.3,1.42-3.71,3.32-4.89-2.14-1.54-3.42-2.43-3.42-4.68s2-5,6-5c2.74,0,4.7,1.73,4.7,3.58s-.76,3.17-3.35,4.66c2.33,1.22,3.72,2.64,3.72,5.22,0,2.17-2.1,4.79-5.75,4.79C178.16,24.4,176.77,22.44,176.77,20.74Zm7.74-.37c0-1.51-.91-2.45-3.5-3.89a4.67,4.67,0,0,0-1.73,3.68A3,3,0,0,0,182,23.38C183.6,23.38,184.51,22.28,184.51,20.37ZM180,10.52c0,1.38.76,2.06,3,3.34a4.06,4.06,0,0,0,1.78-3.42c0-1.75-.86-3.14-2.38-3.09S180,8.9,180,10.52Z"/><path class="cls-2" d="M196.8,13.71c0-1.62-.05-5.15-.05-5.52,0-1.33-.18-1.7-.89-1.7h-1.07c-.29,0-.31-.1-.31-.26v-.5c0-.15,0-.31.28-.31.45,0,1.29.08,3.9.08s3.5-.08,4-.08c.28,0,.31.08.31.29v.55c0,.15,0,.23-.31.23H202c-.94,0-1.07.45-1.15,1.44,0,.37-.16,3.82-.16,5.28v.39c0,.13.08.21.42.21h7.82c.39,0,.52-.05.52-.34v-.26c0-1.49-.18-5.12-.18-5.38,0-.84-.14-1.34-.61-1.34h-1.07c-.23,0-.26-.08-.26-.26V5.66c0-.16,0-.24.24-.24.47,0,1.59.08,3.81.08s3.27-.08,3.61-.08.34.08.34.29v.5c0,.18,0,.28-.34.28h-.78c-.76,0-.84.45-.84,1.34,0,.36,0,4.78,0,5.75v.89c0,.83,0,5.8.07,7.24,0,.94.27,1.3,1,1.3h.89c.21,0,.23.08.23.24v.57c0,.13,0,.26-.28.26-.42,0-1.31-.07-3.66-.07-2.67,0-3.5.07-4.11.07-.28,0-.34-.13-.34-.26v-.57c0-.16,0-.24.29-.24h1.15c.63,0,.71-.49.73-1.15.06-1.23.11-5.43.11-6.27v-.32c0-.28-.26-.31-.58-.31H201c-.29,0-.37.08-.37.31v.4c0,.65.11,4.68.18,6.45,0,.63.29.89.87.89h.73c.21,0,.23,0,.23.21v.63c0,.16,0,.23-.23.23-.47,0-1.39-.07-3.58-.07-2.77,0-3.56.07-4.08.07-.23,0-.26-.07-.26-.28v-.55c0-.19,0-.24.26-.24H196c.66,0,.74-.62.74-1.2,0-1.23.07-6.3.07-7Z"/><path class="cls-2" d="M220.25,13.05c0-.62-.08-5.33-.1-5.67-.06-.63-.32-.89-.87-.89H218c-.13,0-.21,0-.21-.15V5.58c0-.11.08-.16.18-.16.32,0,1.65.08,4.21.08s3.5-.08,3.87-.08c.13,0,.18.08.18.24v.65c0,.13-.08.18-.21.18h-.76c-.65,0-1,.21-1,.68,0,.26-.08,6-.08,6.35v2c0,.26.08,6.3.08,6.53,0,.81.39.94.89.94h1.07c.13,0,.21,0,.21.18v.74q0,.15-.24.15c-.31,0-1.36-.07-3.84-.07-2.74,0-3.87.07-4.15.07s-.21,0-.21-.21v-.7c0-.11.07-.16.21-.16h.75c.53,0,1.07-.08,1.18-.7,0-.4.13-6,.13-7.43Z"/><path class="cls-2" d="M235.07,15.82c0,.45,0,6.09.08,7.14h1.49c1.23,0,2.4,0,3.81-.13s3.19-3.27,3.59-4.23c.07-.16.15-.24.31-.16l.52.21c.08.05.08.08,0,.23s-1.12,4.5-1.28,5.2C243,24,235.44,24,233,24c-2.59,0-3.53.07-3.87.07-.18,0-.21,0-.21-.23v-.66c0-.13,0-.18.19-.18H230c1,0,1.12-.36,1.12-.65,0-.5.08-7,.08-8.6V12.3c0-1.68-.05-4.45-.08-4.87,0-.68-.18-.94-.78-.94h-1c-.16,0-.18-.13-.18-.26V5.6c0-.13,0-.18.18-.18s1.23.08,3.61.08c3.06,0,4.15-.08,4.39-.08s.23.08.23.26v.6c0,.13-.05.21-.26.21h-1.23c-.81,0-.91.26-.91,1,0,.34-.08,4.29-.08,6.12Z"/><path class="cls-2" d="M251.75,15.82c0,.45,0,6.09.08,7.14h1.49c1.22,0,2.4,0,3.81-.13s3.19-3.27,3.58-4.23c.08-.16.16-.24.32-.16l.52.21c.08.05.08.08.05.23s-1.12,4.5-1.28,5.2c-.68,0-8.21-.07-10.61-.07-2.59,0-3.53.07-3.87.07-.18,0-.21,0-.21-.23v-.66c0-.13,0-.18.18-.18h.81c1,0,1.13-.36,1.13-.65,0-.5.08-7,.08-8.6V12.3c0-1.68-.06-4.45-.08-4.87-.05-.68-.19-.94-.79-.94h-1c-.16,0-.19-.13-.19-.26V5.6c0-.13,0-.18.19-.18s1.23.08,3.6.08c3.06,0,4.16-.08,4.4-.08s.23.08.23.26v.6c0,.13,0,.21-.26.21h-1.23c-.81,0-.91.26-.91,1,0,.34-.08,4.29-.08,6.12Z"/><path class="cls-2" d="M264.84,18.23c.11,0,.19,0,.19.21a6.87,6.87,0,0,0,1,2.95,3.86,3.86,0,0,0,3.29,1.78c1.26,0,3.27-.84,3.27-2.9s-.42-2.8-3.81-4.08A13.89,13.89,0,0,1,265,13.92a4.88,4.88,0,0,1-1.31-3.72,4.19,4.19,0,0,1,2-3.84,5.54,5.54,0,0,1,3.76-1.25,9.4,9.4,0,0,1,3.48.52.48.48,0,0,0,.6-.13l.34-.34a.57.57,0,0,1,.39-.16c.19,0,.24.29.26.45l.42,4.47c0,.1-.05.13-.13.15l-.57.19c-.13.05-.26,0-.34-.19a8.23,8.23,0,0,0-1.62-2.72,3.23,3.23,0,0,0-2.62-1.09,2.73,2.73,0,0,0-2.77,2.38,3.05,3.05,0,0,0,.68,2.4,8.71,8.71,0,0,0,3.45,1.7,8.37,8.37,0,0,1,3.35,2,4.7,4.7,0,0,1,1.43,3.89,5.57,5.57,0,0,1-5.72,5.78,7.63,7.63,0,0,1-4.68-1.13,1.2,1.2,0,0,0-.6-.28c-.16,0-.26.18-.42.44s-.29.31-.47.31-.39-.13-.36-.41l.41-5c0-.18.11-.18.21-.18Z"/><path class="cls-2" d="M280.71,13.05c0-.62-.08-5.33-.11-5.67-.05-.63-.31-.89-.86-.89h-1.25c-.13,0-.21,0-.21-.15V5.58c0-.11.08-.16.18-.16.31,0,1.65.08,4.21.08s3.5-.08,3.87-.08c.13,0,.18.08.18.24v.65c0,.13-.08.18-.21.18h-.76c-.65,0-1,.21-1,.68,0,.26-.08,6-.08,6.35v2c0,.26.08,6.3.08,6.53,0,.81.39.94.89.94h1.07c.13,0,.21,0,.21.18v.74q0,.15-.24.15c-.31,0-1.36-.07-3.84-.07-2.74,0-3.87.07-4.16.07-.13,0-.2,0-.2-.21v-.7c0-.11.07-.16.2-.16h.76c.53,0,1.07-.08,1.18-.7.05-.4.13-6,.13-7.43Z"/><path class="cls-2" d="M291.64,12c0-.68-.08-4.39-.13-4.79-.08-.62-.42-.73-.87-.73h-1.3c-.14,0-.21,0-.21-.18V5.55c0-.1.07-.13.18-.13.34,0,1.49.08,4.1.08.68,0,3.3-.08,3.9-.08,3.55,0,6.38.31,8.86,2.38a8.3,8.3,0,0,1,2.93,6.64,9.32,9.32,0,0,1-2.59,6.87c-2.54,2.75-7,2.77-8.65,2.77-.42,0-3.51-.07-4.94-.07-2.28,0-3.32.07-3.69.07-.13,0-.18,0-.18-.23v-.68c0-.11.08-.16.21-.16h1.36c.49,0,.78-.21.83-.62s.19-6.44.19-8.42Zm3.92,2.53c0,.34,0,4.79.05,6.41a2.34,2.34,0,0,0,.44,1.44,2.7,2.7,0,0,0,2.09.62A6.35,6.35,0,0,0,303,20.45a10.09,10.09,0,0,0,1.86-6,8.91,8.91,0,0,0-2.12-5.7,7.72,7.72,0,0,0-5.2-2.38,3.09,3.09,0,0,0-1.47.21c-.39.19-.49.6-.52,1.13,0,1.1,0,4.52,0,4.94Z"/><path class="cls-2" d="M317.7,14a17.1,17.1,0,0,0,2.66-.15,2.15,2.15,0,0,0,1.2-.81,3.31,3.31,0,0,0,.61-1.62c0-.19.07-.24.2-.24l.71.08c.13,0,.23.05.21.21a25.8,25.8,0,0,0-.08,2.72c0,1.17.1,2.43.16,3,0,.15-.08.18-.21.21l-.63.13c-.1,0-.16,0-.21-.21A7.48,7.48,0,0,0,321.8,16a2.15,2.15,0,0,0-1.44-.91,18.4,18.4,0,0,0-2.66-.16v1.57c0,1.41.13,3.95.13,4.42,0,1.36.28,1.83.62,2a5.82,5.82,0,0,0,2.2.24c.44,0,1.54,0,2.09-.08a4,4,0,0,0,2-.86,29.09,29.09,0,0,0,2.66-2.8c.11-.1.19-.13.26-.08l.45.27c.1.05.13.13.1.2l-1.17,4a.55.55,0,0,1-.58.39l-2.38,0c-1.7,0-4.47,0-9,0l-2.22,0c-.55,0-.89,0-1.12,0s-.24-.07-.24-.28v-.55c0-.16.08-.24.26-.24h.79c1.2,0,1.3-.18,1.3-1.1V13.16c0-2.17-.05-5.39-.08-5.65-.1-.83-.36-1-1.07-1h-1c-.1,0-.13-.08-.13-.26V5.6a.17.17,0,0,1,.19-.18c.57,0,1.49.08,3.86.08l9.18,0c.42,0,.91,0,1,0s.19,0,.21.13c.11.37,1,4,1.07,4.21s.06.18-.07.26l-.42.21a.23.23,0,0,1-.31-.1,29,29,0,0,0-3.09-2.93,4.37,4.37,0,0,0-2-.71l-3.45-.1Z"/><path class="cls-2" d="M339.13,12.64c0-1-.05-4.16-.08-4.58-.08-1.51-.5-1.57-1.36-1.57h-.84c-.18,0-.18,0-.18-.23v-.6c0-.16,0-.24.21-.24.34,0,1.6.08,4.08.08.83,0,2.4-.08,4.18-.08a10.05,10.05,0,0,1,4.47.71,3.66,3.66,0,0,1,2,3.55c0,1.73-1,3.4-3.81,4.31v.06c3.24.83,4.94,2.4,4.94,5.17,0,1.41-.79,3.35-2,4-1.07.55-2.9,1-6.15,1-.23,0-.91-.05-1.64-.08s-1.57-.07-2.07-.07l-2.74,0-1,0c-.26,0-.29-.07-.29-.28v-.58c0-.16,0-.21.26-.21H338c.78,0,.91-.31,1-1.1.08-.6.13-4.05.13-6.19Zm3.81,1.07a5.38,5.38,0,0,0,3.51-.73,4.1,4.1,0,0,0,1.25-3.09,3.34,3.34,0,0,0-1.07-2.64,5.07,5.07,0,0,0-2.46-.94c-.55,0-1.12,0-1.15.44s-.08,2.8-.08,5Zm0,6.06c0,2.48.58,3.5,2,3.5,1.86,0,3.61-.91,3.61-4.18,0-2.12-.94-3.5-2.35-4.05a8.49,8.49,0,0,0-3.22-.44Z"/><path class="cls-2" d="M361.08,15.82c0,.45,0,6.09.08,7.14h1.49c1.23,0,2.41,0,3.82-.13s3.19-3.27,3.58-4.23c.08-.16.16-.24.31-.16l.53.21c.08.05.08.08.05.23s-1.13,4.5-1.28,5.2c-.68,0-8.21-.07-10.61-.07-2.59,0-3.53.07-3.87.07s-.21,0-.21-.23v-.66c0-.13,0-.18.18-.18H356c1,0,1.13-.36,1.13-.65,0-.5.07-7,.07-8.6V12.3c0-1.68-.05-4.45-.07-4.87-.06-.68-.19-.94-.79-.94h-1c-.15,0-.18-.13-.18-.26V5.6c0-.13,0-.18.18-.18s1.23.08,3.61.08c3.06,0,4.16-.08,4.39-.08s.24.08.24.26v.6c0,.13-.05.21-.26.21h-1.23c-.81,0-.92.26-.92,1,0,.34-.08,4.29-.08,6.12Z"/><path class="cls-2" d="M381.4,5.6c0-.13,0-.18.15-.18s1.44.08,3.19.08c2.43,0,3.08-.08,3.32-.08s.18,0,.18.24v.65c0,.1,0,.18-.18.18h-.6a2.28,2.28,0,0,0-1.94,1.36c-1,1.78-2.17,4.86-3.16,7.06-.65,1.41-3.6,8.42-4.05,9.17-.18.32-.31.45-.6.45s-.44-.32-.6-.66c-1-2.06-3.35-8.39-4.08-10.19s-2-5.59-2.35-6.33-.58-.86-1.13-.86h-.68c-.1,0-.13-.13-.13-.26V5.6c0-.13,0-.18.19-.18s1.12.08,4.26.08c2.72,0,3.89-.08,4.13-.08s.26.08.26.24v.6c0,.13,0,.23-.21.23h-1.12c-.63,0-1.13.29-1.13.63a4,4,0,0,0,.08.89c.21.94,1.2,4.05,1.75,5.57l2,5.82h.1c.76-1.75,2-5,2.38-5.95.5-1.29,1.31-3.48,1.73-4.66a3.6,3.6,0,0,0,.26-1.44,1,1,0,0,0-1.07-.86h-.81c-.11,0-.13-.08-.13-.23Z"/><path class="cls-2" d="M390.26,12c0-.68-.08-4.39-.13-4.79-.08-.62-.42-.73-.87-.73H388c-.14,0-.21,0-.21-.18V5.55c0-.1.07-.13.18-.13.34,0,1.49.08,4.1.08.68,0,3.3-.08,3.9-.08,3.55,0,6.38.31,8.86,2.38a8.3,8.3,0,0,1,2.93,6.64,9.32,9.32,0,0,1-2.59,6.87c-2.54,2.75-7,2.77-8.65,2.77-.42,0-3.51-.07-4.94-.07-2.28,0-3.32.07-3.69.07-.13,0-.18,0-.18-.23v-.68c0-.11.08-.16.21-.16h1.36c.49,0,.78-.21.83-.62s.19-6.44.19-8.42Zm3.92,2.53c0,.34,0,4.79.05,6.41a2.34,2.34,0,0,0,.44,1.44,2.7,2.7,0,0,0,2.09.62,6.35,6.35,0,0,0,4.89-2.56,10.09,10.09,0,0,0,1.86-6,8.91,8.91,0,0,0-2.12-5.7,7.72,7.72,0,0,0-5.2-2.38,3,3,0,0,0-1.46.21c-.4.19-.5.6-.53,1.13,0,1.1,0,4.52,0,4.94Z"/><path class="cls-2" d="M410.77,28.76a1.46,1.46,0,0,1-.6.11c-.21,0-.31-.11-.31-.26s.1-.24.26-.4c.55-.49,2-1.75,2-3.29a.89.89,0,0,0-.57-.78,1.83,1.83,0,0,1-1.44-1.73A2,2,0,0,1,412,20.27c1.49,0,2.64,1.38,2.64,3.42C414.59,26.44,411.58,28.34,410.77,28.76Z"/><path class="cls-2" d="M427.5,16.84a31.57,31.57,0,0,0-1.49,5c0,.58.24,1.2,1,1.2H428c.26,0,.29.11.29.21v.58c0,.21,0,.28-.24.28s-1.41-.07-3.55-.07c-1.91,0-2.49.07-2.85.07-.16,0-.19-.15-.19-.34v-.49c0-.16,0-.24.19-.24h.68a2.18,2.18,0,0,0,1.77-1.15c.37-.55,2.22-5.09,3.09-7.39.21-.53,2.32-6.15,2.56-6.85a1.06,1.06,0,0,0,0-.89c-.08-.11-.19-.24-.19-.34s.06-.18.26-.24a8.19,8.19,0,0,0,2.93-1.3c.13-.13.21-.24.34-.24s.21.16.29.45c.49,1.64,2.53,7.5,3,9.17.6,2,2.3,6.9,2.67,7.61A1.91,1.91,0,0,0,440.57,23h.89c.16,0,.19.11.19.24v.49c0,.16,0,.34-.24.34-.5,0-1.05-.07-4.39-.07-2.17,0-3.09.07-3.61.07-.26,0-.29-.15-.29-.34v-.49c0-.13,0-.24.16-.24H434c.71,0,.94-.26.79-.94-.24-.94-1.26-4.29-1.57-5.23Zm5.49-1-2-6.93c-.1-.39-.15-.57-.29-.57s-.23.1-.31.34-2.38,6.5-2.59,7.16Z"/><path class="cls-2" d="M448.49,17.08c0,1.23,0,4.78.06,5.1.05.57.31.83.73.83h1.33c.18,0,.21.08.21.18v.68c0,.14,0,.21-.24.21s-1.17-.07-4.23-.07c-2.3,0-3.32.07-3.61.07s-.21-.07-.21-.18v-.71c0-.13,0-.18.16-.18h.68c.89,0,1.07-.13,1.15-.78,0-.26.1-4.34.1-7.37v-3c0-1.72,0-4.47-.05-4.78-.05-.52-.31-.58-.83-.58h-1.23c-.13,0-.16,0-.16-.21V5.6c0-.13,0-.18.16-.18.28,0,1.23.08,4,.08.47,0,2-.08,2.87-.08,3.22,0,4.76.26,6.28,1.44a5.08,5.08,0,0,1,1.88,4.05c0,3.14-2.51,5.28-6.9,5.28-.81,0-1.41,0-2.12-.08Zm0-2a7.57,7.57,0,0,0,1.6.16,4,4,0,0,0,2.69-1.75,5.08,5.08,0,0,0,.63-2.77c0-3.61-2.62-4.37-3.69-4.37a5.31,5.31,0,0,0-1.23.13Z"/><path class="cls-2" d="M466.89,6.7H466a11.61,11.61,0,0,0-3.5.42,17.52,17.52,0,0,0-2.38,3c-.08.13-.16.21-.26.19l-.58-.21a.19.19,0,0,1-.1-.24c.28-1.1,1.15-4.55,1.25-5.07.08-.34.21-.44.39-.44s.26.1.5.39a2.15,2.15,0,0,0,1.72.65c1.39.08,2.49.16,5.21.16h1.51c2.85,0,4-.1,5.07-.16a3.81,3.81,0,0,0,1.91-.65c.26-.26.42-.39.6-.39s.26.1.32.42l.78,5.2a.19.19,0,0,1-.1.23l-.55.21c-.11,0-.16,0-.26-.23a18.63,18.63,0,0,0-2.25-2.93,11.59,11.59,0,0,0-3.58-.5h-.87v7.19c0,.37,0,7.68,0,8.08.05.65.26,1,.89,1h1.18c.23,0,.26.08.26.26v.6c0,.14,0,.21-.26.21s-1.1-.07-4-.07-3.87.07-4.24.07c-.21,0-.23-.1-.23-.31v-.5c0-.18,0-.26.18-.26H466a.82.82,0,0,0,.89-.78c.05-.55.05-8.58.05-9.07Z"/><path class="cls-2" d="M487.37,12.48a13.75,13.75,0,0,1,3.87.65,5,5,0,0,1,3.42,4.94c0,3.45-3.22,6.33-7.29,6.33-1.75,0-3.19-.71-3.19-1.47,0-.6.34-.91.7-.88a3.26,3.26,0,0,1,1.52.62,3.59,3.59,0,0,0,1.73.39,3.34,3.34,0,0,0,3.5-3.58,3.51,3.51,0,0,0-1.88-3.26,8.13,8.13,0,0,0-3.45-.74c-.32,0-.45-.13-.42-.39l1-8.13c0-.31.08-.41.42-.41h5.81c.91,0,1.12-.45,1.56-1.31.11-.18.19-.21.53-.08s.28.16.23.39l-1,3.5c-.13.45-.26.55-1.07.55h-5.52Z"/><path class="cls-2" d="M502.14,11c0-.63-.13-1.2-.61-1.2a4,4,0,0,0-1.17.18l-1.28.37c-.13,0-.24,0-.29-.08l-.18-.53c-.05-.1,0-.21.15-.31l6.36-3.11a1.18,1.18,0,0,1,.49-.16c.16,0,.24.19.24.4s-.08,4.31-.08,7.68v1.1c0,1.36,0,5.85,0,6.14,0,1.36.13,1.54,1.43,1.54h.94c.19,0,.27.08.27.21v.68c0,.13-.08.18-.29.18L504,24c-.76,0-4.45.07-4.58.07s-.21,0-.21-.18v-.71c0-.15.16-.18.37-.18h.68c1.44,0,1.83-.08,1.88-1.41.05-1.1,0-4,0-4.91Z"/><path class="cls-2" d="M512.64,24c-.44,0-.91,0-1.3,0l-.81.05c-.13,0-.21,0-.29-.16a.56.56,0,0,1,.16-.62A47.82,47.82,0,0,0,515.47,18c1.62-2,2.66-4.08,2.58-6.35-.07-1.94-1.28-3.25-3-3.19a3.86,3.86,0,0,0-3.06,2c-.13.21-.2.21-.31.15l-.44-.18c-.08,0-.11-.13,0-.37a5.93,5.93,0,0,1,5.62-3.92,4.82,4.82,0,0,1,5,4.76c0,2.22-1,4.36-3.94,7.08-1.52,1.41-2.7,2.38-3.51,3.14v.1h4.52a3.21,3.21,0,0,0,3-2c.13-.24.21-.29.47-.16s.39.24.31.42l-1.85,4.84a.36.36,0,0,1-.4.28c-.2,0-.23-.05-.33-.26s-.66-.36-1.7-.36Z"/><path class="cls-2" d="M525.48,28.76a1.52,1.52,0,0,1-.6.11c-.21,0-.32-.11-.32-.26s.11-.24.26-.4c.55-.49,2-1.75,2-3.29a.89.89,0,0,0-.57-.78,1.84,1.84,0,0,1-1.44-1.73,2,2,0,0,1,1.88-2.14c1.49,0,2.64,1.38,2.64,3.42C529.29,26.44,526.29,28.34,525.48,28.76Z"/><path class="cls-2" d="M165.48,43.38c0-.68-.08-4.4-.13-4.79-.08-.63-.42-.73-.86-.73h-1.31c-.13,0-.21,0-.21-.18v-.76c0-.11.08-.13.19-.13.34,0,1.49.08,4.1.08.68,0,3.29-.08,3.89-.08,3.56,0,6.38.31,8.86,2.38a8.24,8.24,0,0,1,2.93,6.64,9.28,9.28,0,0,1-2.59,6.87c-2.53,2.74-7,2.77-8.65,2.77-.42,0-3.5-.08-4.94-.08-2.27,0-3.32.08-3.68.08-.13,0-.19-.05-.19-.24v-.67c0-.11.08-.16.21-.16h1.36c.5,0,.79-.21.84-.63s.18-6.43.18-8.41Zm3.92,2.53c0,.34,0,4.78.06,6.4a2.32,2.32,0,0,0,.44,1.44c.31.47,1.2.63,2.09.63a6.35,6.35,0,0,0,4.89-2.56,10.15,10.15,0,0,0,1.85-6,8.9,8.9,0,0,0-2.11-5.7,7.75,7.75,0,0,0-5.2-2.38A3.07,3.07,0,0,0,170,38c-.39.18-.49.6-.52,1.12,0,1.1,0,4.53,0,4.94Z"/><path class="cls-2" d="M188.61,48.21a32.67,32.67,0,0,0-1.49,5c0,.57.24,1.2,1,1.2h.92c.26,0,.29.1.29.21v.57c0,.21,0,.29-.24.29s-1.41-.08-3.55-.08c-1.91,0-2.49.08-2.85.08-.16,0-.19-.16-.19-.34v-.5c0-.15,0-.23.19-.23h.68a2.2,2.2,0,0,0,1.77-1.15c.37-.55,2.23-5.1,3.09-7.4.21-.52,2.32-6.14,2.56-6.85a1,1,0,0,0,0-.88c-.08-.11-.19-.24-.19-.34s.06-.19.26-.24a8,8,0,0,0,2.93-1.31c.13-.13.21-.23.34-.23s.21.16.29.44c.5,1.65,2.53,7.5,3,9.18.6,2,2.3,6.9,2.67,7.6a1.91,1.91,0,0,0,1.51,1.18h.89c.16,0,.19.1.19.23v.5c0,.16,0,.34-.24.34-.5,0-1.05-.08-4.39-.08-2.17,0-3.09.08-3.61.08-.26,0-.29-.16-.29-.34v-.5c0-.13,0-.23.16-.23h.73c.71,0,.94-.26.79-.94-.24-.94-1.26-4.29-1.57-5.23Zm5.49-1-2-6.93c-.1-.39-.15-.58-.28-.58s-.24.11-.32.34-2.38,6.51-2.59,7.17Z"/><path class="cls-2" d="M209.55,47.19c0,.45,0,6.09.08,7.14h1.49c1.23,0,2.4,0,3.82-.13s3.18-3.27,3.58-4.24c.08-.16.15-.23.31-.16l.52.21c.08.06.08.08.06.24s-1.13,4.5-1.29,5.2c-.67-.05-8.2-.08-10.61-.08-2.58,0-3.53.08-3.87.08-.18,0-.2-.05-.2-.24v-.65c0-.13,0-.18.18-.18h.81c1,0,1.12-.37,1.12-.65,0-.5.08-7,.08-8.6V43.66c0-1.67,0-4.44-.08-4.86-.05-.68-.18-.94-.78-.94h-1c-.16,0-.18-.13-.18-.26V37c0-.13,0-.18.18-.18s1.23.08,3.61.08c3.06,0,4.15-.08,4.39-.08s.23.08.23.26v.6c0,.13-.05.21-.26.21h-1.23c-.81,0-.91.26-.91,1,0,.34-.08,4.28-.08,6.11Z"/><path class="cls-2" d="M227.74,50.51c0,1,.08,2.72.11,3,.08.84.47.92.89.92h.76c.18,0,.18.08.18.18v.65c0,.16,0,.24-.18.24s-1.34-.08-3.79-.08c-2.72,0-3.53.08-3.82.08-.11,0-.16-.08-.16-.26v-.63c0-.1,0-.18.19-.18h.91c.68,0,.89-.26.92-.6s.07-2.43.07-4.86V47.79c-.41-.81-4.6-8.44-5.25-9.33a1.91,1.91,0,0,0-1.36-.6h-.39c-.16,0-.18-.08-.18-.18v-.74c0-.1,0-.15.18-.15s1.46.08,3.79.08c2.69,0,3.63-.08,3.89-.08s.19.05.19.18v.65c0,.14,0,.24-.19.24h-.6a.62.62,0,0,0-.63.68c0,.47,3.12,6.46,3.82,8,.78-1.44,3.92-6.95,3.92-7.76a1,1,0,0,0-1-.89h-.71c-.15,0-.18-.08-.18-.24v-.68c0-.1,0-.15.18-.15s1.34.08,3.27.08,2.38-.08,2.61-.08.21.05.21.21v.62c0,.16,0,.24-.21.24h-.47a2.24,2.24,0,0,0-1.49.63c-.34.42-4.41,7.11-5.49,9.12Z"/><path class="cls-2" d="M243.43,53.36a9.88,9.88,0,0,1-2.85-7,10.08,10.08,0,0,1,2.69-7.08,9,9,0,0,1,6.9-2.83,12,12,0,0,1,5.25,1.1c.37.19.5.16.55,0l.21-.66c.05-.15.11-.15.5-.15s.44,0,.44.41.47,4.94.61,5.73c0,.18,0,.31-.14.34l-.57.16c-.13,0-.24-.06-.31-.29a8.49,8.49,0,0,0-2.1-3.5,6.16,6.16,0,0,0-4.49-2c-3.82,0-5.44,3.48-5.41,7.35,0,1.65.47,4.86,2.32,6.82a5.49,5.49,0,0,0,4.08,2A7.45,7.45,0,0,0,257.28,51c.13-.21.26-.32.39-.21l.45.39c.08,0,.1.15,0,.31a9.31,9.31,0,0,1-7.74,4.31C246.9,55.76,245.07,54.82,243.43,53.36Z"/><path class="cls-2" d="M262.38,44.42c0-.63-.08-5.33-.11-5.67,0-.63-.31-.89-.86-.89h-1.25c-.13,0-.21,0-.21-.16v-.76c0-.1.08-.15.18-.15.31,0,1.65.08,4.21.08s3.5-.08,3.87-.08c.13,0,.18.08.18.23v.66c0,.13-.08.18-.21.18h-.76c-.65,0-1,.21-1,.68,0,.26-.08,6-.08,6.35v2c0,.27.08,6.3.08,6.54,0,.81.39.94.89.94h1.07c.13,0,.21,0,.21.18v.73c0,.11-.08.16-.24.16s-1.36-.08-3.84-.08c-2.74,0-3.87.08-4.16.08-.13,0-.21-.05-.21-.21v-.7c0-.11.08-.16.21-.16h.76c.52,0,1.07-.08,1.18-.71.05-.39.13-6,.13-7.42Z"/><path class="cls-2" d="M277.51,38.07h-.91a11.61,11.61,0,0,0-3.5.42,17.52,17.52,0,0,0-2.38,2.95c-.08.13-.16.21-.26.18l-.58-.21c-.1,0-.13-.15-.1-.23.28-1.1,1.15-4.55,1.25-5.07.08-.34.21-.45.39-.45s.26.11.5.4a2.18,2.18,0,0,0,1.72.65c1.39.08,2.49.16,5.21.16h1.51c2.85,0,4-.11,5.07-.16a3.91,3.91,0,0,0,1.91-.65c.26-.26.42-.4.6-.4s.26.11.32.42l.78,5.2a.2.2,0,0,1-.1.24l-.55.21c-.11,0-.16,0-.27-.24a17.5,17.5,0,0,0-2.24-2.92,11.3,11.3,0,0,0-3.58-.5h-.87v7.19c0,.36,0,7.68,0,8.07.05.66.26,1.05.89,1.05h1.17c.24,0,.27.08.27.26v.6c0,.13,0,.21-.27.21s-1.09-.08-4-.08-3.86.08-4.23.08c-.21,0-.23-.1-.23-.31v-.5c0-.18,0-.26.18-.26h1.33a.83.83,0,0,0,.89-.79c.05-.54.05-8.57.05-9.07Z"/><path class="cls-2" d="M300.31,50.51c0,1,.07,2.72.1,3,.08.84.47.92.89.92h.76c.18,0,.18.08.18.18v.65c0,.16,0,.24-.18.24s-1.34-.08-3.79-.08c-2.72,0-3.53.08-3.82.08-.1,0-.16-.08-.16-.26v-.63c0-.1,0-.18.19-.18h.91c.68,0,.89-.26.92-.6s.07-2.43.07-4.86V47.79c-.41-.81-4.6-8.44-5.25-9.33a1.91,1.91,0,0,0-1.36-.6h-.39c-.16,0-.18-.08-.18-.18v-.74c0-.1,0-.15.18-.15s1.46.08,3.79.08c2.69,0,3.63-.08,3.89-.08s.19.05.19.18v.65c0,.14,0,.24-.19.24h-.6a.62.62,0,0,0-.62.68c0,.47,3.11,6.46,3.81,8,.79-1.44,3.92-6.95,3.92-7.76a1,1,0,0,0-1-.89h-.71c-.15,0-.18-.08-.18-.24v-.68c0-.1,0-.15.18-.15s1.34.08,3.27.08,2.38-.08,2.61-.08.21.05.21.21v.62c0,.16,0,.24-.21.24h-.47a2.24,2.24,0,0,0-1.49.63c-.34.42-4.41,7.11-5.48,9.12Z"/><path class="cls-2" d="M307.68,60.13a1.54,1.54,0,0,1-.61.1c-.2,0-.31-.1-.31-.26s.11-.23.26-.39c.55-.5,2-1.75,2-3.29a.92.92,0,0,0-.57-.79A1.82,1.82,0,0,1,307,53.78a2,2,0,0,1,1.88-2.15c1.49,0,2.64,1.39,2.64,3.43C311.49,57.8,308.49,59.71,307.68,60.13Z"/><path class="cls-2" d="M321.53,53.36a9.92,9.92,0,0,1-2.85-7,10.08,10.08,0,0,1,2.69-7.08,9,9,0,0,1,6.9-2.83,12.1,12.1,0,0,1,5.26,1.1c.36.19.49.16.55,0l.21-.66c0-.15.1-.15.49-.15s.45,0,.45.41.47,4.94.6,5.73c0,.18,0,.31-.13.34l-.58.16c-.13,0-.23-.06-.31-.29a8.57,8.57,0,0,0-2.09-3.5,6.19,6.19,0,0,0-4.5-2c-3.81,0-5.44,3.48-5.41,7.35,0,1.65.47,4.86,2.33,6.82a5.49,5.49,0,0,0,4.08,2A7.43,7.43,0,0,0,335.38,51c.13-.21.27-.32.4-.21l.44.39c.08,0,.1.15,0,.31a9.31,9.31,0,0,1-7.74,4.31C325,55.76,323.18,54.82,321.53,53.36Z"/><path class="cls-2" d="M341.87,48.21a31.57,31.57,0,0,0-1.49,5c0,.57.23,1.2,1,1.2h.91c.26,0,.29.1.29.21v.57c0,.21,0,.29-.24.29s-1.41-.08-3.55-.08c-1.91,0-2.49.08-2.85.08-.16,0-.18-.16-.18-.34v-.5c0-.15,0-.23.18-.23h.68a2.22,2.22,0,0,0,1.78-1.15c.36-.55,2.22-5.1,3.08-7.4.21-.52,2.33-6.14,2.56-6.85a1,1,0,0,0,0-.88c-.08-.11-.19-.24-.19-.34s.06-.19.27-.24a8,8,0,0,0,2.92-1.31c.13-.13.21-.23.34-.23s.21.16.29.44c.5,1.65,2.54,7.5,3,9.18.6,2,2.3,6.9,2.67,7.6a1.91,1.91,0,0,0,1.52,1.18h.88c.16,0,.19.1.19.23v.5c0,.16,0,.34-.24.34-.5,0-1-.08-4.39-.08-2.17,0-3.08.08-3.61.08-.26,0-.28-.16-.28-.34v-.5c0-.13,0-.23.15-.23h.73c.71,0,.94-.26.79-.94-.24-.94-1.26-4.29-1.57-5.23Zm5.48-1-2-6.93c-.11-.39-.16-.58-.29-.58s-.24.11-.32.34-2.38,6.51-2.58,7.17Z"/><path class="cls-2" d="M357.84,60.13a1.54,1.54,0,0,1-.61.1c-.2,0-.31-.1-.31-.26s.11-.23.26-.39c.55-.5,2-1.75,2-3.29a.92.92,0,0,0-.57-.79,1.82,1.82,0,0,1-1.44-1.72A2,2,0,0,1,359,51.63c1.49,0,2.64,1.39,2.64,3.43C361.65,57.8,358.65,59.71,357.84,60.13Z"/><path class="cls-2" d="M378.36,39.45a7.25,7.25,0,0,1,1.46,4.11,13.08,13.08,0,0,1-4.24,9.8,10.11,10.11,0,0,1-4.18,2.27,3.37,3.37,0,0,1-.81.13c-.21,0-.42-.07-.42-.39a.54.54,0,0,1,.34-.44c2.2-.84,4.66-3.66,5.21-7.29h-.19a4.68,4.68,0,0,1-2.87.75,4.42,4.42,0,0,1-4.34-4.65A6.87,6.87,0,0,1,370.2,39,5.4,5.4,0,0,1,374,37.52C376.11,37.52,377.31,38.07,378.36,39.45Zm-6.64,2.93c0,2.59,1.07,4.5,2.48,4.5a2,2,0,0,0,1.46-.53c.42-.47.4-2.09.4-3.29,0-2.43-.4-4.57-2-4.57S371.72,40,371.72,42.38Z"/><path class="cls-2" d="M388.37,55.37c-.24,0-.32,0-.32-.29V51.27h-6.74c-.47,0-.79-.19-.79-.5a1.69,1.69,0,0,1,.48-1l9.35-11.81a.88.88,0,0,1,.68-.42c.26,0,.37.18.37.89V48.89h1.65c.18,0,.31.1.31.24V51c0,.15-.08.26-.42.26H391.4V55c0,.28,0,.36-.37.36Zm-.29-6.48V43.11c0-.36-.26-.36-.5,0l-4.23,5.31c-.24.28-.16.52.18.52Z"/><path class="cls-2" d="M406,46.49c0,6-1.93,9.27-5.69,9.27-4.6,0-5.94-5.07-5.94-8.39,0-5.82,2-9.85,5.91-9.85C405.12,37.52,406,42.51,406,46.49Zm-7.21-6.17a34.76,34.76,0,0,0-.73,6.77,23.88,23.88,0,0,0,.42,5.56c.41,1.49.91,2,1.85,2s1.44-.52,1.67-1.7a43.09,43.09,0,0,0,.34-7.08c0-4.39-.49-7.32-1.93-7.32C399.48,38.59,399,39.32,398.77,40.32Z"/><path class="cls-2" d="M411.87,42.36c0-.63-.14-1.21-.61-1.21a4.16,4.16,0,0,0-1.17.19l-1.28.36c-.13,0-.24,0-.29-.08l-.18-.52c-.06-.1,0-.21.15-.31l6.36-3.11a1.18,1.18,0,0,1,.49-.16c.16,0,.24.18.24.39s-.08,4.32-.08,7.69v1.09c0,1.36,0,5.86,0,6.15,0,1.36.14,1.54,1.44,1.54h.94c.19,0,.26.08.26.21v.68c0,.13-.07.18-.28.18l-4.19-.08c-.75,0-4.44.08-4.57.08s-.21-.05-.21-.18v-.71c0-.15.16-.18.37-.18H410c1.44,0,1.83-.08,1.88-1.41.05-1.1,0-4,0-4.92Z"/><path class="cls-2" d="M427.57,55.37c-.23,0-.31,0-.31-.29V51.27h-6.74c-.47,0-.79-.19-.79-.5a1.68,1.68,0,0,1,.47-1l9.36-11.81a.88.88,0,0,1,.68-.42c.26,0,.37.18.37.89V48.89h1.64c.19,0,.32.1.32.24V51c0,.15-.08.26-.42.26h-1.54V55c0,.28-.06.36-.37.36Zm-.28-6.48V43.11c0-.36-.26-.36-.5,0l-4.23,5.31c-.24.28-.16.52.18.52Z"/></g></g></svg>