<svg xmlns="http://www.w3.org/2000/svg" viewBox="0 0 322.82 49.3"><defs><style>.cls-1{fill:#95272b;}.cls-2{fill:#93272c;}</style></defs><title>Asset 4</title><g id="Layer_2" data-name="Layer 2"><g id="Layer_1-2" data-name="Layer 1"><path class="cls-1" d="M24.24,22.14a1.29,1.29,0,0,1,.5,1.53,3.05,3.05,0,0,1-1.92,1.5,17.69,17.69,0,0,1-2.91.72,21.91,21.91,0,0,1-3.1.28,19,19,0,0,1-3-.14,10.94,10.94,0,0,1-2.46-.55,5.13,5.13,0,0,1-1.62-.85,3.49,3.49,0,0,1-1-1.32,7.09,7.09,0,0,1-.49-2c-.08-.82-.12-1.82-.12-3-.82.13-1.62.22-2.4.28a1.82,1.82,0,0,1-.44.82.79.79,0,0,1-.53.29.83.83,0,0,1-.43-.15,2.28,2.28,0,0,1-.48-.39,2.77,2.77,0,0,1-.45-.6,3.16,3.16,0,0,1-.28-.72c-.46-2.16-.9-3.93-1.31-5.29A7.68,7.68,0,0,0,.56,9.67,2.17,2.17,0,0,1,0,8.79a.46.46,0,0,1,.22-.56,2.12,2.12,0,0,1,1.09-.18,11.13,11.13,0,0,1,2.06.3c.88-.1,1.73-.22,2.54-.34l2.28-.38a27,27,0,0,0-.28-3.51,4.51,4.51,0,0,0-.67-1.88c-.75-1-.92-1.62-.52-1.85S8.23.34,10,1a6.68,6.68,0,0,1,1.33.63,2,2,0,0,1,.64.65,1,1,0,0,1,.11.67,2,2,0,0,1-.28.7,3.13,3.13,0,0,0-.3,1,23.26,23.26,0,0,0-.27,2.5c1.05-.16,1.93-.33,2.65-.5a8.6,8.6,0,0,0,1.57-.5c.32-.15.58-.27.79-.35a1.57,1.57,0,0,1,.64-.11,2.46,2.46,0,0,1,.73.17,10.62,10.62,0,0,1,1,.48,17.06,17.06,0,0,1,1.65,1.08,2.9,2.9,0,0,1,.77.8.63.63,0,0,1,0,.65,2.5,2.5,0,0,1-.55.61,4.66,4.66,0,0,0-.95,1.07,4.6,4.6,0,0,0-.53,1.3c-.07.23-.15.53-.25.91s-.23.78-.37,1.2-.28.84-.42,1.27-.3.81-.44,1.15a3.85,3.85,0,0,1-.76,1.13,3.7,3.7,0,0,1-.85.67,1.29,1.29,0,0,1-.75.18.54.54,0,0,1-.48-.28.85.85,0,0,0-.33-.44.9.9,0,0,0-.42-.09c-.23,0-.62,0-1.17.07s-1.13.14-1.76.24a12.4,12.4,0,0,0,.25,3.23A1.75,1.75,0,0,0,12,22.27a8.7,8.7,0,0,0,3.9.74,12,12,0,0,0,3.81-.74,2.36,2.36,0,0,0,1.12-1.1,8.56,8.56,0,0,0,.9-2.8c.23-1.33.5-2,.82-2s.52.66.63,2c.06.67.13,1.22.2,1.66a7.18,7.18,0,0,0,.25,1.09,3.49,3.49,0,0,0,.3.66A1.45,1.45,0,0,0,24.24,22.14ZM8.24,9.39c-.67.13-1.32.23-1.95.32s-1.23.14-1.8.18c.11.61.22,1.23.35,1.86s.24,1.26.35,1.88.21,1.21.31,1.78.2,1.07.28,1.51L7,16.78c.41-.06.79-.11,1.15-.18,0-.5,0-1,0-1.48V13.71c-.44,0-.79.06-1,.06a2.29,2.29,0,0,1-.76-.13c-.5-.17-.75-.37-.75-.61s.25-.41.75-.49l.81-.14a7.43,7.43,0,0,0,1-.24Zm7.46,0c.07-.63-.07-.95-.41-.95a16.76,16.76,0,0,0-1.87.12q-1,.11-2.25.33c0,.4,0,.8,0,1.21s0,.82,0,1.24a7.08,7.08,0,0,1,1.48-.2,3.22,3.22,0,0,1,.85.14c.63.21.91.46.85.75s-.35.56-.85.79a5.16,5.16,0,0,1-1.09.36c-.41.1-.86.19-1.34.27v2.65q1.35-.25,1.92-.3a2,2,0,0,1,1,.11.37.37,0,0,0,.45-.07,2.23,2.23,0,0,0,.49-1c.11-.36.21-.79.32-1.29s.19-1,.26-1.53.14-1,.19-1.48S15.68,9.65,15.7,9.36Z"/><path class="cls-1" d="M42.41,19.75c-.72.67-1.32,1.26-1.8,1.76s-.89,1-1.21,1.36a10.28,10.28,0,0,0-.79,1.07,6.83,6.83,0,0,0-.49.91,3.12,3.12,0,0,1-.48.79.53.53,0,0,1-.56.17,1.6,1.6,0,0,1-.72-.53,13,13,0,0,1-1-1.31,3.55,3.55,0,0,1-.75-1.7c0-.34.34-.61,1-.82s.84-.72,1-1.6a28.39,28.39,0,0,0,.35-3c.06-1,.09-2,.09-3.13,0-.55,0-.87-.14-1s-.26-.1-.49,0l-.86.33a9.05,9.05,0,0,0-1,.52,4,4,0,0,1-.74.38,1.63,1.63,0,0,1-.64.11,1.49,1.49,0,0,1-.66-.21,4.49,4.49,0,0,1-.82-.59c-.63-.55-.87-.94-.71-1.17s.69-.33,1.59-.31a5.62,5.62,0,0,0,1.23-.16,8,8,0,0,0,1.3-.44,7.24,7.24,0,0,0,1.17-.65,3.42,3.42,0,0,0,.8-.74,3.87,3.87,0,0,1,.41-.45.86.86,0,0,1,.46-.22,1.54,1.54,0,0,1,.66,0c.26.07.6.17,1,.32a10.06,10.06,0,0,1,1.29.55,1.17,1.17,0,0,1,.56.5.65.65,0,0,1-.08.58,5.12,5.12,0,0,1-.6.76,4.11,4.11,0,0,0-.69,1,4.74,4.74,0,0,0-.41,1.34,15.9,15.9,0,0,0-.22,2.23c-.05.93-.09,2.14-.13,3.63l.82-.43.57-.3.47-.23.53-.27c.91-.44,1.41-.56,1.53-.35S43.08,19.12,42.41,19.75ZM43,3.69a2.31,2.31,0,0,1-.11,1.23,1.6,1.6,0,0,1-.56.76,1.47,1.47,0,0,1-.87.23,2,2,0,0,1-1-.33,15,15,0,0,1-3.24-2.77c-.46-.48-.63-.8-.49-1a3.19,3.19,0,0,1,1.59-.36,6.07,6.07,0,0,1,3.46.45A2.27,2.27,0,0,1,43,3.69ZM59.28,9.8c.89.8,1.24,1.4,1.07,1.8s-1,.51-2.48.34c-.32,0-.75,0-1.29,0s-1.16,0-1.83.07-1.38.11-2.11.19l-2.17.26-.66,4A9.27,9.27,0,0,0,51,16.05a5.28,5.28,0,0,0,1-.46,2.31,2.31,0,0,1,1.34-.4,3.87,3.87,0,0,1,1.65.66A16.44,16.44,0,0,1,56.78,17a3,3,0,0,1,.8.8.54.54,0,0,1,0,.62,2.25,2.25,0,0,1-.68.56,7,7,0,0,0-2.3,2.74c.72.7,1,1.2.92,1.51s-.56.53-1.36.63c-1.2.15-2.37.28-3.53.38s-2.28.19-3.4.25A3.88,3.88,0,0,1,46.81,26c-.18.31-.37.46-.56.46a1.29,1.29,0,0,1-1-.65,4.24,4.24,0,0,1-.63-1.93A38,38,0,0,0,44,20.16a4.56,4.56,0,0,0-.73-1.83,1.91,1.91,0,0,1-.42-.66.42.42,0,0,1,.11-.5,1.34,1.34,0,0,1,.85-.19,8.89,8.89,0,0,1,1.79.25l.86-.12.81-.13.44-4.06c-.54.08-1.06.17-1.54.27a7.06,7.06,0,0,0-1.29.36,6.36,6.36,0,0,1-1.07.34A2.39,2.39,0,0,1,43,14a1.6,1.6,0,0,1-.65-.21,3.45,3.45,0,0,1-.69-.52c-.61-.54-.87-.89-.79-1s.56-.24,1.42-.28,1.64-.14,2.65-.28,2-.32,2.92-.51a9.29,9.29,0,0,0-.28-3.68c-.4.1-.79.2-1.18.28L45.21,8c-1,.19-1.54.16-1.61-.09s.35-.59,1.23-1a21.32,21.32,0,0,0,2.08-1.13A16.31,16.31,0,0,0,49,4.23a7.66,7.66,0,0,0,1.23-1.29,1.86,1.86,0,0,0,.34-1,1.29,1.29,0,0,1,.16-.68A.67.67,0,0,1,51.27,1a2.36,2.36,0,0,1,1,.19,9.87,9.87,0,0,1,1.62.8c1.32.78,2,1.39,2,1.84s-.5.75-1.47.9A7.75,7.75,0,0,0,53,5.12a14.4,14.4,0,0,0-1.56.71c-.25.15-.5.28-.74.4L50,6.56a9.21,9.21,0,0,1,1.11.6,1.76,1.76,0,0,1,.52.48.65.65,0,0,1,.07.51,2.25,2.25,0,0,1-.25.61,6.05,6.05,0,0,0-.3.79c-.09.31-.19.65-.3,1,.76-.13,1.53-.28,2.3-.46s1.45-.36,2-.55a8.09,8.09,0,0,1,2.42-.43A2.54,2.54,0,0,1,59.28,9.8Zm-6.77,9.26c.15-.53.15-.87,0-1s-.52-.2-1.09-.1c-1.8.36-3.38.6-4.72.73.1.73.2,1.42.28,2.06s.16,1.27.22,1.88l1.61-.21c.5-.07,1.06-.17,1.67-.3a3.21,3.21,0,0,0,.72-.23,1.47,1.47,0,0,0,.51-.46,3.59,3.59,0,0,0,.39-.87C52.2,20.16,52.35,19.67,52.51,19.06Z"/><path class="cls-1" d="M93.29,9.42a5,5,0,0,1,1,1.07c.19.32.22.58.09.77a1.13,1.13,0,0,1-.85.4,8.71,8.71,0,0,1-1.89,0A41,41,0,0,0,87,11.42q-2.55,0-5.73.33c.46.38.64.69.52.93a1.44,1.44,0,0,1-.86.62,2.68,2.68,0,0,0-.71.53c-.35.32-.82.78-1.4,1.39a22.92,22.92,0,0,0,2.77-.65,7.25,7.25,0,0,0,1.48-.64,2.14,2.14,0,0,1,.64-.3,1.48,1.48,0,0,1,.67,0,2.79,2.79,0,0,1,.81.26c.31.15.68.36,1.12.63a13.13,13.13,0,0,1,1.45,1,1.86,1.86,0,0,1,.61.82.81.81,0,0,1-.11.72,3.09,3.09,0,0,1-.69.76,1.55,1.55,0,0,0-.33.39,6,6,0,0,0-.3.65c-.1.27-.22.61-.35,1s-.27.91-.44,1.5c-.25.94-.48,1.72-.69,2.33a7.14,7.14,0,0,1-.72,1.54,4.7,4.7,0,0,1-1,1.07,9.79,9.79,0,0,1-1.35.92,3.1,3.1,0,0,1-1.88.61c-.36-.1-.61-.43-.74-1a4.64,4.64,0,0,0-.48-1.17,9.25,9.25,0,0,0-1.18-1.6c-.87-1-1.24-1.59-1.14-1.81s.82-.07,2.14.45a11.42,11.42,0,0,0,1.26.4,2.06,2.06,0,0,0,.84,0,1,1,0,0,0,.52-.26,2.34,2.34,0,0,0,.34-.52,13.34,13.34,0,0,0,1.33-4.54,1.63,1.63,0,0,0-.18-1.18,1.09,1.09,0,0,0-1-.24l-1.92.3c-.53.1-1,.2-1.37.3a6.22,6.22,0,0,0-1,.35,5.51,5.51,0,0,0-.79.44,4.86,4.86,0,0,1-.66.41.59.59,0,0,1-.46.06.84.84,0,0,1-.42-.34,8.35,8.35,0,0,1-.54-.82,4.89,4.89,0,0,1-.47-.87.74.74,0,0,1-.06-.53.66.66,0,0,1,.37-.37,5.22,5.22,0,0,1,.89-.31,2,2,0,0,0,.67-.38,3.62,3.62,0,0,0,.66-.69,4.41,4.41,0,0,0,.52-.9,3.51,3.51,0,0,0,.29-1c-.86.1-1.83.25-2.9.44s-2,.39-2.93.6c-.54.12-1,.21-1.34.27a3,3,0,0,1-.89,0,1.81,1.81,0,0,1-.71-.27,7.28,7.28,0,0,1-.77-.55c-.8-.63-1.16-1-1.09-1.24s.59-.27,1.56-.21a5.07,5.07,0,0,0,.66,0l.69,0,.84-.06L72.16,11l7.07-.79L84,9.67c1.24-.14,2.24-.27,3-.39s1.34-.22,1.83-.33,1.09-.23,1.52-.3a4.78,4.78,0,0,1,1.17-.06,3.22,3.22,0,0,1,1,.23A3.28,3.28,0,0,1,93.29,9.42ZM88.06,3.53a5.67,5.67,0,0,0-1.48.93A6,6,0,0,0,85.48,6c.78.42,1.13.82,1.06,1.2s-.62.63-1.62.75l-1.66.19-1.62.19L80,8.46l-1.91.18a1.39,1.39,0,0,1-.8.75,1,1,0,0,1-1-.31,1.18,1.18,0,0,1-.17-.22,1.2,1.2,0,0,1-.15-.4c0-.18-.09-.42-.14-.72s-.12-.71-.2-1.21a9.92,9.92,0,0,0-.49-2,5.6,5.6,0,0,0-.77-1.47,3,3,0,0,1-.57-.88A.35.35,0,0,1,74,1.69a3.28,3.28,0,0,1,1.21-.09c.58,0,1.38.12,2.41.27Q79,1.74,79.89,1.6a15.56,15.56,0,0,0,1.59-.33A9.75,9.75,0,0,0,82.62.86,6.32,6.32,0,0,0,83.5.35,2.1,2.1,0,0,1,84,.07,1.43,1.43,0,0,1,84.6,0a3.83,3.83,0,0,1,.84.2,12.11,12.11,0,0,1,1.21.55,10.18,10.18,0,0,1,1.57,1,2.32,2.32,0,0,1,.68.76.5.5,0,0,1-.1.58A2,2,0,0,1,88.06,3.53Zm-4.91.63a2.64,2.64,0,0,0,.08-1.05q-.08-.24-.42-.21L81,3.11c-.79.09-1.72.23-2.79.39.08.59.14,1.16.16,1.7s0,1.1,0,1.64c1.07-.1,1.92-.21,2.55-.31a8.85,8.85,0,0,0,1.54-.38,3.42,3.42,0,0,0,.35-.74A10.29,10.29,0,0,0,83.15,4.16Z"/><path class="cls-1" d="M114.26,13.55a3.7,3.7,0,0,0-1,1,5.21,5.21,0,0,0-.7,1.6,2.74,2.74,0,0,1,.81.55.68.68,0,0,1,.2.51.63.63,0,0,1-.31.41,2.07,2.07,0,0,1-.76.23c-.9.11-1.65.2-2.24.29l-1.7.25a3.83,3.83,0,0,1-.44,1.67,1.83,1.83,0,0,1-.72.81.65.65,0,0,1-.74-.18,1.92,1.92,0,0,1-.46-1.33c0-.42-.08-.83-.11-1.22S106,17.37,106,17a12.1,12.1,0,0,1-3.62,2.87c-1,.54-1.58.74-1.73.6s.19-.68,1-1.58c.56-.61,1.14-1.31,1.73-2.09a23.32,23.32,0,0,0,1.92-3.2c-.48-.8-.67-1.3-.57-1.51s.56-.28,1.36-.22c.37-.88.67-1.61.89-2.19a14.19,14.19,0,0,0,.48-1.45,3.89,3.89,0,0,0,.12-1c0-.27,0-.56-.08-.85a7,7,0,0,1-1.51,0,5.94,5.94,0,0,1-1.26-.34c-.75-.31-1.11-.57-1.07-.78s.49-.35,1.36-.41a22.37,22.37,0,0,0,2.86-.46,16.41,16.41,0,0,0,2.9-1,4.25,4.25,0,0,1,1.56-.38,4.74,4.74,0,0,1,1.74.32,1,1,0,0,1,.54.33.45.45,0,0,1,.06.46,1.33,1.33,0,0,1-.5.53,5.2,5.2,0,0,1-1.2.57,11.35,11.35,0,0,1-1.24.39c-.45.12-.91.23-1.37.33a4.58,4.58,0,0,1,.86.65,1,1,0,0,1,.32.5.54.54,0,0,1-.11.44,4.7,4.7,0,0,1-.38.43,4.69,4.69,0,0,0-.85,1.21c-.36.64-.77,1.49-1.23,2.53a4.55,4.55,0,0,0,.88-.33,3.73,3.73,0,0,0,.63-.36,2.53,2.53,0,0,1,.45-.25,1.14,1.14,0,0,1,.51-.08,2.82,2.82,0,0,1,.74.17q.45.16,1.11.48a5.23,5.23,0,0,1,1.07.69,1.3,1.3,0,0,1,.41.58.64.64,0,0,1-.08.49A1.24,1.24,0,0,1,114.26,13.55Zm-3.37.41c.13-.7-.23-1-1.07-.82-.29,0-.55.09-.77.14l-.83.17c0,.61.09,1.17.15,1.69s.12,1.05.16,1.62l1-.19a6.36,6.36,0,0,0,.85-.25,8.26,8.26,0,0,0,.36-1.2C110.76,14.77,110.83,14.38,110.89,14Zm14,3.59c.59.52.82,1,.7,1.37s-.68.53-1.67.42a4.74,4.74,0,0,0-.77,0l-1.23.08-1.35.11c-.46,0-.84.08-1.15.13l-.82.12-1.26.22c-.46.09-.93.18-1.39.29s-.86.21-1.19.31a4,4,0,0,1-.73.21,1.71,1.71,0,0,1-.6,0,2.09,2.09,0,0,1-.6-.24,3.71,3.71,0,0,1-.72-.52q-.91-.72-.87-1c0-.15.41-.23,1.12-.23a9.88,9.88,0,0,0,1.17-.07c.42,0,1-.13,1.82-.28,1.47-.25,2.76-.5,3.86-.74s2-.49,2.82-.74a2.71,2.71,0,0,1,1.53-.11A3.66,3.66,0,0,1,124.87,17.55Zm5.2-2.71a3.16,3.16,0,0,0-.72,1.49,18.23,18.23,0,0,0-.44,3.07,14.89,14.89,0,0,1-.9,4.18,6.13,6.13,0,0,1-2,2.75,3.6,3.6,0,0,1-2,1,.75.75,0,0,1-.77-.76c0-.21-.09-.41-.14-.61a2.65,2.65,0,0,0-.27-.65c-.13-.23-.3-.5-.52-.82s-.52-.69-.9-1.13c-.54-.67-.77-1.11-.67-1.32s.58-.17,1.46.12a10.64,10.64,0,0,0,1.34.38,1.29,1.29,0,0,0,.77,0,1,1,0,0,0,.47-.49,6.08,6.08,0,0,0,.41-1c.11-.32.21-.71.32-1.18s.2-1,.28-1.56.15-1.15.21-1.76.08-1.21.11-1.8a.49.49,0,0,0-.24-.42,1,1,0,0,0-.52-.21,12.88,12.88,0,0,0-2,.14c-.84.12-1.68.27-2.53.46s-1.62.39-2.32.61a5.1,5.1,0,0,0-1.41.62,5.62,5.62,0,0,1-.79.5.77.77,0,0,1-.55.1,1.12,1.12,0,0,1-.49-.35,5.11,5.11,0,0,1-.57-.82,2,2,0,0,1-.37-1.13c0-.23.33-.43.88-.6.14,0,.28-.23.41-.57a7,7,0,0,0,.31-1.21c.09-.47.15-1,.21-1.56s.08-1.1.09-1.59a8.57,8.57,0,0,0,0-1.29,2.25,2.25,0,0,0-.15-.71c-.55-.77-.66-1.29-.35-1.54s1-.14,2.17.34A7,7,0,0,1,119,6a1.8,1.8,0,0,1,.54.52.68.68,0,0,1,.06.52,1.58,1.58,0,0,1-.3.55,2.62,2.62,0,0,0-.28.53,7.65,7.65,0,0,0-.29.93c-.1.41-.22.95-.34,1.61s-.27,1.5-.44,2.53c.77-.06,1.46-.13,2.06-.22s1.13-.18,1.59-.28a1.33,1.33,0,0,1-.66-.85,1.65,1.65,0,0,1-.1-.39,3.47,3.47,0,0,1,0-.56,3.78,3.78,0,0,1,.08-.56,1.3,1.3,0,0,1,.19-.48,3.18,3.18,0,0,0,.2-.55,8.26,8.26,0,0,0,.22-1c.07-.46.15-1,.24-1.71s.18-1.52.28-2.53c0-.36,0-.58-.08-.68a.44.44,0,0,0-.42-.08c-.44.07-1,.17-1.51.3a13.92,13.92,0,0,0-1.74.55,6.26,6.26,0,0,1-.75.24,1.88,1.88,0,0,1-.62,0,1.7,1.7,0,0,1-.63-.22,8,8,0,0,1-.8-.57c-.57-.48-.81-.81-.74-1s.47-.25,1.18-.25a13.2,13.2,0,0,0,1.75-.12A14.94,14.94,0,0,0,119.4,2c.54-.15,1-.3,1.48-.47a4.23,4.23,0,0,0,1-.54l.52-.38a1.2,1.2,0,0,1,.51-.18,1.22,1.22,0,0,1,.64.11,7.09,7.09,0,0,1,1,.48,12.12,12.12,0,0,1,1.37.85,1.86,1.86,0,0,1,.58.62.42.42,0,0,1-.06.5,3,3,0,0,1-.57.52,2.47,2.47,0,0,0-.61.68,4.53,4.53,0,0,0-.43,1,13.9,13.9,0,0,0-.34,1.53c-.11.6-.21,1.31-.32,2.12a7,7,0,0,1-.28,1.22,10.86,10.86,0,0,1-.42,1.07A8,8,0,0,1,123,12a3.08,3.08,0,0,1-.48.55q1.36-.19,2.1-.36a4.21,4.21,0,0,0,1-.33,1.85,1.85,0,0,1,1.18-.27,5.27,5.27,0,0,1,1.59.61,11.26,11.26,0,0,1,1.48.88,2.2,2.2,0,0,1,.65.68.64.64,0,0,1,0,.57A2.2,2.2,0,0,1,130.07,14.84Z"/><path class="cls-1" d="M9.11,41.06c0-.8-.44-3-.44-3.46S9,37,9.42,37s.72.23.71.65-.44,2.66-.48,3.46Zm2.51,0c0-.8-.44-3-.44-3.45a.65.65,0,0,1,.73-.66c.49,0,.74.23.73.65s-.46,2.67-.5,3.47Z"/><path class="cls-1" d="M18.32,37.83h-.39a11.26,11.26,0,0,0-2.48.16c-.71.22-1.19,1.31-1.42,1.81,0,.08-.08.09-.15.08l-.28-.08s-.1,0-.07-.13c.17-.56.73-2.58.77-2.75s.09-.25.15-.25a.26.26,0,0,1,.19.06l.2.14a1.31,1.31,0,0,0,.9.28c.83,0,1.48.11,3,.12h.75c1.71,0,2.39-.05,3.16-.07a1.53,1.53,0,0,0,.81-.21l.3-.19a.32.32,0,0,1,.19-.06c.08,0,.11,0,.14.25s.31,2.14.43,2.83c0,.08,0,.11-.09.12l-.25.06c-.07,0-.08,0-.13-.11-.12-.3-.58-1.51-1.1-1.76a9.15,9.15,0,0,0-2.71-.29h-.44l0,4.47c0,.22,0,4.61,0,4.88s.15.63.52.63h1c.14,0,.16.05.16.16v.33c0,.08,0,.13-.15.12s-.66,0-2.2-.06-2.16,0-2.38,0-.14-.06-.14-.15V48c0-.11,0-.16.11-.16h1.07a.47.47,0,0,0,.52-.37c0-.46.09-5.27.09-5.57Z"/><path class="cls-1" d="M28.72,42.45c.13,0,1.81,0,2-.07.45-.08.58-.2.72-.69a3.58,3.58,0,0,0,.14-.76.1.1,0,0,1,.11-.11l.39,0a.09.09,0,0,1,.09.12c-.05.27-.06,1.56-.06,1.79,0,.55,0,1.3.08,1.63a.11.11,0,0,1-.1.13l-.34,0c-.08,0-.11,0-.13-.14s-.12-.57-.16-.74a.74.74,0,0,0-.67-.62C30.05,43,29,43,28.72,43v1c0,.85,0,2.37,0,2.68,0,.82.4,1.13.88,1.23a5.82,5.82,0,0,0,1.16.12c.27,0,1,0,1.38,0a3,3,0,0,0,1.37-.54,13.61,13.61,0,0,0,1.3-1.64c0-.07.1-.14.19-.09l.25.15c.08,0,.08.09,0,.22l-.85,2.29a.34.34,0,0,1-.35.24l-1.36-.05-4.91-.06H26.47c-.32,0-.53,0-.67,0s-.14,0-.14-.11V48c0-.06.05-.08.16-.08h.63c.72,0,.78-.1.79-.69l0-5.25c0-1.3,0-3.26,0-3.42-.06-.5-.22-.61-.8-.62h-.56c-.08,0-.13,0-.13-.11v-.43s0-.08.11-.08c.34,0,.89.06,1.93.07h.69c1.55,0,3.1,0,4.66,0,.25,0,.54,0,.62,0a.13.13,0,0,1,.13.08L34.71,40c0,.06,0,.11-.05.14l-.24.12c-.05,0-.11,0-.12,0a12.76,12.76,0,0,0-1.56-1.8A2.32,2.32,0,0,0,31.55,38l-2.79-.09Z"/><path class="cls-1" d="M37.86,41.51c0-1,0-2.66,0-2.94s-.11-.57-.58-.58h-.73c-.1,0-.11-.08-.11-.16v-.34c0-.08,0-.11.11-.11s.74,0,2,.06c1.52,0,2.18,0,2.32,0s.14.05.14.13v.36c0,.08,0,.13-.16.13h-.94c-.49,0-.55.15-.56.61,0,.2-.07,2.57-.07,3.67l0,1.34c0,.27,0,3.66,0,4.3.35,0,3.45.1,3.94,0,.93-.14,1.88-2,2.11-2.62,0-.06.06-.09.13-.06l.25.09s0,0,0,.15-.7,2.69-.8,3.11c-.2,0-1.43,0-2.82-.06l-3.78,0H37l-.61,0c-.11,0-.13,0-.13-.12v-.39c0-.08,0-.11.11-.11h.75c.58,0,.68-.21.68-.42s.08-4.2.09-5.16Z"/><path class="cls-1" d="M49.53,42.64c.13,0,1.81,0,2-.08.45-.07.58-.2.72-.68a3.69,3.69,0,0,0,.14-.77A.1.1,0,0,1,52.5,41l.39,0a.09.09,0,0,1,.09.12c0,.27-.06,1.56-.06,1.79,0,.55,0,1.3.08,1.63a.11.11,0,0,1-.1.13l-.34,0c-.08,0-.11,0-.13-.14s-.12-.56-.16-.74a.73.73,0,0,0-.67-.61c-.74-.09-1.82-.1-2.07-.1v1c0,.85,0,2.37,0,2.68,0,.82.4,1.14.88,1.23a5.91,5.91,0,0,0,1.16.12c.27,0,1,0,1.38,0a3,3,0,0,0,1.37-.54,14.27,14.27,0,0,0,1.3-1.63c.05-.08.1-.14.19-.1l.25.15c.08,0,.08.09,0,.22l-.85,2.3a.34.34,0,0,1-.35.23l-1.36-.05-4.91,0H47.29c-.33,0-.54,0-.68,0s-.14,0-.14-.11v-.42c0-.06.05-.08.16-.08h.63c.72,0,.78-.1.79-.68l.05-5.26c0-1.3,0-3.26,0-3.42-.06-.5-.22-.61-.8-.62h-.56c-.08,0-.13,0-.13-.11v-.43s0-.07.11-.07c.34,0,.89.05,1.93.06h.69l4.66,0c.25,0,.55,0,.62,0a.12.12,0,0,1,.13.08l.78,2.53c0,.06,0,.11-.05.14l-.24.12s-.11,0-.12,0a12.76,12.76,0,0,0-1.56-1.8,2.41,2.41,0,0,0-1.18-.43L49.57,38Z"/><path class="cls-1" d="M60,44.58c0,.74,0,2.87,0,3.09s.19.5.52.5h1c.11,0,.12,0,.12.11v.38c0,.08,0,.13-.14.12s-.71,0-2.18-.06-2,0-2.17,0-.12,0-.12-.11v-.4c0-.07,0-.11.1-.1h.67c.53,0,.65-.07.7-.49,0-.16.08-2.61.1-4.43v-1.8c0-1,0-2.75,0-2.9,0-.32-.19-.35-.61-.35h-.9c-.07,0-.09,0-.09-.13v-.37c0-.08,0-.11.1-.11s.74,0,2.23.06c.28,0,1.21,0,1.72,0a5.45,5.45,0,0,1,3.49.82,2.78,2.78,0,0,1,1.18,2.28c0,2-1.52,3.19-4,3.17a15.28,15.28,0,0,1-1.71-.1Zm0-1.38a5.69,5.69,0,0,0,1.44.15,2.84,2.84,0,0,0,2.22-1.05,2.52,2.52,0,0,0,.42-1.58,2.67,2.67,0,0,0-2.81-2.62,4.79,4.79,0,0,0-1.23.09Z"/><path class="cls-1" d="M68.45,42.63c0-1,0-3.09,0-3.34,0-.8-.1-1-.69-1H67c-.08,0-.1,0-.1-.13v-.38c0-.08,0-.11.12-.11.32,0,.82.06,2.2.07,1.22,0,1.79,0,2.09,0,.11,0,.15,0,.15.08v.41c0,.09,0,.12-.13.12h-.8c-.53,0-.61.26-.62.88,0,.22,0,2.29-.06,3.17v.27c0,.08,0,.13.19.13l5.8,0c.24,0,.32,0,.32-.23V42.4c0-.9,0-3.08,0-3.27,0-.5-.05-.8-.51-.8h-.82c-.07,0-.11,0-.1-.11v-.4c0-.07,0-.1.09-.1.33,0,1,.06,2.07.07s1.71,0,2,0c.11,0,.13,0,.13.12v.38c0,.09,0,.11-.12.11h-.71c-.45,0-.5.27-.51.83,0,.22,0,2.87-.06,3.45v.53c0,.51,0,3.49,0,4.38,0,.57.15.79.62.79H79c.11,0,.15,0,.15.11v.37c0,.1,0,.13-.12.13-.3,0-.84-.06-2-.07-1.37,0-1.87,0-2.34,0-.06,0-.09,0-.09-.11v-.39c0-.08,0-.11.13-.11h1c.37,0,.42-.3.43-.72,0-.74.07-3.26.08-3.83v-.22c0-.17-.08-.19-.34-.19L70.1,43.3c-.17,0-.22.05-.22.16v.33c0,.42,0,2.83,0,3.93,0,.38.17.54.49.54h.77c.1,0,.13,0,.13.11v.39c0,.08,0,.11-.13.11-.3,0-.85-.05-2-.06-1.35,0-1.82,0-2.18,0-.08,0-.11,0-.11-.11v-.4c0-.07,0-.1.11-.1h.92c.39,0,.44-.37.45-.75,0-.74.08-3.78.08-4.19Z"/><path class="cls-1" d="M83,48.15a5.5,5.5,0,0,1-2.26-4.68,6.11,6.11,0,0,1,1.49-3.89,5.14,5.14,0,0,1,4.27-2A5.28,5.28,0,0,1,90,38.9a6,6,0,0,1,2.11,4.7A5.7,5.7,0,0,1,90.85,47a5.31,5.31,0,0,1-4.53,2.17A7,7,0,0,1,83,48.15Zm7.57-4.43c0-3.44-2.4-5.48-4.14-5.5a3,3,0,0,0-2.48.9A5.66,5.66,0,0,0,82.29,43c0,4.12,2.83,5.6,4.16,5.62C89.9,48.64,90.51,45.11,90.52,43.72Z"/><path class="cls-1" d="M95.16,40c0-.93-.45-1.45-1-1.47l-.64,0c-.08,0-.09-.07-.09-.11V38c0-.06,0-.1.09-.1s.21,0,.44,0,.58,0,1.12,0,.86,0,1,0a.54.54,0,0,1,.45.21l3.26,4.3c.17.22,2.79,3.49,3.16,4h.07V44.55c0-1.4,0-2.17,0-2.95a17.11,17.11,0,0,0-.17-2.42.83.83,0,0,0-.85-.62h-.51c-.06,0-.09,0-.09-.11V38c0-.06,0-.1.09-.1.22,0,.72.06,1.72.07s1.32,0,1.53,0,.12.05.12.11v.4c0,.06,0,.11-.1.1h-.42c-.42,0-.58.26-.62.86-.07,1.05-.09,2.6-.09,3.62l-.06,5.87c0,.22,0,.37-.08.37a.51.51,0,0,1-.37-.25l-1.89-2.43c-1.09-1.38-2.22-2.83-2.32-2.92s-3-3.81-3.11-3.94h-.1l0,3.48c0,1.46.09,4,.12,4.33.06.62.15.92.57.92h.47c.11,0,.13,0,.13.14V49c0,.09,0,.13-.12.12L95.34,49l-1.57,0c-.06,0-.08,0-.08-.11v-.41c0-.05,0-.1.1-.09h.53c.46,0,.63-.18.72-.95,0-.3.08-2.09.1-4.88Z"/><path class="cls-1" d="M109.43,43.16c.12,0,1.8,0,2-.08.45-.07.58-.2.73-.68a3.79,3.79,0,0,0,.13-.77.1.1,0,0,1,.11-.11l.39,0a.09.09,0,0,1,.09.13c-.05.26-.06,1.55-.06,1.78,0,.55,0,1.31.08,1.64,0,.08,0,.11-.09.12l-.35,0c-.08,0-.11,0-.12-.15a7.13,7.13,0,0,0-.17-.73.73.73,0,0,0-.67-.62c-.74-.09-1.82-.1-2.07-.1v1c0,.85,0,2.37,0,2.69,0,.81.4,1.13.88,1.23a8,8,0,0,0,1.16.12c.27,0,1.06,0,1.38,0a2.93,2.93,0,0,0,1.37-.54,13.44,13.44,0,0,0,1.3-1.63c0-.08.1-.14.19-.09l.25.14c.08.05.08.09,0,.22l-.85,2.3a.34.34,0,0,1-.35.23l-1.36,0-4.91-.06c-.58,0-1,0-1.33,0l-.68,0c-.09,0-.14,0-.14-.11v-.43c0-.06,0-.07.15-.07h.63c.72,0,.79-.1.79-.68l0-5.26c0-1.3,0-3.26,0-3.42-.06-.5-.21-.61-.79-.61h-.57c-.08,0-.12,0-.12-.11v-.42s0-.08.11-.08c.35,0,.89,0,1.93.06h.69l4.66,0c.25,0,.55,0,.63,0s.11,0,.12.08l.78,2.53c0,.06,0,.11,0,.14l-.24.12s-.11,0-.12,0a12.69,12.69,0,0,0-1.55-1.81,2.48,2.48,0,0,0-1.19-.43l-2.79-.09Z"/><path class="cls-1" d="M118,42c0-.8-.44-3-.44-3.45s.3-.66.74-.66.72.23.72.65-.45,2.67-.49,3.47Zm2.51,0c0-.8-.44-3-.44-3.45a.64.64,0,0,1,.73-.66c.48,0,.73.23.73.66s-.46,2.66-.5,3.46Z"/><path class="cls-2" d="M163.26,26.37a16.41,16.41,0,0,1-4-4.7,14.84,14.84,0,0,1-1.8-7,14.47,14.47,0,0,1,2-7.18,17.57,17.57,0,0,1,3.85-4.57.66.66,0,0,1,.47-.21c.23,0,.52.24.52.37a.87.87,0,0,1-.21.46c-2.13,2.58-3.28,6.42-3.28,11.13,0,4.33,1.2,8.54,3.28,11.09a.84.84,0,0,1,.21.47c0,.13-.29.39-.52.39A.77.77,0,0,1,163.26,26.37Z"/><path class="cls-2" d="M177.68,4.73a.25.25,0,0,1,.26.28,2.72,2.72,0,0,1-.47,1,51.48,51.48,0,0,0-3.09,6.21,61.94,61.94,0,0,0-2.65,8.29,2.39,2.39,0,0,1-2.18,2A1.54,1.54,0,0,1,168,20.84a7.79,7.79,0,0,1,1.14-3c.45-.81,5-8.29,6.19-10.11h-6c-1.56,0-1.85.49-2.6,1.43-.16.2-.31.18-.55.05s-.23-.16-.15-.39L167.65,4c0-.16.08-.19.39-.19s.39.08.34.47.16.5,1.48.5Z"/><path class="cls-2" d="M183.19,9.14c0-.62-.13-1.19-.6-1.19a4,4,0,0,0-1.17.18l-1.27.36c-.13,0-.23,0-.29-.07l-.18-.52c-.05-.11,0-.21.16-.32l6.31-3.09a1.16,1.16,0,0,1,.5-.15c.15,0,.23.18.23.39s-.08,4.28-.08,7.63v1.1c0,1.35,0,5.82,0,6.1,0,1.35.13,1.54,1.43,1.54h.93c.18,0,.26.07.26.2V22c0,.13-.08.18-.28.18L185,22.08c-.76,0-4.42.08-4.55.08s-.21-.05-.21-.18v-.7c0-.16.16-.18.37-.18h.67c1.43,0,1.82-.08,1.87-1.41.06-1.09,0-4,0-4.88Z"/><path class="cls-2" d="M198.8,22.08c-.23,0-.31,0-.31-.28V18h-6.7c-.47,0-.78-.18-.78-.49a1.65,1.65,0,0,1,.47-1l9.3-11.75a.83.83,0,0,1,.67-.41c.26,0,.37.18.37.88V15.64h1.63c.19,0,.32.1.32.23v1.87c0,.16-.08.26-.42.26h-1.53v3.72c0,.28,0,.36-.37.36Zm-.28-6.44V9.9c0-.37-.26-.37-.5-.06l-4.21,5.28c-.23.28-.15.52.19.52Z"/><path class="cls-2" d="M205.82,2.88a16.58,16.58,0,0,1,4,4.7,14.93,14.93,0,0,1,1.79,7,14.48,14.48,0,0,1-2,7.2,17.57,17.57,0,0,1-3.85,4.57.66.66,0,0,1-.47.21c-.23,0-.52-.24-.52-.37a.87.87,0,0,1,.21-.46c2.11-2.63,3.28-6.42,3.28-11.15,0-4.31-1.23-8.52-3.28-11.07a.84.84,0,0,1-.21-.47c0-.13.29-.39.52-.39A.77.77,0,0,1,205.82,2.88Z"/><path class="cls-2" d="M213.82,14.29c0-.16.05-.18.23-.18h7.25c.21,0,.31.05.31.28V15.9c0,.13-.1.18-.26.18H214c-.16,0-.21,0-.21-.13Z"/><path class="cls-2" d="M225.38,22.08c-.44,0-.91,0-1.3.05l-.8.06c-.13,0-.21,0-.29-.16a.56.56,0,0,1,.16-.62,47.29,47.29,0,0,0,5-5.33c1.61-2,2.65-4,2.57-6.31-.08-1.93-1.27-3.23-3-3.17a3.84,3.84,0,0,0-3,2c-.13.21-.2.21-.31.16L224,8.6c-.08-.06-.1-.13,0-.37a5.92,5.92,0,0,1,5.59-3.89,4.78,4.78,0,0,1,4.93,4.72c0,2.21-1,4.34-3.92,7-1.51,1.4-2.67,2.36-3.48,3.11v.11h4.49a3.18,3.18,0,0,0,2.94-2c.13-.23.21-.28.47-.15s.39.23.31.41l-1.84,4.81c-.08.21-.16.29-.39.29s-.24-.06-.34-.26-.65-.37-1.69-.37Z"/><path class="cls-2" d="M243.67,22.08c-.23,0-.31,0-.31-.28V18h-6.7c-.47,0-.78-.18-.78-.49a1.7,1.7,0,0,1,.46-1l9.31-11.75a.83.83,0,0,1,.67-.41c.26,0,.37.18.37.88V15.64h1.63c.18,0,.31.1.31.23v1.87c0,.16-.07.26-.41.26h-1.53v3.72c0,.28-.06.36-.37.36Zm-.28-6.44V9.9c0-.37-.26-.37-.5-.06l-4.21,5.28c-.23.28-.15.52.18.52Z"/><path class="cls-2" d="M256.66,22.08c-.23,0-.31,0-.31-.28V18h-6.7c-.47,0-.78-.18-.78-.49a1.7,1.7,0,0,1,.46-1l9.31-11.75a.83.83,0,0,1,.67-.41c.26,0,.37.18.37.88V15.64h1.63c.19,0,.31.1.31.23v1.87c0,.16-.07.26-.41.26h-1.53v3.72c0,.28-.06.36-.37.36Zm-.28-6.44V9.9c0-.37-.26-.37-.5-.06l-4.21,5.28c-.23.28-.15.52.18.52Z"/><path class="cls-2" d="M263.18,14.29c0-.16.05-.18.24-.18h7.25c.2,0,.31.05.31.28V15.9c0,.13-.11.18-.26.18h-7.33c-.16,0-.21,0-.21-.13Z"/><path class="cls-2" d="M284.57,13.25c0,5.95-1.93,9.22-5.67,9.22-4.57,0-5.9-5-5.9-8.34,0-5.79,2-9.79,5.88-9.79C283.71,4.34,284.57,9.3,284.57,13.25Zm-7.18-6.13a35.05,35.05,0,0,0-.72,6.73,24.4,24.4,0,0,0,.41,5.53c.42,1.48.91,2,1.85,2s1.43-.52,1.66-1.69a44,44,0,0,0,.34-7c0-4.37-.5-7.28-1.93-7.28C278.1,5.4,277.6,6.13,277.39,7.12Z"/><path class="cls-2" d="M296.07,6.26a7.16,7.16,0,0,1,1.46,4.08,13,13,0,0,1-4.21,9.74,10.08,10.08,0,0,1-4.16,2.26,3.3,3.3,0,0,1-.8.13c-.21,0-.42-.08-.42-.39a.54.54,0,0,1,.34-.44c2.18-.83,4.62-3.64,5.17-7.25h-.18a4.66,4.66,0,0,1-2.86.75,4.39,4.39,0,0,1-4.31-4.62A6.85,6.85,0,0,1,288,5.76a5.38,5.38,0,0,1,3.74-1.42C293.84,4.34,295,4.88,296.07,6.26Zm-6.6,2.91c0,2.57,1.07,4.47,2.47,4.47a2,2,0,0,0,1.46-.52c.41-.47.39-2.08.39-3.28,0-2.41-.39-4.54-2-4.54S289.47,6.78,289.47,9.17Z"/><path class="cls-2" d="M300.59,20.76A8,8,0,0,1,299,15.64a11.54,11.54,0,0,1,3.38-8.06,11.76,11.76,0,0,1,5.09-3,4.21,4.21,0,0,1,1.19-.23c.16,0,.39.13.39.31s-.13.44-.59.62c-2.08.78-4.89,3.85-5.56,7l.15.08a4.49,4.49,0,0,1,2.86-1c3.22,0,4.52,2.54,4.52,4.83a6,6,0,0,1-1.69,4.62,5.57,5.57,0,0,1-4.31,1.69A4.44,4.44,0,0,1,300.59,20.76Zm6.29-3.28c0-2.47-.73-4.47-2.23-4.47a2,2,0,0,0-1.54.45c-.52.52-.52,1.63-.52,3.45,0,1.51.34,4.6,2.11,4.6C305.66,21.51,306.88,21.12,306.88,17.48Z"/><path class="cls-2" d="M314.83,10.62a14.35,14.35,0,0,1,3.85.65,5,5,0,0,1,3.4,4.91c0,3.43-3.19,6.29-7.25,6.29-1.74,0-3.17-.7-3.17-1.45,0-.6.34-.91.7-.89a3.4,3.4,0,0,1,1.51.63,3.52,3.52,0,0,0,1.72.39,3.32,3.32,0,0,0,3.48-3.56,3.5,3.5,0,0,0-1.87-3.25,8.18,8.18,0,0,0-3.43-.73c-.32,0-.45-.13-.42-.39l1-8.08c0-.31.08-.41.42-.41h5.77c.91,0,1.11-.45,1.56-1.3.1-.19.18-.21.51-.08s.29.15.24.39l-1,3.48c-.13.44-.26.55-1.06.55h-5.49Z"/></g></g></svg>