<svg version="1.1" id="Layer_1" xmlns="http://www.w3.org/2000/svg" xmlns:xlink="http://www.w3.org/1999/xlink" x="0px" y="0px"
	 viewBox="0 0 225.9 80.1" style="enable-background:new 0 0 225.9 80.1;" xml:space="preserve">
<style type="text/css">
	.st0{enable-background:new    ;}
	.st1{fill:#95272B;}
</style>
<g id="Layer_2_1_">
	<g id="Layer_1-2">
		<g class="st0">
			<path class="st1" d="M18.4,43.2c-0.9,3.6-1.9,6.7-3,9.5c-1.1,2.7-2.3,5-3.6,6.9c-1.3,1.9-2.8,3.6-4.3,5c-2.9,2.6-4.6,3.7-5.1,3.4
				c-0.5-0.3,0.3-2.2,2.4-5.7c2-3.3,3.7-7.1,5.3-11.6c1.6-4.5,3-9.8,4.1-16c0.4-2,0.6-3.7,0.9-5.2s0.4-2.7,0.5-3.8
				c0.1-1.1,0.1-2,0-2.7c-0.1-0.8-0.2-1.5-0.3-2.1c-0.6-0.1-1-0.2-1.2-0.3c-0.3-0.1-0.5-0.2-0.8-0.4c-1.4-0.9-1.9-1.6-1.7-2.2
				c0.3-0.6,1.6-0.9,3.9-1c2-0.1,4.3-0.3,6.8-0.5c2.5-0.2,5.1-0.6,7.8-0.9c2.7-0.4,5.4-0.8,8-1.2c2.7-0.5,5.1-1,7.5-1.5
				c1.3-0.3,2.4-0.6,3.4-0.8c1-0.2,1.9-0.3,2.7-0.3c0.8,0,1.6,0,2.3,0.2c0.7,0.2,1.5,0.5,2.3,0.9c2,1.2,2.8,2.1,2.5,2.7
				c-0.3,0.7-2.1,1.2-5.3,1.5c-0.9,0.1-2,0.2-3.5,0.4s-3.2,0.3-5,0.6c-1.8,0.2-3.7,0.5-5.7,0.7c-2,0.2-3.9,0.5-5.6,0.7
				c-2.2,0.3-4.4,0.5-6.7,0.6c-2.3,0.2-4.2,0.3-5.8,0.5c0.9,0.7,1.4,1.3,1.8,1.7c0.3,0.4,0.4,0.9,0.2,1.5c-0.4,0.7-0.7,1.6-1.1,2.8
				c-0.4,1.2-0.7,2.6-1,4.3C20.2,35.5,19.3,39.6,18.4,43.2z M25.5,45c0.2-0.7,0.4-1.3,0.6-1.9c0.2-0.5,0.3-1,0.4-1.4
				c0-0.4,0-0.8-0.3-1.1c-0.2-0.3-0.6-0.7-1.2-1c-0.6-0.3-1.4-0.7-2.4-1.1c-1.3-0.5-2.2-0.5-2.6-0.3c-0.4,0.3-0.3,1.1,0.2,2.6
				c0.6,1.6,0.5,4.4-0.5,8.4c-0.6,2.4-1.1,4.3-1.7,5.9c-0.6,1.6-1.4,3.2-2.3,4.7c-0.7,1.1-1.1,1.9-1.3,2.5c-0.2,0.6-0.1,1,0.1,1.1
				c0.2,0.2,0.6,0.1,1.2-0.2c0.6-0.3,1.2-0.7,1.9-1.3c1-0.8,1.8-1.6,2.5-2.5c0.7-0.9,1.4-1.8,2-2.9c0.6-1.1,1.1-2.2,1.5-3.6
				c0.4-1.3,0.8-2.8,1.1-4.6C25.1,46.9,25.3,45.7,25.5,45z M31.6,46.1c0-3.5,0.1-6.9,0.2-10.2c0.8-0.1,1.6-0.3,2.5-0.5
				c0.9-0.2,1.7-0.4,2.3-0.5c1.9-0.5,2.8-1.1,2.7-2c-0.1-0.9-0.9-1.5-2.5-2c-0.4-0.1-1.1-0.1-2.1,0c-1,0.1-1.9,0.2-2.6,0.3
				c0.2-2.2,0.5-3.8,1.1-4.7c0.3-0.4,0.4-0.8,0.5-1.2s0-0.8-0.3-1.1c-0.3-0.4-0.8-0.7-1.4-1.1c-0.7-0.3-1.6-0.6-2.9-0.9
				c-4.5-1.1-5.8-0.1-3.8,2.8c0.3,0.5,0.6,1,0.8,1.5c0.3,0.5,0.5,1,0.6,1.5c0.2,0.6,0.3,1.2,0.3,2s0.1,1.7,0.1,2.7
				c-0.8,0.3-1.6,0.5-2.5,0.7c-0.9,0.2-1.7,0.4-2.4,0.5c-1,0.2-1.5,0.5-1.6,0.9c-0.1,0.4,0.5,0.9,1.6,1.4c0.6,0.3,1.2,0.4,1.9,0.5
				c0.7,0.1,1.6,0,2.9-0.2c-0.1,3.4-0.2,6.3-0.3,8.7c-0.1,2.4-0.3,4.4-0.5,6c-0.2,1.6-0.4,2.9-0.7,3.8c-0.3,1-0.5,1.7-0.8,2.3
				c-0.5,1.1-0.7,2.2-0.6,3.4c0.1,1.2,0.4,2.3,1,3.4c1.2,2.1,2.3,3.1,3.4,3c1.1-0.1,1.9-1.3,2.6-3.7c0.2-0.4,0.3-0.8,0.3-1.2
				c0-0.4,0.1-0.9,0.2-1.5c0-0.6,0.1-1.3,0.1-2.1s0-1.9,0-3.2C31.6,52.7,31.6,49.6,31.6,46.1z M36.9,13.7c0.7,0.1,1.2-0.1,1.8-0.4
				c0.5-0.3,1-0.9,1.3-1.6c0.3-0.8,0.4-1.7,0.3-2.9c-0.1-1.4-0.8-2.5-2.1-3.3c-1.3-0.8-3.5-1.2-6.7-1.3c-1.7-0.1-2.7,0.1-3,0.6
				c-0.3,0.5,0.1,1.4,1.1,2.7c0.5,0.6,0.9,1,1.2,1.5c0.4,0.4,0.7,0.8,1.2,1.2c0.4,0.4,0.9,0.8,1.4,1.3c0.5,0.5,1.1,1,1.8,1.6
				C35.7,13.3,36.2,13.6,36.9,13.7z M45.8,42.6c0.2-0.9,0.3-1.8,0.5-2.5c0.2-1,0.1-1.7-0.4-2.2c-0.5-0.5-1.7-1.1-3.7-1.8
				c-1.5-0.5-2.4-0.5-2.7,0s-0.1,1.3,0.8,2.7c0.5,0.7,0.7,1.8,0.7,3.2c0,1.4-0.1,3.2-0.2,5.3c-0.1,1.8-0.2,3.5-0.4,5
				c-0.2,1.5-0.4,3-0.8,4.6c0-0.5-0.1-1.2-0.4-2c-0.3-0.6-0.5-0.9-0.8-0.9c-0.3-0.1-0.8,0-1.4,0.1c-0.1,0.1-0.2,0-0.3-0.1
				c-0.1-0.1-0.1-0.4-0.1-0.8c0-0.4,0-1,0.1-1.7c0-0.8,0.2-1.8,0.3-3c0-0.9,0.1-1.6,0.2-2.1c0.1-0.6,0.2-1,0.3-1.5
				c0.1-0.4,0.2-0.8,0.3-1.2c0.1-0.4,0.3-0.8,0.5-1.3c0.2-0.5,0.3-0.9,0.3-1.3c0-0.4,0-0.7-0.2-0.9c-0.2-0.3-0.5-0.5-0.9-0.8
				c-0.5-0.3-1.1-0.6-1.9-1c-3.1-1.4-4-0.7-2.8,2c0.2,0.4,0.3,1.1,0.4,2.2c0.1,1.1,0,2.6-0.2,4.5c-0.3,2.4-0.5,4.4-0.5,5.9
				c0,1.5,0.1,2.7,0.4,3.6c0.3,0.9,0.7,1.4,1.2,1.7c0.6,0.3,1.2,0.5,2,0.5c1.9,0.1,3-0.4,3.3-1.4c-0.1,0.4-0.2,0.7-0.3,1
				c-0.1,0.3-0.2,0.7-0.3,1c-0.7,2.5-0.8,3.8-0.3,4c0.5,0.2,1.3-0.5,2.3-2c0.7-0.9,1.2-1.9,1.7-2.9c0.5-1,0.9-2.2,1.2-3.4
				c0.4-1.3,0.6-2.6,0.9-4.1c0.2-1.5,0.4-3.1,0.6-4.9C45.5,44.6,45.6,43.5,45.8,42.6z M52.3,41c0.1,2.5,0.2,4.6,0.2,6.6
				c0.1,1.9,0.2,3.7,0.2,5.2c0.1,1.6,0.2,3.2,0.3,4.7c0,0.7,0.1,1.4,0.1,2c0,0.6,0,1.2,0,1.8c0,0.6-0.1,1.2-0.2,1.9
				c-0.1,0.7-0.2,1.4-0.4,2.2c-0.4,1.9-1.1,3-2,3.2c-0.9,0.2-2-0.5-3.3-2.1c-1.2-1.6-1.9-2.9-2-4c-0.1-1.1,0.1-2.2,0.7-3.4
				c0.3-0.7,0.6-1.6,0.8-3c0.2-1.3,0.3-3,0.4-5.2c0-2.1,0-4.6,0-7.6c-0.1-2.9-0.2-6.3-0.3-10.2c-1.6,0.3-2.8,0.4-3.6,0.4
				c-0.8,0-1.6-0.1-2.4-0.4c-1.3-0.6-1.8-1.1-1.6-1.5s1-0.8,2.4-1.1c1-0.2,1.9-0.3,2.7-0.5c0.8-0.2,1.7-0.4,2.5-0.6
				c-0.1-1.1-0.1-2-0.3-2.7c-0.1-0.7-0.3-1.2-0.4-1.7c-0.2-0.5-0.3-0.8-0.5-1.1c-0.2-0.3-0.4-0.6-0.6-0.8c-1.5-1.9-1.9-3.1-1.3-3.6
				c0.6-0.5,2.4-0.4,5.3,0.3c1.3,0.3,2.2,0.6,2.9,0.8c0.7,0.3,1.2,0.5,1.5,0.8c0.3,0.3,0.5,0.6,0.4,0.9c-0.1,0.4-0.2,0.8-0.5,1.2
				c-0.3,0.4-0.5,1-0.8,1.8c-0.3,0.8-0.4,1.7-0.5,2.6c0.4-0.1,1-0.3,1.7-0.5c0.8-0.3,1.3-0.5,1.7-0.6c0.7-0.3,1.2-0.4,1.7-0.6
				c0.5-0.1,1-0.2,1.4-0.2c0.4,0,0.8,0.1,1.2,0.2s0.8,0.3,1.3,0.6c1.3,0.7,1.8,1.4,1.7,2.1c-0.1,0.7-0.8,1.2-2.1,1.4
				c-1.9,0.4-3.6,0.8-4.9,1.1c-1.4,0.3-2.6,0.6-3.8,0.8C52.1,35.7,52.2,38.5,52.3,41z M69.6,56.1c0.2-0.7-0.2-1.4-1-2.2
				c-0.9-0.7-1.6-1.1-2.3-1.2c-0.7-0.1-1.4,0.1-2.3,0.5c-0.7,0.4-1.3,0.7-1.8,0.9c-0.6,0.2-1.1,0.3-1.7,0.2c-0.4,0-0.7-0.1-1-0.3
				c-0.3-0.2-0.5-0.6-0.6-1.2c-0.1-0.6-0.2-1.4-0.2-2.5c0-1.1,0-2.5,0.1-4.3c0-0.8,0.1-1.5,0.2-2.1c0-0.6,0.1-1.1,0.2-1.6
				c0.1-0.5,0.2-0.9,0.3-1.4c0.1-0.4,0.3-0.9,0.5-1.3c0.2-0.5,0.3-0.9,0.3-1.3c0-0.4-0.1-0.7-0.3-1c-0.2-0.3-0.5-0.6-1-1
				c-0.5-0.4-1.2-0.8-2.1-1.2c-1.6-0.9-2.7-1.1-3.4-0.6c-0.7,0.4-0.7,1.2,0,2.4c0.2,0.5,0.4,0.9,0.5,1.4c0.1,0.5,0.2,1.1,0.3,1.9
				c0,0.8,0.1,1.7,0,2.7c0,1.1-0.1,2.4-0.1,4c-0.1,2.4-0.1,4.3,0,5.8c0.1,1.5,0.4,2.7,0.8,3.6c0.4,0.9,1,1.5,1.7,2
				c0.8,0.4,1.8,0.7,3,0.9c1.1,0.1,2.2,0.1,3.6-0.1c1.3-0.2,2.6-0.5,3.9-1.1C68.6,57.4,69.4,56.8,69.6,56.1z"/>
			<path class="st1" d="M104,33.2c-1.6,0.4-3.1,0.8-4.4,1.1c-1.4,0.4-2.7,0.7-4,1.1c2.1,0.7,3.3,1.3,3.7,1.8
				c0.4,0.5,0.2,1.3-0.6,2.4c1.5-0.4,2.5-0.6,3.2-0.6c0.7,0,1.4,0.1,2.1,0.2c1.3,0.3,1.9,0.8,1.9,1.4c0,0.6-0.8,1.2-2.4,1.7
				c-1,0.3-1.9,0.6-2.9,0.9c-1,0.3-1.9,0.6-2.8,0.9c-0.5,2.3-1,4.4-1.7,6.3c-0.7,1.9-1.5,3.6-2.6,5.2c-1.1,1.6-2.3,3-3.8,4.3
				c-1.5,1.3-3.3,2.6-5.4,3.8c-2.4,1.4-3.6,2-3.8,1.7c-0.2-0.3,0.6-1.5,2.5-3.7c1.8-2.1,3.1-4,4.1-5.6s1.8-3.4,2.5-5.3
				c0.3-0.9,0.5-1.6,0.7-2.3c0.2-0.7,0.4-1.4,0.6-2c-0.6,0.2-1.1,0.4-1.6,0.6c-0.5,0.2-0.9,0.3-1.2,0.5c-1,0.5-1.9,0.7-2.7,0.5
				c-0.8-0.2-1.9-0.8-3.2-2c-0.8-0.7-1.3-1.2-1.5-1.5c-0.3-0.4-0.3-0.6-0.2-0.8c0.2-0.2,0.5-0.3,1-0.3c0.5,0,1.2-0.1,2.1-0.2
				c1.2,0,2.5-0.2,3.9-0.3c1.4-0.2,2.8-0.5,4.3-0.9c0.1-1,0.1-1.9,0-2.7c-0.1-0.8-0.3-1.6-0.5-2.4c-1.4,0.4-2.5,0.8-3.5,1.1
				c-1,0.4-1.8,0.7-2.4,1c-0.6,0.3-1,0.4-1.4,0.6c-0.4,0.1-0.8,0.1-1.2,0C82,39.2,81.5,39,81,38.6c-0.6-0.4-1.3-0.9-2.1-1.6
				c-1.4-1.2-2-1.9-1.8-2.1c0.2-0.3,1.4-0.4,3.7-0.4c0.9,0,2.1-0.1,3.8-0.3c1.7-0.2,3.5-0.5,5.4-0.8c-0.3-0.3-0.5-0.6-0.7-0.9
				C89,32,88.9,31.5,88.7,31c-0.3-1-0.6-2-0.9-3.1c-0.3-1.1-0.5-2.2-0.8-3.5c-0.2-0.7-0.3-1.3-0.3-1.8c-0.1-0.5-0.1-1-0.1-1.4
				c-0.6-0.1-1.1-0.2-1.4-0.3c-3.7-1.1-3.6-1.9,0.2-2.6c2.6-0.5,5.1-0.9,7.3-1.4c2.3-0.5,4.8-1.4,7.4-2.6c2.4-1,4.5-1.1,6.6-0.2
				c1.4,0.6,2,1.2,1.8,2c-0.1,0.8-0.9,1.3-2.4,1.7c-1.1,0.3-2.1,0.6-3,0.8c-1,0.3-1.9,0.5-2.7,0.8c0.2,0.1,0.3,0.2,0.5,0.3
				c0.2,0.1,0.4,0.2,0.6,0.3c1.1,0.5,1.8,1,2.2,1.4c0.4,0.4,0.6,0.8,0.6,1.2c0,0.4-0.2,0.7-0.5,1c-0.4,0.3-0.8,0.6-1.2,0.8
				c-0.7,0.4-1.3,1.1-1.8,2.1c-0.5,1.1-1.1,2.5-1.7,4.4c0.7-0.3,1.2-0.5,1.5-0.7s0.7-0.3,1-0.3s0.6-0.1,0.9-0.1c0.3,0,0.6,0.1,1,0.2
				c1.5,0.4,2.2,0.9,2.2,1.7S105.3,32.9,104,33.2z M93.4,30.7c0,0.7-0.1,1.3-0.4,1.9c1.3-0.3,2.3-0.5,3.1-0.7
				c0.8-3.3,1.3-5.7,1.5-7.4c0.2-1.7,0.1-2.9-0.2-3.8c-0.1-0.1-0.1-0.2-0.1-0.3c0-0.1-0.1-0.2-0.1-0.3c-3.4,0.8-6.2,1.1-8.2,1.1
				c1.6,2.2,2.7,4,3.4,5.3C93,28,93.4,29.3,93.4,30.7z M101.4,10.7c0,0.8-0.2,1.4-0.5,1.9s-0.7,0.9-1.1,1.2c-0.5,0.3-1,0.4-1.5,0.4
				c-0.6,0-1.1-0.2-1.7-0.6c-0.9-0.7-1.7-1.5-2.5-2.4c-0.8-0.9-1.4-1.8-2-2.7c-0.6-0.8-1-1.3-1.2-1.7c-0.3-0.4-0.3-0.7-0.2-0.9
				c0.1-0.2,0.4-0.3,0.9-0.3c0.5,0,1.2,0,2.2,0c2.9,0,4.9,0.4,6,1.2C100.8,7.5,101.3,8.8,101.4,10.7z M146.3,53.1
				c2.8,1,4.1,1.8,4,2.3c-0.1,0.5-1.2,0.9-3.3,1.2c-3,0.5-5.4,0.8-7.2,1c-1.8,0.2-3.2,0.3-4.3,0.2c-1.1-0.1-1.9-0.4-2.5-0.9
				c-0.6-0.5-1.3-1.2-2.1-2.1c-1.3-1.5-2.5-3-3.7-4.6c-1.2-1.6-2.6-3.4-4.3-5.5c0,1.5,0.1,2.9,0.1,4.1s0,2.3,0.2,3.2
				c0,1.8,0.1,3.3,0.1,4.6c0,1.3,0,2.5-0.1,3.5c-0.1,1.1-0.2,2-0.3,2.9c-0.1,0.9-0.3,1.8-0.5,2.7c-0.5,2.1-1.3,3.3-2.3,3.6
				c-1,0.3-2.3-0.6-3.7-2.5c-0.6-0.8-1.1-1.4-1.4-2c-0.3-0.6-0.5-1.2-0.6-1.8s0-1.2,0.2-1.9s0.4-1.5,0.8-2.4c0.4-0.8,0.7-2.3,1-4.6
				c0.3-2.3,0.4-5.5,0.5-9.5c-1,1.9-2.1,3.5-3.2,4.9c-1.1,1.4-2.3,2.6-3.6,3.7c-1.3,1.1-2.7,2-4.3,2.9c-1.5,0.8-3.2,1.6-5,2.2
				c-2.6,1-4,1.2-4.2,0.8c-0.2-0.4,0.9-1.5,3.1-3.3c2.9-2.3,5.4-4.8,7.6-7.5c2.2-2.7,4.3-5.9,6.3-9.6l-1.1,0.2
				c-0.8,1.5-1.5,2.2-2.3,2.2c-0.8,0-1.4-0.9-1.8-2.6c-0.6-2-1.1-3.8-1.6-5.3c-0.5-1.6-1-2.6-1.4-3.2c-1.2-1.7-1.6-2.7-1.1-2.9
				c0.5-0.3,2.1-0.2,4.8,0.2c1.2-0.2,2.4-0.4,3.7-0.6c1.3-0.2,2.6-0.5,4-0.8V21c-1.9,0.2-3.5,0.1-4.9-0.2c-1.9-0.5-2.9-0.9-2.8-1.4
				c0-0.5,1.1-0.9,3.2-1.4c0.6-0.1,1.3-0.3,2.1-0.5c0.8-0.2,1.6-0.5,2.4-0.8c0-2.1,0-3.8-0.1-5.1c-0.1-1.3-0.1-2.4-0.2-3.2
				c-0.1-0.8-0.3-1.4-0.5-1.8c-0.2-0.4-0.5-0.8-0.8-1.2c-1.6-1.9-2.1-3.1-1.5-3.7c0.6-0.6,2.6-0.4,6.2,0.7c1.5,0.5,2.6,0.9,3.4,1.3
				c0.8,0.4,1.3,0.8,1.6,1.2c0.3,0.4,0.3,0.8,0.2,1.3c-0.2,0.5-0.4,1-0.8,1.7c-0.3,0.5-0.5,1.2-0.6,2.4s-0.2,2.4-0.2,4
				c1.6-0.9,2.8-1.4,3.8-1.6c1-0.2,2.2-0.1,3.5,0.2c1.9,0.5,2.7,1.2,2.5,2c-0.3,0.8-1.4,1.6-3.5,2.4c-1.3,0.5-2.5,0.9-3.6,1.3
				c-1.1,0.4-2.1,0.7-3,1l-0.2,5c1.4-0.4,2.6-0.8,3.5-1.1c1-0.3,1.6-0.6,1.9-0.8c0.7-0.5,1.2-0.8,1.7-1.1c0.5-0.3,1-0.4,1.5-0.5
				c0.5,0,1.1,0,1.7,0.2c0.6,0.2,1.4,0.4,2.3,0.8c1.6,0.6,2.7,1.1,3.5,1.5c0.8,0.5,1.3,0.9,1.5,1.3c0.2,0.4,0.1,0.8-0.3,1.2
				c-0.4,0.4-1,0.8-1.8,1.3c-1.2,0.7-2.1,1.3-2.7,1.9c-0.6,0.6-1.2,1.3-1.8,2.1c1.7,0.9,2.3,1.7,2,2.4c-0.4,0.8-1.8,1.4-4.4,1.8
				c-1.6,0.3-3.2,0.5-4.6,0.7c-1.5,0.2-3,0.5-4.4,0.7v1.8c2.6,2.4,4.8,4.3,6.7,5.7c1.9,1.5,3.7,2.7,5.3,3.7c1.7,1,3.4,1.8,5.2,2.5
				C141.9,51.5,143.9,52.3,146.3,53.1z M116.9,29.1c-0.8,0.1-1.5,0.2-2.4,0.4c-0.8,0.2-1.7,0.3-2.6,0.5c0.3,0.9,0.5,1.8,0.6,2.7
				c0.2,0.9,0.3,1.7,0.5,2.6c0.7-0.2,1.4-0.3,2-0.5c0.6-0.2,1.3-0.3,1.9-0.4V29.1z M123,33.2c1-0.2,1.9-0.4,2.7-0.6
				c0.8-0.2,1.5-0.3,2.2-0.5c0.7-0.7,1.1-1.7,1.2-3.1c0.2-1,0.2-1.5,0-1.8c-0.2-0.2-0.7-0.3-1.5-0.1c-0.5,0.1-1.1,0.2-1.9,0.3
				c-0.8,0.1-1.7,0.3-2.7,0.5V33.2z"/>
			<path class="st1" d="M209.8,49.1c-4.1,1.7-7.2,2.7-9.4,3c-2.2,0.4-3.9,0.3-5-0.3c-0.1,1-0.1,2,0,3c0,1.9,0.3,3.1,0.8,3.7
				s1.3,1.1,2.5,1.3c1.1,0.3,2.3,0.3,3.8,0.3s3.1-0.3,4.8-0.7c0.8-0.2,1.4-0.4,1.9-0.6s1-0.6,1.4-1.1c0.4-0.5,0.8-1.1,1.2-1.9
				c0.3-0.8,0.7-1.8,1-3.1c0.7-2.6,1.4-3.9,2-3.9s1,1.4,1.3,4.3c0.2,1.7,0.3,3,0.6,4.1c0.2,1.1,0.6,1.9,1.2,2.5
				c1.1,1.3,1.4,2.4,0.9,3.4c-0.4,1-1.8,1.9-4.3,2.6c-3.4,1-6.7,1.5-10,1.6c-3.2,0-6.5-0.6-9.9-2c-2.2-0.9-3.6-2.5-4.2-4.7
				c-0.6-2.3-0.7-5.4-0.5-9.3c-1.5,1.2-2.9,2.2-4.5,3c-1.5,0.9-3,1.6-4.4,2.3c-1.4,0.7-2.7,1.1-4,1.5c-1.2,0.3-2.2,0.5-2.9,0.5
				c-0.1,1.6-0.3,3-0.5,4.3c-0.2,1.2-0.5,2.3-1,3.3c-0.8,1.8-1.7,2.7-2.9,2.7c-1.2,0-2.2-0.9-3.2-2.9c-0.5-1-0.9-1.8-1.1-2.6
				c-0.3-0.8-0.4-1.5-0.4-2.3s0.1-1.6,0.4-2.6c0.3-0.9,0.6-2,1.1-3.4c0.2-0.5,0.4-1.2,0.6-2.2c0.2-1,0.4-2.1,0.6-3.4
				c0.2-1.3,0.4-2.7,0.5-4.3c0.2-1.6,0.3-3.2,0.4-4.8c0.1-1.8,0.2-3.3,0.2-4.5c0-1.3,0-2.4,0-3.4c-1.1,1.3-2.2,2.5-3.2,3.5
				c-1,1-2,1.9-3.1,2.7c-1,0.8-2.1,1.5-3.2,2.1c-1.1,0.6-2.2,1.2-3.4,1.7c-2.6,1.1-4,1.5-4.3,1.2c-0.3-0.3,0.4-1.3,2.2-3.1
				c2.9-2.8,5.4-5.7,7.5-8.6c2.1-2.9,4-5.9,5.7-9.1c1.6-2.9,2.8-5.5,3.6-7.9c0.8-2.4,1-4.2,0.5-5.4c-0.4-1-0.6-1.8-0.5-2.5
				s0.4-1.1,0.9-1.3c0.5-0.2,1.3-0.1,2.3,0.3c1,0.4,2.3,1.1,4,2.1c1.4,0.9,2.4,1.7,3,2.4s1,1.3,1.2,1.9c0.1,0.6,0,1.1-0.3,1.5
				c-0.3,0.5-0.8,0.9-1.5,1.3c-0.5,0.3-1,0.9-1.7,1.8c-0.7,0.9-1.6,2.4-2.7,4.5c-1,1.8-2,3.5-3,5.1c1.4,1,2.1,2,2.3,3.1
				c0.2,1.1,0.1,2.5-0.3,4.3c-0.1,0.3-0.1,0.5-0.1,0.8c0,0.3,0,0.6,0,0.9c0.4-0.3,1.1-0.4,2.3-0.5c0.8,0,1.6-0.1,2.3-0.2
				c0.7,0,1.5-0.1,2.4-0.3c0.9-0.1,1.8-0.3,3-0.5c1.1-0.2,2.5-0.4,4.1-0.7c0.5-0.1,0.8-0.2,1.1-0.2c0.2,0,0.5-0.1,0.8-0.1l0.3-8.1
				c-1.4,0.1-2.5,0.1-3.5,0.1c-1,0-1.7-0.1-2.1-0.3c-1.7-0.7-2.5-1.3-2.6-1.7c-0.1-0.4,0.7-0.7,2.1-0.9c2.2-0.3,4.2-0.8,6.3-1.4
				c0.2-3.9,0-6.9-0.3-9c-0.4-2.1-0.9-3.6-1.6-4.6C188,6,187.6,5,188.2,4.6c0.6-0.4,2.5-0.2,6,0.8c1.6,0.5,2.8,0.9,3.6,1.3
				c0.9,0.4,1.5,0.9,1.8,1.3c0.4,0.5,0.5,0.9,0.5,1.4c-0.1,0.5-0.3,1-0.6,1.6c-0.5,0.7-0.8,1.8-1.1,3.2c-0.3,1.5-0.5,3.1-0.6,5
				c0.9-0.3,1.6-0.4,2.4-0.3s1.5,0.2,2.4,0.4c1.5,0.4,2.1,1,1.9,1.9c-0.2,0.9-1,1.5-2.4,2c-0.8,0.3-1.5,0.5-2.2,0.7
				c-0.7,0.2-1.5,0.4-2.3,0.6l-0.4,8c0.3-0.1,0.6-0.2,0.9-0.2c0.3,0,0.6-0.1,0.9-0.2c1.8-2.9,3.2-5.2,4.2-7.1s1.7-3.4,2.1-4.5
				c0.5-1.1,0.7-2,0.8-2.6c0-0.6,0-1.2-0.2-1.6c-0.6-2.1-0.5-3.3,0.3-3.6c0.8-0.3,2.5,0.5,5.1,2.3c1.2,0.9,2.1,1.6,2.7,2.2
				c0.6,0.6,1,1.1,1.1,1.6c0.2,0.5,0.1,0.9-0.2,1.3c-0.3,0.4-0.6,0.8-1.1,1.2c-1,0.8-2,1.8-3.1,3.3c-1.1,1.4-2.4,3.4-3.9,5.8
				c0.9-0.2,1.7-0.4,2.4-0.6c0.8-0.2,1.5-0.4,2.2-0.6c2.7-0.8,4.7-1.1,6.2-0.9c1.5,0.2,2.8,0.8,3.9,2c1.6,1.6,2.2,2.8,1.8,3.5
				c-0.3,0.7-1.6,1-4,0.9c-2.8-0.1-5.4-0.1-8,0c-2.6,0.1-5.1,0.3-7.5,0.5c-1.1,1.7-2.2,3.3-3.4,4.9c-1.2,1.6-2.4,3.2-3.8,4.7
				c-0.2,0.6-0.4,1.3-0.6,2c-0.2,0.7-0.3,1.5-0.4,2.3c1.5-0.3,2.7-0.6,3.7-1c1-0.4,2.1-0.8,3.1-1.4c1.8-1,3.1-1.5,4.1-1.7
				s2,0,3.1,0.5c1,0.5,1.5,1.2,1.5,2C211.2,48.1,210.8,48.7,209.8,49.1z M189,44.6c0.6-0.6,1.2-1.2,1.8-2s1.4-1.6,2-2.4
				c0.7-0.8,1.3-1.6,1.9-2.3s1.1-1.3,1.4-1.8c-2.6,0.5-5,0.9-7.3,1.5s-4.6,1.1-6.9,1.7c-0.8,0.2-1.4,0.4-1.8,0.5
				c-0.5,0.1-0.9,0.1-1.2,0.1s-0.6-0.1-0.9-0.3c-0.3-0.2-0.7-0.4-1.1-0.7c-1.1-0.8-1.7-1.4-2-1.8c-0.1,1.4-0.1,3-0.2,4.9
				c-0.1,1.9-0.1,3.8-0.2,5.8c-0.1,1.9-0.1,3.7-0.2,5.3c-0.1,1.6-0.1,2.7-0.1,3.4c0.6-0.5,1.2-0.9,1.8-1.3c1-0.7,2.1-1.5,3.4-2.4
				c1.3-1,2.5-2,3.8-3c1.2-1,2.4-2,3.4-2.9C187.7,45.9,188.5,45.2,189,44.6z"/>
		</g>
	</g>
</g>
</svg>
