<svg xmlns="http://www.w3.org/2000/svg" viewBox="0 0 341.78 37.8"><defs><style>.cls-1{fill:#95272b;}</style></defs><title>Asset 1</title><g id="Layer_2" data-name="Layer 2"><g id="Layer_1-2" data-name="Layer 1"><path class="cls-1" d="M15.62,28.92h15V36.8H0L17,8.88H2.85V1H32.48Z"/><path class="cls-1" d="M57.32,8.88H46.25v6H56.7v7.89H46.25v6.17H57.32V36.8H37V1H57.32Z"/><path class="cls-1" d="M70,1l6.17,23.12L83.77,1h7.41l7.6,23.12L105,1h9.74L104,36.8H94.5l-7-20.75-7,20.75H71L60.26,1Z"/><path class="cls-1" d="M138.81,8.88H127.74v6h10.45v7.89H127.74v6.17h11.07V36.8H118.44V1h20.37Z"/><path class="cls-1" d="M154.81,1V36.8H145.5V1Z"/><path class="cls-1" d="M187.77,14.82h13.44V1h9.31V36.8h-9.31V22H187.77V36.8h-9.31V1h9.31Z"/><path class="cls-1" d="M216.41,18.9a18.7,18.7,0,0,1,1.47-7.43,18.31,18.31,0,0,1,10.33-10,22.74,22.74,0,0,1,16,0,18.87,18.87,0,0,1,6.29,4,18.42,18.42,0,0,1,4.11,6,18.7,18.7,0,0,1,1.47,7.43,18.7,18.7,0,0,1-1.47,7.43,18.42,18.42,0,0,1-4.11,6,18.87,18.87,0,0,1-6.29,4,22.74,22.74,0,0,1-16,0,18.31,18.31,0,0,1-10.33-10A18.7,18.7,0,0,1,216.41,18.9Zm9.73,0a9.48,9.48,0,0,0,.81,3.94,9.77,9.77,0,0,0,5.39,5.2,10.38,10.38,0,0,0,11-2.06,9.86,9.86,0,0,0,2.21-3.14,10.1,10.1,0,0,0,0-7.88,10,10,0,0,0-2.21-3.14,10.43,10.43,0,0,0-11-2.06A9.77,9.77,0,0,0,227,15,9.51,9.51,0,0,0,226.14,18.9Z"/><path class="cls-1" d="M262,36.8V1h9.3l17.2,21.89V1h9.26V36.8h-9.26l-17.2-21.89V36.8Z"/><path class="cls-1" d="M323.3,16.76h18.48a50.83,50.83,0,0,1-.24,5.18,18.69,18.69,0,0,1-1,4.32,17.32,17.32,0,0,1-2.71,5,15.64,15.64,0,0,1-4,3.61A18.55,18.55,0,0,1,328.81,37a21.58,21.58,0,0,1-5.79.76,20.27,20.27,0,0,1-7.62-1.38,17,17,0,0,1-5.92-3.87,17.42,17.42,0,0,1-3.84-6,20.84,20.84,0,0,1-1.38-7.72,21.13,21.13,0,0,1,1.35-7.67,16.93,16.93,0,0,1,3.85-6,17.51,17.51,0,0,1,6-3.84A21.24,21.24,0,0,1,323.3,0a19.47,19.47,0,0,1,9.83,2.42,16.82,16.82,0,0,1,6.7,7.51L331,13.58a9,9,0,0,0-3.21-4.22,8,8,0,0,0-4.49-1.29,8.91,8.91,0,0,0-3.8.79,8.17,8.17,0,0,0-2.92,2.23,10.93,10.93,0,0,0-1.9,3.49,14.18,14.18,0,0,0-.69,4.56,14.2,14.2,0,0,0,.6,4.22,9.5,9.5,0,0,0,1.78,3.38,8,8,0,0,0,2.94,2.2,9.85,9.85,0,0,0,4.09.79,11.19,11.19,0,0,0,2.66-.31,7.11,7.11,0,0,0,2.3-1,5.76,5.76,0,0,0,1.69-1.78A7.19,7.19,0,0,0,331,24H323.3Z"/></g></g></svg>
